<svg viewBox="0 0 78 78" fill="none" xmlns="http://www.w3.org/2000/svg">
<path d="M49.277 6.08128L49.2772 6.08153C49.7945 6.72315 50.0706 7.59941 50.6853 9.62409L50.6854 9.62445L63.541 51.8528C58.9334 49.5843 54.0314 47.9669 48.9755 47.0483L40.4726 18.3116C40.4725 18.3114 40.4725 18.3111 40.4724 18.3109C40.3741 17.9752 40.1697 17.6804 39.8897 17.4708C39.6095 17.261 39.2687 17.1478 38.9187 17.1482C38.5687 17.1486 38.2282 17.2626 37.9485 17.473C37.6688 17.6834 37.465 17.9788 37.3675 18.3149C37.3675 18.315 37.3675 18.3151 37.3674 18.3152L28.9669 47.0334C23.888 47.9487 18.9633 49.5688 14.3352 51.8456L27.251 9.61619C27.8707 7.59407 28.1465 6.71915 28.6634 6.07701C29.1333 5.49605 29.7437 5.04466 30.4368 4.76561C31.1986 4.45994 32.1176 4.45119 34.2329 4.45119H43.7044C45.8214 4.45119 46.7402 4.45997 47.5048 4.76783L47.505 4.76791C48.1984 5.04674 48.8082 5.4989 49.277 6.08128Z" fill="url(#paint0_linear_327_6)" stroke="#9F1111"/>
<path d="M26.9807 57.8043L26.9807 57.8046L26.9806 57.8055L26.9802 57.814L26.9786 57.8528C26.9773 57.8883 26.9757 57.9425 26.975 58.0138C26.9735 58.1565 26.9752 58.3673 26.9883 58.633C27.0146 59.1648 27.0867 59.9133 27.2698 60.7729C27.5845 62.2507 28.2225 64.0352 29.5005 65.6161C29.5398 65.4834 29.5861 65.3525 29.6392 65.2242C29.8381 64.7442 30.1295 64.3081 30.4969 63.9407C30.8643 63.5734 31.3005 63.282 31.7805 63.0833C32.2605 62.8845 32.7749 62.7823 33.2944 62.7824L26.9807 57.8043ZM26.9807 57.8043L26.9807 57.8041L26.9807 57.8043ZM27.2864 54.689C28.2119 55.7229 29.6785 56.5782 31.4437 57.2126C33.7302 58.0343 36.6093 58.5192 39.7258 58.5192C44.3663 58.5192 48.5256 57.4427 50.9603 55.7393C51.1147 56.4056 51.1927 57.0882 51.1921 57.7738L51.1921 57.7748C51.1937 59.2683 50.8217 60.7384 50.1099 62.0514L50.1098 62.0517C48.7856 64.4985 46.8679 65.7225 45.0449 66.8776L45.0448 66.8777L45.0074 66.9014C43.8897 67.6101 42.7713 68.3193 41.9441 69.2895C41.0854 70.2967 40.5543 71.5638 40.5542 73.3554C40.5542 73.3556 40.5542 73.3558 40.5542 73.356H41.0542L27.2864 54.689ZM27.2864 54.689C27.046 55.813 26.9816 56.9616 26.9816 57.7742V57.7894L27.2864 54.689ZM40.8404 75.4267C38.5728 74.0268 37.0625 71.5198 37.0625 68.6595L37.0625 68.4553L37.0625 68.4547L37.0626 68.4036C37.0639 67.2817 37.0654 65.906 36.6196 64.8106C36.3864 64.2374 36.0234 63.7183 35.4615 63.3473C34.9011 62.9772 34.1855 62.7824 33.2945 62.7824L40.8404 75.4267Z" fill="url(#paint1_linear_327_6)" stroke="#9C1919"/>
<defs>
<linearGradient id="paint0_linear_327_6" x1="38.9372" y1="3.95119" x2="38.9372" y2="52.8273" gradientUnits="userSpaceOnUse">
<stop stop-color="#9C1919"/>
<stop offset="1" stop-color="#570C0C"/>
</linearGradient>
<linearGradient id="paint1_linear_327_6" x1="39.0833" y1="53.5366" x2="39.0833" y2="76.4625" gradientUnits="userSpaceOnUse">
<stop stop-color="#9C1919"/>
<stop offset="1" stop-color="#570C0C"/>
</linearGradient>
</defs>
</svg>
