<svg viewBox="0 0 74 74" fill="none" xmlns="http://www.w3.org/2000/svg">
<path d="M67.0625 1.73437H6.9375C5.57331 1.72048 4.25932 2.24835 3.28386 3.20213C2.3084 4.15591 1.75115 5.45771 1.73438 6.82187V67.1897C1.75418 68.5518 2.31277 69.8507 3.2879 70.802C4.26302 71.7532 5.57528 72.2795 6.9375 72.2656H67.0625C68.4268 72.2764 69.7399 71.7468 70.7148 70.7924C71.6898 69.838 72.2473 68.5365 72.2656 67.1723V6.80452C72.2413 5.44436 71.6811 4.14877 70.7068 3.19937C69.7325 2.24997 68.4228 1.72349 67.0625 1.73437Z" fill="#9F1111"/>
<path d="M12.1753 28.172H22.6451V61.8594H12.1753V28.172ZM17.4131 11.4064C18.614 11.4064 19.7878 11.7626 20.7862 12.4298C21.7846 13.0971 22.5626 14.0455 23.0219 15.155C23.4812 16.2646 23.6011 17.4854 23.3664 18.6631C23.1317 19.8408 22.553 20.9224 21.7034 21.7711C20.8539 22.6198 19.7717 23.1975 18.5938 23.4311C17.4159 23.6647 16.1952 23.5436 15.0861 23.0833C13.977 22.623 13.0293 21.844 12.363 20.845C11.6967 19.846 11.3417 18.6718 11.3428 17.4709C11.3443 15.862 11.9846 14.3195 13.1228 13.1823C14.261 12.0452 15.8042 11.4064 17.4131 11.4064ZM29.2126 28.172H39.2489V32.797H39.3876C40.7867 30.1492 44.1977 27.3569 49.2909 27.3569C59.8937 27.3337 61.8594 34.3117 61.8594 43.3594V61.8594H51.3895V45.4695C51.3895 41.5672 51.3202 36.5433 45.9494 36.5433C40.5786 36.5433 39.6652 40.7983 39.6652 45.2152V61.8594H29.2126V28.172Z" fill="#F99797"/>
</svg>
