<svg viewBox="0 0 72 72" fill="none" xmlns="http://www.w3.org/2000/svg">
<path fill-rule="evenodd" clip-rule="evenodd" d="M37.0156 2.87044C17.6971 2.87044 2.03174 18.5323 2.03174 37.8543C2.03174 53.3116 12.0557 66.4245 25.9558 71.0509C27.7036 71.3753 28.3455 70.292 28.3455 69.368C28.3455 68.5338 28.3131 65.778 28.298 62.8547C18.5655 64.971 16.5118 58.7271 16.5118 58.7271C14.9204 54.6835 12.6275 53.6082 12.6275 53.6082C9.4528 51.437 12.8667 51.4822 12.8667 51.4822C16.3791 51.7284 18.2295 55.0872 18.2295 55.0872C21.3497 60.4343 26.4135 58.8887 28.4098 57.9954C28.7238 55.7343 29.6304 54.1905 30.6309 53.3168C22.8605 52.4334 14.6916 49.4331 14.6916 36.0283C14.6916 32.2088 16.0588 29.088 18.2967 26.6375C17.9329 25.757 16.7354 22.1988 18.635 17.38C18.635 17.38 21.5721 16.4398 28.2575 20.966C31.0486 20.1903 34.0419 19.8004 37.0156 19.7871C39.9875 19.8004 42.9826 20.1891 45.7789 20.9648C52.4561 16.4386 55.3898 17.3789 55.3898 17.3789C57.294 22.1971 56.0966 25.7558 55.7333 26.6364C57.9765 29.0869 59.3338 32.2077 59.3338 36.0271C59.3338 49.4638 51.1498 52.4218 43.3597 53.2885C44.6151 54.3741 45.7332 56.5037 45.7332 59.767C45.7332 64.4479 45.6926 68.2152 45.6926 69.3674C45.6926 70.2984 46.3229 71.3892 48.0956 71.0457C61.9876 66.4146 72 53.3058 72 37.8543C71.9994 18.5334 56.3358 2.87044 37.0156 2.87044Z" fill="#9F1111"/>
<path d="M15.2819 53.099C15.2049 53.2728 14.9314 53.325 14.6823 53.2062C14.4274 53.0927 14.2855 52.8557 14.3677 52.6813C14.443 52.5018 14.7171 52.4525 14.9702 52.5724C15.2251 52.6866 15.37 52.9258 15.2813 53.0996L15.2819 53.099ZM16.6989 54.68C16.5326 54.8347 16.2065 54.7628 15.9852 54.5178C15.7558 54.2745 15.7129 53.9483 15.8827 53.7913C16.0553 53.6372 16.3716 53.7102 16.601 53.9535C16.8293 54.2003 16.8744 54.5236 16.6995 54.6806L16.6989 54.68ZM18.0788 56.6943C17.8645 56.8437 17.5134 56.7041 17.2968 56.393C17.0824 56.0814 17.0824 55.7077 17.3026 55.5588C17.5186 55.4094 17.8645 55.5443 18.0846 55.8525C18.2978 56.1683 18.2978 56.5425 18.0788 56.6943ZM19.968 58.6414C19.7768 58.8528 19.3678 58.796 19.0689 58.5081C18.7636 58.226 18.6784 57.8245 18.8702 57.6137C19.0648 57.4016 19.4756 57.4607 19.7762 57.7469C20.0815 58.0285 20.1737 58.4305 19.9692 58.6408L19.968 58.6414ZM22.5749 59.7716C22.4898 60.0456 22.097 60.1702 21.7002 60.0532C21.3045 59.9332 21.0455 59.6129 21.1266 59.336C21.2077 59.0596 21.6034 58.9304 22.0026 59.055C22.3982 59.1743 22.6572 59.493 22.5749 59.7716ZM25.4385 59.9808C25.4483 60.2693 25.1123 60.5079 24.697 60.5137C24.2781 60.5236 23.9392 60.2895 23.9352 60.0057C23.9352 59.7143 24.2642 59.4785 24.6825 59.4704C25.0979 59.4628 25.4391 59.6946 25.4391 59.9802L25.4385 59.9808ZM28.1022 59.5277C28.152 59.8087 27.8629 60.0978 27.4499 60.1748C27.0444 60.2501 26.6678 60.0752 26.6157 59.7965C26.5659 59.508 26.8601 59.2189 27.2657 59.1442C27.6793 59.073 28.0501 59.2421 28.1022 59.5277Z" fill="#9F1111"/>
</svg>
