<svg viewBox="0 0 78 78" fill="none" xmlns="http://www.w3.org/2000/svg">
<path d="M38.6289 7.46363C36.0561 7.47581 33.6003 7.69458 31.4383 8.07727C25.0703 9.20217 23.9149 11.5568 23.9149 15.8998V21.6346H38.9622V23.5463H18.2672C13.8944 23.5463 10.065 26.1745 8.86702 31.1762C7.48495 36.9074 7.42402 40.4844 8.86702 46.4691C9.93647 50.9243 12.491 54.0979 16.8645 54.0979H22.0387V47.2229C22.0387 42.2559 26.3354 37.8751 31.4389 37.8751H46.4691C50.6531 37.8751 53.9925 34.4297 53.9925 30.2287V15.9004C53.9925 11.8219 50.5519 8.75855 46.4691 8.07788C43.8829 7.64766 41.2011 7.45205 38.6289 7.46363ZM30.4913 12.076C32.0452 12.076 33.3151 13.366 33.3151 14.9528C33.3151 16.533 32.0458 17.8108 30.4913 17.8108C28.9313 17.8108 27.6681 16.533 27.6681 14.9528C27.6675 13.366 28.9313 12.076 30.4913 12.076Z" fill="url(#paint0_linear_327_29)"/>
<path d="M55.8687 23.5462V30.2287C55.8687 35.4083 51.4763 39.7684 46.4685 39.7684H31.4383C27.3213 39.7684 23.9149 43.2924 23.9149 47.4155V61.7449C23.9149 65.8222 27.4603 68.2214 31.4383 69.3907C36.2011 70.7905 40.769 71.044 46.4685 69.3907C50.2564 68.2933 53.9918 66.0861 53.9918 61.7449V56.0095H38.9622V54.0973H61.5164C65.8893 54.0973 67.52 51.0473 69.041 46.4685C70.6119 41.755 70.5443 37.2218 69.041 31.1756C67.9599 26.8216 65.896 23.5456 61.5164 23.5456L55.8687 23.5462ZM47.4149 59.8327C48.9755 59.8327 50.2387 61.1106 50.2387 62.6919C50.2387 64.2775 48.9749 65.5675 47.4149 65.5675C45.861 65.5675 44.5916 64.2775 44.5916 62.6919C44.5916 61.1106 45.861 59.8327 47.4149 59.8327Z" fill="url(#paint1_linear_327_29)"/>
<defs>
<linearGradient id="paint0_linear_327_29" x1="6.29904" y1="9.25679" x2="41.0052" y2="38.8541" gradientUnits="userSpaceOnUse">
<stop stop-color="#9F1111"/>
<stop offset="1" stop-color="#570C0C"/>
</linearGradient>
<linearGradient id="paint1_linear_327_29" x1="54.0631" y1="57.2522" x2="41.6169" y2="39.7984" gradientUnits="userSpaceOnUse">
<stop stop-color="#570C0C"/>
<stop offset="1" stop-color="#9F1111"/>
</linearGradient>
</defs>
</svg>
