<svg viewBox="0 0 135 136" fill="none" xmlns="http://www.w3.org/2000/svg">
<path d="M86.7475 102.006C87.2381 101.747 87.7824 102.316 87.4873 102.806C87.1989 103.284 86.2275 103.543 85.7254 103.671C83.8535 104.15 81.9286 103.704 80.1822 102.966C74.9321 100.748 70.5977 96.0819 66.9481 91.7886C56.9617 80.0413 48.9728 65.4191 45.4623 50.2119C44.3573 45.4251 42.6117 36.1616 47.8312 33.1128C53.1669 29.9963 60.5911 36.8674 64.0616 40.3287C75.576 51.8124 84.4368 67.2098 88.9927 82.9468C90.4753 88.0678 93.3063 99.664 87.2868 103.003C86.8239 103.26 86.2789 102.763 86.5068 102.266C86.7566 101.721 87.6702 101.313 88.0554 100.791C89.0226 99.4818 89.3485 97.7812 89.4309 96.177C89.6997 90.942 87.9074 85.5718 86.0958 80.7576C81.1113 67.5119 72.1802 51.3002 62.7069 40.885C59.7718 37.6582 53.1223 30.9624 48.2499 33.6732C42.6314 36.799 46.2148 48.2196 47.7886 52.7144C52.509 66.195 62.5031 83.6207 71.9466 94.2119C74.955 97.586 81.6579 104.688 86.7475 102.006Z" fill="url(#paint0_linear_345_33)"/>
<path d="M86.6686 34.1549C86.204 33.8504 86.4142 33.0848 86.9772 33.1008C87.5273 33.1164 88.2323 33.8462 88.5923 34.226C89.9343 35.6418 90.5184 37.567 90.7658 39.4801C91.5098 45.2314 89.7191 51.3973 87.9025 56.7712C82.932 71.4753 74.5243 85.8506 63.3812 96.5584C59.8737 99.9289 52.8895 106.104 47.6938 103.013C42.3826 99.8533 44.4984 89.8529 45.6989 85.0535C49.6819 69.13 58.3111 53.596 69.3808 41.699C72.9831 37.8275 81.4031 29.5261 87.2448 33.1794C87.694 33.4603 87.5449 34.1908 87.0094 34.2378C86.4224 34.2893 85.6196 33.6854 84.9846 33.6056C83.3904 33.4051 81.785 33.9672 80.3832 34.6964C75.8086 37.0763 72.15 41.3461 68.9725 45.3552C60.2301 56.3856 50.9453 72.3888 46.8481 85.9733C45.5788 90.182 43.2243 99.4097 47.9598 102.363C53.4202 105.768 61.3152 96.8892 64.3406 93.2501C73.4143 82.3358 83.1972 64.7856 87.4586 51.1396C88.8162 46.7923 91.4882 37.3144 86.6686 34.1549Z" fill="url(#paint1_linear_345_33)"/>
<path d="M105.891 68.057C105.917 67.4939 106.671 67.297 106.939 67.8028C107.201 68.2971 106.935 69.2854 106.793 69.7936C106.263 71.6882 104.922 73.1672 103.423 74.3426C98.9168 77.8761 92.7918 79.3756 87.3256 80.4563C72.3686 83.4131 55.9721 83.1662 41.3185 78.6667C36.706 77.2504 27.9761 74.1623 28 68.0225C28.0245 61.7461 37.5645 58.6169 42.2355 57.2787C57.7328 52.8388 75.2229 52.7023 90.8485 56.5422C95.9333 57.7918 107.184 61.0866 107.007 68.0787C106.993 68.6164 106.299 68.8499 105.991 68.3998C105.654 67.9065 105.765 66.8947 105.515 66.2932C104.888 64.7833 103.608 63.6448 102.289 62.7699C97.9832 59.9147 92.5324 58.8144 87.5432 58.0093C73.8164 55.794 55.6006 55.5855 42.03 58.7548C37.8255 59.7367 28.8217 62.2686 28.6846 67.9325C28.5266 74.4636 40.0049 77.0053 44.6042 77.8609C58.3983 80.4273 78.1753 80.3027 91.8801 77.2479C96.2462 76.2747 105.621 73.8985 105.891 68.057Z" fill="url(#paint2_linear_345_33)"/>
<g filter="url(#filter0_d_345_33)">
<path d="M76.4807 68.0847C76.4807 73.1185 72.4841 77.1992 67.5541 77.1992C62.6241 77.1992 58.6276 73.1185 58.6276 68.0847C58.6276 63.051 62.6241 58.9703 67.5541 58.9703C72.4841 58.9703 76.4807 63.051 76.4807 68.0847Z" fill="url(#paint3_linear_345_33)"/>
</g>
<ellipse cx="58.6276" cy="99.7574" rx="3.90536" ry="3.98757" fill="url(#paint4_linear_345_33)"/>
<ellipse cx="45.2378" cy="38.5767" rx="3.90536" ry="3.98757" fill="url(#paint5_linear_345_33)"/>
<ellipse cx="103.149" cy="62.9578" rx="3.90536" ry="3.98757" fill="url(#paint6_linear_345_33)"/>
<defs>
<filter id="filter0_d_345_33" x="0.627563" y="0.970276" width="133.853" height="134.229" filterUnits="userSpaceOnUse" color-interpolation-filters="sRGB">
<feFlood flood-opacity="0" result="BackgroundImageFix"/>
<feColorMatrix in="SourceAlpha" type="matrix" values="0 0 0 0 0 0 0 0 0 0 0 0 0 0 0 0 0 0 127 0" result="hardAlpha"/>
<feOffset/>
<feGaussianBlur stdDeviation="29"/>
<feComposite in2="hardAlpha" operator="out"/>
<feColorMatrix type="matrix" values="0 0 0 0 0 0 0 0 0 0 0 0 0 0 0 0 0 0 0.7 0"/>
<feBlend mode="normal" in2="BackgroundImageFix" result="effect1_dropShadow_345_33"/>
<feBlend mode="normal" in="SourceGraphic" in2="effect1_dropShadow_345_33" result="shape"/>
</filter>
<linearGradient id="paint0_linear_345_33" x1="47.7625" y1="33.1533" x2="49.5011" y2="118.588" gradientUnits="userSpaceOnUse">
<stop stop-color="#9C1919"/>
<stop offset="1" stop-color="#2F0707"/>
</linearGradient>
<linearGradient id="paint1_linear_345_33" x1="47.7625" y1="103.054" x2="120.184" y2="60.1966" gradientUnits="userSpaceOnUse">
<stop stop-color="#9C1919"/>
<stop offset="1" stop-color="#2F0707"/>
</linearGradient>
<linearGradient id="paint2_linear_345_33" x1="28" y1="68.1035" x2="102.002" y2="108.044" gradientUnits="userSpaceOnUse">
<stop stop-color="#9C1919"/>
<stop offset="1" stop-color="#2F0707"/>
</linearGradient>
<linearGradient id="paint3_linear_345_33" x1="67.5541" y1="58.9703" x2="63.3268" y2="80.1627" gradientUnits="userSpaceOnUse">
<stop stop-color="#9C1919"/>
<stop offset="1" stop-color="#2F0707"/>
</linearGradient>
<linearGradient id="paint4_linear_345_33" x1="58.6276" y1="95.7698" x2="56.7782" y2="105.042" gradientUnits="userSpaceOnUse">
<stop stop-color="#9C1919"/>
<stop offset="1" stop-color="#2F0707"/>
</linearGradient>
<linearGradient id="paint5_linear_345_33" x1="45.2378" y1="34.5891" x2="43.3883" y2="43.8608" gradientUnits="userSpaceOnUse">
<stop stop-color="#9C1919"/>
<stop offset="1" stop-color="#2F0707"/>
</linearGradient>
<linearGradient id="paint6_linear_345_33" x1="103.149" y1="58.9702" x2="101.299" y2="68.2419" gradientUnits="userSpaceOnUse">
<stop stop-color="#9C1919"/>
<stop offset="1" stop-color="#2F0707"/>
</linearGradient>
</defs>
</svg>
