<svg width="228" height="235" viewBox="0 0 228 235" fill="none" xmlns="http://www.w3.org/2000/svg">
<g filter="url(#filter0_d_449_9)">
<path d="M122.083 38.3333C119.825 36.4188 116.961 35.368 114 35.368C111.039 35.368 108.175 36.4188 105.917 38.3333L43.4167 91.3583C42.0327 92.5316 40.9208 93.9921 40.1581 95.6384C39.3954 97.2847 39.0002 99.0773 39 100.892V179.25C39 182.565 40.317 185.745 42.6612 188.089C45.0054 190.433 48.1848 191.75 51.5 191.75H91.0833C92.7409 191.75 94.3306 191.092 95.5027 189.919C96.6748 188.747 97.3333 187.158 97.3333 185.5V133.417H130.667V185.5C130.667 188.95 133.467 191.75 136.917 191.75H176.5C179.815 191.75 182.995 190.433 185.339 188.089C187.683 185.745 189 182.565 189 179.25V100.892C189 99.0773 188.605 97.2847 187.842 95.6384C187.079 93.9921 185.967 92.5316 184.583 91.3583L122.083 38.3333Z" fill="url(#paint0_linear_449_9)"/>
</g>
<defs>
<filter id="filter0_d_449_9" x="0.5" y="0.867981" width="227" height="233.382" filterUnits="userSpaceOnUse" color-interpolation-filters="sRGB">
<feFlood flood-opacity="0" result="BackgroundImageFix"/>
<feColorMatrix in="SourceAlpha" type="matrix" values="0 0 0 0 0 0 0 0 0 0 0 0 0 0 0 0 0 0 127 0" result="hardAlpha"/>
<feOffset dy="4"/>
<feGaussianBlur stdDeviation="19.25"/>
<feComposite in2="hardAlpha" operator="out"/>
<feColorMatrix type="matrix" values="0 0 0 0 0.791667 0 0 0 0 0.0791667 0 0 0 0 0.201197 0 0 0 0.43 0"/>
<feBlend mode="normal" in2="BackgroundImageFix" result="effect1_dropShadow_449_9"/>
<feBlend mode="normal" in="SourceGraphic" in2="effect1_dropShadow_449_9" result="shape"/>
</filter>
<linearGradient id="paint0_linear_449_9" x1="114" y1="35.368" x2="114" y2="191.75" gradientUnits="userSpaceOnUse">
<stop stop-color="#BF2527"/>
<stop offset="1" stop-color="#0C0812"/>
</linearGradient>
</defs>
</svg>
