<svg width="825" height="290" viewBox="0 0 825 290" fill="none" xmlns="http://www.w3.org/2000/svg">
<g clip-path="url(#clip0_319_3)">
<g clip-path="url(#clip1_319_3)">
<path d="M215.052 -5.12042C211.84 -7.55658 213.799 -12.8934 217.889 -12.4579C221.884 -12.0342 226.607 -6.43098 229.014 -3.51875C237.99 7.33615 241.161 21.388 241.891 35.1642C244.083 76.5772 227.594 119.501 211.36 156.766C166.941 258.732 97.687 356.396 10.5769 426.366C-16.8403 448.388 -71.1378 488.423 -107.224 463.435C-144.114 437.891 -123.109 367.824 -111.681 334.302C-73.7688 223.085 -2.25196 117.288 84.9889 38.8012C113.379 13.2599 179.319 -41.1091 219.792 -11.746C222.905 -9.48669 221.411 -4.36569 217.486 -4.33662C213.184 -4.30372 207.679 -9.06488 203.102 -9.9956C191.61 -12.3323 179.61 -9.23951 168.998 -4.83988C134.366 9.51497 105.343 37.8626 79.9681 64.6268C10.1528 138.261 -66.3974 247.029 -103.833 341.512C-115.43 370.784 -137.739 435.209 -104.925 458.952C-67.0879 486.331 -4.64468 427.546 19.4163 403.333C91.5763 330.715 172.62 211.205 211.285 116.378C223.602 86.1677 248.362 20.1413 215.052 -5.12042Z" stroke="url(#paint0_linear_319_3)" stroke-opacity="0.5" stroke-width="2" stroke-linecap="round" stroke-linejoin="round"/>
<path d="M-222.6 204.415C-223.107 208.414 -228.709 209.387 -230.375 205.628C-232.005 201.956 -229.51 195.066 -228.192 191.524C-223.273 178.323 -212.683 168.547 -201.113 161.022C-166.334 138.405 -120.912 131.204 -80.5186 126.615C30.0083 114.06 149.218 125.156 253.358 165.566C286.138 178.287 347.951 205.266 344.336 249.011C340.641 293.728 269.448 310.598 234.698 317.476C119.408 340.294 -7.97574 331.308 -119.561 295.044C-155.873 283.244 -235.921 253.355 -230.71 203.624C-230.308 199.801 -225.124 198.532 -223.139 201.915C-220.96 205.623 -222.335 212.769 -220.854 217.198C-217.135 228.318 -208.461 237.159 -199.346 244.145C-169.605 266.947 -130.545 277.892 -94.6808 286.471C3.99449 310.075 136.467 321.933 237.021 307.073C268.175 302.469 335.132 289.551 339.303 249.262C344.113 202.806 261.988 178.156 228.99 169.438C130.023 143.294 -13.9999 132.92 -115.467 146.89C-147.794 151.338 -217.364 162.936 -222.6 204.415Z" stroke="url(#paint1_linear_319_3)" stroke-linecap="round" stroke-linejoin="round"/>
<path d="M-64.235 -26.6348C-67.9502 -25.0704 -71.5938 -29.4339 -69.1712 -32.7569C-66.8046 -36.0053 -59.5891 -37.2947 -55.8613 -37.9221C-41.969 -40.2707 -28.2077 -35.9945 -15.9083 -29.7403C21.0625 -10.9466 49.997 24.7777 74.1569 57.4541C140.264 146.863 190.22 255.624 207.251 366.003C212.611 400.748 220.127 467.762 180.426 486.518C139.841 505.692 89.6537 452.494 66.3314 425.85C-11.0452 337.45 -66.9154 222.669 -91.2581 107.918C-99.1787 70.5764 -113.287 -13.6814 -67.6016 -34.0492C-64.0886 -35.6156 -60.3998 -31.763 -62.3368 -28.3495C-64.4616 -24.6108 -71.3397 -22.223 -74.4363 -18.7246C-82.2088 -9.94454 -85.5339 1.99179 -87.0327 13.3758C-91.9246 50.5336 -81.8867 89.8283 -71.3984 125.169C-42.5397 222.409 13.3849 343.034 76.5045 422.656C96.0597 447.325 140.708 498.832 177.693 482.286C220.341 463.208 200.657 379.774 191.72 346.844C164.915 248.08 101.934 118.198 39.1314 37.338C19.1242 11.5783 -25.6852 -42.8507 -64.235 -26.6348Z" stroke="url(#paint2_linear_319_3)" stroke-opacity="0.5" stroke-width="2" stroke-linecap="round" stroke-linejoin="round"/>
</g>
<path d="M185.463 437.239C188.448 435.954 191.366 439.525 189.418 442.251C187.514 444.915 181.721 445.979 178.729 446.499C167.576 448.437 156.536 444.948 146.674 439.838C117.024 424.476 93.8454 395.231 74.4956 368.48C21.55 295.281 -18.4094 206.206 -31.9412 115.767C-36.2006 87.2995 -42.1494 32.3887 -10.2625 16.9739C22.3338 1.21613 62.5489 44.7567 81.2336 66.5661C143.226 138.925 187.923 232.929 207.318 326.941C213.63 357.535 224.849 426.569 188.157 443.312C185.335 444.599 182.379 441.446 183.938 438.647C185.648 435.579 191.171 433.615 193.66 430.745C199.91 423.54 202.594 413.756 203.811 404.423C207.781 373.967 199.775 341.777 191.401 312.825C168.359 233.169 123.625 134.377 73.0653 69.1945C57.4008 48.9999 21.6303 6.83906 -8.07408 20.4388C-42.3265 36.1209 -26.6324 104.475 -19.5003 131.451C1.89028 212.36 52.2775 318.73 102.582 384.926C118.608 406.015 154.504 450.571 185.463 437.239Z" fill="url(#paint3_linear_319_3)"/>
<path d="M216.118 40.871C213.544 38.879 215.122 34.5032 218.404 34.855C221.61 35.1987 225.393 39.7847 227.322 42.1682C234.512 51.0537 237.04 62.567 237.609 73.8556C239.317 107.791 226.03 142.987 212.954 173.544C177.177 257.155 121.473 337.269 51.4735 394.705C29.4396 412.785 -14.1886 445.653 -43.1201 425.215C-72.6952 404.322 -55.7501 346.878 -46.5369 319.394C-15.9694 228.207 41.5596 141.427 111.676 77.0098C134.493 56.0474 187.483 11.4182 219.931 35.4367C222.426 37.2837 221.22 41.4823 218.071 41.5112C214.618 41.5428 210.206 37.6474 206.533 36.8897C197.313 34.9876 187.678 37.5347 179.155 41.1517C151.343 52.9551 128.013 76.2184 107.614 98.1794C51.4899 158.601 -10.0835 247.822 -40.2457 325.293C-49.5906 349.295 -67.575 402.117 -41.2685 421.538C-10.9342 443.933 39.2538 395.69 58.5947 375.821C116.602 316.229 181.794 218.2 212.944 140.445C222.867 115.674 242.821 61.5366 216.118 40.871Z" fill="url(#paint4_linear_319_3)"/>
<path d="M312.854 247.716C313.264 244.439 317.761 243.634 319.094 246.712C320.397 249.72 318.387 255.37 317.324 258.273C313.36 269.097 304.849 277.122 295.555 283.3C267.613 301.874 231.148 307.824 198.722 311.629C109.999 322.042 14.3364 313.081 -69.1952 280.078C-95.4884 269.69 -145.066 247.648 -142.11 211.795C-139.089 175.145 -81.9287 161.241 -54.0308 155.566C38.529 136.739 140.755 143.962 230.267 173.558C259.396 183.188 323.605 207.593 319.36 248.355C319.033 251.489 314.872 252.534 313.281 249.764C311.538 246.728 312.649 240.869 311.466 237.241C308.496 228.134 301.544 220.897 294.238 215.181C270.396 196.529 239.061 187.602 210.287 180.611C131.122 161.376 24.8144 151.805 -55.908 164.094C-80.9173 167.902 -134.672 178.562 -138.07 211.583C-141.988 249.661 -76.1061 269.771 -49.6331 276.878C29.7644 298.195 145.344 306.536 226.798 294.977C252.747 291.295 308.598 281.714 312.854 247.716Z" fill="url(#paint5_linear_319_3)"/>
<g filter="url(#filter0_d_319_3)">
<path d="M141.048 234.391C138.74 263.794 113.524 285.798 84.7263 283.537C55.9291 281.276 34.4556 255.607 36.764 226.204C39.0724 196.8 64.2885 174.797 93.0858 177.058C121.883 179.319 143.357 204.987 141.048 234.391Z" fill="url(#paint6_linear_319_3)"/>
</g>
<ellipse cx="299.174" cy="216.673" rx="22.8823" ry="23.364" transform="rotate(4.48895 299.174 216.673)" fill="url(#paint7_linear_319_3)"/>
</g>
<defs>
<filter id="filter0_d_319_3" x="-21.406" y="118.898" width="220.624" height="222.799" filterUnits="userSpaceOnUse" color-interpolation-filters="sRGB">
<feFlood flood-opacity="0" result="BackgroundImageFix"/>
<feColorMatrix in="SourceAlpha" type="matrix" values="0 0 0 0 0 0 0 0 0 0 0 0 0 0 0 0 0 0 127 0" result="hardAlpha"/>
<feOffset/>
<feGaussianBlur stdDeviation="29"/>
<feComposite in2="hardAlpha" operator="out"/>
<feColorMatrix type="matrix" values="0 0 0 0 0 0 0 0 0 0 0 0 0 0 0 0 0 0 0.7 0"/>
<feBlend mode="normal" in2="BackgroundImageFix" result="effect1_dropShadow_319_3"/>
<feBlend mode="normal" in="SourceGraphic" in2="effect1_dropShadow_319_3" result="shape"/>
</filter>
<linearGradient id="paint0_linear_319_3" x1="-26.1098" y1="354.271" x2="219.971" y2="-12.0064" gradientUnits="userSpaceOnUse">
<stop stop-color="#AFAFAF" stop-opacity="0.5"/>
<stop offset="0.776042" stop-color="#570C0C"/>
</linearGradient>
<linearGradient id="paint1_linear_319_3" x1="188.657" y1="248.776" x2="-230.994" y2="203.25" gradientUnits="userSpaceOnUse">
<stop stop-color="#AFAFAF" stop-opacity="0.5"/>
<stop offset="0.776042" stop-color="#570C0C"/>
</linearGradient>
<linearGradient id="paint2_linear_319_3" x1="107.804" y1="333.027" x2="-67.5788" y2="-34.4123" gradientUnits="userSpaceOnUse">
<stop stop-color="#AFAFAF" stop-opacity="0.5"/>
<stop offset="0.776042" stop-color="#570C0C"/>
</linearGradient>
<linearGradient id="paint3_linear_319_3" x1="-10.6824" y1="17.1786" x2="-39.7056" y2="517.021" gradientUnits="userSpaceOnUse">
<stop stop-color="#9C1919"/>
<stop offset="1" stop-color="#2F0707"/>
</linearGradient>
<linearGradient id="paint4_linear_319_3" x1="-42.7376" y1="425.483" x2="399.945" y2="208.356" gradientUnits="userSpaceOnUse">
<stop stop-color="#9C1919"/>
<stop offset="1" stop-color="#2F0707"/>
</linearGradient>
<linearGradient id="paint5_linear_319_3" x1="-142.148" y1="212.268" x2="271.799" y2="479.504" gradientUnits="userSpaceOnUse">
<stop stop-color="#9C1919"/>
<stop offset="1" stop-color="#2F0707"/>
</linearGradient>
<linearGradient id="paint6_linear_319_3" x1="93.0858" y1="177.058" x2="58.6749" y2="298.909" gradientUnits="userSpaceOnUse">
<stop stop-color="#9C1919"/>
<stop offset="1" stop-color="#2F0707"/>
</linearGradient>
<linearGradient id="paint7_linear_319_3" x1="299.174" y1="193.309" x2="288.338" y2="247.634" gradientUnits="userSpaceOnUse">
<stop stop-color="#9C1919"/>
<stop offset="1" stop-color="#2F0707"/>
</linearGradient>
<clipPath id="clip0_319_3">
<rect width="825" height="290" fill="white"/>
</clipPath>
<clipPath id="clip1_319_3">
<rect width="517.324" height="492.579" fill="white" transform="translate(378.437 298.6) rotate(154.484)"/>
</clipPath>
</defs>
</svg>
