<svg width="1000" height="400" viewBox="0 0 1000 400" fill="none" xmlns="http://www.w3.org/2000/svg">
<path d="M733.02 296V282H739.1C740.02 282 740.814 282.167 741.48 282.5C742.16 282.833 742.687 283.307 743.06 283.92C743.434 284.52 743.62 285.227 743.62 286.04C743.62 286.853 743.434 287.567 743.06 288.18C742.687 288.78 742.16 289.253 741.48 289.6C740.8 289.933 740.007 290.1 739.1 290.1H734.56V296H733.02ZM734.56 288.76H738.98C739.927 288.76 740.68 288.52 741.24 288.04C741.8 287.547 742.08 286.887 742.08 286.06C742.08 285.233 741.8 284.58 741.24 284.1C740.68 283.62 739.927 283.38 738.98 283.38H734.56V288.76ZM749.158 296.2C748.212 296.2 747.345 295.973 746.558 295.52C745.785 295.053 745.172 294.427 744.718 293.64C744.265 292.853 744.038 291.973 744.038 291C744.038 290.027 744.265 289.147 744.718 288.36C745.172 287.573 745.785 286.953 746.558 286.5C747.345 286.033 748.212 285.8 749.158 285.8C750.118 285.8 750.985 286.033 751.758 286.5C752.532 286.953 753.145 287.573 753.598 288.36C754.052 289.147 754.278 290.027 754.278 291C754.278 291.973 754.052 292.853 753.598 293.64C753.145 294.427 752.532 295.053 751.758 295.52C750.985 295.973 750.118 296.2 749.158 296.2ZM749.158 294.88C749.838 294.88 750.452 294.707 750.998 294.36C751.558 294.013 751.998 293.547 752.318 292.96C752.652 292.373 752.818 291.72 752.818 291C752.818 290.267 752.652 289.613 752.318 289.04C751.998 288.453 751.558 287.987 750.998 287.64C750.452 287.293 749.838 287.12 749.158 287.12C748.478 287.12 747.858 287.293 747.298 287.64C746.752 287.987 746.312 288.453 745.978 289.04C745.658 289.613 745.498 290.267 745.498 291C745.498 291.72 745.658 292.373 745.978 292.96C746.312 293.547 746.752 294.013 747.298 294.36C747.858 294.707 748.478 294.88 749.158 294.88ZM759.571 296.2C758.704 296.2 758.038 295.993 757.571 295.58C757.104 295.167 756.871 294.567 756.871 293.78V287.24H754.711V285.98H756.871V283.44L758.331 283.06V285.98H761.351V287.24H758.331V293.4C758.331 293.933 758.451 294.32 758.691 294.56C758.931 294.787 759.324 294.9 759.871 294.9C760.151 294.9 760.398 294.88 760.611 294.84C760.838 294.8 761.078 294.733 761.331 294.64V295.94C761.078 296.033 760.791 296.1 760.471 296.14C760.164 296.18 759.864 296.2 759.571 296.2ZM767.44 296.18C766.48 296.18 765.607 295.953 764.82 295.5C764.047 295.033 763.427 294.407 762.96 293.62C762.507 292.833 762.28 291.953 762.28 290.98C762.28 290.02 762.5 289.153 762.94 288.38C763.38 287.593 763.974 286.973 764.72 286.52C765.467 286.053 766.3 285.82 767.22 285.82C768.114 285.82 768.914 286.053 769.62 286.52C770.34 286.973 770.907 287.593 771.32 288.38C771.747 289.153 771.96 290.02 771.96 290.98V291.44H763.74C763.82 292.093 764.027 292.68 764.36 293.2C764.707 293.72 765.154 294.133 765.7 294.44C766.247 294.733 766.847 294.88 767.5 294.88C768.02 294.88 768.527 294.8 769.02 294.64C769.514 294.48 769.927 294.253 770.26 293.96L771.18 294.94C770.62 295.353 770.034 295.667 769.42 295.88C768.82 296.08 768.16 296.18 767.44 296.18ZM763.78 290.26H770.48C770.4 289.66 770.2 289.127 769.88 288.66C769.574 288.18 769.187 287.807 768.72 287.54C768.254 287.26 767.74 287.12 767.18 287.12C766.607 287.12 766.08 287.253 765.6 287.52C765.12 287.787 764.72 288.16 764.4 288.64C764.08 289.107 763.874 289.647 763.78 290.26ZM774.03 296V285.98H775.51V287.16C776.296 286.24 777.35 285.78 778.67 285.78C779.43 285.78 780.096 285.947 780.67 286.28C781.256 286.6 781.71 287.053 782.03 287.64C782.363 288.213 782.53 288.887 782.53 289.66V296H781.07V289.96C781.07 289.067 780.816 288.367 780.31 287.86C779.816 287.34 779.136 287.08 778.27 287.08C777.67 287.08 777.136 287.213 776.67 287.48C776.203 287.747 775.816 288.127 775.51 288.62V296H774.03ZM789.646 296.18C788.699 296.18 787.839 295.953 787.066 295.5C786.293 295.033 785.679 294.407 785.226 293.62C784.773 292.833 784.546 291.953 784.546 290.98C784.546 290.007 784.773 289.133 785.226 288.36C785.679 287.573 786.293 286.947 787.066 286.48C787.839 286.013 788.699 285.78 789.646 285.78C790.379 285.78 791.086 285.92 791.766 286.2C792.446 286.467 793.046 286.853 793.566 287.36L792.626 288.44C792.226 288.013 791.766 287.693 791.246 287.48C790.739 287.253 790.213 287.14 789.666 287.14C788.986 287.14 788.366 287.313 787.806 287.66C787.259 287.993 786.819 288.453 786.486 289.04C786.166 289.613 786.006 290.26 786.006 290.98C786.006 291.7 786.166 292.353 786.486 292.94C786.819 293.527 787.266 293.993 787.826 294.34C788.386 294.673 789.006 294.84 789.686 294.84C790.233 294.84 790.746 294.733 791.226 294.52C791.719 294.307 792.179 293.993 792.606 293.58L793.526 294.58C792.993 295.087 792.393 295.48 791.726 295.76C791.059 296.04 790.366 296.18 789.646 296.18ZM795.26 296V285.98H796.74V296H795.26ZM796 284.06C795.733 284.06 795.5 283.96 795.3 283.76C795.1 283.56 795 283.327 795 283.06C795 282.78 795.1 282.547 795.3 282.36C795.5 282.16 795.733 282.06 796 282.06C796.28 282.06 796.513 282.16 796.7 282.36C796.9 282.547 797 282.78 797 283.06C797 283.327 796.9 283.56 796.7 283.76C796.513 283.96 796.28 284.06 796 284.06ZM802.424 296.18C801.691 296.18 801.044 296.053 800.484 295.8C799.937 295.547 799.504 295.193 799.184 294.74C798.877 294.287 798.724 293.76 798.724 293.16C798.724 292.213 799.084 291.467 799.804 290.92C800.524 290.373 801.497 290.1 802.724 290.1C803.804 290.1 804.784 290.327 805.664 290.78V289.46C805.664 288.66 805.437 288.06 804.984 287.66C804.531 287.247 803.871 287.04 803.004 287.04C802.511 287.04 802.011 287.113 801.504 287.26C801.011 287.393 800.464 287.613 799.864 287.92L799.304 286.78C800.024 286.433 800.691 286.18 801.304 286.02C801.917 285.86 802.531 285.78 803.144 285.78C804.411 285.78 805.384 286.08 806.064 286.68C806.757 287.28 807.104 288.14 807.104 289.26V296H805.664V295.02C805.211 295.407 804.711 295.7 804.164 295.9C803.631 296.087 803.051 296.18 802.424 296.18ZM800.144 293.12C800.144 293.68 800.377 294.14 800.844 294.5C801.324 294.847 801.937 295.02 802.684 295.02C803.284 295.02 803.831 294.927 804.324 294.74C804.817 294.553 805.264 294.26 805.664 293.86V291.98C805.251 291.7 804.811 291.5 804.344 291.38C803.877 291.247 803.351 291.18 802.764 291.18C801.964 291.18 801.324 291.36 800.844 291.72C800.377 292.067 800.144 292.533 800.144 293.12ZM809.576 296V282L811.056 281.66V296H809.576ZM813.58 296V285.98H815.06V296H813.58ZM814.32 284.06C814.054 284.06 813.82 283.96 813.62 283.76C813.42 283.56 813.32 283.327 813.32 283.06C813.32 282.78 813.42 282.547 813.62 282.36C813.82 282.16 814.054 282.06 814.32 282.06C814.6 282.06 814.834 282.16 815.02 282.36C815.22 282.547 815.32 282.78 815.32 283.06C815.32 283.327 815.22 283.56 815.02 283.76C814.834 283.96 814.6 284.06 814.32 284.06ZM816.944 296V294.84L822.984 287.3H817.004V285.98H824.784V287.12L818.724 294.68H824.844V296H816.944ZM831.23 296.18C830.27 296.18 829.396 295.953 828.61 295.5C827.836 295.033 827.216 294.407 826.75 293.62C826.296 292.833 826.07 291.953 826.07 290.98C826.07 290.02 826.29 289.153 826.73 288.38C827.17 287.593 827.763 286.973 828.51 286.52C829.256 286.053 830.09 285.82 831.01 285.82C831.903 285.82 832.703 286.053 833.41 286.52C834.13 286.973 834.696 287.593 835.11 288.38C835.536 289.153 835.75 290.02 835.75 290.98V291.44H827.53C827.61 292.093 827.816 292.68 828.15 293.2C828.496 293.72 828.943 294.133 829.49 294.44C830.036 294.733 830.636 294.88 831.29 294.88C831.81 294.88 832.316 294.8 832.81 294.64C833.303 294.48 833.716 294.253 834.05 293.96L834.97 294.94C834.41 295.353 833.823 295.667 833.21 295.88C832.61 296.08 831.95 296.18 831.23 296.18ZM827.57 290.26H834.27C834.19 289.66 833.99 289.127 833.67 288.66C833.363 288.18 832.976 287.807 832.51 287.54C832.043 287.26 831.53 287.12 830.97 287.12C830.396 287.12 829.87 287.253 829.39 287.52C828.91 287.787 828.51 288.16 828.19 288.64C827.87 289.107 827.663 289.647 827.57 290.26ZM846.935 296.2C845.829 296.2 844.769 295.98 843.755 295.54C842.742 295.087 841.849 294.44 841.075 293.6L842.095 292.54C842.815 293.313 843.582 293.893 844.395 294.28C845.222 294.667 846.089 294.86 846.995 294.86C847.729 294.86 848.375 294.747 848.935 294.52C849.509 294.28 849.955 293.953 850.275 293.54C850.595 293.113 850.755 292.633 850.755 292.1C850.755 291.38 850.502 290.827 849.995 290.44C849.502 290.053 848.682 289.767 847.535 289.58L845.515 289.26C844.169 289.033 843.175 288.633 842.535 288.06C841.895 287.487 841.575 286.707 841.575 285.72C841.575 284.947 841.782 284.267 842.195 283.68C842.609 283.093 843.182 282.64 843.915 282.32C844.662 281.987 845.522 281.82 846.495 281.82C847.482 281.82 848.449 281.98 849.395 282.3C850.355 282.62 851.229 283.08 852.015 283.68L851.135 284.88C849.602 283.72 848.035 283.14 846.435 283.14C845.769 283.14 845.182 283.247 844.675 283.46C844.169 283.66 843.775 283.947 843.495 284.32C843.215 284.68 843.075 285.107 843.075 285.6C843.075 286.253 843.295 286.753 843.735 287.1C844.175 287.447 844.902 287.7 845.915 287.86L847.915 288.18C849.449 288.433 850.562 288.867 851.255 289.48C851.949 290.08 852.295 290.927 852.295 292.02C852.295 292.833 852.069 293.56 851.615 294.2C851.162 294.827 850.529 295.32 849.715 295.68C848.915 296.027 847.989 296.2 846.935 296.2ZM859.003 296.18C858.043 296.18 857.17 295.953 856.383 295.5C855.61 295.033 854.99 294.407 854.523 293.62C854.07 292.833 853.843 291.953 853.843 290.98C853.843 290.02 854.063 289.153 854.503 288.38C854.943 287.593 855.536 286.973 856.283 286.52C857.03 286.053 857.863 285.82 858.783 285.82C859.676 285.82 860.476 286.053 861.183 286.52C861.903 286.973 862.47 287.593 862.883 288.38C863.31 289.153 863.523 290.02 863.523 290.98V291.44H855.303C855.383 292.093 855.59 292.68 855.923 293.2C856.27 293.72 856.716 294.133 857.263 294.44C857.81 294.733 858.41 294.88 859.063 294.88C859.583 294.88 860.09 294.8 860.583 294.64C861.076 294.48 861.49 294.253 861.823 293.96L862.743 294.94C862.183 295.353 861.596 295.667 860.983 295.88C860.383 296.08 859.723 296.18 859.003 296.18ZM855.343 290.26H862.043C861.963 289.66 861.763 289.127 861.443 288.66C861.136 288.18 860.75 287.807 860.283 287.54C859.816 287.26 859.303 287.12 858.743 287.12C858.17 287.12 857.643 287.253 857.163 287.52C856.683 287.787 856.283 288.16 855.963 288.64C855.643 289.107 855.436 289.647 855.343 290.26ZM869.432 296.2C868.672 296.2 867.999 296.04 867.412 295.72C866.825 295.387 866.365 294.933 866.032 294.36C865.712 293.773 865.552 293.093 865.552 292.32V285.98H867.012V292.02C867.012 292.913 867.265 293.62 867.772 294.14C868.279 294.647 868.959 294.9 869.812 294.9C870.412 294.9 870.945 294.767 871.412 294.5C871.892 294.22 872.279 293.833 872.572 293.34V285.98H874.052V296H872.572V294.84C871.785 295.747 870.739 296.2 869.432 296.2ZM881.145 296V282H882.685L891.105 293.36V282H892.565V296H891.205L882.605 284.34V296H881.145ZM900.058 296.18C899.098 296.18 898.224 295.953 897.438 295.5C896.664 295.033 896.044 294.407 895.578 293.62C895.124 292.833 894.898 291.953 894.898 290.98C894.898 290.02 895.118 289.153 895.558 288.38C895.998 287.593 896.591 286.973 897.338 286.52C898.084 286.053 898.918 285.82 899.838 285.82C900.731 285.82 901.531 286.053 902.238 286.52C902.958 286.973 903.524 287.593 903.938 288.38C904.364 289.153 904.578 290.02 904.578 290.98V291.44H896.358C896.438 292.093 896.644 292.68 896.978 293.2C897.324 293.72 897.771 294.133 898.318 294.44C898.864 294.733 899.464 294.88 900.118 294.88C900.638 294.88 901.144 294.8 901.638 294.64C902.131 294.48 902.544 294.253 902.878 293.96L903.798 294.94C903.238 295.353 902.651 295.667 902.038 295.88C901.438 296.08 900.778 296.18 900.058 296.18ZM896.398 290.26H903.098C903.018 289.66 902.818 289.127 902.498 288.66C902.191 288.18 901.804 287.807 901.338 287.54C900.871 287.26 900.358 287.12 899.798 287.12C899.224 287.12 898.698 287.253 898.218 287.52C897.738 287.787 897.338 288.16 897.018 288.64C896.698 289.107 896.491 289.647 896.398 290.26ZM911.527 300.28C910.833 300.28 910.147 300.187 909.467 300C908.787 299.827 908.167 299.573 907.607 299.24L908.247 298.08C908.847 298.4 909.4 298.633 909.907 298.78C910.427 298.927 910.947 299 911.467 299C912.413 299 913.133 298.773 913.627 298.32C914.12 297.867 914.367 297.2 914.367 296.32V294.92C913.447 295.693 912.387 296.08 911.187 296.08C910.267 296.08 909.427 295.853 908.667 295.4C907.907 294.947 907.3 294.333 906.847 293.56C906.407 292.773 906.187 291.9 906.187 290.94C906.187 289.98 906.407 289.113 906.847 288.34C907.3 287.553 907.907 286.933 908.667 286.48C909.427 286.027 910.28 285.8 911.227 285.8C911.8 285.8 912.353 285.9 912.887 286.1C913.433 286.3 913.933 286.593 914.387 286.98V285.98H915.847V296.3C915.847 297.58 915.473 298.56 914.727 299.24C913.98 299.933 912.913 300.28 911.527 300.28ZM911.307 294.78C911.947 294.78 912.533 294.66 913.067 294.42C913.6 294.18 914.033 293.84 914.367 293.4V288.48C914.033 288.053 913.593 287.72 913.047 287.48C912.513 287.24 911.933 287.12 911.307 287.12C910.613 287.12 909.987 287.287 909.427 287.62C908.88 287.953 908.447 288.413 908.127 289C907.807 289.573 907.647 290.22 907.647 290.94C907.647 291.66 907.807 292.313 908.127 292.9C908.46 293.473 908.9 293.933 909.447 294.28C910.007 294.613 910.627 294.78 911.307 294.78ZM923.025 296.2C922.079 296.2 921.212 295.973 920.425 295.52C919.652 295.053 919.039 294.427 918.585 293.64C918.132 292.853 917.905 291.973 917.905 291C917.905 290.027 918.132 289.147 918.585 288.36C919.039 287.573 919.652 286.953 920.425 286.5C921.212 286.033 922.079 285.8 923.025 285.8C923.985 285.8 924.852 286.033 925.625 286.5C926.399 286.953 927.012 287.573 927.465 288.36C927.919 289.147 928.145 290.027 928.145 291C928.145 291.973 927.919 292.853 927.465 293.64C927.012 294.427 926.399 295.053 925.625 295.52C924.852 295.973 923.985 296.2 923.025 296.2ZM923.025 294.88C923.705 294.88 924.319 294.707 924.865 294.36C925.425 294.013 925.865 293.547 926.185 292.96C926.519 292.373 926.685 291.72 926.685 291C926.685 290.267 926.519 289.613 926.185 289.04C925.865 288.453 925.425 287.987 924.865 287.64C924.319 287.293 923.705 287.12 923.025 287.12C922.345 287.12 921.725 287.293 921.165 287.64C920.619 287.987 920.179 288.453 919.845 289.04C919.525 289.613 919.365 290.267 919.365 291C919.365 291.72 919.525 292.373 919.845 292.96C920.179 293.547 920.619 294.013 921.165 294.36C921.725 294.707 922.345 294.88 923.025 294.88ZM921.745 284L923.625 281.68H925.525L923.045 284H921.745ZM934.841 296.18C933.895 296.18 933.035 295.953 932.261 295.5C931.488 295.033 930.875 294.407 930.421 293.62C929.968 292.833 929.741 291.953 929.741 290.98C929.741 290.007 929.968 289.133 930.421 288.36C930.875 287.573 931.488 286.947 932.261 286.48C933.035 286.013 933.895 285.78 934.841 285.78C935.575 285.78 936.281 285.92 936.961 286.2C937.641 286.467 938.241 286.853 938.761 287.36L937.821 288.44C937.421 288.013 936.961 287.693 936.441 287.48C935.935 287.253 935.408 287.14 934.861 287.14C934.181 287.14 933.561 287.313 933.001 287.66C932.455 287.993 932.015 288.453 931.681 289.04C931.361 289.613 931.201 290.26 931.201 290.98C931.201 291.7 931.361 292.353 931.681 292.94C932.015 293.527 932.461 293.993 933.021 294.34C933.581 294.673 934.201 294.84 934.881 294.84C935.428 294.84 935.941 294.733 936.421 294.52C936.915 294.307 937.375 293.993 937.801 293.58L938.721 294.58C938.188 295.087 937.588 295.48 936.921 295.76C936.255 296.04 935.561 296.18 934.841 296.18ZM940.455 296V285.98H941.935V296H940.455ZM941.195 284.06C940.929 284.06 940.695 283.96 940.495 283.76C940.295 283.56 940.195 283.327 940.195 283.06C940.195 282.78 940.295 282.547 940.495 282.36C940.695 282.16 940.929 282.06 941.195 282.06C941.475 282.06 941.709 282.16 941.895 282.36C942.095 282.547 942.195 282.78 942.195 283.06C942.195 283.327 942.095 283.56 941.895 283.76C941.709 283.96 941.475 284.06 941.195 284.06ZM949.119 296.2C948.173 296.2 947.306 295.973 946.519 295.52C945.746 295.053 945.133 294.427 944.679 293.64C944.226 292.853 943.999 291.973 943.999 291C943.999 290.027 944.226 289.147 944.679 288.36C945.133 287.573 945.746 286.953 946.519 286.5C947.306 286.033 948.173 285.8 949.119 285.8C950.079 285.8 950.946 286.033 951.719 286.5C952.493 286.953 953.106 287.573 953.559 288.36C954.013 289.147 954.239 290.027 954.239 291C954.239 291.973 954.013 292.853 953.559 293.64C953.106 294.427 952.493 295.053 951.719 295.52C950.946 295.973 950.079 296.2 949.119 296.2ZM949.119 294.88C949.799 294.88 950.413 294.707 950.959 294.36C951.519 294.013 951.959 293.547 952.279 292.96C952.613 292.373 952.779 291.72 952.779 291C952.779 290.267 952.613 289.613 952.279 289.04C951.959 288.453 951.519 287.987 950.959 287.64C950.413 287.293 949.799 287.12 949.119 287.12C948.439 287.12 947.819 287.293 947.259 287.64C946.713 287.987 946.273 288.453 945.939 289.04C945.619 289.613 945.459 290.267 945.459 291C945.459 291.72 945.619 292.373 945.939 292.96C946.273 293.547 946.713 294.013 947.259 294.36C947.819 294.707 948.439 294.88 949.119 294.88ZM956.415 292.12L956.235 281.9H957.775L957.595 292.12H956.415ZM957.015 296.12C956.735 296.12 956.495 296.02 956.295 295.82C956.095 295.62 955.995 295.38 955.995 295.1C955.995 294.82 956.095 294.58 956.295 294.38C956.495 294.18 956.735 294.08 957.015 294.08C957.295 294.08 957.535 294.18 957.735 294.38C957.935 294.58 958.035 294.82 958.035 295.1C958.035 295.38 957.935 295.62 957.735 295.82C957.535 296.02 957.295 296.12 957.015 296.12ZM459.689 322.2C458.583 322.2 457.523 321.98 456.509 321.54C455.496 321.087 454.603 320.44 453.829 319.6L454.849 318.54C455.569 319.313 456.336 319.893 457.149 320.28C457.976 320.667 458.843 320.86 459.749 320.86C460.483 320.86 461.129 320.747 461.689 320.52C462.263 320.28 462.709 319.953 463.029 319.54C463.349 319.113 463.509 318.633 463.509 318.1C463.509 317.38 463.256 316.827 462.749 316.44C462.256 316.053 461.436 315.767 460.289 315.58L458.269 315.26C456.923 315.033 455.929 314.633 455.289 314.06C454.649 313.487 454.329 312.707 454.329 311.72C454.329 310.947 454.536 310.267 454.949 309.68C455.363 309.093 455.936 308.64 456.669 308.32C457.416 307.987 458.276 307.82 459.249 307.82C460.236 307.82 461.203 307.98 462.149 308.3C463.109 308.62 463.983 309.08 464.769 309.68L463.889 310.88C462.356 309.72 460.789 309.14 459.189 309.14C458.523 309.14 457.936 309.247 457.429 309.46C456.923 309.66 456.529 309.947 456.249 310.32C455.969 310.68 455.829 311.107 455.829 311.6C455.829 312.253 456.049 312.753 456.489 313.1C456.929 313.447 457.656 313.7 458.669 313.86L460.669 314.18C462.203 314.433 463.316 314.867 464.009 315.48C464.703 316.08 465.049 316.927 465.049 318.02C465.049 318.833 464.823 319.56 464.369 320.2C463.916 320.827 463.283 321.32 462.469 321.68C461.669 322.027 460.743 322.2 459.689 322.2ZM471.717 322.2C470.77 322.2 469.904 321.973 469.117 321.52C468.344 321.053 467.73 320.427 467.277 319.64C466.824 318.853 466.597 317.973 466.597 317C466.597 316.027 466.824 315.147 467.277 314.36C467.73 313.573 468.344 312.953 469.117 312.5C469.904 312.033 470.77 311.8 471.717 311.8C472.677 311.8 473.544 312.033 474.317 312.5C475.09 312.953 475.704 313.573 476.157 314.36C476.61 315.147 476.837 316.027 476.837 317C476.837 317.973 476.61 318.853 476.157 319.64C475.704 320.427 475.09 321.053 474.317 321.52C473.544 321.973 472.677 322.2 471.717 322.2ZM471.717 320.88C472.397 320.88 473.01 320.707 473.557 320.36C474.117 320.013 474.557 319.547 474.877 318.96C475.21 318.373 475.377 317.72 475.377 317C475.377 316.267 475.21 315.613 474.877 315.04C474.557 314.453 474.117 313.987 473.557 313.64C473.01 313.293 472.397 313.12 471.717 313.12C471.037 313.12 470.417 313.293 469.857 313.64C469.31 313.987 468.87 314.453 468.537 315.04C468.217 315.613 468.057 316.267 468.057 317C468.057 317.72 468.217 318.373 468.537 318.96C468.87 319.547 469.31 320.013 469.857 320.36C470.417 320.707 471.037 320.88 471.717 320.88ZM478.893 322V308L480.373 307.66V322H478.893ZM486.737 322.2C485.977 322.2 485.303 322.04 484.717 321.72C484.13 321.387 483.67 320.933 483.337 320.36C483.017 319.773 482.857 319.093 482.857 318.32V311.98H484.317V318.02C484.317 318.913 484.57 319.62 485.077 320.14C485.583 320.647 486.263 320.9 487.117 320.9C487.717 320.9 488.25 320.767 488.717 320.5C489.197 320.22 489.583 319.833 489.877 319.34V311.98H491.357V322H489.877V320.84C489.09 321.747 488.043 322.2 486.737 322.2ZM498.253 326.56C497.333 326.56 496.58 326.287 495.993 325.74L496.593 325.1C497.1 325.527 497.653 325.74 498.253 325.74C498.653 325.74 498.967 325.647 499.193 325.46C499.42 325.287 499.533 325.053 499.533 324.76C499.533 324.467 499.407 324.233 499.153 324.06C498.913 323.9 498.58 323.82 498.153 323.82H497.573L498.053 322.16C497.173 322.08 496.38 321.807 495.673 321.34C494.98 320.86 494.427 320.247 494.013 319.5C493.613 318.74 493.413 317.9 493.413 316.98C493.413 316.007 493.64 315.133 494.093 314.36C494.547 313.573 495.16 312.947 495.933 312.48C496.707 312.013 497.567 311.78 498.513 311.78C499.247 311.78 499.953 311.92 500.633 312.2C501.313 312.467 501.913 312.853 502.433 313.36L501.493 314.44C501.093 314.013 500.633 313.693 500.113 313.48C499.607 313.253 499.08 313.14 498.533 313.14C497.853 313.14 497.233 313.313 496.673 313.66C496.127 313.993 495.687 314.453 495.353 315.04C495.033 315.613 494.873 316.26 494.873 316.98C494.873 317.7 495.033 318.353 495.353 318.94C495.687 319.527 496.133 319.993 496.693 320.34C497.253 320.673 497.873 320.84 498.553 320.84C499.1 320.84 499.613 320.733 500.093 320.52C500.587 320.307 501.047 319.993 501.473 319.58L502.393 320.58C501.913 321.033 501.373 321.4 500.773 321.68C500.187 321.947 499.567 322.107 498.913 322.16L498.653 323.1C499.24 323.127 499.7 323.287 500.033 323.58C500.38 323.873 500.553 324.26 500.553 324.74C500.553 325.273 500.333 325.707 499.893 326.04C499.467 326.387 498.92 326.56 498.253 326.56ZM508.494 322.2C507.548 322.2 506.681 321.973 505.894 321.52C505.121 321.053 504.508 320.427 504.054 319.64C503.601 318.853 503.374 317.973 503.374 317C503.374 316.027 503.601 315.147 504.054 314.36C504.508 313.573 505.121 312.953 505.894 312.5C506.681 312.033 507.548 311.8 508.494 311.8C509.454 311.8 510.321 312.033 511.094 312.5C511.868 312.953 512.481 313.573 512.934 314.36C513.388 315.147 513.614 316.027 513.614 317C513.614 317.973 513.388 318.853 512.934 319.64C512.481 320.427 511.868 321.053 511.094 321.52C510.321 321.973 509.454 322.2 508.494 322.2ZM508.494 320.88C509.174 320.88 509.788 320.707 510.334 320.36C510.894 320.013 511.334 319.547 511.654 318.96C511.988 318.373 512.154 317.72 512.154 317C512.154 316.267 511.988 315.613 511.654 315.04C511.334 314.453 510.894 313.987 510.334 313.64C509.788 313.293 509.174 313.12 508.494 313.12C507.814 313.12 507.194 313.293 506.634 313.64C506.088 313.987 505.648 314.453 505.314 315.04C504.994 315.613 504.834 316.267 504.834 317C504.834 317.72 504.994 318.373 505.314 318.96C505.648 319.547 506.088 320.013 506.634 320.36C507.194 320.707 507.814 320.88 508.494 320.88ZM506.174 310.1L505.134 309.9C505.428 308.567 506.054 307.9 507.014 307.9C507.374 307.9 507.721 307.993 508.054 308.18C508.401 308.353 508.728 308.533 509.034 308.72C509.341 308.907 509.634 309 509.914 309C510.141 309 510.321 308.913 510.454 308.74C510.601 308.567 510.721 308.273 510.814 307.86L511.834 308.06C511.701 308.727 511.474 309.227 511.154 309.56C510.834 309.893 510.434 310.06 509.954 310.06C509.608 310.06 509.261 309.967 508.914 309.78C508.581 309.593 508.254 309.413 507.934 309.24C507.628 309.053 507.334 308.96 507.054 308.96C506.814 308.96 506.628 309.047 506.494 309.22C506.361 309.393 506.254 309.687 506.174 310.1ZM520.37 322.18C519.41 322.18 518.537 321.953 517.75 321.5C516.977 321.033 516.357 320.407 515.89 319.62C515.437 318.833 515.21 317.953 515.21 316.98C515.21 316.02 515.43 315.153 515.87 314.38C516.31 313.593 516.903 312.973 517.65 312.52C518.397 312.053 519.23 311.82 520.15 311.82C521.043 311.82 521.843 312.053 522.55 312.52C523.27 312.973 523.837 313.593 524.25 314.38C524.677 315.153 524.89 316.02 524.89 316.98V317.44H516.67C516.75 318.093 516.957 318.68 517.29 319.2C517.637 319.72 518.083 320.133 518.63 320.44C519.177 320.733 519.777 320.88 520.43 320.88C520.95 320.88 521.457 320.8 521.95 320.64C522.443 320.48 522.857 320.253 523.19 319.96L524.11 320.94C523.55 321.353 522.963 321.667 522.35 321.88C521.75 322.08 521.09 322.18 520.37 322.18ZM516.71 316.26H523.41C523.33 315.66 523.13 315.127 522.81 314.66C522.503 314.18 522.117 313.807 521.65 313.54C521.183 313.26 520.67 313.12 520.11 313.12C519.537 313.12 519.01 313.253 518.53 313.52C518.05 313.787 517.65 314.16 517.33 314.64C517.01 315.107 516.803 315.647 516.71 316.26ZM530.257 322.2C529.43 322.2 528.65 322.067 527.917 321.8C527.197 321.52 526.57 321.133 526.037 320.64L526.937 319.68C527.404 320.107 527.917 320.44 528.477 320.68C529.037 320.907 529.61 321.02 530.197 321.02C530.997 321.02 531.65 320.853 532.157 320.52C532.664 320.187 532.917 319.753 532.917 319.22C532.917 318.78 532.764 318.44 532.457 318.2C532.164 317.947 531.697 317.773 531.057 317.68L529.317 317.44C528.317 317.293 527.57 316.993 527.077 316.54C526.597 316.087 526.357 315.473 526.357 314.7C526.357 314.14 526.517 313.64 526.837 313.2C527.157 312.76 527.597 312.413 528.157 312.16C528.73 311.907 529.384 311.78 530.117 311.78C530.85 311.78 531.537 311.887 532.177 312.1C532.817 312.313 533.444 312.647 534.057 313.1L533.277 314.1C532.717 313.713 532.17 313.433 531.637 313.26C531.117 313.073 530.584 312.98 530.037 312.98C529.344 312.98 528.784 313.133 528.357 313.44C527.93 313.747 527.717 314.147 527.717 314.64C527.717 315.093 527.864 315.44 528.157 315.68C528.45 315.907 528.924 316.067 529.577 316.16L531.317 316.4C532.317 316.533 533.064 316.827 533.557 317.28C534.064 317.733 534.317 318.353 534.317 319.14C534.317 319.713 534.137 320.233 533.777 320.7C533.417 321.167 532.93 321.533 532.317 321.8C531.717 322.067 531.03 322.2 530.257 322.2ZM544.42 322V309.38H539.36V308H551.02V309.38H545.96V322H544.42ZM555.038 322.18C554.078 322.18 553.205 321.953 552.418 321.5C551.645 321.033 551.025 320.407 550.558 319.62C550.105 318.833 549.878 317.953 549.878 316.98C549.878 316.02 550.098 315.153 550.538 314.38C550.978 313.593 551.571 312.973 552.318 312.52C553.065 312.053 553.898 311.82 554.818 311.82C555.711 311.82 556.511 312.053 557.218 312.52C557.938 312.973 558.505 313.593 558.918 314.38C559.345 315.153 559.558 316.02 559.558 316.98V317.44H551.338C551.418 318.093 551.625 318.68 551.958 319.2C552.305 319.72 552.751 320.133 553.298 320.44C553.845 320.733 554.445 320.88 555.098 320.88C555.618 320.88 556.125 320.8 556.618 320.64C557.111 320.48 557.525 320.253 557.858 319.96L558.778 320.94C558.218 321.353 557.631 321.667 557.018 321.88C556.418 322.08 555.758 322.18 555.038 322.18ZM551.378 316.26H558.078C557.998 315.66 557.798 315.127 557.478 314.66C557.171 314.18 556.785 313.807 556.318 313.54C555.851 313.26 555.338 313.12 554.778 313.12C554.205 313.12 553.678 313.253 553.198 313.52C552.718 313.787 552.318 314.16 551.998 314.64C551.678 315.107 551.471 315.647 551.378 316.26ZM566.267 322.18C565.321 322.18 564.461 321.953 563.687 321.5C562.914 321.033 562.301 320.407 561.847 319.62C561.394 318.833 561.167 317.953 561.167 316.98C561.167 316.007 561.394 315.133 561.847 314.36C562.301 313.573 562.914 312.947 563.687 312.48C564.461 312.013 565.321 311.78 566.267 311.78C567.001 311.78 567.707 311.92 568.387 312.2C569.067 312.467 569.667 312.853 570.187 313.36L569.247 314.44C568.847 314.013 568.387 313.693 567.867 313.48C567.361 313.253 566.834 313.14 566.287 313.14C565.607 313.14 564.987 313.313 564.427 313.66C563.881 313.993 563.441 314.453 563.107 315.04C562.787 315.613 562.627 316.26 562.627 316.98C562.627 317.7 562.787 318.353 563.107 318.94C563.441 319.527 563.887 319.993 564.447 320.34C565.007 320.673 565.627 320.84 566.307 320.84C566.854 320.84 567.367 320.733 567.847 320.52C568.341 320.307 568.801 319.993 569.227 319.58L570.147 320.58C569.614 321.087 569.014 321.48 568.347 321.76C567.681 322.04 566.987 322.18 566.267 322.18ZM571.881 322V311.98H573.361V313.16C574.148 312.24 575.201 311.78 576.521 311.78C577.281 311.78 577.948 311.947 578.521 312.28C579.108 312.6 579.561 313.053 579.881 313.64C580.214 314.213 580.381 314.887 580.381 315.66V322H578.921V315.96C578.921 315.067 578.668 314.367 578.161 313.86C577.668 313.34 576.988 313.08 576.121 313.08C575.521 313.08 574.988 313.213 574.521 313.48C574.054 313.747 573.668 314.127 573.361 314.62V322H571.881ZM587.518 322.2C586.571 322.2 585.704 321.973 584.918 321.52C584.144 321.053 583.531 320.427 583.078 319.64C582.624 318.853 582.398 317.973 582.398 317C582.398 316.027 582.624 315.147 583.078 314.36C583.531 313.573 584.144 312.953 584.918 312.5C585.704 312.033 586.571 311.8 587.518 311.8C588.478 311.8 589.344 312.033 590.118 312.5C590.891 312.953 591.504 313.573 591.958 314.36C592.411 315.147 592.638 316.027 592.638 317C592.638 317.973 592.411 318.853 591.958 319.64C591.504 320.427 590.891 321.053 590.118 321.52C589.344 321.973 588.478 322.2 587.518 322.2ZM587.518 320.88C588.198 320.88 588.811 320.707 589.358 320.36C589.918 320.013 590.358 319.547 590.678 318.96C591.011 318.373 591.178 317.72 591.178 317C591.178 316.267 591.011 315.613 590.678 315.04C590.358 314.453 589.918 313.987 589.358 313.64C588.811 313.293 588.198 313.12 587.518 313.12C586.838 313.12 586.218 313.293 585.658 313.64C585.111 313.987 584.671 314.453 584.338 315.04C584.018 315.613 583.858 316.267 583.858 317C583.858 317.72 584.018 318.373 584.338 318.96C584.671 319.547 585.111 320.013 585.658 320.36C586.218 320.707 586.838 320.88 587.518 320.88ZM594.694 322V308L596.174 307.66V322H594.694ZM603.358 322.2C602.411 322.2 601.544 321.973 600.758 321.52C599.984 321.053 599.371 320.427 598.918 319.64C598.464 318.853 598.238 317.973 598.238 317C598.238 316.027 598.464 315.147 598.918 314.36C599.371 313.573 599.984 312.953 600.758 312.5C601.544 312.033 602.411 311.8 603.358 311.8C604.318 311.8 605.184 312.033 605.958 312.5C606.731 312.953 607.344 313.573 607.798 314.36C608.251 315.147 608.478 316.027 608.478 317C608.478 317.973 608.251 318.853 607.798 319.64C607.344 320.427 606.731 321.053 605.958 321.52C605.184 321.973 604.318 322.2 603.358 322.2ZM603.358 320.88C604.038 320.88 604.651 320.707 605.198 320.36C605.758 320.013 606.198 319.547 606.518 318.96C606.851 318.373 607.018 317.72 607.018 317C607.018 316.267 606.851 315.613 606.518 315.04C606.198 314.453 605.758 313.987 605.198 313.64C604.651 313.293 604.038 313.12 603.358 313.12C602.678 313.12 602.058 313.293 601.498 313.64C600.951 313.987 600.511 314.453 600.178 315.04C599.858 315.613 599.698 316.267 599.698 317C599.698 317.72 599.858 318.373 600.178 318.96C600.511 319.547 600.951 320.013 601.498 320.36C602.058 320.707 602.678 320.88 603.358 320.88ZM602.078 310L603.958 307.68H605.858L603.378 310H602.078ZM615.413 326.28C614.72 326.28 614.033 326.187 613.353 326C612.673 325.827 612.053 325.573 611.493 325.24L612.133 324.08C612.733 324.4 613.287 324.633 613.793 324.78C614.313 324.927 614.833 325 615.353 325C616.3 325 617.02 324.773 617.513 324.32C618.007 323.867 618.253 323.2 618.253 322.32V320.92C617.333 321.693 616.273 322.08 615.073 322.08C614.153 322.08 613.313 321.853 612.553 321.4C611.793 320.947 611.187 320.333 610.733 319.56C610.293 318.773 610.073 317.9 610.073 316.94C610.073 315.98 610.293 315.113 610.733 314.34C611.187 313.553 611.793 312.933 612.553 312.48C613.313 312.027 614.167 311.8 615.113 311.8C615.687 311.8 616.24 311.9 616.773 312.1C617.32 312.3 617.82 312.593 618.273 312.98V311.98H619.733V322.3C619.733 323.58 619.36 324.56 618.613 325.24C617.867 325.933 616.8 326.28 615.413 326.28ZM615.193 320.78C615.833 320.78 616.42 320.66 616.953 320.42C617.487 320.18 617.92 319.84 618.253 319.4V314.48C617.92 314.053 617.48 313.72 616.933 313.48C616.4 313.24 615.82 313.12 615.193 313.12C614.5 313.12 613.873 313.287 613.313 313.62C612.767 313.953 612.333 314.413 612.013 315C611.693 315.573 611.533 316.22 611.533 316.94C611.533 317.66 611.693 318.313 612.013 318.9C612.347 319.473 612.787 319.933 613.333 320.28C613.893 320.613 614.513 320.78 615.193 320.78ZM622.252 322V311.98H623.732V322H622.252ZM622.992 310.06C622.726 310.06 622.492 309.96 622.292 309.76C622.092 309.56 621.992 309.327 621.992 309.06C621.992 308.78 622.092 308.547 622.292 308.36C622.492 308.16 622.726 308.06 622.992 308.06C623.272 308.06 623.506 308.16 623.692 308.36C623.892 308.547 623.992 308.78 623.992 309.06C623.992 309.327 623.892 309.56 623.692 309.76C623.506 309.96 623.272 310.06 622.992 310.06ZM630.896 322.18C629.949 322.18 629.089 321.953 628.316 321.5C627.543 321.033 626.929 320.407 626.476 319.62C626.023 318.833 625.796 317.953 625.796 316.98C625.796 316.007 626.023 315.133 626.476 314.36C626.929 313.573 627.543 312.947 628.316 312.48C629.089 312.013 629.949 311.78 630.896 311.78C631.629 311.78 632.336 311.92 633.016 312.2C633.696 312.467 634.296 312.853 634.816 313.36L633.876 314.44C633.476 314.013 633.016 313.693 632.496 313.48C631.989 313.253 631.463 313.14 630.916 313.14C630.236 313.14 629.616 313.313 629.056 313.66C628.509 313.993 628.069 314.453 627.736 315.04C627.416 315.613 627.256 316.26 627.256 316.98C627.256 317.7 627.416 318.353 627.736 318.94C628.069 319.527 628.516 319.993 629.076 320.34C629.636 320.673 630.256 320.84 630.936 320.84C631.483 320.84 631.996 320.733 632.476 320.52C632.969 320.307 633.429 319.993 633.856 319.58L634.776 320.58C634.243 321.087 633.643 321.48 632.976 321.76C632.309 322.04 631.616 322.18 630.896 322.18ZM639.67 322.18C638.937 322.18 638.29 322.053 637.73 321.8C637.183 321.547 636.75 321.193 636.43 320.74C636.123 320.287 635.97 319.76 635.97 319.16C635.97 318.213 636.33 317.467 637.05 316.92C637.77 316.373 638.743 316.1 639.97 316.1C641.05 316.1 642.03 316.327 642.91 316.78V315.46C642.91 314.66 642.683 314.06 642.23 313.66C641.777 313.247 641.117 313.04 640.25 313.04C639.757 313.04 639.257 313.113 638.75 313.26C638.257 313.393 637.71 313.613 637.11 313.92L636.55 312.78C637.27 312.433 637.937 312.18 638.55 312.02C639.163 311.86 639.777 311.78 640.39 311.78C641.657 311.78 642.63 312.08 643.31 312.68C644.003 313.28 644.35 314.14 644.35 315.26V322H642.91V321.02C642.457 321.407 641.957 321.7 641.41 321.9C640.877 322.087 640.297 322.18 639.67 322.18ZM637.39 319.12C637.39 319.68 637.623 320.14 638.09 320.5C638.57 320.847 639.183 321.02 639.93 321.02C640.53 321.02 641.077 320.927 641.57 320.74C642.063 320.553 642.51 320.26 642.91 319.86V317.98C642.497 317.7 642.057 317.5 641.59 317.38C641.123 317.247 640.597 317.18 640.01 317.18C639.21 317.18 638.57 317.36 638.09 317.72C637.623 318.067 637.39 318.533 637.39 319.12ZM650.023 322.2C649.196 322.2 648.416 322.067 647.683 321.8C646.963 321.52 646.336 321.133 645.803 320.64L646.703 319.68C647.169 320.107 647.683 320.44 648.243 320.68C648.803 320.907 649.376 321.02 649.963 321.02C650.763 321.02 651.416 320.853 651.923 320.52C652.429 320.187 652.683 319.753 652.683 319.22C652.683 318.78 652.529 318.44 652.223 318.2C651.929 317.947 651.463 317.773 650.823 317.68L649.083 317.44C648.083 317.293 647.336 316.993 646.843 316.54C646.363 316.087 646.123 315.473 646.123 314.7C646.123 314.14 646.283 313.64 646.603 313.2C646.923 312.76 647.363 312.413 647.923 312.16C648.496 311.907 649.149 311.78 649.883 311.78C650.616 311.78 651.303 311.887 651.943 312.1C652.583 312.313 653.209 312.647 653.823 313.1L653.043 314.1C652.483 313.713 651.936 313.433 651.403 313.26C650.883 313.073 650.349 312.98 649.803 312.98C649.109 312.98 648.549 313.133 648.123 313.44C647.696 313.747 647.483 314.147 647.483 314.64C647.483 315.093 647.629 315.44 647.923 315.68C648.216 315.907 648.689 316.067 649.343 316.16L651.083 316.4C652.083 316.533 652.829 316.827 653.323 317.28C653.829 317.733 654.083 318.353 654.083 319.14C654.083 319.713 653.903 320.233 653.543 320.7C653.183 321.167 652.696 321.533 652.083 321.8C651.483 322.067 650.796 322.2 650.023 322.2ZM660.045 326.08V311.98H661.505V313.06C662.372 312.233 663.452 311.82 664.745 311.82C665.692 311.82 666.545 312.053 667.305 312.52C668.065 312.973 668.665 313.587 669.105 314.36C669.558 315.133 669.785 316.007 669.785 316.98C669.785 317.953 669.558 318.833 669.105 319.62C668.665 320.393 668.065 321.013 667.305 321.48C666.545 321.933 665.685 322.16 664.725 322.16C664.138 322.16 663.572 322.06 663.025 321.86C662.478 321.66 661.978 321.373 661.525 321V326.08H660.045ZM664.605 320.86C665.312 320.86 665.945 320.693 666.505 320.36C667.065 320.013 667.505 319.553 667.825 318.98C668.158 318.393 668.325 317.733 668.325 317C668.325 316.267 668.158 315.607 667.825 315.02C667.505 314.433 667.065 313.973 666.505 313.64C665.945 313.293 665.312 313.12 664.605 313.12C663.978 313.12 663.392 313.247 662.845 313.5C662.312 313.74 661.872 314.08 661.525 314.52V319.48C661.872 319.907 662.318 320.247 662.865 320.5C663.412 320.74 663.992 320.86 664.605 320.86ZM675.1 322.18C674.366 322.18 673.72 322.053 673.16 321.8C672.613 321.547 672.18 321.193 671.86 320.74C671.553 320.287 671.4 319.76 671.4 319.16C671.4 318.213 671.76 317.467 672.48 316.92C673.2 316.373 674.173 316.1 675.4 316.1C676.48 316.1 677.46 316.327 678.34 316.78V315.46C678.34 314.66 678.113 314.06 677.66 313.66C677.206 313.247 676.546 313.04 675.68 313.04C675.186 313.04 674.686 313.113 674.18 313.26C673.686 313.393 673.14 313.613 672.54 313.92L671.98 312.78C672.7 312.433 673.366 312.18 673.98 312.02C674.593 311.86 675.206 311.78 675.82 311.78C677.086 311.78 678.06 312.08 678.74 312.68C679.433 313.28 679.78 314.14 679.78 315.26V322H678.34V321.02C677.886 321.407 677.386 321.7 676.84 321.9C676.306 322.087 675.726 322.18 675.1 322.18ZM672.82 319.12C672.82 319.68 673.053 320.14 673.52 320.5C674 320.847 674.613 321.02 675.36 321.02C675.96 321.02 676.506 320.927 677 320.74C677.493 320.553 677.94 320.26 678.34 319.86V317.98C677.926 317.7 677.486 317.5 677.02 317.38C676.553 317.247 676.026 317.18 675.44 317.18C674.64 317.18 674 317.36 673.52 317.72C673.053 318.067 672.82 318.533 672.82 319.12ZM682.252 322V311.98H683.732V313.4C684.039 312.88 684.426 312.48 684.892 312.2C685.372 311.907 685.919 311.76 686.532 311.76C686.879 311.76 687.192 311.807 687.472 311.9V313.26C687.299 313.193 687.126 313.147 686.952 313.12C686.779 313.093 686.606 313.08 686.432 313.08C685.819 313.08 685.279 313.26 684.812 313.62C684.359 313.967 683.999 314.473 683.732 315.14V322H682.252ZM691.818 322.18C691.085 322.18 690.438 322.053 689.878 321.8C689.332 321.547 688.898 321.193 688.578 320.74C688.272 320.287 688.118 319.76 688.118 319.16C688.118 318.213 688.478 317.467 689.198 316.92C689.918 316.373 690.892 316.1 692.118 316.1C693.198 316.1 694.178 316.327 695.058 316.78V315.46C695.058 314.66 694.832 314.06 694.378 313.66C693.925 313.247 693.265 313.04 692.398 313.04C691.905 313.04 691.405 313.113 690.898 313.26C690.405 313.393 689.858 313.613 689.258 313.92L688.698 312.78C689.418 312.433 690.085 312.18 690.698 312.02C691.312 311.86 691.925 311.78 692.538 311.78C693.805 311.78 694.778 312.08 695.458 312.68C696.152 313.28 696.498 314.14 696.498 315.26V322H695.058V321.02C694.605 321.407 694.105 321.7 693.558 321.9C693.025 322.087 692.445 322.18 691.818 322.18ZM689.538 319.12C689.538 319.68 689.772 320.14 690.238 320.5C690.718 320.847 691.332 321.02 692.078 321.02C692.678 321.02 693.225 320.927 693.718 320.74C694.212 320.553 694.658 320.26 695.058 319.86V317.98C694.645 317.7 694.205 317.5 693.738 317.38C693.272 317.247 692.745 317.18 692.158 317.18C691.358 317.18 690.718 317.36 690.238 317.72C689.772 318.067 689.538 318.533 689.538 319.12ZM705.088 320.6H708.248C709.061 320.6 709.814 320.46 710.508 320.18C711.201 319.9 711.808 319.507 712.328 319C712.848 318.493 713.248 317.9 713.528 317.22C713.821 316.54 713.968 315.8 713.968 315C713.968 314.2 713.821 313.46 713.528 312.78C713.248 312.1 712.848 311.507 712.328 311C711.808 310.493 711.201 310.1 710.508 309.82C709.814 309.54 709.061 309.4 708.248 309.4H705.088V320.6ZM703.548 322V308H708.168C709.234 308 710.214 308.173 711.108 308.52C712.001 308.867 712.774 309.353 713.428 309.98C714.094 310.607 714.608 311.347 714.968 312.2C715.341 313.053 715.528 313.987 715.528 315C715.528 316.013 715.348 316.947 714.988 317.8C714.628 318.653 714.114 319.393 713.448 320.02C712.794 320.647 712.014 321.133 711.108 321.48C710.214 321.827 709.234 322 708.168 322H703.548ZM722.362 322.18C721.402 322.18 720.529 321.953 719.742 321.5C718.969 321.033 718.349 320.407 717.882 319.62C717.429 318.833 717.202 317.953 717.202 316.98C717.202 316.02 717.422 315.153 717.862 314.38C718.302 313.593 718.896 312.973 719.642 312.52C720.389 312.053 721.222 311.82 722.142 311.82C723.036 311.82 723.836 312.053 724.542 312.52C725.262 312.973 725.829 313.593 726.242 314.38C726.669 315.153 726.882 316.02 726.882 316.98V317.44H718.662C718.742 318.093 718.949 318.68 719.282 319.2C719.629 319.72 720.076 320.133 720.622 320.44C721.169 320.733 721.769 320.88 722.422 320.88C722.942 320.88 723.449 320.8 723.942 320.64C724.436 320.48 724.849 320.253 725.182 319.96L726.102 320.94C725.542 321.353 724.956 321.667 724.342 321.88C723.742 322.08 723.082 322.18 722.362 322.18ZM718.702 316.26H725.402C725.322 315.66 725.122 315.127 724.802 314.66C724.496 314.18 724.109 313.807 723.642 313.54C723.176 313.26 722.662 313.12 722.102 313.12C721.529 313.12 721.002 313.253 720.522 313.52C720.042 313.787 719.642 314.16 719.322 314.64C719.002 315.107 718.796 315.647 718.702 316.26ZM732.249 322.2C731.422 322.2 730.642 322.067 729.909 321.8C729.189 321.52 728.562 321.133 728.029 320.64L728.929 319.68C729.396 320.107 729.909 320.44 730.469 320.68C731.029 320.907 731.602 321.02 732.189 321.02C732.989 321.02 733.642 320.853 734.149 320.52C734.656 320.187 734.909 319.753 734.909 319.22C734.909 318.78 734.756 318.44 734.449 318.2C734.156 317.947 733.689 317.773 733.049 317.68L731.309 317.44C730.309 317.293 729.562 316.993 729.069 316.54C728.589 316.087 728.349 315.473 728.349 314.7C728.349 314.14 728.509 313.64 728.829 313.2C729.149 312.76 729.589 312.413 730.149 312.16C730.722 311.907 731.376 311.78 732.109 311.78C732.842 311.78 733.529 311.887 734.169 312.1C734.809 312.313 735.436 312.647 736.049 313.1L735.269 314.1C734.709 313.713 734.162 313.433 733.629 313.26C733.109 313.073 732.576 312.98 732.029 312.98C731.336 312.98 730.776 313.133 730.349 313.44C729.922 313.747 729.709 314.147 729.709 314.64C729.709 315.093 729.856 315.44 730.149 315.68C730.442 315.907 730.916 316.067 731.569 316.16L733.309 316.4C734.309 316.533 735.056 316.827 735.549 317.28C736.056 317.733 736.309 318.353 736.309 319.14C736.309 319.713 736.129 320.233 735.769 320.7C735.409 321.167 734.922 321.533 734.309 321.8C733.709 322.067 733.022 322.2 732.249 322.2ZM741.72 322.2C740.853 322.2 740.186 321.993 739.72 321.58C739.253 321.167 739.02 320.567 739.02 319.78V313.24H736.86V311.98H739.02V309.44L740.48 309.06V311.98H743.5V313.24H740.48V319.4C740.48 319.933 740.6 320.32 740.84 320.56C741.08 320.787 741.473 320.9 742.02 320.9C742.3 320.9 742.546 320.88 742.76 320.84C742.986 320.8 743.226 320.733 743.48 320.64V321.94C743.226 322.033 742.94 322.1 742.62 322.14C742.313 322.18 742.013 322.2 741.72 322.2ZM748.244 322.18C747.511 322.18 746.864 322.053 746.304 321.8C745.758 321.547 745.324 321.193 745.004 320.74C744.698 320.287 744.544 319.76 744.544 319.16C744.544 318.213 744.904 317.467 745.624 316.92C746.344 316.373 747.318 316.1 748.544 316.1C749.624 316.1 750.604 316.327 751.484 316.78V315.46C751.484 314.66 751.258 314.06 750.804 313.66C750.351 313.247 749.691 313.04 748.824 313.04C748.331 313.04 747.831 313.113 747.324 313.26C746.831 313.393 746.284 313.613 745.684 313.92L745.124 312.78C745.844 312.433 746.511 312.18 747.124 312.02C747.738 311.86 748.351 311.78 748.964 311.78C750.231 311.78 751.204 312.08 751.884 312.68C752.578 313.28 752.924 314.14 752.924 315.26V322H751.484V321.02C751.031 321.407 750.531 321.7 749.984 321.9C749.451 322.087 748.871 322.18 748.244 322.18ZM745.964 319.12C745.964 319.68 746.198 320.14 746.664 320.5C747.144 320.847 747.758 321.02 748.504 321.02C749.104 321.02 749.651 320.927 750.144 320.74C750.638 320.553 751.084 320.26 751.484 319.86V317.98C751.071 317.7 750.631 317.5 750.164 317.38C749.698 317.247 749.171 317.18 748.584 317.18C747.784 317.18 747.144 317.36 746.664 317.72C746.198 318.067 745.964 318.533 745.964 319.12ZM760.037 322.18C759.09 322.18 758.23 321.953 757.457 321.5C756.683 321.033 756.07 320.407 755.617 319.62C755.163 318.833 754.937 317.953 754.937 316.98C754.937 316.007 755.163 315.133 755.617 314.36C756.07 313.573 756.683 312.947 757.457 312.48C758.23 312.013 759.09 311.78 760.037 311.78C760.77 311.78 761.477 311.92 762.157 312.2C762.837 312.467 763.437 312.853 763.957 313.36L763.017 314.44C762.617 314.013 762.157 313.693 761.637 313.48C761.13 313.253 760.603 313.14 760.057 313.14C759.377 313.14 758.757 313.313 758.197 313.66C757.65 313.993 757.21 314.453 756.877 315.04C756.557 315.613 756.397 316.26 756.397 316.98C756.397 317.7 756.557 318.353 756.877 318.94C757.21 319.527 757.657 319.993 758.217 320.34C758.777 320.673 759.397 320.84 760.077 320.84C760.623 320.84 761.137 320.733 761.617 320.52C762.11 320.307 762.57 319.993 762.997 319.58L763.917 320.58C763.383 321.087 762.783 321.48 762.117 321.76C761.45 322.04 760.757 322.18 760.037 322.18ZM768.811 322.18C768.077 322.18 767.431 322.053 766.871 321.8C766.324 321.547 765.891 321.193 765.571 320.74C765.264 320.287 765.111 319.76 765.111 319.16C765.111 318.213 765.471 317.467 766.191 316.92C766.911 316.373 767.884 316.1 769.111 316.1C770.191 316.1 771.171 316.327 772.051 316.78V315.46C772.051 314.66 771.824 314.06 771.371 313.66C770.917 313.247 770.257 313.04 769.391 313.04C768.897 313.04 768.397 313.113 767.891 313.26C767.397 313.393 766.851 313.613 766.251 313.92L765.691 312.78C766.411 312.433 767.077 312.18 767.691 312.02C768.304 311.86 768.917 311.78 769.531 311.78C770.797 311.78 771.771 312.08 772.451 312.68C773.144 313.28 773.491 314.14 773.491 315.26V322H772.051V321.02C771.597 321.407 771.097 321.7 770.551 321.9C770.017 322.087 769.437 322.18 768.811 322.18ZM766.531 319.12C766.531 319.68 766.764 320.14 767.231 320.5C767.711 320.847 768.324 321.02 769.071 321.02C769.671 321.02 770.217 320.927 770.711 320.74C771.204 320.553 771.651 320.26 772.051 319.86V317.98C771.637 317.7 771.197 317.5 770.731 317.38C770.264 317.247 769.737 317.18 769.151 317.18C768.351 317.18 767.711 317.36 767.231 317.72C766.764 318.067 766.531 318.533 766.531 319.12ZM775.963 322V311.98H777.443V313.4C777.75 312.88 778.136 312.48 778.603 312.2C779.083 311.907 779.63 311.76 780.243 311.76C780.59 311.76 780.903 311.807 781.183 311.9V313.26C781.01 313.193 780.836 313.147 780.663 313.12C780.49 313.093 780.316 313.08 780.143 313.08C779.53 313.08 778.99 313.26 778.523 313.62C778.07 313.967 777.71 314.473 777.443 315.14V322H775.963ZM791.994 322.2C790.887 322.2 789.827 321.98 788.814 321.54C787.801 321.087 786.907 320.44 786.134 319.6L787.154 318.54C787.874 319.313 788.641 319.893 789.454 320.28C790.281 320.667 791.147 320.86 792.054 320.86C792.787 320.86 793.434 320.747 793.994 320.52C794.567 320.28 795.014 319.953 795.334 319.54C795.654 319.113 795.814 318.633 795.814 318.1C795.814 317.38 795.561 316.827 795.054 316.44C794.561 316.053 793.741 315.767 792.594 315.58L790.574 315.26C789.227 315.033 788.234 314.633 787.594 314.06C786.954 313.487 786.634 312.707 786.634 311.72C786.634 310.947 786.841 310.267 787.254 309.68C787.667 309.093 788.241 308.64 788.974 308.32C789.721 307.987 790.581 307.82 791.554 307.82C792.541 307.82 793.507 307.98 794.454 308.3C795.414 308.62 796.287 309.08 797.074 309.68L796.194 310.88C794.661 309.72 793.094 309.14 791.494 309.14C790.827 309.14 790.241 309.247 789.734 309.46C789.227 309.66 788.834 309.947 788.554 310.32C788.274 310.68 788.134 311.107 788.134 311.6C788.134 312.253 788.354 312.753 788.794 313.1C789.234 313.447 789.961 313.7 790.974 313.86L792.974 314.18C794.507 314.433 795.621 314.867 796.314 315.48C797.007 316.08 797.354 316.927 797.354 318.02C797.354 318.833 797.127 319.56 796.674 320.2C796.221 320.827 795.587 321.32 794.774 321.68C793.974 322.027 793.047 322.2 791.994 322.2ZM804.062 322.18C803.102 322.18 802.228 321.953 801.442 321.5C800.668 321.033 800.048 320.407 799.582 319.62C799.128 318.833 798.902 317.953 798.902 316.98C798.902 316.02 799.122 315.153 799.562 314.38C800.002 313.593 800.595 312.973 801.342 312.52C802.088 312.053 802.922 311.82 803.842 311.82C804.735 311.82 805.535 312.053 806.242 312.52C806.962 312.973 807.528 313.593 807.942 314.38C808.368 315.153 808.582 316.02 808.582 316.98V317.44H800.362C800.442 318.093 800.648 318.68 800.982 319.2C801.328 319.72 801.775 320.133 802.322 320.44C802.868 320.733 803.468 320.88 804.122 320.88C804.642 320.88 805.148 320.8 805.642 320.64C806.135 320.48 806.548 320.253 806.882 319.96L807.802 320.94C807.242 321.353 806.655 321.667 806.042 321.88C805.442 322.08 804.782 322.18 804.062 322.18ZM800.402 316.26H807.102C807.022 315.66 806.822 315.127 806.502 314.66C806.195 314.18 805.808 313.807 805.342 313.54C804.875 313.26 804.362 313.12 803.802 313.12C803.228 313.12 802.702 313.253 802.222 313.52C801.742 313.787 801.342 314.16 801.022 314.64C800.702 315.107 800.495 315.647 800.402 316.26ZM814.491 322.2C813.731 322.2 813.057 322.04 812.471 321.72C811.884 321.387 811.424 320.933 811.091 320.36C810.771 319.773 810.611 319.093 810.611 318.32V311.98H812.071V318.02C812.071 318.913 812.324 319.62 812.831 320.14C813.337 320.647 814.017 320.9 814.871 320.9C815.471 320.9 816.004 320.767 816.471 320.5C816.951 320.22 817.337 319.833 817.631 319.34V311.98H819.111V322H817.631V320.84C816.844 321.747 815.797 322.2 814.491 322.2ZM826.204 322V308H832.284C833.204 308 833.997 308.167 834.664 308.5C835.344 308.833 835.871 309.307 836.244 309.92C836.617 310.52 836.804 311.227 836.804 312.04C836.804 312.853 836.617 313.567 836.244 314.18C835.871 314.78 835.344 315.253 834.664 315.6C833.984 315.933 833.191 316.1 832.284 316.1H827.744V322H826.204ZM827.744 314.76H832.164C833.111 314.76 833.864 314.52 834.424 314.04C834.984 313.547 835.264 312.887 835.264 312.06C835.264 311.233 834.984 310.58 834.424 310.1C833.864 309.62 833.111 309.38 832.164 309.38H827.744V314.76ZM838.776 322V311.98H840.256V313.4C840.562 312.88 840.949 312.48 841.416 312.2C841.896 311.907 842.442 311.76 843.056 311.76C843.402 311.76 843.716 311.807 843.996 311.9V313.26C843.822 313.193 843.649 313.147 843.476 313.12C843.302 313.093 843.129 313.08 842.956 313.08C842.342 313.08 841.802 313.26 841.336 313.62C840.882 313.967 840.522 314.473 840.256 315.14V322H838.776ZM849.647 322.2C848.7 322.2 847.833 321.973 847.047 321.52C846.273 321.053 845.66 320.427 845.207 319.64C844.753 318.853 844.527 317.973 844.527 317C844.527 316.027 844.753 315.147 845.207 314.36C845.66 313.573 846.273 312.953 847.047 312.5C847.833 312.033 848.7 311.8 849.647 311.8C850.607 311.8 851.473 312.033 852.247 312.5C853.02 312.953 853.633 313.573 854.087 314.36C854.54 315.147 854.767 316.027 854.767 317C854.767 317.973 854.54 318.853 854.087 319.64C853.633 320.427 853.02 321.053 852.247 321.52C851.473 321.973 850.607 322.2 849.647 322.2ZM849.647 320.88C850.327 320.88 850.94 320.707 851.487 320.36C852.047 320.013 852.487 319.547 852.807 318.96C853.14 318.373 853.307 317.72 853.307 317C853.307 316.267 853.14 315.613 852.807 315.04C852.487 314.453 852.047 313.987 851.487 313.64C850.94 313.293 850.327 313.12 849.647 313.12C848.967 313.12 848.347 313.293 847.787 313.64C847.24 313.987 846.8 314.453 846.467 315.04C846.147 315.613 845.987 316.267 845.987 317C845.987 317.72 846.147 318.373 846.467 318.96C846.8 319.547 847.24 320.013 847.787 320.36C848.347 320.707 848.967 320.88 849.647 320.88ZM861.403 322.16C860.469 322.16 859.616 321.933 858.843 321.48C858.083 321.013 857.476 320.393 857.023 319.62C856.583 318.833 856.363 317.953 856.363 316.98C856.363 316.007 856.583 315.133 857.023 314.36C857.476 313.587 858.083 312.973 858.843 312.52C859.616 312.053 860.476 311.82 861.423 311.82C862.009 311.82 862.576 311.92 863.123 312.12C863.669 312.307 864.169 312.587 864.623 312.96V308L866.103 307.66V322H864.643V320.94C863.763 321.753 862.683 322.16 861.403 322.16ZM861.543 320.86C862.169 320.86 862.749 320.74 863.283 320.5C863.829 320.247 864.276 319.9 864.623 319.46V314.5C864.276 314.073 863.829 313.74 863.283 313.5C862.749 313.247 862.169 313.12 861.543 313.12C860.849 313.12 860.216 313.287 859.643 313.62C859.083 313.953 858.636 314.413 858.303 315C857.983 315.573 857.823 316.227 857.823 316.96C857.823 317.693 857.983 318.353 858.303 318.94C858.636 319.527 859.083 319.993 859.643 320.34C860.216 320.687 860.849 320.86 861.543 320.86ZM872.459 322.2C871.699 322.2 871.026 322.04 870.439 321.72C869.853 321.387 869.393 320.933 869.059 320.36C868.739 319.773 868.579 319.093 868.579 318.32V311.98H870.039V318.02C870.039 318.913 870.293 319.62 870.799 320.14C871.306 320.647 871.986 320.9 872.839 320.9C873.439 320.9 873.973 320.767 874.439 320.5C874.919 320.22 875.306 319.833 875.599 319.34V311.98H877.079V322H875.599V320.84C874.813 321.747 873.766 322.2 872.459 322.2ZM883.536 322.2C882.669 322.2 882.003 321.993 881.536 321.58C881.069 321.167 880.836 320.567 880.836 319.78V313.24H878.676V311.98H880.836V309.44L882.296 309.06V311.98H885.316V313.24H882.296V319.4C882.296 319.933 882.416 320.32 882.656 320.56C882.896 320.787 883.289 320.9 883.836 320.9C884.116 320.9 884.363 320.88 884.576 320.84C884.803 320.8 885.043 320.733 885.296 320.64V321.94C885.043 322.033 884.756 322.1 884.436 322.14C884.129 322.18 883.829 322.2 883.536 322.2ZM891.365 322.2C890.419 322.2 889.552 321.973 888.765 321.52C887.992 321.053 887.379 320.427 886.925 319.64C886.472 318.853 886.245 317.973 886.245 317C886.245 316.027 886.472 315.147 886.925 314.36C887.379 313.573 887.992 312.953 888.765 312.5C889.552 312.033 890.419 311.8 891.365 311.8C892.325 311.8 893.192 312.033 893.965 312.5C894.739 312.953 895.352 313.573 895.805 314.36C896.259 315.147 896.485 316.027 896.485 317C896.485 317.973 896.259 318.853 895.805 319.64C895.352 320.427 894.739 321.053 893.965 321.52C893.192 321.973 892.325 322.2 891.365 322.2ZM891.365 320.88C892.045 320.88 892.659 320.707 893.205 320.36C893.765 320.013 894.205 319.547 894.525 318.96C894.859 318.373 895.025 317.72 895.025 317C895.025 316.267 894.859 315.613 894.525 315.04C894.205 314.453 893.765 313.987 893.205 313.64C892.659 313.293 892.045 313.12 891.365 313.12C890.685 313.12 890.065 313.293 889.505 313.64C888.959 313.987 888.519 314.453 888.185 315.04C887.865 315.613 887.705 316.267 887.705 317C887.705 317.72 887.865 318.373 888.185 318.96C888.519 319.547 888.959 320.013 889.505 320.36C890.065 320.707 890.685 320.88 891.365 320.88ZM909.678 322.22C908.665 322.22 907.718 322.04 906.838 321.68C905.971 321.307 905.205 320.793 904.538 320.14C903.885 319.473 903.371 318.707 902.998 317.84C902.638 316.96 902.458 316.013 902.458 315C902.458 313.987 902.638 313.047 902.998 312.18C903.371 311.3 903.885 310.533 904.538 309.88C905.205 309.213 905.971 308.7 906.838 308.34C907.718 307.967 908.665 307.78 909.678 307.78C910.678 307.78 911.611 307.967 912.478 308.34C913.358 308.7 914.125 309.213 914.778 309.88C915.445 310.533 915.958 311.3 916.318 312.18C916.691 313.047 916.878 313.987 916.878 315C916.878 316.013 916.691 316.96 916.318 317.84C915.958 318.707 915.445 319.473 914.778 320.14C914.125 320.793 913.358 321.307 912.478 321.68C911.611 322.04 910.678 322.22 909.678 322.22ZM909.678 320.8C910.478 320.8 911.218 320.653 911.898 320.36C912.578 320.067 913.171 319.66 913.678 319.14C914.198 318.607 914.598 317.987 914.878 317.28C915.171 316.573 915.318 315.813 915.318 315C915.318 314.173 915.171 313.413 914.878 312.72C914.598 312.013 914.198 311.4 913.678 310.88C913.171 310.347 912.578 309.933 911.898 309.64C911.218 309.347 910.478 309.2 909.678 309.2C908.878 309.2 908.131 309.347 907.438 309.64C906.758 309.933 906.158 310.347 905.638 310.88C905.131 311.4 904.731 312.013 904.438 312.72C904.158 313.413 904.018 314.167 904.018 314.98C904.018 315.807 904.158 316.573 904.438 317.28C904.731 317.987 905.131 318.607 905.638 319.14C906.158 319.66 906.758 320.067 907.438 320.36C908.131 320.653 908.878 320.8 909.678 320.8ZM919.01 322V311.98H920.49V313.16C921.277 312.24 922.33 311.78 923.65 311.78C924.41 311.78 925.077 311.947 925.65 312.28C926.237 312.6 926.69 313.053 927.01 313.64C927.343 314.213 927.51 314.887 927.51 315.66V322H926.05V315.96C926.05 315.067 925.797 314.367 925.29 313.86C924.797 313.34 924.117 313.08 923.25 313.08C922.65 313.08 922.117 313.213 921.65 313.48C921.183 313.747 920.797 314.127 920.49 314.62V322H919.01ZM929.987 322V308L931.467 307.66V322H929.987ZM933.99 322V311.98H935.47V322H933.99ZM934.73 310.06C934.464 310.06 934.23 309.96 934.03 309.76C933.83 309.56 933.73 309.327 933.73 309.06C933.73 308.78 933.83 308.547 934.03 308.36C934.23 308.16 934.464 308.06 934.73 308.06C935.01 308.06 935.244 308.16 935.43 308.36C935.63 308.547 935.73 308.78 935.73 309.06C935.73 309.327 935.63 309.56 935.43 309.76C935.244 309.96 935.01 310.06 934.73 310.06ZM937.994 322V311.98H939.474V313.16C940.261 312.24 941.314 311.78 942.634 311.78C943.394 311.78 944.061 311.947 944.634 312.28C945.221 312.6 945.674 313.053 945.994 313.64C946.328 314.213 946.494 314.887 946.494 315.66V322H945.034V315.96C945.034 315.067 944.781 314.367 944.274 313.86C943.781 313.34 943.101 313.08 942.234 313.08C941.634 313.08 941.101 313.213 940.634 313.48C940.168 313.747 939.781 314.127 939.474 314.62V322H937.994ZM953.671 322.18C952.711 322.18 951.838 321.953 951.051 321.5C950.278 321.033 949.658 320.407 949.191 319.62C948.738 318.833 948.511 317.953 948.511 316.98C948.511 316.02 948.731 315.153 949.171 314.38C949.611 313.593 950.204 312.973 950.951 312.52C951.698 312.053 952.531 311.82 953.451 311.82C954.344 311.82 955.144 312.053 955.851 312.52C956.571 312.973 957.138 313.593 957.551 314.38C957.978 315.153 958.191 316.02 958.191 316.98V317.44H949.971C950.051 318.093 950.258 318.68 950.591 319.2C950.938 319.72 951.384 320.133 951.931 320.44C952.478 320.733 953.078 320.88 953.731 320.88C954.251 320.88 954.758 320.8 955.251 320.64C955.744 320.48 956.158 320.253 956.491 319.96L957.411 320.94C956.851 321.353 956.264 321.667 955.651 321.88C955.051 322.08 954.391 322.18 953.671 322.18ZM950.011 316.26H956.711C956.631 315.66 956.431 315.127 956.111 314.66C955.804 314.18 955.418 313.807 954.951 313.54C954.484 313.26 953.971 313.12 953.411 313.12C952.838 313.12 952.311 313.253 951.831 313.52C951.351 313.787 950.951 314.16 950.631 314.64C950.311 315.107 950.104 315.647 950.011 316.26Z" fill="white"/>
</svg>
