<svg width="825" height="290" viewBox="0 0 825 290" fill="none" xmlns="http://www.w3.org/2000/svg">
<path d="M380.891 91.1211V88.1328C383.527 89.0703 386.375 89.5391 389.434 89.5391C393.758 89.5391 395.92 87.957 395.92 84.793C395.92 82.0977 394.326 80.75 391.139 80.75H387.904C382.643 80.75 380.012 78.4648 380.012 73.8945C380.012 69.0898 383.381 66.6875 390.119 66.6875C393.049 66.6875 395.773 67.0391 398.293 67.7422V70.7305C395.773 69.793 393.049 69.3242 390.119 69.3242C385.549 69.3242 383.264 70.8477 383.264 73.8945C383.264 76.5898 384.811 77.9375 387.904 77.9375H391.139C396.494 77.9375 399.172 80.2227 399.172 84.793C399.172 89.7148 395.926 92.1758 389.434 92.1758C386.375 92.1758 383.527 91.8242 380.891 91.1211ZM405.939 82.7012C405.939 87.1426 407.785 89.3633 411.477 89.3633C415.168 89.3633 417.014 87.1426 417.014 82.7012C417.014 78.3535 415.168 76.1797 411.477 76.1797C407.785 76.1797 405.939 78.3535 405.939 82.7012ZM402.688 82.7715C402.688 76.6191 405.617 73.543 411.477 73.543C417.336 73.543 420.266 76.6191 420.266 82.7715C420.266 88.9121 417.336 91.9824 411.477 91.9824C405.641 91.9824 402.711 88.9121 402.688 82.7715ZM428.088 66.8633V92H424.836V66.8633H428.088ZM449.463 73.543V92H447.23L446.668 89.6445C444.43 91.2148 442.18 92 439.918 92C435.676 92 433.555 89.709 433.555 85.127V73.543H436.807V85.1797C436.807 87.9219 438.166 89.293 440.885 89.293C442.748 89.293 444.523 88.5137 446.211 86.9551V73.543H449.463ZM461.434 91.8418C456.395 91.1035 453.875 87.9629 453.875 82.4199C453.875 76.502 457.215 73.543 463.895 73.543C465.652 73.543 467.293 73.7188 468.816 74.0703V76.707C467.293 76.3555 465.77 76.1797 464.246 76.1797C459.5 76.1797 457.127 78.2598 457.127 82.4199C457.127 87.0488 459.5 89.3633 464.246 89.3633C465.77 89.3633 467.293 89.1875 468.816 88.8359V91.4727C467.293 91.8242 465.652 92 463.895 92H463.684L462.963 93.3535C465.471 93.3535 466.725 94.3613 466.725 96.377C466.725 98.4043 465.312 99.418 462.488 99.418C461.223 99.418 459.957 99.125 458.691 98.5391V96.6406C459.957 97.2266 461.223 97.5195 462.488 97.5195C463.754 97.5195 464.387 97.1387 464.387 96.377C464.387 95.627 463.9 95.252 462.928 95.252H459.711L461.434 91.8418ZM475.162 82.7012C475.162 87.1426 477.008 89.3633 480.699 89.3633C484.391 89.3633 486.236 87.1426 486.236 82.7012C486.236 78.3535 484.391 76.1797 480.699 76.1797C477.008 76.1797 475.162 78.3535 475.162 82.7012ZM471.91 82.7715C471.91 76.6191 474.84 73.543 480.699 73.543C486.559 73.543 489.488 76.6191 489.488 82.7715C489.488 88.9121 486.559 91.9824 480.699 91.9824C474.863 91.9824 471.934 88.9121 471.91 82.7715ZM476.305 67.6719C477.008 67.1328 477.77 66.8633 478.59 66.8633C479.199 66.8633 479.844 67.0156 480.523 67.3203C481.203 67.625 481.871 67.7773 482.527 67.7773C483.406 67.7773 484.262 67.5078 485.094 66.9688V69.6055C484.391 70.1445 483.629 70.4141 482.809 70.4141C482.199 70.4141 481.555 70.2617 480.875 69.957C480.195 69.6523 479.527 69.5 478.871 69.5C477.992 69.5 477.137 69.7695 476.305 70.3086V67.6719ZM501.494 73.543C506.744 73.543 509.369 76.1387 509.369 81.3301C509.369 82.0684 509.316 82.8594 509.211 83.7031H496.256C496.256 87.4766 498.459 89.3633 502.865 89.3633C504.963 89.3633 506.826 89.1289 508.455 88.6602V91.2969C506.826 91.7656 504.846 92 502.514 92C496.174 92 493.004 88.8535 493.004 82.5605C493.004 76.5488 495.834 73.543 501.494 73.543ZM496.256 80.9961H506.24C506.17 77.7617 504.588 76.1445 501.494 76.1445C498.213 76.1445 496.467 77.7617 496.256 80.9961ZM513.57 91.1211V88.3086C515.738 89.0117 517.93 89.3633 520.145 89.3633C523.086 89.3633 524.557 88.4844 524.557 86.7266C524.557 85.0859 523.531 84.2656 521.48 84.2656H518.844C514.859 84.2656 512.867 82.4492 512.867 78.8164C512.867 75.3008 515.428 73.543 520.549 73.543C522.752 73.543 524.938 73.8359 527.105 74.4219V77.2344C524.938 76.5312 522.752 76.1797 520.549 76.1797C517.479 76.1797 515.943 77.0586 515.943 78.8164C515.943 80.457 516.91 81.2773 518.844 81.2773H521.48C525.699 81.2773 527.809 83.0938 527.809 86.7266C527.809 90.2422 525.254 92 520.145 92C517.93 92 515.738 91.707 513.57 91.1211ZM560.328 91.1211C558.16 91.8242 555.816 92.1758 553.297 92.1758C544.508 92.1758 540.113 87.8105 540.113 79.0801C540.113 70.8184 544.508 66.6875 553.297 66.6875C555.816 66.6875 558.16 67.0391 560.328 67.7422V70.5547C558.16 69.7344 555.934 69.3242 553.648 69.3242C546.793 69.3242 543.365 72.5762 543.365 79.0801C543.365 86.0527 546.793 89.5391 553.648 89.5391C555.934 89.5391 558.16 89.1289 560.328 88.3086V91.1211ZM567.729 82.7012C567.729 87.1426 569.574 89.3633 573.266 89.3633C576.957 89.3633 578.803 87.1426 578.803 82.7012C578.803 78.3535 576.957 76.1797 573.266 76.1797C569.574 76.1797 567.729 78.3535 567.729 82.7012ZM564.477 82.7715C564.477 76.6191 567.406 73.543 573.266 73.543C579.125 73.543 582.055 76.6191 582.055 82.7715C582.055 88.9121 579.125 91.9824 573.266 91.9824C567.43 91.9824 564.5 88.9121 564.477 82.7715ZM586.449 92V73.543H588.646L589.191 75.8633C590.961 74.3164 592.889 73.543 594.975 73.543C597.646 73.543 599.469 74.3867 600.441 76.0742C602.445 74.3867 604.479 73.543 606.541 73.543C610.783 73.543 612.904 75.8809 612.904 80.5566V92H609.652V80.3809C609.652 77.627 608.492 76.25 606.172 76.25C604.438 76.25 602.814 77.0469 601.303 78.6406V92H598.051V80.4336C598.051 77.6445 596.902 76.25 594.605 76.25C592.777 76.25 591.143 77.0469 589.701 78.6406V92H586.449ZM621.447 88.2383C622.725 88.8711 624.148 89.1875 625.719 89.1875C629.551 89.1875 631.467 86.8848 631.467 82.2793C631.467 78.2598 629.562 76.25 625.754 76.25C624.113 76.25 622.678 76.3906 621.447 76.6719V88.2383ZM618.195 74.2988C620.645 73.7949 623.176 73.543 625.789 73.543C631.707 73.543 634.666 76.4668 634.666 82.3145C634.666 88.7715 631.689 92 625.736 92C624.26 92 622.83 91.707 621.447 91.1211V98.6797H618.195V74.2988ZM642.506 66.8633V92H639.254V66.8633H642.506ZM655.584 73.543C660.834 73.543 663.459 76.1387 663.459 81.3301C663.459 82.0684 663.406 82.8594 663.301 83.7031H650.346C650.346 87.4766 652.549 89.3633 656.955 89.3633C659.053 89.3633 660.916 89.1289 662.545 88.6602V91.2969C660.916 91.7656 658.936 92 656.604 92C650.264 92 647.094 88.8535 647.094 82.5605C647.094 76.5488 649.924 73.543 655.584 73.543ZM650.346 80.9961H660.33C660.26 77.7617 658.678 76.1445 655.584 76.1445C652.303 76.1445 650.557 77.7617 650.346 80.9961ZM667.836 70.5547H669.875L670.578 73.543H675.57V76.1797H671.088V86.7793C671.088 88.502 671.832 89.3633 673.32 89.3633H675.57V92H672.477C669.383 92 667.836 90.3418 667.836 87.0254V70.5547ZM678.84 86.4277C678.84 82.6426 681.336 80.75 686.328 80.75C687.934 80.75 689.539 80.8672 691.145 81.1016V79.3613C691.145 77.2402 689.486 76.1797 686.17 76.1797C684.271 76.1797 682.326 76.4727 680.334 77.0586V74.4219C682.326 73.8359 684.271 73.543 686.17 73.543C691.654 73.543 694.396 75.4531 694.396 79.2734V92H692.568L691.443 90.1719C689.604 91.3906 687.6 92 685.432 92C681.037 92 678.84 90.1426 678.84 86.4277ZM686.328 83.3867C683.504 83.3867 682.092 84.3828 682.092 86.375C682.092 88.3672 683.205 89.3633 685.432 89.3633C687.682 89.3633 689.586 88.7656 691.145 87.5703V83.7383C689.539 83.5039 687.934 83.3867 686.328 83.3867ZM699.512 91.1211V88.3086C701.68 89.0117 703.871 89.3633 706.086 89.3633C709.027 89.3633 710.498 88.4844 710.498 86.7266C710.498 85.0859 709.473 84.2656 707.422 84.2656H704.785C700.801 84.2656 698.809 82.4492 698.809 78.8164C698.809 75.3008 701.369 73.543 706.49 73.543C708.693 73.543 710.879 73.8359 713.047 74.4219V77.2344C710.879 76.5312 708.693 76.1797 706.49 76.1797C703.42 76.1797 701.885 77.0586 701.885 78.8164C701.885 80.457 702.852 81.2773 704.785 81.2773H707.422C711.641 81.2773 713.75 83.0938 713.75 86.7266C713.75 90.2422 711.195 92 706.086 92C703.871 92 701.68 91.707 699.512 91.1211ZM730.186 88.2383C731.463 88.8711 732.887 89.1875 734.457 89.1875C738.289 89.1875 740.205 86.8848 740.205 82.2793C740.205 78.2598 738.301 76.25 734.492 76.25C732.852 76.25 731.416 76.3906 730.186 76.6719V88.2383ZM726.934 74.2988C729.383 73.7949 731.914 73.543 734.527 73.543C740.445 73.543 743.404 76.4668 743.404 82.3145C743.404 88.7715 740.428 92 734.475 92C732.998 92 731.568 91.707 730.186 91.1211V98.6797H726.934V74.2988ZM746.938 86.4277C746.938 82.6426 749.434 80.75 754.426 80.75C756.031 80.75 757.637 80.8672 759.242 81.1016V79.3613C759.242 77.2402 757.584 76.1797 754.268 76.1797C752.369 76.1797 750.424 76.4727 748.432 77.0586V74.4219C750.424 73.8359 752.369 73.543 754.268 73.543C759.752 73.543 762.494 75.4531 762.494 79.2734V92H760.666L759.541 90.1719C757.701 91.3906 755.697 92 753.529 92C749.135 92 746.938 90.1426 746.938 86.4277ZM754.426 83.3867C751.602 83.3867 750.189 84.3828 750.189 86.375C750.189 88.3672 751.303 89.3633 753.529 89.3633C755.779 89.3633 757.684 88.7656 759.242 87.5703V83.7383C757.637 83.5039 756.031 83.3867 754.426 83.3867ZM767.785 92V73.543H769.982L770.562 75.8984C772.18 74.3281 774.125 73.543 776.398 73.543V76.25C774.195 76.25 772.408 77.0293 771.037 78.5879V92H767.785ZM778.789 86.4277C778.789 82.6426 781.285 80.75 786.277 80.75C787.883 80.75 789.488 80.8672 791.094 81.1016V79.3613C791.094 77.2402 789.436 76.1797 786.119 76.1797C784.221 76.1797 782.275 76.4727 780.283 77.0586V74.4219C782.275 73.8359 784.221 73.543 786.119 73.543C791.604 73.543 794.346 75.4531 794.346 79.2734V92H792.518L791.393 90.1719C789.553 91.3906 787.549 92 785.381 92C780.986 92 778.789 90.1426 778.789 86.4277ZM786.277 83.3867C783.453 83.3867 782.041 84.3828 782.041 86.375C782.041 88.3672 783.154 89.3633 785.381 89.3633C787.631 89.3633 789.535 88.7656 791.094 87.5703V83.7383C789.488 83.5039 787.883 83.3867 786.277 83.3867ZM561.682 122.701C561.682 127.143 563.527 129.363 567.219 129.363C570.91 129.363 572.756 127.143 572.756 122.701C572.756 118.354 570.91 116.18 567.219 116.18C563.527 116.18 561.682 118.354 561.682 122.701ZM558.43 122.771C558.43 116.619 561.359 113.543 567.219 113.543C573.078 113.543 576.008 116.619 576.008 122.771C576.008 128.912 573.078 131.982 567.219 131.982C561.383 131.982 558.453 128.912 558.43 122.771ZM589.191 131.121V128.133C591.828 129.07 594.676 129.539 597.734 129.539C602.059 129.539 604.221 127.957 604.221 124.793C604.221 122.098 602.627 120.75 599.439 120.75H596.205C590.943 120.75 588.312 118.465 588.312 113.895C588.312 109.09 591.682 106.688 598.42 106.688C601.35 106.688 604.074 107.039 606.594 107.742V110.73C604.074 109.793 601.35 109.324 598.42 109.324C593.85 109.324 591.564 110.848 591.564 113.895C591.564 116.59 593.111 117.938 596.205 117.938H599.439C604.795 117.938 607.473 120.223 607.473 124.793C607.473 129.715 604.227 132.176 597.734 132.176C594.676 132.176 591.828 131.824 589.191 131.121ZM619.479 113.543C624.729 113.543 627.354 116.139 627.354 121.33C627.354 122.068 627.301 122.859 627.195 123.703H614.24C614.24 127.477 616.443 129.363 620.85 129.363C622.947 129.363 624.811 129.129 626.439 128.66V131.297C624.811 131.766 622.83 132 620.498 132C614.158 132 610.988 128.854 610.988 122.561C610.988 116.549 613.818 113.543 619.479 113.543ZM614.24 120.996H624.225C624.154 117.762 622.572 116.145 619.479 116.145C616.197 116.145 614.451 117.762 614.24 120.996ZM647.639 113.543V132H645.406L644.844 129.645C642.605 131.215 640.355 132 638.094 132C633.852 132 631.73 129.709 631.73 125.127V113.543H634.982V125.18C634.982 127.922 636.342 129.293 639.061 129.293C640.924 129.293 642.699 128.514 644.387 126.955V113.543H647.639ZM662.07 132V106.863H665.322L680.703 127.113V106.863H683.779V132H680.527L665.146 111.574V132H662.07ZM697.033 113.543C702.283 113.543 704.908 116.139 704.908 121.33C704.908 122.068 704.855 122.859 704.75 123.703H691.795C691.795 127.477 693.998 129.363 698.404 129.363C700.502 129.363 702.365 129.129 703.994 128.66V131.297C702.365 131.766 700.385 132 698.053 132C691.713 132 688.543 128.854 688.543 122.561C688.543 116.549 691.373 113.543 697.033 113.543ZM691.795 120.996H701.779C701.709 117.762 700.127 116.145 697.033 116.145C693.752 116.145 692.006 117.762 691.795 120.996ZM721.625 116.672C720.512 116.391 719.135 116.25 717.494 116.25C713.568 116.25 711.605 118.377 711.605 122.631C711.605 127.002 713.463 129.188 717.178 129.188C718.865 129.188 720.348 128.871 721.625 128.238V116.672ZM724.877 132C724.877 136.453 722.047 138.68 716.387 138.68C714.113 138.68 712.098 138.387 710.34 137.801V135.164C712.133 135.75 714.16 136.043 716.422 136.043C719.891 136.043 721.625 134.695 721.625 132V131.121C720.242 131.707 718.754 132 717.16 132C711.324 132 708.406 128.889 708.406 122.666C708.406 116.584 711.482 113.543 717.635 113.543C720.131 113.543 722.545 113.795 724.877 114.299V132ZM732.541 122.701C732.541 127.143 734.387 129.363 738.078 129.363C741.77 129.363 743.615 127.143 743.615 122.701C743.615 118.354 741.77 116.18 738.078 116.18C734.387 116.18 732.541 118.354 732.541 122.701ZM729.289 122.771C729.289 116.619 732.219 113.543 738.078 113.543C743.938 113.543 746.867 116.619 746.867 122.771C746.867 128.912 743.938 131.982 738.078 131.982C732.242 131.982 729.312 128.912 729.289 122.771ZM738.605 106.863H742.807L738.605 111.064H735.723L738.605 106.863ZM765.148 131.473C763.625 131.824 761.984 132 760.227 132C753.664 132 750.383 128.807 750.383 122.42C750.383 116.502 753.664 113.543 760.227 113.543C761.984 113.543 763.625 113.719 765.148 114.07V116.707C763.625 116.355 761.926 116.18 760.051 116.18C755.773 116.18 753.635 118.26 753.635 122.42C753.635 127.049 755.773 129.363 760.051 129.363C761.926 129.363 763.625 129.188 765.148 128.836V131.473ZM772.9 113.543V132H769.648V113.543H772.9ZM772.9 106.863V109.939H769.648V106.863H772.9ZM780.916 122.701C780.916 127.143 782.762 129.363 786.453 129.363C790.145 129.363 791.99 127.143 791.99 122.701C791.99 118.354 790.145 116.18 786.453 116.18C782.762 116.18 780.916 118.354 780.916 122.701ZM777.664 122.771C777.664 116.619 780.594 113.543 786.453 113.543C792.312 113.543 795.242 116.619 795.242 122.771C795.242 128.912 792.312 131.982 786.453 131.982C780.617 131.982 777.688 128.912 777.664 122.771Z" fill="url(#paint0_linear_319_3)"/>
<path d="M419.24 189.6H422.4C423.213 189.6 423.967 189.46 424.66 189.18C425.353 188.9 425.96 188.507 426.48 188C427 187.493 427.4 186.9 427.68 186.22C427.973 185.54 428.12 184.8 428.12 184C428.12 183.2 427.973 182.46 427.68 181.78C427.4 181.1 427 180.507 426.48 180C425.96 179.493 425.353 179.1 424.66 178.82C423.967 178.54 423.213 178.4 422.4 178.4H419.24V189.6ZM417.7 191V177H422.32C423.387 177 424.367 177.173 425.26 177.52C426.153 177.867 426.927 178.353 427.58 178.98C428.247 179.607 428.76 180.347 429.12 181.2C429.493 182.053 429.68 182.987 429.68 184C429.68 185.013 429.5 185.947 429.14 186.8C428.78 187.653 428.267 188.393 427.6 189.02C426.947 189.647 426.167 190.133 425.26 190.48C424.367 190.827 423.387 191 422.32 191H417.7ZM436.515 191.18C435.555 191.18 434.681 190.953 433.895 190.5C433.121 190.033 432.501 189.407 432.035 188.62C431.581 187.833 431.355 186.953 431.355 185.98C431.355 185.02 431.575 184.153 432.015 183.38C432.455 182.593 433.048 181.973 433.795 181.52C434.541 181.053 435.375 180.82 436.295 180.82C437.188 180.82 437.988 181.053 438.695 181.52C439.415 181.973 439.981 182.593 440.395 183.38C440.821 184.153 441.035 185.02 441.035 185.98V186.44H432.815C432.895 187.093 433.101 187.68 433.435 188.2C433.781 188.72 434.228 189.133 434.775 189.44C435.321 189.733 435.921 189.88 436.575 189.88C437.095 189.88 437.601 189.8 438.095 189.64C438.588 189.48 439.001 189.253 439.335 188.96L440.255 189.94C439.695 190.353 439.108 190.667 438.495 190.88C437.895 191.08 437.235 191.18 436.515 191.18ZM432.855 185.26H439.555C439.475 184.66 439.275 184.127 438.955 183.66C438.648 183.18 438.261 182.807 437.795 182.54C437.328 182.26 436.815 182.12 436.255 182.12C435.681 182.12 435.155 182.253 434.675 182.52C434.195 182.787 433.795 183.16 433.475 183.64C433.155 184.107 432.948 184.647 432.855 185.26ZM446.401 191.2C445.575 191.2 444.795 191.067 444.061 190.8C443.341 190.52 442.715 190.133 442.181 189.64L443.081 188.68C443.548 189.107 444.061 189.44 444.621 189.68C445.181 189.907 445.755 190.02 446.341 190.02C447.141 190.02 447.795 189.853 448.301 189.52C448.808 189.187 449.061 188.753 449.061 188.22C449.061 187.78 448.908 187.44 448.601 187.2C448.308 186.947 447.841 186.773 447.201 186.68L445.461 186.44C444.461 186.293 443.715 185.993 443.221 185.54C442.741 185.087 442.501 184.473 442.501 183.7C442.501 183.14 442.661 182.64 442.981 182.2C443.301 181.76 443.741 181.413 444.301 181.16C444.875 180.907 445.528 180.78 446.261 180.78C446.995 180.78 447.681 180.887 448.321 181.1C448.961 181.313 449.588 181.647 450.201 182.1L449.421 183.1C448.861 182.713 448.315 182.433 447.781 182.26C447.261 182.073 446.728 181.98 446.181 181.98C445.488 181.98 444.928 182.133 444.501 182.44C444.075 182.747 443.861 183.147 443.861 183.64C443.861 184.093 444.008 184.44 444.301 184.68C444.595 184.907 445.068 185.067 445.721 185.16L447.461 185.4C448.461 185.533 449.208 185.827 449.701 186.28C450.208 186.733 450.461 187.353 450.461 188.14C450.461 188.713 450.281 189.233 449.921 189.7C449.561 190.167 449.075 190.533 448.461 190.8C447.861 191.067 447.175 191.2 446.401 191.2ZM456.925 191.18C455.965 191.18 455.092 190.953 454.305 190.5C453.532 190.033 452.912 189.407 452.445 188.62C451.992 187.833 451.765 186.953 451.765 185.98C451.765 185.02 451.985 184.153 452.425 183.38C452.865 182.593 453.458 181.973 454.205 181.52C454.952 181.053 455.785 180.82 456.705 180.82C457.598 180.82 458.398 181.053 459.105 181.52C459.825 181.973 460.392 182.593 460.805 183.38C461.232 184.153 461.445 185.02 461.445 185.98V186.44H453.225C453.305 187.093 453.512 187.68 453.845 188.2C454.192 188.72 454.638 189.133 455.185 189.44C455.732 189.733 456.332 189.88 456.985 189.88C457.505 189.88 458.012 189.8 458.505 189.64C458.998 189.48 459.412 189.253 459.745 188.96L460.665 189.94C460.105 190.353 459.518 190.667 458.905 190.88C458.305 191.08 457.645 191.18 456.925 191.18ZM453.265 185.26H459.965C459.885 184.66 459.685 184.127 459.365 183.66C459.058 183.18 458.672 182.807 458.205 182.54C457.738 182.26 457.225 182.12 456.665 182.12C456.092 182.12 455.565 182.253 455.085 182.52C454.605 182.787 454.205 183.16 453.885 183.64C453.565 184.107 453.358 184.647 453.265 185.26ZM463.514 191V180.98H464.994V182.16C465.781 181.24 466.834 180.78 468.154 180.78C468.914 180.78 469.581 180.947 470.154 181.28C470.741 181.6 471.194 182.053 471.514 182.64C471.847 183.213 472.014 183.887 472.014 184.66V191H470.554V184.96C470.554 184.067 470.301 183.367 469.794 182.86C469.301 182.34 468.621 182.08 467.754 182.08C467.154 182.08 466.621 182.213 466.154 182.48C465.687 182.747 465.301 183.127 464.994 183.62V191H463.514ZM477.182 191L472.842 180.98H474.482L477.902 189.08L481.322 180.98H482.902L478.582 191H477.182ZM488.623 191.2C487.676 191.2 486.81 190.973 486.023 190.52C485.25 190.053 484.636 189.427 484.183 188.64C483.73 187.853 483.503 186.973 483.503 186C483.503 185.027 483.73 184.147 484.183 183.36C484.636 182.573 485.25 181.953 486.023 181.5C486.81 181.033 487.676 180.8 488.623 180.8C489.583 180.8 490.45 181.033 491.223 181.5C491.996 181.953 492.61 182.573 493.063 183.36C493.516 184.147 493.743 185.027 493.743 186C493.743 186.973 493.516 187.853 493.063 188.64C492.61 189.427 491.996 190.053 491.223 190.52C490.45 190.973 489.583 191.2 488.623 191.2ZM488.623 189.88C489.303 189.88 489.916 189.707 490.463 189.36C491.023 189.013 491.463 188.547 491.783 187.96C492.116 187.373 492.283 186.72 492.283 186C492.283 185.267 492.116 184.613 491.783 184.04C491.463 183.453 491.023 182.987 490.463 182.64C489.916 182.293 489.303 182.12 488.623 182.12C487.943 182.12 487.323 182.293 486.763 182.64C486.216 182.987 485.776 183.453 485.443 184.04C485.123 184.613 484.963 185.267 484.963 186C484.963 186.72 485.123 187.373 485.443 187.96C485.776 188.547 486.216 189.013 486.763 189.36C487.323 189.707 487.943 189.88 488.623 189.88ZM495.799 191V177L497.279 176.66V191H495.799ZM502.983 191L498.643 180.98H500.283L503.703 189.08L507.123 180.98H508.703L504.383 191H502.983ZM510.057 191V180.98H511.537V191H510.057ZM510.797 179.06C510.53 179.06 510.297 178.96 510.097 178.76C509.897 178.56 509.797 178.327 509.797 178.06C509.797 177.78 509.897 177.547 510.097 177.36C510.297 177.16 510.53 177.06 510.797 177.06C511.077 177.06 511.31 177.16 511.497 177.36C511.697 177.547 511.797 177.78 511.797 178.06C511.797 178.327 511.697 178.56 511.497 178.76C511.31 178.96 511.077 179.06 510.797 179.06ZM514.061 191V180.98H515.541V182.08C516.301 181.213 517.281 180.78 518.481 180.78C519.187 180.78 519.814 180.947 520.361 181.28C520.907 181.6 521.334 182.04 521.641 182.6C522.054 181.987 522.547 181.533 523.121 181.24C523.694 180.933 524.347 180.78 525.081 180.78C525.814 180.78 526.454 180.947 527.001 181.28C527.547 181.6 527.974 182.053 528.281 182.64C528.601 183.213 528.761 183.887 528.761 184.66V191H527.301V184.96C527.301 184.067 527.067 183.367 526.601 182.86C526.134 182.34 525.501 182.08 524.701 182.08C524.154 182.08 523.654 182.22 523.201 182.5C522.747 182.767 522.361 183.173 522.041 183.72C522.067 183.867 522.087 184.02 522.101 184.18C522.127 184.327 522.141 184.487 522.141 184.66V191H520.681V184.96C520.681 184.067 520.447 183.367 519.981 182.86C519.514 182.34 518.887 182.08 518.101 182.08C517.567 182.08 517.081 182.207 516.641 182.46C516.214 182.7 515.847 183.06 515.541 183.54V191H514.061ZM535.948 191.18C534.988 191.18 534.115 190.953 533.328 190.5C532.555 190.033 531.935 189.407 531.468 188.62C531.015 187.833 530.788 186.953 530.788 185.98C530.788 185.02 531.008 184.153 531.448 183.38C531.888 182.593 532.482 181.973 533.228 181.52C533.975 181.053 534.808 180.82 535.728 180.82C536.622 180.82 537.422 181.053 538.128 181.52C538.848 181.973 539.415 182.593 539.828 183.38C540.255 184.153 540.468 185.02 540.468 185.98V186.44H532.248C532.328 187.093 532.535 187.68 532.868 188.2C533.215 188.72 533.662 189.133 534.208 189.44C534.755 189.733 535.355 189.88 536.008 189.88C536.528 189.88 537.035 189.8 537.528 189.64C538.022 189.48 538.435 189.253 538.768 188.96L539.688 189.94C539.128 190.353 538.542 190.667 537.928 190.88C537.328 191.08 536.668 191.18 535.948 191.18ZM532.288 185.26H538.988C538.908 184.66 538.708 184.127 538.388 183.66C538.082 183.18 537.695 182.807 537.228 182.54C536.762 182.26 536.248 182.12 535.688 182.12C535.115 182.12 534.588 182.253 534.108 182.52C533.628 182.787 533.228 183.16 532.908 183.64C532.588 184.107 532.382 184.647 532.288 185.26ZM542.537 191V180.98H544.017V182.16C544.804 181.24 545.857 180.78 547.177 180.78C547.937 180.78 548.604 180.947 549.177 181.28C549.764 181.6 550.217 182.053 550.537 182.64C550.871 183.213 551.037 183.887 551.037 184.66V191H549.577V184.96C549.577 184.067 549.324 183.367 548.817 182.86C548.324 182.34 547.644 182.08 546.777 182.08C546.177 182.08 545.644 182.213 545.177 182.48C544.711 182.747 544.324 183.127 544.017 183.62V191H542.537ZM557.161 191.2C556.294 191.2 555.628 190.993 555.161 190.58C554.694 190.167 554.461 189.567 554.461 188.78V182.24H552.301V180.98H554.461V178.44L555.921 178.06V180.98H558.941V182.24H555.921V188.4C555.921 188.933 556.041 189.32 556.281 189.56C556.521 189.787 556.914 189.9 557.461 189.9C557.741 189.9 557.988 189.88 558.201 189.84C558.428 189.8 558.668 189.733 558.921 189.64V190.94C558.668 191.033 558.381 191.1 558.061 191.14C557.754 191.18 557.454 191.2 557.161 191.2ZM564.99 191.2C564.044 191.2 563.177 190.973 562.39 190.52C561.617 190.053 561.004 189.427 560.55 188.64C560.097 187.853 559.87 186.973 559.87 186C559.87 185.027 560.097 184.147 560.55 183.36C561.004 182.573 561.617 181.953 562.39 181.5C563.177 181.033 564.044 180.8 564.99 180.8C565.95 180.8 566.817 181.033 567.59 181.5C568.364 181.953 568.977 182.573 569.43 183.36C569.884 184.147 570.11 185.027 570.11 186C570.11 186.973 569.884 187.853 569.43 188.64C568.977 189.427 568.364 190.053 567.59 190.52C566.817 190.973 565.95 191.2 564.99 191.2ZM564.99 189.88C565.67 189.88 566.284 189.707 566.83 189.36C567.39 189.013 567.83 188.547 568.15 187.96C568.484 187.373 568.65 186.72 568.65 186C568.65 185.267 568.484 184.613 568.15 184.04C567.83 183.453 567.39 182.987 566.83 182.64C566.284 182.293 565.67 182.12 564.99 182.12C564.31 182.12 563.69 182.293 563.13 182.64C562.584 182.987 562.144 183.453 561.81 184.04C561.49 184.613 561.33 185.267 561.33 186C561.33 186.72 561.49 187.373 561.81 187.96C562.144 188.547 562.584 189.013 563.13 189.36C563.69 189.707 564.31 189.88 564.99 189.88ZM581.043 191.16C580.11 191.16 579.256 190.933 578.483 190.48C577.723 190.013 577.116 189.393 576.663 188.62C576.223 187.833 576.003 186.953 576.003 185.98C576.003 185.007 576.223 184.133 576.663 183.36C577.116 182.587 577.723 181.973 578.483 181.52C579.256 181.053 580.116 180.82 581.063 180.82C581.65 180.82 582.216 180.92 582.763 181.12C583.31 181.307 583.81 181.587 584.263 181.96V177L585.743 176.66V191H584.283V189.94C583.403 190.753 582.323 191.16 581.043 191.16ZM581.183 189.86C581.81 189.86 582.39 189.74 582.923 189.5C583.47 189.247 583.916 188.9 584.263 188.46V183.5C583.916 183.073 583.47 182.74 582.923 182.5C582.39 182.247 581.81 182.12 581.183 182.12C580.49 182.12 579.856 182.287 579.283 182.62C578.723 182.953 578.276 183.413 577.943 184C577.623 184.573 577.463 185.227 577.463 185.96C577.463 186.693 577.623 187.353 577.943 187.94C578.276 188.527 578.723 188.993 579.283 189.34C579.856 189.687 580.49 189.86 581.183 189.86ZM592.96 191.18C592 191.18 591.127 190.953 590.34 190.5C589.567 190.033 588.947 189.407 588.48 188.62C588.027 187.833 587.8 186.953 587.8 185.98C587.8 185.02 588.02 184.153 588.46 183.38C588.9 182.593 589.493 181.973 590.24 181.52C590.987 181.053 591.82 180.82 592.74 180.82C593.633 180.82 594.433 181.053 595.14 181.52C595.86 181.973 596.427 182.593 596.84 183.38C597.267 184.153 597.48 185.02 597.48 185.98V186.44H589.26C589.34 187.093 589.547 187.68 589.88 188.2C590.227 188.72 590.673 189.133 591.22 189.44C591.767 189.733 592.367 189.88 593.02 189.88C593.54 189.88 594.047 189.8 594.54 189.64C595.033 189.48 595.447 189.253 595.78 188.96L596.7 189.94C596.14 190.353 595.553 190.667 594.94 190.88C594.34 191.08 593.68 191.18 592.96 191.18ZM589.3 185.26H596C595.92 184.66 595.72 184.127 595.4 183.66C595.093 183.18 594.707 182.807 594.24 182.54C593.773 182.26 593.26 182.12 592.7 182.12C592.127 182.12 591.6 182.253 591.12 182.52C590.64 182.787 590.24 183.16 589.92 183.64C589.6 184.107 589.393 184.647 589.3 185.26ZM605.686 191L602.866 180.98H604.326L606.486 188.98L608.986 180.98H610.306L612.786 188.98L614.966 180.98H616.366L613.526 191H612.106L609.626 182.98L607.126 191H605.686ZM622.413 191.18C621.453 191.18 620.58 190.953 619.793 190.5C619.02 190.033 618.4 189.407 617.933 188.62C617.48 187.833 617.253 186.953 617.253 185.98C617.253 185.02 617.473 184.153 617.913 183.38C618.353 182.593 618.946 181.973 619.693 181.52C620.44 181.053 621.273 180.82 622.193 180.82C623.086 180.82 623.886 181.053 624.593 181.52C625.313 181.973 625.88 182.593 626.293 183.38C626.72 184.153 626.933 185.02 626.933 185.98V186.44H618.713C618.793 187.093 619 187.68 619.333 188.2C619.68 188.72 620.126 189.133 620.673 189.44C621.22 189.733 621.82 189.88 622.473 189.88C622.993 189.88 623.5 189.8 623.993 189.64C624.486 189.48 624.9 189.253 625.233 188.96L626.153 189.94C625.593 190.353 625.006 190.667 624.393 190.88C623.793 191.08 623.133 191.18 622.413 191.18ZM618.753 185.26H625.453C625.373 184.66 625.173 184.127 624.853 183.66C624.546 183.18 624.16 182.807 623.693 182.54C623.226 182.26 622.713 182.12 622.153 182.12C621.58 182.12 621.053 182.253 620.573 182.52C620.093 182.787 619.693 183.16 619.373 183.64C619.053 184.107 618.846 184.647 618.753 185.26ZM629.002 191V177L630.482 176.66V182.04C631.336 181.227 632.409 180.82 633.702 180.82C634.649 180.82 635.502 181.053 636.262 181.52C637.022 181.973 637.622 182.587 638.062 183.36C638.516 184.133 638.742 185.007 638.742 185.98C638.742 186.953 638.516 187.833 638.062 188.62C637.622 189.393 637.022 190.013 636.262 190.48C635.502 190.933 634.642 191.16 633.682 191.16C633.096 191.16 632.522 191.06 631.962 190.86C631.416 190.66 630.916 190.373 630.462 190V191H629.002ZM633.562 189.86C634.269 189.86 634.902 189.693 635.462 189.36C636.022 189.013 636.462 188.553 636.782 187.98C637.116 187.393 637.282 186.733 637.282 186C637.282 185.267 637.116 184.607 636.782 184.02C636.462 183.433 636.022 182.973 635.462 182.64C634.902 182.293 634.269 182.12 633.562 182.12C632.936 182.12 632.349 182.247 631.802 182.5C631.269 182.74 630.829 183.08 630.482 183.52V188.48C630.829 188.907 631.276 189.247 631.822 189.5C632.369 189.74 632.949 189.86 633.562 189.86ZM643.999 191.2C643.172 191.2 642.392 191.067 641.659 190.8C640.939 190.52 640.312 190.133 639.779 189.64L640.679 188.68C641.146 189.107 641.659 189.44 642.219 189.68C642.779 189.907 643.352 190.02 643.939 190.02C644.739 190.02 645.392 189.853 645.899 189.52C646.406 189.187 646.659 188.753 646.659 188.22C646.659 187.78 646.506 187.44 646.199 187.2C645.906 186.947 645.439 186.773 644.799 186.68L643.059 186.44C642.059 186.293 641.312 185.993 640.819 185.54C640.339 185.087 640.099 184.473 640.099 183.7C640.099 183.14 640.259 182.64 640.579 182.2C640.899 181.76 641.339 181.413 641.899 181.16C642.472 180.907 643.126 180.78 643.859 180.78C644.592 180.78 645.279 180.887 645.919 181.1C646.559 181.313 647.186 181.647 647.799 182.1L647.019 183.1C646.459 182.713 645.912 182.433 645.379 182.26C644.859 182.073 644.326 181.98 643.779 181.98C643.086 181.98 642.526 182.133 642.099 182.44C641.672 182.747 641.459 183.147 641.459 183.64C641.459 184.093 641.606 184.44 641.899 184.68C642.192 184.907 642.666 185.067 643.319 185.16L645.059 185.4C646.059 185.533 646.806 185.827 647.299 186.28C647.806 186.733 648.059 187.353 648.059 188.14C648.059 188.713 647.879 189.233 647.519 189.7C647.159 190.167 646.672 190.533 646.059 190.8C645.459 191.067 644.772 191.2 643.999 191.2ZM649.725 191V180.98H651.205V191H649.725ZM650.465 179.06C650.198 179.06 649.965 178.96 649.765 178.76C649.565 178.56 649.465 178.327 649.465 178.06C649.465 177.78 649.565 177.547 649.765 177.36C649.965 177.16 650.198 177.06 650.465 177.06C650.745 177.06 650.978 177.16 651.165 177.36C651.365 177.547 651.465 177.78 651.465 178.06C651.465 178.327 651.365 178.56 651.165 178.76C650.978 178.96 650.745 179.06 650.465 179.06ZM657.669 191.2C656.802 191.2 656.135 190.993 655.669 190.58C655.202 190.167 654.969 189.567 654.969 188.78V182.24H652.809V180.98H654.969V178.44L656.429 178.06V180.98H659.449V182.24H656.429V188.4C656.429 188.933 656.549 189.32 656.789 189.56C657.029 189.787 657.422 189.9 657.969 189.9C658.249 189.9 658.495 189.88 658.709 189.84C658.935 189.8 659.175 189.733 659.429 189.64V190.94C659.175 191.033 658.889 191.1 658.569 191.14C658.262 191.18 657.962 191.2 657.669 191.2ZM665.538 191.18C664.578 191.18 663.705 190.953 662.918 190.5C662.145 190.033 661.525 189.407 661.058 188.62C660.605 187.833 660.378 186.953 660.378 185.98C660.378 185.02 660.598 184.153 661.038 183.38C661.478 182.593 662.071 181.973 662.818 181.52C663.565 181.053 664.398 180.82 665.318 180.82C666.211 180.82 667.011 181.053 667.718 181.52C668.438 181.973 669.005 182.593 669.418 183.38C669.845 184.153 670.058 185.02 670.058 185.98V186.44H661.838C661.918 187.093 662.125 187.68 662.458 188.2C662.805 188.72 663.251 189.133 663.798 189.44C664.345 189.733 664.945 189.88 665.598 189.88C666.118 189.88 666.625 189.8 667.118 189.64C667.611 189.48 668.025 189.253 668.358 188.96L669.278 189.94C668.718 190.353 668.131 190.667 667.518 190.88C666.918 191.08 666.258 191.18 665.538 191.18ZM661.878 185.26H668.578C668.498 184.66 668.298 184.127 667.978 183.66C667.671 183.18 667.285 182.807 666.818 182.54C666.351 182.26 665.838 182.12 665.278 182.12C664.705 182.12 664.178 182.253 663.698 182.52C663.218 182.787 662.818 183.16 662.498 183.64C662.178 184.107 661.971 184.647 661.878 185.26ZM675.425 191.2C674.598 191.2 673.818 191.067 673.085 190.8C672.365 190.52 671.738 190.133 671.205 189.64L672.105 188.68C672.572 189.107 673.085 189.44 673.645 189.68C674.205 189.907 674.778 190.02 675.365 190.02C676.165 190.02 676.818 189.853 677.325 189.52C677.832 189.187 678.085 188.753 678.085 188.22C678.085 187.78 677.932 187.44 677.625 187.2C677.332 186.947 676.865 186.773 676.225 186.68L674.485 186.44C673.485 186.293 672.738 185.993 672.245 185.54C671.765 185.087 671.525 184.473 671.525 183.7C671.525 183.14 671.685 182.64 672.005 182.2C672.325 181.76 672.765 181.413 673.325 181.16C673.898 180.907 674.552 180.78 675.285 180.78C676.018 180.78 676.705 180.887 677.345 181.1C677.985 181.313 678.612 181.647 679.225 182.1L678.445 183.1C677.885 182.713 677.338 182.433 676.805 182.26C676.285 182.073 675.752 181.98 675.205 181.98C674.512 181.98 673.952 182.133 673.525 182.44C673.098 182.747 672.885 183.147 672.885 183.64C672.885 184.093 673.032 184.44 673.325 184.68C673.618 184.907 674.092 185.067 674.745 185.16L676.485 185.4C677.485 185.533 678.232 185.827 678.725 186.28C679.232 186.733 679.485 187.353 679.485 188.14C679.485 188.713 679.305 189.233 678.945 189.7C678.585 190.167 678.098 190.533 677.485 190.8C676.885 191.067 676.198 191.2 675.425 191.2ZM690.148 191.18C689.188 191.18 688.314 190.953 687.528 190.5C686.754 190.033 686.134 189.407 685.668 188.62C685.214 187.833 684.988 186.953 684.988 185.98C684.988 185.02 685.208 184.153 685.648 183.38C686.088 182.593 686.681 181.973 687.428 181.52C688.174 181.053 689.008 180.82 689.928 180.82C690.821 180.82 691.621 181.053 692.328 181.52C693.048 181.973 693.614 182.593 694.028 183.38C694.454 184.153 694.668 185.02 694.668 185.98V186.44H686.448C686.528 187.093 686.734 187.68 687.068 188.2C687.414 188.72 687.861 189.133 688.408 189.44C688.954 189.733 689.554 189.88 690.208 189.88C690.728 189.88 691.234 189.8 691.728 189.64C692.221 189.48 692.634 189.253 692.968 188.96L693.888 189.94C693.328 190.353 692.741 190.667 692.128 190.88C691.528 191.08 690.868 191.18 690.148 191.18ZM686.488 185.26H693.188C693.108 184.66 692.908 184.127 692.588 183.66C692.281 183.18 691.894 182.807 691.428 182.54C690.961 182.26 690.448 182.12 689.888 182.12C689.314 182.12 688.788 182.253 688.308 182.52C687.828 182.787 687.428 183.16 687.108 183.64C686.788 184.107 686.581 184.647 686.488 185.26ZM704.193 191.18C703.46 191.18 702.813 191.053 702.253 190.8C701.707 190.547 701.273 190.193 700.953 189.74C700.647 189.287 700.493 188.76 700.493 188.16C700.493 187.213 700.853 186.467 701.573 185.92C702.293 185.373 703.267 185.1 704.493 185.1C705.573 185.1 706.553 185.327 707.433 185.78V184.46C707.433 183.66 707.207 183.06 706.753 182.66C706.3 182.247 705.64 182.04 704.773 182.04C704.28 182.04 703.78 182.113 703.273 182.26C702.78 182.393 702.233 182.613 701.633 182.92L701.073 181.78C701.793 181.433 702.46 181.18 703.073 181.02C703.687 180.86 704.3 180.78 704.913 180.78C706.18 180.78 707.153 181.08 707.833 181.68C708.527 182.28 708.873 183.14 708.873 184.26V191H707.433V190.02C706.98 190.407 706.48 190.7 705.933 190.9C705.4 191.087 704.82 191.18 704.193 191.18ZM701.913 188.12C701.913 188.68 702.147 189.14 702.613 189.5C703.093 189.847 703.707 190.02 704.453 190.02C705.053 190.02 705.6 189.927 706.093 189.74C706.587 189.553 707.033 189.26 707.433 188.86V186.98C707.02 186.7 706.58 186.5 706.113 186.38C705.647 186.247 705.12 186.18 704.533 186.18C703.733 186.18 703.093 186.36 702.613 186.72C702.147 187.067 701.913 187.533 701.913 188.12ZM711.346 195.08V180.98H712.806V182.06C713.673 181.233 714.753 180.82 716.046 180.82C716.993 180.82 717.846 181.053 718.606 181.52C719.366 181.973 719.966 182.587 720.406 183.36C720.859 184.133 721.086 185.007 721.086 185.98C721.086 186.953 720.859 187.833 720.406 188.62C719.966 189.393 719.366 190.013 718.606 190.48C717.846 190.933 716.986 191.16 716.026 191.16C715.439 191.16 714.873 191.06 714.326 190.86C713.779 190.66 713.279 190.373 712.826 190V195.08H711.346ZM715.906 189.86C716.613 189.86 717.246 189.693 717.806 189.36C718.366 189.013 718.806 188.553 719.126 187.98C719.459 187.393 719.626 186.733 719.626 186C719.626 185.267 719.459 184.607 719.126 184.02C718.806 183.433 718.366 182.973 717.806 182.64C717.246 182.293 716.613 182.12 715.906 182.12C715.279 182.12 714.693 182.247 714.146 182.5C713.613 182.74 713.173 183.08 712.826 183.52V188.48C713.173 188.907 713.619 189.247 714.166 189.5C714.713 189.74 715.293 189.86 715.906 189.86ZM723.143 191V177L724.623 176.66V191H723.143ZM727.147 191V180.98H728.627V191H727.147ZM727.887 179.06C727.62 179.06 727.387 178.96 727.187 178.76C726.987 178.56 726.887 178.327 726.887 178.06C726.887 177.78 726.987 177.547 727.187 177.36C727.387 177.16 727.62 177.06 727.887 177.06C728.167 177.06 728.4 177.16 728.587 177.36C728.787 177.547 728.887 177.78 728.887 178.06C728.887 178.327 728.787 178.56 728.587 178.76C728.4 178.96 728.167 179.06 727.887 179.06ZM735.791 191.18C734.844 191.18 733.984 190.953 733.211 190.5C732.437 190.033 731.824 189.407 731.371 188.62C730.917 187.833 730.691 186.953 730.691 185.98C730.691 185.007 730.917 184.133 731.371 183.36C731.824 182.573 732.437 181.947 733.211 181.48C733.984 181.013 734.844 180.78 735.791 180.78C736.524 180.78 737.231 180.92 737.911 181.2C738.591 181.467 739.191 181.853 739.711 182.36L738.771 183.44C738.371 183.013 737.911 182.693 737.391 182.48C736.884 182.253 736.357 182.14 735.811 182.14C735.131 182.14 734.511 182.313 733.951 182.66C733.404 182.993 732.964 183.453 732.631 184.04C732.311 184.613 732.151 185.26 732.151 185.98C732.151 186.7 732.311 187.353 732.631 187.94C732.964 188.527 733.411 188.993 733.971 189.34C734.531 189.673 735.151 189.84 735.831 189.84C736.377 189.84 736.891 189.733 737.371 189.52C737.864 189.307 738.324 188.993 738.751 188.58L739.671 189.58C739.137 190.087 738.537 190.48 737.871 190.76C737.204 191.04 736.511 191.18 735.791 191.18ZM744.565 191.18C743.831 191.18 743.185 191.053 742.625 190.8C742.078 190.547 741.645 190.193 741.325 189.74C741.018 189.287 740.865 188.76 740.865 188.16C740.865 187.213 741.225 186.467 741.945 185.92C742.665 185.373 743.638 185.1 744.865 185.1C745.945 185.1 746.925 185.327 747.805 185.78V184.46C747.805 183.66 747.578 183.06 747.125 182.66C746.671 182.247 746.011 182.04 745.145 182.04C744.651 182.04 744.151 182.113 743.645 182.26C743.151 182.393 742.605 182.613 742.005 182.92L741.445 181.78C742.165 181.433 742.831 181.18 743.445 181.02C744.058 180.86 744.671 180.78 745.285 180.78C746.551 180.78 747.525 181.08 748.205 181.68C748.898 182.28 749.245 183.14 749.245 184.26V191H747.805V190.02C747.351 190.407 746.851 190.7 746.305 190.9C745.771 191.087 745.191 191.18 744.565 191.18ZM742.285 188.12C742.285 188.68 742.518 189.14 742.985 189.5C743.465 189.847 744.078 190.02 744.825 190.02C745.425 190.02 745.971 189.927 746.465 189.74C746.958 189.553 747.405 189.26 747.805 188.86V186.98C747.391 186.7 746.951 186.5 746.485 186.38C746.018 186.247 745.491 186.18 744.905 186.18C744.105 186.18 743.465 186.36 742.985 186.72C742.518 187.067 742.285 187.533 742.285 188.12ZM755.364 191.2C754.497 191.2 753.831 190.993 753.364 190.58C752.897 190.167 752.664 189.567 752.664 188.78V182.24H750.504V180.98H752.664V178.44L754.124 178.06V180.98H757.144V182.24H754.124V188.4C754.124 188.933 754.244 189.32 754.484 189.56C754.724 189.787 755.117 189.9 755.664 189.9C755.944 189.9 756.191 189.88 756.404 189.84C756.631 189.8 756.871 189.733 757.124 189.64V190.94C756.871 191.033 756.584 191.1 756.264 191.14C755.957 191.18 755.657 191.2 755.364 191.2ZM758.729 191V180.98H760.209V191H758.729ZM759.469 179.06C759.202 179.06 758.969 178.96 758.769 178.76C758.569 178.56 758.469 178.327 758.469 178.06C758.469 177.78 758.569 177.547 758.769 177.36C758.969 177.16 759.202 177.06 759.469 177.06C759.749 177.06 759.982 177.16 760.169 177.36C760.369 177.547 760.469 177.78 760.469 178.06C760.469 178.327 760.369 178.56 760.169 178.76C759.982 178.96 759.749 179.06 759.469 179.06ZM765.913 191L761.573 180.98H763.213L766.633 189.08L770.053 180.98H771.633L767.313 191H765.913ZM777.354 191.2C776.407 191.2 775.54 190.973 774.754 190.52C773.98 190.053 773.367 189.427 772.914 188.64C772.46 187.853 772.234 186.973 772.234 186C772.234 185.027 772.46 184.147 772.914 183.36C773.367 182.573 773.98 181.953 774.754 181.5C775.54 181.033 776.407 180.8 777.354 180.8C778.314 180.8 779.18 181.033 779.954 181.5C780.727 181.953 781.34 182.573 781.794 183.36C782.247 184.147 782.474 185.027 782.474 186C782.474 186.973 782.247 187.853 781.794 188.64C781.34 189.427 780.727 190.053 779.954 190.52C779.18 190.973 778.314 191.2 777.354 191.2ZM777.354 189.88C778.034 189.88 778.647 189.707 779.194 189.36C779.754 189.013 780.194 188.547 780.514 187.96C780.847 187.373 781.014 186.72 781.014 186C781.014 185.267 780.847 184.613 780.514 184.04C780.194 183.453 779.754 182.987 779.194 182.64C778.647 182.293 778.034 182.12 777.354 182.12C776.674 182.12 776.054 182.293 775.494 182.64C774.947 182.987 774.507 183.453 774.174 184.04C773.854 184.613 773.694 185.267 773.694 186C773.694 186.72 773.854 187.373 774.174 187.96C774.507 188.547 774.947 189.013 775.494 189.36C776.054 189.707 776.674 189.88 777.354 189.88ZM787.73 191.2C786.903 191.2 786.123 191.067 785.39 190.8C784.67 190.52 784.043 190.133 783.51 189.64L784.41 188.68C784.876 189.107 785.39 189.44 785.95 189.68C786.51 189.907 787.083 190.02 787.67 190.02C788.47 190.02 789.123 189.853 789.63 189.52C790.136 189.187 790.39 188.753 790.39 188.22C790.39 187.78 790.236 187.44 789.93 187.2C789.636 186.947 789.17 186.773 788.53 186.68L786.79 186.44C785.79 186.293 785.043 185.993 784.55 185.54C784.07 185.087 783.83 184.473 783.83 183.7C783.83 183.14 783.99 182.64 784.31 182.2C784.63 181.76 785.07 181.413 785.63 181.16C786.203 180.907 786.856 180.78 787.59 180.78C788.323 180.78 789.01 180.887 789.65 181.1C790.29 181.313 790.916 181.647 791.53 182.1L790.75 183.1C790.19 182.713 789.643 182.433 789.11 182.26C788.59 182.073 788.056 181.98 787.51 181.98C786.816 181.98 786.256 182.133 785.83 182.44C785.403 182.747 785.19 183.147 785.19 183.64C785.19 184.093 785.336 184.44 785.63 184.68C785.923 184.907 786.396 185.067 787.05 185.16L788.79 185.4C789.79 185.533 790.536 185.827 791.03 186.28C791.536 186.733 791.79 187.353 791.79 188.14C791.79 188.713 791.61 189.233 791.25 189.7C790.89 190.167 790.403 190.533 789.79 190.8C789.19 191.067 788.503 191.2 787.73 191.2ZM792.88 193.74L794.04 189.52H795.64L794.04 193.74H792.88ZM362.244 217V206.98H363.724V217H362.244ZM362.984 205.06C362.718 205.06 362.484 204.96 362.284 204.76C362.084 204.56 361.984 204.327 361.984 204.06C361.984 203.78 362.084 203.547 362.284 203.36C362.484 203.16 362.718 203.06 362.984 203.06C363.264 203.06 363.498 203.16 363.684 203.36C363.884 203.547 363.984 203.78 363.984 204.06C363.984 204.327 363.884 204.56 363.684 204.76C363.498 204.96 363.264 205.06 362.984 205.06ZM366.248 217V206.98H367.728V208.16C368.515 207.24 369.568 206.78 370.888 206.78C371.648 206.78 372.315 206.947 372.888 207.28C373.475 207.6 373.928 208.053 374.248 208.64C374.582 209.213 374.748 209.887 374.748 210.66V217H373.288V210.96C373.288 210.067 373.035 209.367 372.528 208.86C372.035 208.34 371.355 208.08 370.488 208.08C369.888 208.08 369.355 208.213 368.888 208.48C368.422 208.747 368.035 209.127 367.728 209.62V217H366.248ZM380.872 217.2C380.005 217.2 379.339 216.993 378.872 216.58C378.405 216.167 378.172 215.567 378.172 214.78V208.24H376.012V206.98H378.172V204.44L379.632 204.06V206.98H382.652V208.24H379.632V214.4C379.632 214.933 379.752 215.32 379.992 215.56C380.232 215.787 380.625 215.9 381.172 215.9C381.452 215.9 381.699 215.88 381.912 215.84C382.139 215.8 382.379 215.733 382.632 215.64V216.94C382.379 217.033 382.092 217.1 381.772 217.14C381.465 217.18 381.165 217.2 380.872 217.2ZM388.741 217.18C387.781 217.18 386.908 216.953 386.121 216.5C385.348 216.033 384.728 215.407 384.261 214.62C383.808 213.833 383.581 212.953 383.581 211.98C383.581 211.02 383.801 210.153 384.241 209.38C384.681 208.593 385.275 207.973 386.021 207.52C386.768 207.053 387.601 206.82 388.521 206.82C389.415 206.82 390.215 207.053 390.921 207.52C391.641 207.973 392.208 208.593 392.621 209.38C393.048 210.153 393.261 211.02 393.261 211.98V212.44H385.041C385.121 213.093 385.328 213.68 385.661 214.2C386.008 214.72 386.455 215.133 387.001 215.44C387.548 215.733 388.148 215.88 388.801 215.88C389.321 215.88 389.828 215.8 390.321 215.64C390.815 215.48 391.228 215.253 391.561 214.96L392.481 215.94C391.921 216.353 391.335 216.667 390.721 216.88C390.121 217.08 389.461 217.18 388.741 217.18ZM385.081 211.26H391.781C391.701 210.66 391.501 210.127 391.181 209.66C390.875 209.18 390.488 208.807 390.021 208.54C389.555 208.26 389.041 208.12 388.481 208.12C387.908 208.12 387.381 208.253 386.901 208.52C386.421 208.787 386.021 209.16 385.701 209.64C385.381 210.107 385.175 210.647 385.081 211.26ZM400.21 221.28C399.517 221.28 398.83 221.187 398.15 221C397.47 220.827 396.85 220.573 396.29 220.24L396.93 219.08C397.53 219.4 398.084 219.633 398.59 219.78C399.11 219.927 399.63 220 400.15 220C401.097 220 401.817 219.773 402.31 219.32C402.804 218.867 403.05 218.2 403.05 217.32V215.92C402.13 216.693 401.07 217.08 399.87 217.08C398.95 217.08 398.11 216.853 397.35 216.4C396.59 215.947 395.984 215.333 395.53 214.56C395.09 213.773 394.87 212.9 394.87 211.94C394.87 210.98 395.09 210.113 395.53 209.34C395.984 208.553 396.59 207.933 397.35 207.48C398.11 207.027 398.964 206.8 399.91 206.8C400.484 206.8 401.037 206.9 401.57 207.1C402.117 207.3 402.617 207.593 403.07 207.98V206.98H404.53V217.3C404.53 218.58 404.157 219.56 403.41 220.24C402.664 220.933 401.597 221.28 400.21 221.28ZM399.99 215.78C400.63 215.78 401.217 215.66 401.75 215.42C402.284 215.18 402.717 214.84 403.05 214.4V209.48C402.717 209.053 402.277 208.72 401.73 208.48C401.197 208.24 400.617 208.12 399.99 208.12C399.297 208.12 398.67 208.287 398.11 208.62C397.564 208.953 397.13 209.413 396.81 210C396.49 210.573 396.33 211.22 396.33 211.94C396.33 212.66 396.49 213.313 396.81 213.9C397.144 214.473 397.584 214.933 398.13 215.28C398.69 215.613 399.31 215.78 399.99 215.78ZM407.049 217V206.98H408.529V208.4C408.836 207.88 409.222 207.48 409.689 207.2C410.169 206.907 410.716 206.76 411.329 206.76C411.676 206.76 411.989 206.807 412.269 206.9V208.26C412.096 208.193 411.922 208.147 411.749 208.12C411.576 208.093 411.402 208.08 411.229 208.08C410.616 208.08 410.076 208.26 409.609 208.62C409.156 208.967 408.796 209.473 408.529 210.14V217H407.049ZM416.615 217.18C415.882 217.18 415.235 217.053 414.675 216.8C414.129 216.547 413.695 216.193 413.375 215.74C413.069 215.287 412.915 214.76 412.915 214.16C412.915 213.213 413.275 212.467 413.995 211.92C414.715 211.373 415.689 211.1 416.915 211.1C417.995 211.1 418.975 211.327 419.855 211.78V210.46C419.855 209.66 419.629 209.06 419.175 208.66C418.722 208.247 418.062 208.04 417.195 208.04C416.702 208.04 416.202 208.113 415.695 208.26C415.202 208.393 414.655 208.613 414.055 208.92L413.495 207.78C414.215 207.433 414.882 207.18 415.495 207.02C416.109 206.86 416.722 206.78 417.335 206.78C418.602 206.78 419.575 207.08 420.255 207.68C420.949 208.28 421.295 209.14 421.295 210.26V217H419.855V216.02C419.402 216.407 418.902 216.7 418.355 216.9C417.822 217.087 417.242 217.18 416.615 217.18ZM414.335 214.12C414.335 214.68 414.569 215.14 415.035 215.5C415.515 215.847 416.129 216.02 416.875 216.02C417.475 216.02 418.022 215.927 418.515 215.74C419.009 215.553 419.455 215.26 419.855 214.86V212.98C419.442 212.7 419.002 212.5 418.535 212.38C418.069 212.247 417.542 212.18 416.955 212.18C416.155 212.18 415.515 212.36 415.035 212.72C414.569 213.067 414.335 213.533 414.335 214.12ZM428.148 221.56C427.228 221.56 426.474 221.287 425.888 220.74L426.488 220.1C426.994 220.527 427.548 220.74 428.148 220.74C428.548 220.74 428.861 220.647 429.088 220.46C429.314 220.287 429.428 220.053 429.428 219.76C429.428 219.467 429.301 219.233 429.048 219.06C428.808 218.9 428.474 218.82 428.048 218.82H427.468L427.948 217.16C427.068 217.08 426.274 216.807 425.568 216.34C424.874 215.86 424.321 215.247 423.908 214.5C423.508 213.74 423.308 212.9 423.308 211.98C423.308 211.007 423.534 210.133 423.988 209.36C424.441 208.573 425.054 207.947 425.828 207.48C426.601 207.013 427.461 206.78 428.408 206.78C429.141 206.78 429.848 206.92 430.528 207.2C431.208 207.467 431.808 207.853 432.328 208.36L431.388 209.44C430.988 209.013 430.528 208.693 430.008 208.48C429.501 208.253 428.974 208.14 428.428 208.14C427.748 208.14 427.128 208.313 426.568 208.66C426.021 208.993 425.581 209.453 425.248 210.04C424.928 210.613 424.768 211.26 424.768 211.98C424.768 212.7 424.928 213.353 425.248 213.94C425.581 214.527 426.028 214.993 426.588 215.34C427.148 215.673 427.768 215.84 428.448 215.84C428.994 215.84 429.508 215.733 429.988 215.52C430.481 215.307 430.941 214.993 431.368 214.58L432.288 215.58C431.808 216.033 431.268 216.4 430.668 216.68C430.081 216.947 429.461 217.107 428.808 217.16L428.548 218.1C429.134 218.127 429.594 218.287 429.928 218.58C430.274 218.873 430.448 219.26 430.448 219.74C430.448 220.273 430.228 220.707 429.788 221.04C429.361 221.387 428.814 221.56 428.148 221.56ZM438.389 217.2C437.442 217.2 436.575 216.973 435.789 216.52C435.015 216.053 434.402 215.427 433.949 214.64C433.495 213.853 433.269 212.973 433.269 212C433.269 211.027 433.495 210.147 433.949 209.36C434.402 208.573 435.015 207.953 435.789 207.5C436.575 207.033 437.442 206.8 438.389 206.8C439.349 206.8 440.215 207.033 440.989 207.5C441.762 207.953 442.375 208.573 442.829 209.36C443.282 210.147 443.509 211.027 443.509 212C443.509 212.973 443.282 213.853 442.829 214.64C442.375 215.427 441.762 216.053 440.989 216.52C440.215 216.973 439.349 217.2 438.389 217.2ZM438.389 215.88C439.069 215.88 439.682 215.707 440.229 215.36C440.789 215.013 441.229 214.547 441.549 213.96C441.882 213.373 442.049 212.72 442.049 212C442.049 211.267 441.882 210.613 441.549 210.04C441.229 209.453 440.789 208.987 440.229 208.64C439.682 208.293 439.069 208.12 438.389 208.12C437.709 208.12 437.089 208.293 436.529 208.64C435.982 208.987 435.542 209.453 435.209 210.04C434.889 210.613 434.729 211.267 434.729 212C434.729 212.72 434.889 213.373 435.209 213.96C435.542 214.547 435.982 215.013 436.529 215.36C437.089 215.707 437.709 215.88 438.389 215.88ZM436.069 205.1L435.029 204.9C435.322 203.567 435.949 202.9 436.909 202.9C437.269 202.9 437.615 202.993 437.949 203.18C438.295 203.353 438.622 203.533 438.929 203.72C439.235 203.907 439.529 204 439.809 204C440.035 204 440.215 203.913 440.349 203.74C440.495 203.567 440.615 203.273 440.709 202.86L441.729 203.06C441.595 203.727 441.369 204.227 441.049 204.56C440.729 204.893 440.329 205.06 439.849 205.06C439.502 205.06 439.155 204.967 438.809 204.78C438.475 204.593 438.149 204.413 437.829 204.24C437.522 204.053 437.229 203.96 436.949 203.96C436.709 203.96 436.522 204.047 436.389 204.22C436.255 204.393 436.149 204.687 436.069 205.1ZM450.265 217.18C449.305 217.18 448.431 216.953 447.645 216.5C446.871 216.033 446.251 215.407 445.785 214.62C445.331 213.833 445.105 212.953 445.105 211.98C445.105 211.02 445.325 210.153 445.765 209.38C446.205 208.593 446.798 207.973 447.545 207.52C448.291 207.053 449.125 206.82 450.045 206.82C450.938 206.82 451.738 207.053 452.445 207.52C453.165 207.973 453.731 208.593 454.145 209.38C454.571 210.153 454.785 211.02 454.785 211.98V212.44H446.565C446.645 213.093 446.851 213.68 447.185 214.2C447.531 214.72 447.978 215.133 448.525 215.44C449.071 215.733 449.671 215.88 450.325 215.88C450.845 215.88 451.351 215.8 451.845 215.64C452.338 215.48 452.751 215.253 453.085 214.96L454.005 215.94C453.445 216.353 452.858 216.667 452.245 216.88C451.645 217.08 450.985 217.18 450.265 217.18ZM446.605 211.26H453.305C453.225 210.66 453.025 210.127 452.705 209.66C452.398 209.18 452.011 208.807 451.545 208.54C451.078 208.26 450.565 208.12 450.005 208.12C449.431 208.12 448.905 208.253 448.425 208.52C447.945 208.787 447.545 209.16 447.225 209.64C446.905 210.107 446.698 210.647 446.605 211.26ZM460.151 217.2C459.325 217.2 458.545 217.067 457.811 216.8C457.091 216.52 456.465 216.133 455.931 215.64L456.831 214.68C457.298 215.107 457.811 215.44 458.371 215.68C458.931 215.907 459.505 216.02 460.091 216.02C460.891 216.02 461.545 215.853 462.051 215.52C462.558 215.187 462.811 214.753 462.811 214.22C462.811 213.78 462.658 213.44 462.351 213.2C462.058 212.947 461.591 212.773 460.951 212.68L459.211 212.44C458.211 212.293 457.465 211.993 456.971 211.54C456.491 211.087 456.251 210.473 456.251 209.7C456.251 209.14 456.411 208.64 456.731 208.2C457.051 207.76 457.491 207.413 458.051 207.16C458.625 206.907 459.278 206.78 460.011 206.78C460.745 206.78 461.431 206.887 462.071 207.1C462.711 207.313 463.338 207.647 463.951 208.1L463.171 209.1C462.611 208.713 462.065 208.433 461.531 208.26C461.011 208.073 460.478 207.98 459.931 207.98C459.238 207.98 458.678 208.133 458.251 208.44C457.825 208.747 457.611 209.147 457.611 209.64C457.611 210.093 457.758 210.44 458.051 210.68C458.345 210.907 458.818 211.067 459.471 211.16L461.211 211.4C462.211 211.533 462.958 211.827 463.451 212.28C463.958 212.733 464.211 213.353 464.211 214.14C464.211 214.713 464.031 215.233 463.671 215.7C463.311 216.167 462.825 216.533 462.211 216.8C461.611 217.067 460.925 217.2 460.151 217.2ZM474.814 217.18C473.867 217.18 473.007 216.953 472.234 216.5C471.461 216.033 470.847 215.407 470.394 214.62C469.941 213.833 469.714 212.953 469.714 211.98C469.714 211.007 469.941 210.133 470.394 209.36C470.847 208.573 471.461 207.947 472.234 207.48C473.007 207.013 473.867 206.78 474.814 206.78C475.547 206.78 476.254 206.92 476.934 207.2C477.614 207.467 478.214 207.853 478.734 208.36L477.794 209.44C477.394 209.013 476.934 208.693 476.414 208.48C475.907 208.253 475.381 208.14 474.834 208.14C474.154 208.14 473.534 208.313 472.974 208.66C472.427 208.993 471.987 209.453 471.654 210.04C471.334 210.613 471.174 211.26 471.174 211.98C471.174 212.7 471.334 213.353 471.654 213.94C471.987 214.527 472.434 214.993 472.994 215.34C473.554 215.673 474.174 215.84 474.854 215.84C475.401 215.84 475.914 215.733 476.394 215.52C476.887 215.307 477.347 214.993 477.774 214.58L478.694 215.58C478.161 216.087 477.561 216.48 476.894 216.76C476.227 217.04 475.534 217.18 474.814 217.18ZM484.795 217.2C483.848 217.2 482.982 216.973 482.195 216.52C481.422 216.053 480.808 215.427 480.355 214.64C479.902 213.853 479.675 212.973 479.675 212C479.675 211.027 479.902 210.147 480.355 209.36C480.808 208.573 481.422 207.953 482.195 207.5C482.982 207.033 483.848 206.8 484.795 206.8C485.755 206.8 486.622 207.033 487.395 207.5C488.168 207.953 488.782 208.573 489.235 209.36C489.688 210.147 489.915 211.027 489.915 212C489.915 212.973 489.688 213.853 489.235 214.64C488.782 215.427 488.168 216.053 487.395 216.52C486.622 216.973 485.755 217.2 484.795 217.2ZM484.795 215.88C485.475 215.88 486.088 215.707 486.635 215.36C487.195 215.013 487.635 214.547 487.955 213.96C488.288 213.373 488.455 212.72 488.455 212C488.455 211.267 488.288 210.613 487.955 210.04C487.635 209.453 487.195 208.987 486.635 208.64C486.088 208.293 485.475 208.12 484.795 208.12C484.115 208.12 483.495 208.293 482.935 208.64C482.388 208.987 481.948 209.453 481.615 210.04C481.295 210.613 481.135 211.267 481.135 212C481.135 212.72 481.295 213.373 481.615 213.96C481.948 214.547 482.388 215.013 482.935 215.36C483.495 215.707 484.115 215.88 484.795 215.88ZM491.971 217V206.98H493.451V208.08C494.211 207.213 495.191 206.78 496.391 206.78C497.098 206.78 497.724 206.947 498.271 207.28C498.818 207.6 499.244 208.04 499.551 208.6C499.964 207.987 500.458 207.533 501.031 207.24C501.604 206.933 502.258 206.78 502.991 206.78C503.724 206.78 504.364 206.947 504.911 207.28C505.458 207.6 505.884 208.053 506.191 208.64C506.511 209.213 506.671 209.887 506.671 210.66V217H505.211V210.96C505.211 210.067 504.978 209.367 504.511 208.86C504.044 208.34 503.411 208.08 502.611 208.08C502.064 208.08 501.564 208.22 501.111 208.5C500.658 208.767 500.271 209.173 499.951 209.72C499.978 209.867 499.998 210.02 500.011 210.18C500.038 210.327 500.051 210.487 500.051 210.66V217H498.591V210.96C498.591 210.067 498.358 209.367 497.891 208.86C497.424 208.34 496.798 208.08 496.011 208.08C495.478 208.08 494.991 208.207 494.551 208.46C494.124 208.7 493.758 209.06 493.451 209.54V217H491.971ZM512.275 217L518.075 203H519.935L525.695 217H524.015L522.255 212.6H515.655L513.875 217H512.275ZM516.195 211.28H521.715L518.955 204.42L516.195 211.28ZM527.31 217V203H533.39C534.31 203 535.103 203.167 535.77 203.5C536.45 203.833 536.976 204.307 537.35 204.92C537.723 205.52 537.91 206.227 537.91 207.04C537.91 207.853 537.723 208.567 537.35 209.18C536.976 209.78 536.45 210.253 535.77 210.6C535.09 210.933 534.296 211.1 533.39 211.1H528.85V217H527.31ZM528.85 209.76H533.27C534.216 209.76 534.97 209.52 535.53 209.04C536.09 208.547 536.37 207.887 536.37 207.06C536.37 206.233 536.09 205.58 535.53 205.1C534.97 204.62 534.216 204.38 533.27 204.38H528.85V209.76ZM540.259 217V203H541.799V217H540.259ZM547.808 217.2C546.981 217.2 546.201 217.067 545.468 216.8C544.748 216.52 544.121 216.133 543.588 215.64L544.488 214.68C544.954 215.107 545.468 215.44 546.028 215.68C546.588 215.907 547.161 216.02 547.748 216.02C548.548 216.02 549.201 215.853 549.708 215.52C550.214 215.187 550.468 214.753 550.468 214.22C550.468 213.78 550.314 213.44 550.008 213.2C549.714 212.947 549.248 212.773 548.608 212.68L546.868 212.44C545.868 212.293 545.121 211.993 544.628 211.54C544.148 211.087 543.908 210.473 543.908 209.7C543.908 209.14 544.068 208.64 544.388 208.2C544.708 207.76 545.148 207.413 545.708 207.16C546.281 206.907 546.934 206.78 547.668 206.78C548.401 206.78 549.088 206.887 549.728 207.1C550.368 207.313 550.994 207.647 551.608 208.1L550.828 209.1C550.268 208.713 549.721 208.433 549.188 208.26C548.668 208.073 548.134 207.98 547.588 207.98C546.894 207.98 546.334 208.133 545.908 208.44C545.481 208.747 545.268 209.147 545.268 209.64C545.268 210.093 545.414 210.44 545.708 210.68C546.001 210.907 546.474 211.067 547.128 211.16L548.868 211.4C549.868 211.533 550.614 211.827 551.108 212.28C551.614 212.733 551.868 213.353 551.868 214.14C551.868 214.713 551.688 215.233 551.328 215.7C550.968 216.167 550.481 216.533 549.868 216.8C549.268 217.067 548.581 217.2 547.808 217.2ZM552.958 219.74L554.118 215.52H555.718L554.118 219.74H552.958ZM565.835 217.2C565.008 217.2 564.228 217.067 563.495 216.8C562.775 216.52 562.148 216.133 561.615 215.64L562.515 214.68C562.982 215.107 563.495 215.44 564.055 215.68C564.615 215.907 565.188 216.02 565.775 216.02C566.575 216.02 567.228 215.853 567.735 215.52C568.242 215.187 568.495 214.753 568.495 214.22C568.495 213.78 568.342 213.44 568.035 213.2C567.742 212.947 567.275 212.773 566.635 212.68L564.895 212.44C563.895 212.293 563.148 211.993 562.655 211.54C562.175 211.087 561.935 210.473 561.935 209.7C561.935 209.14 562.095 208.64 562.415 208.2C562.735 207.76 563.175 207.413 563.735 207.16C564.308 206.907 564.962 206.78 565.695 206.78C566.428 206.78 567.115 206.887 567.755 207.1C568.395 207.313 569.022 207.647 569.635 208.1L568.855 209.1C568.295 208.713 567.748 208.433 567.215 208.26C566.695 208.073 566.162 207.98 565.615 207.98C564.922 207.98 564.362 208.133 563.935 208.44C563.508 208.747 563.295 209.147 563.295 209.64C563.295 210.093 563.442 210.44 563.735 210.68C564.028 210.907 564.502 211.067 565.155 211.16L566.895 211.4C567.895 211.533 568.642 211.827 569.135 212.28C569.642 212.733 569.895 213.353 569.895 214.14C569.895 214.713 569.715 215.233 569.355 215.7C568.995 216.167 568.508 216.533 567.895 216.8C567.295 217.067 566.608 217.2 565.835 217.2ZM576.318 217.2C575.372 217.2 574.505 216.973 573.718 216.52C572.945 216.053 572.332 215.427 571.878 214.64C571.425 213.853 571.198 212.973 571.198 212C571.198 211.027 571.425 210.147 571.878 209.36C572.332 208.573 572.945 207.953 573.718 207.5C574.505 207.033 575.372 206.8 576.318 206.8C577.278 206.8 578.145 207.033 578.918 207.5C579.692 207.953 580.305 208.573 580.758 209.36C581.212 210.147 581.438 211.027 581.438 212C581.438 212.973 581.212 213.853 580.758 214.64C580.305 215.427 579.692 216.053 578.918 216.52C578.145 216.973 577.278 217.2 576.318 217.2ZM576.318 215.88C576.998 215.88 577.612 215.707 578.158 215.36C578.718 215.013 579.158 214.547 579.478 213.96C579.812 213.373 579.978 212.72 579.978 212C579.978 211.267 579.812 210.613 579.478 210.04C579.158 209.453 578.718 208.987 578.158 208.64C577.612 208.293 576.998 208.12 576.318 208.12C575.638 208.12 575.018 208.293 574.458 208.64C573.912 208.987 573.472 209.453 573.138 210.04C572.818 210.613 572.658 211.267 572.658 212C572.658 212.72 572.818 213.373 573.138 213.96C573.472 214.547 573.912 215.013 574.458 215.36C575.018 215.707 575.638 215.88 576.318 215.88ZM583.494 217V203L584.974 202.66V217H583.494ZM591.338 217.2C590.578 217.2 589.905 217.04 589.318 216.72C588.732 216.387 588.272 215.933 587.938 215.36C587.618 214.773 587.458 214.093 587.458 213.32V206.98H588.918V213.02C588.918 213.913 589.172 214.62 589.678 215.14C590.185 215.647 590.865 215.9 591.718 215.9C592.318 215.9 592.852 215.767 593.318 215.5C593.798 215.22 594.185 214.833 594.478 214.34V206.98H595.958V217H594.478V215.84C593.692 216.747 592.645 217.2 591.338 217.2ZM602.855 221.56C601.935 221.56 601.182 221.287 600.595 220.74L601.195 220.1C601.702 220.527 602.255 220.74 602.855 220.74C603.255 220.74 603.568 220.647 603.795 220.46C604.022 220.287 604.135 220.053 604.135 219.76C604.135 219.467 604.008 219.233 603.755 219.06C603.515 218.9 603.182 218.82 602.755 218.82H602.175L602.655 217.16C601.775 217.08 600.982 216.807 600.275 216.34C599.582 215.86 599.028 215.247 598.615 214.5C598.215 213.74 598.015 212.9 598.015 211.98C598.015 211.007 598.242 210.133 598.695 209.36C599.148 208.573 599.762 207.947 600.535 207.48C601.308 207.013 602.168 206.78 603.115 206.78C603.848 206.78 604.555 206.92 605.235 207.2C605.915 207.467 606.515 207.853 607.035 208.36L606.095 209.44C605.695 209.013 605.235 208.693 604.715 208.48C604.208 208.253 603.682 208.14 603.135 208.14C602.455 208.14 601.835 208.313 601.275 208.66C600.728 208.993 600.288 209.453 599.955 210.04C599.635 210.613 599.475 211.26 599.475 211.98C599.475 212.7 599.635 213.353 599.955 213.94C600.288 214.527 600.735 214.993 601.295 215.34C601.855 215.673 602.475 215.84 603.155 215.84C603.702 215.84 604.215 215.733 604.695 215.52C605.188 215.307 605.648 214.993 606.075 214.58L606.995 215.58C606.515 216.033 605.975 216.4 605.375 216.68C604.788 216.947 604.168 217.107 603.515 217.16L603.255 218.1C603.842 218.127 604.302 218.287 604.635 218.58C604.982 218.873 605.155 219.26 605.155 219.74C605.155 220.273 604.935 220.707 604.495 221.04C604.068 221.387 603.522 221.56 602.855 221.56ZM613.096 217.2C612.149 217.2 611.282 216.973 610.496 216.52C609.722 216.053 609.109 215.427 608.656 214.64C608.202 213.853 607.976 212.973 607.976 212C607.976 211.027 608.202 210.147 608.656 209.36C609.109 208.573 609.722 207.953 610.496 207.5C611.282 207.033 612.149 206.8 613.096 206.8C614.056 206.8 614.922 207.033 615.696 207.5C616.469 207.953 617.082 208.573 617.536 209.36C617.989 210.147 618.216 211.027 618.216 212C618.216 212.973 617.989 213.853 617.536 214.64C617.082 215.427 616.469 216.053 615.696 216.52C614.922 216.973 614.056 217.2 613.096 217.2ZM613.096 215.88C613.776 215.88 614.389 215.707 614.936 215.36C615.496 215.013 615.936 214.547 616.256 213.96C616.589 213.373 616.756 212.72 616.756 212C616.756 211.267 616.589 210.613 616.256 210.04C615.936 209.453 615.496 208.987 614.936 208.64C614.389 208.293 613.776 208.12 613.096 208.12C612.416 208.12 611.796 208.293 611.236 208.64C610.689 208.987 610.249 209.453 609.916 210.04C609.596 210.613 609.436 211.267 609.436 212C609.436 212.72 609.596 213.373 609.916 213.96C610.249 214.547 610.689 215.013 611.236 215.36C611.796 215.707 612.416 215.88 613.096 215.88ZM610.776 205.1L609.736 204.9C610.029 203.567 610.656 202.9 611.616 202.9C611.976 202.9 612.322 202.993 612.656 203.18C613.002 203.353 613.329 203.533 613.636 203.72C613.942 203.907 614.236 204 614.516 204C614.742 204 614.922 203.913 615.056 203.74C615.202 203.567 615.322 203.273 615.416 202.86L616.436 203.06C616.302 203.727 616.076 204.227 615.756 204.56C615.436 204.893 615.036 205.06 614.556 205.06C614.209 205.06 613.862 204.967 613.516 204.78C613.182 204.593 612.856 204.413 612.536 204.24C612.229 204.053 611.936 203.96 611.656 203.96C611.416 203.96 611.229 204.047 611.096 204.22C610.962 204.393 610.856 204.687 610.776 205.1ZM624.972 217.18C624.012 217.18 623.138 216.953 622.352 216.5C621.578 216.033 620.958 215.407 620.492 214.62C620.038 213.833 619.812 212.953 619.812 211.98C619.812 211.02 620.032 210.153 620.472 209.38C620.912 208.593 621.505 207.973 622.252 207.52C622.998 207.053 623.832 206.82 624.752 206.82C625.645 206.82 626.445 207.053 627.152 207.52C627.872 207.973 628.438 208.593 628.852 209.38C629.278 210.153 629.492 211.02 629.492 211.98V212.44H621.272C621.352 213.093 621.558 213.68 621.892 214.2C622.238 214.72 622.685 215.133 623.232 215.44C623.778 215.733 624.378 215.88 625.032 215.88C625.552 215.88 626.058 215.8 626.552 215.64C627.045 215.48 627.458 215.253 627.792 214.96L628.712 215.94C628.152 216.353 627.565 216.667 626.952 216.88C626.352 217.08 625.692 217.18 624.972 217.18ZM621.312 211.26H628.012C627.932 210.66 627.732 210.127 627.412 209.66C627.105 209.18 626.718 208.807 626.252 208.54C625.785 208.26 625.272 208.12 624.712 208.12C624.138 208.12 623.612 208.253 623.132 208.52C622.652 208.787 622.252 209.16 621.932 209.64C621.612 210.107 621.405 210.647 621.312 211.26ZM634.858 217.2C634.032 217.2 633.252 217.067 632.518 216.8C631.798 216.52 631.172 216.133 630.638 215.64L631.538 214.68C632.005 215.107 632.518 215.44 633.078 215.68C633.638 215.907 634.212 216.02 634.798 216.02C635.598 216.02 636.252 215.853 636.758 215.52C637.265 215.187 637.518 214.753 637.518 214.22C637.518 213.78 637.365 213.44 637.058 213.2C636.765 212.947 636.298 212.773 635.658 212.68L633.918 212.44C632.918 212.293 632.172 211.993 631.678 211.54C631.198 211.087 630.958 210.473 630.958 209.7C630.958 209.14 631.118 208.64 631.438 208.2C631.758 207.76 632.198 207.413 632.758 207.16C633.332 206.907 633.985 206.78 634.718 206.78C635.452 206.78 636.138 206.887 636.778 207.1C637.418 207.313 638.045 207.647 638.658 208.1L637.878 209.1C637.318 208.713 636.772 208.433 636.238 208.26C635.718 208.073 635.185 207.98 634.638 207.98C633.945 207.98 633.385 208.133 632.958 208.44C632.532 208.747 632.318 209.147 632.318 209.64C632.318 210.093 632.465 210.44 632.758 210.68C633.052 210.907 633.525 211.067 634.178 211.16L635.918 211.4C636.918 211.533 637.665 211.827 638.158 212.28C638.665 212.733 638.918 213.353 638.918 214.14C638.918 214.713 638.738 215.233 638.378 215.7C638.018 216.167 637.532 216.533 636.918 216.8C636.318 217.067 635.632 217.2 634.858 217.2ZM649.581 217.18C648.621 217.18 647.748 216.953 646.961 216.5C646.188 216.033 645.568 215.407 645.101 214.62C644.648 213.833 644.421 212.953 644.421 211.98C644.421 211.02 644.641 210.153 645.081 209.38C645.521 208.593 646.114 207.973 646.861 207.52C647.608 207.053 648.441 206.82 649.361 206.82C650.254 206.82 651.054 207.053 651.761 207.52C652.481 207.973 653.048 208.593 653.461 209.38C653.888 210.153 654.101 211.02 654.101 211.98V212.44H645.881C645.961 213.093 646.168 213.68 646.501 214.2C646.848 214.72 647.294 215.133 647.841 215.44C648.388 215.733 648.988 215.88 649.641 215.88C650.161 215.88 650.668 215.8 651.161 215.64C651.654 215.48 652.068 215.253 652.401 214.96L653.321 215.94C652.761 216.353 652.174 216.667 651.561 216.88C650.961 217.08 650.301 217.18 649.581 217.18ZM645.921 211.26H652.621C652.541 210.66 652.341 210.127 652.021 209.66C651.714 209.18 651.328 208.807 650.861 208.54C650.394 208.26 649.881 208.12 649.321 208.12C648.748 208.12 648.221 208.253 647.741 208.52C647.261 208.787 646.861 209.16 646.541 209.64C646.221 210.107 646.014 210.647 645.921 211.26ZM656.17 217V206.98H657.65V208.08C658.41 207.213 659.39 206.78 660.59 206.78C661.297 206.78 661.923 206.947 662.47 207.28C663.017 207.6 663.443 208.04 663.75 208.6C664.163 207.987 664.657 207.533 665.23 207.24C665.803 206.933 666.457 206.78 667.19 206.78C667.923 206.78 668.563 206.947 669.11 207.28C669.657 207.6 670.083 208.053 670.39 208.64C670.71 209.213 670.87 209.887 670.87 210.66V217H669.41V210.96C669.41 210.067 669.177 209.367 668.71 208.86C668.243 208.34 667.61 208.08 666.81 208.08C666.263 208.08 665.763 208.22 665.31 208.5C664.857 208.767 664.47 209.173 664.15 209.72C664.177 209.867 664.197 210.02 664.21 210.18C664.237 210.327 664.25 210.487 664.25 210.66V217H662.79V210.96C662.79 210.067 662.557 209.367 662.09 208.86C661.623 208.34 660.997 208.08 660.21 208.08C659.677 208.08 659.19 208.207 658.75 208.46C658.323 208.7 657.957 209.06 657.65 209.54V217H656.17ZM677.655 217V206.98H679.135V208.16C679.921 207.24 680.975 206.78 682.295 206.78C683.055 206.78 683.721 206.947 684.295 207.28C684.881 207.6 685.335 208.053 685.655 208.64C685.988 209.213 686.155 209.887 686.155 210.66V217H684.695V210.96C684.695 210.067 684.441 209.367 683.935 208.86C683.441 208.34 682.761 208.08 681.895 208.08C681.295 208.08 680.761 208.213 680.295 208.48C679.828 208.747 679.441 209.127 679.135 209.62V217H677.655ZM692.373 217.2C691.613 217.2 690.94 217.04 690.353 216.72C689.767 216.387 689.307 215.933 688.973 215.36C688.653 214.773 688.493 214.093 688.493 213.32V206.98H689.953V213.02C689.953 213.913 690.207 214.62 690.713 215.14C691.22 215.647 691.9 215.9 692.753 215.9C693.353 215.9 693.887 215.767 694.353 215.5C694.833 215.22 695.22 214.833 695.513 214.34V206.98H696.993V217H695.513V215.84C694.727 216.747 693.68 217.2 692.373 217.2ZM702.69 217L698.35 206.98H699.99L703.41 215.08L706.83 206.98H708.41L704.09 217H702.69ZM714.171 217.18C713.211 217.18 712.338 216.953 711.551 216.5C710.778 216.033 710.158 215.407 709.691 214.62C709.238 213.833 709.011 212.953 709.011 211.98C709.011 211.02 709.231 210.153 709.671 209.38C710.111 208.593 710.704 207.973 711.451 207.52C712.198 207.053 713.031 206.82 713.951 206.82C714.844 206.82 715.644 207.053 716.351 207.52C717.071 207.973 717.638 208.593 718.051 209.38C718.478 210.153 718.691 211.02 718.691 211.98V212.44H710.471C710.551 213.093 710.758 213.68 711.091 214.2C711.438 214.72 711.884 215.133 712.431 215.44C712.978 215.733 713.578 215.88 714.231 215.88C714.751 215.88 715.258 215.8 715.751 215.64C716.244 215.48 716.658 215.253 716.991 214.96L717.911 215.94C717.351 216.353 716.764 216.667 716.151 216.88C715.551 217.08 714.891 217.18 714.171 217.18ZM710.511 211.26H717.211C717.131 210.66 716.931 210.127 716.611 209.66C716.304 209.18 715.918 208.807 715.451 208.54C714.984 208.26 714.471 208.12 713.911 208.12C713.338 208.12 712.811 208.253 712.331 208.52C711.851 208.787 711.451 209.16 711.131 209.64C710.811 210.107 710.604 210.647 710.511 211.26ZM720.76 217V206.98H722.24V208.08C723 207.213 723.98 206.78 725.18 206.78C725.887 206.78 726.513 206.947 727.06 207.28C727.607 207.6 728.033 208.04 728.34 208.6C728.753 207.987 729.247 207.533 729.82 207.24C730.393 206.933 731.047 206.78 731.78 206.78C732.513 206.78 733.153 206.947 733.7 207.28C734.247 207.6 734.673 208.053 734.98 208.64C735.3 209.213 735.46 209.887 735.46 210.66V217H734V210.96C734 210.067 733.767 209.367 733.3 208.86C732.833 208.34 732.2 208.08 731.4 208.08C730.853 208.08 730.353 208.22 729.9 208.5C729.447 208.767 729.06 209.173 728.74 209.72C728.767 209.867 728.787 210.02 728.8 210.18C728.827 210.327 728.84 210.487 728.84 210.66V217H727.38V210.96C727.38 210.067 727.147 209.367 726.68 208.86C726.213 208.34 725.587 208.08 724.8 208.08C724.267 208.08 723.78 208.207 723.34 208.46C722.913 208.7 722.547 209.06 722.24 209.54V217H720.76ZM746.944 217.18C745.984 217.18 745.111 216.953 744.324 216.5C743.551 216.033 742.931 215.407 742.464 214.62C742.011 213.833 741.784 212.953 741.784 211.98C741.784 211.02 742.004 210.153 742.444 209.38C742.884 208.593 743.478 207.973 744.224 207.52C744.971 207.053 745.804 206.82 746.724 206.82C747.618 206.82 748.418 207.053 749.124 207.52C749.844 207.973 750.411 208.593 750.824 209.38C751.251 210.153 751.464 211.02 751.464 211.98V212.44H743.244C743.324 213.093 743.531 213.68 743.864 214.2C744.211 214.72 744.658 215.133 745.204 215.44C745.751 215.733 746.351 215.88 747.004 215.88C747.524 215.88 748.031 215.8 748.524 215.64C749.018 215.48 749.431 215.253 749.764 214.96L750.684 215.94C750.124 216.353 749.538 216.667 748.924 216.88C748.324 217.08 747.664 217.18 746.944 217.18ZM743.284 211.26H749.984C749.904 210.66 749.704 210.127 749.384 209.66C749.078 209.18 748.691 208.807 748.224 208.54C747.758 208.26 747.244 208.12 746.684 208.12C746.111 208.12 745.584 208.253 745.104 208.52C744.624 208.787 744.224 209.16 743.904 209.64C743.584 210.107 743.378 210.647 743.284 211.26ZM757.83 217V206.98H759.31V208.08C760.07 207.213 761.05 206.78 762.25 206.78C762.957 206.78 763.584 206.947 764.13 207.28C764.677 207.6 765.104 208.04 765.41 208.6C765.824 207.987 766.317 207.533 766.89 207.24C767.464 206.933 768.117 206.78 768.85 206.78C769.584 206.78 770.224 206.947 770.77 207.28C771.317 207.6 771.744 208.053 772.05 208.64C772.37 209.213 772.53 209.887 772.53 210.66V217H771.07V210.96C771.07 210.067 770.837 209.367 770.37 208.86C769.904 208.34 769.27 208.08 768.47 208.08C767.924 208.08 767.424 208.22 766.97 208.5C766.517 208.767 766.13 209.173 765.81 209.72C765.837 209.867 765.857 210.02 765.87 210.18C765.897 210.327 765.91 210.487 765.91 210.66V217H764.45V210.96C764.45 210.067 764.217 209.367 763.75 208.86C763.284 208.34 762.657 208.08 761.87 208.08C761.337 208.08 760.85 208.207 760.41 208.46C759.984 208.7 759.617 209.06 759.31 209.54V217H757.83ZM778.178 217.18C777.444 217.18 776.798 217.053 776.238 216.8C775.691 216.547 775.258 216.193 774.938 215.74C774.631 215.287 774.478 214.76 774.478 214.16C774.478 213.213 774.838 212.467 775.558 211.92C776.278 211.373 777.251 211.1 778.478 211.1C779.558 211.1 780.538 211.327 781.418 211.78V210.46C781.418 209.66 781.191 209.06 780.738 208.66C780.284 208.247 779.624 208.04 778.758 208.04C778.264 208.04 777.764 208.113 777.258 208.26C776.764 208.393 776.218 208.613 775.618 208.92L775.058 207.78C775.778 207.433 776.444 207.18 777.058 207.02C777.671 206.86 778.284 206.78 778.898 206.78C780.164 206.78 781.138 207.08 781.818 207.68C782.511 208.28 782.858 209.14 782.858 210.26V217H781.418V216.02C780.964 216.407 780.464 216.7 779.918 216.9C779.384 217.087 778.804 217.18 778.178 217.18ZM775.898 214.12C775.898 214.68 776.131 215.14 776.598 215.5C777.078 215.847 777.691 216.02 778.438 216.02C779.038 216.02 779.584 215.927 780.078 215.74C780.571 215.553 781.018 215.26 781.418 214.86V212.98C781.004 212.7 780.564 212.5 780.098 212.38C779.631 212.247 779.104 212.18 778.518 212.18C777.718 212.18 777.078 212.36 776.598 212.72C776.131 213.067 775.898 213.533 775.898 214.12ZM785.33 217V206.98H786.81V217H785.33ZM786.07 205.06C785.804 205.06 785.57 204.96 785.37 204.76C785.17 204.56 785.07 204.327 785.07 204.06C785.07 203.78 785.17 203.547 785.37 203.36C785.57 203.16 785.804 203.06 786.07 203.06C786.35 203.06 786.584 203.16 786.77 203.36C786.97 203.547 787.07 203.78 787.07 204.06C787.07 204.327 786.97 204.56 786.77 204.76C786.584 204.96 786.35 205.06 786.07 205.06ZM792.534 217.2C791.708 217.2 790.928 217.067 790.194 216.8C789.474 216.52 788.848 216.133 788.314 215.64L789.214 214.68C789.681 215.107 790.194 215.44 790.754 215.68C791.314 215.907 791.888 216.02 792.474 216.02C793.274 216.02 793.928 215.853 794.434 215.52C794.941 215.187 795.194 214.753 795.194 214.22C795.194 213.78 795.041 213.44 794.734 213.2C794.441 212.947 793.974 212.773 793.334 212.68L791.594 212.44C790.594 212.293 789.848 211.993 789.354 211.54C788.874 211.087 788.634 210.473 788.634 209.7C788.634 209.14 788.794 208.64 789.114 208.2C789.434 207.76 789.874 207.413 790.434 207.16C791.008 206.907 791.661 206.78 792.394 206.78C793.128 206.78 793.814 206.887 794.454 207.1C795.094 207.313 795.721 207.647 796.334 208.1L795.554 209.1C794.994 208.713 794.448 208.433 793.914 208.26C793.394 208.073 792.861 207.98 792.314 207.98C791.621 207.98 791.061 208.133 790.634 208.44C790.208 208.747 789.994 209.147 789.994 209.64C789.994 210.093 790.141 210.44 790.434 210.68C790.728 210.907 791.201 211.067 791.854 211.16L793.594 211.4C794.594 211.533 795.341 211.827 795.834 212.28C796.341 212.733 796.594 213.353 796.594 214.14C796.594 214.713 796.414 215.233 796.054 215.7C795.694 216.167 795.208 216.533 794.594 216.8C793.994 217.067 793.308 217.2 792.534 217.2Z" fill="white"/>
<defs>
<linearGradient id="paint0_linear_319_3" x1="421.5" y1="13.75" x2="595.965" y2="245.473" gradientUnits="userSpaceOnUse">
<stop stop-color="#9F1111"/>
<stop offset="1" stop-color="#C21A6B"/>
</linearGradient>
</defs>
</svg>
