<svg width="1000" height="400" viewBox="0 0 1000 400" fill="none" xmlns="http://www.w3.org/2000/svg">
<g filter="url(#filter0_d_324_43)">
<path d="M211.595 144.64C207.968 144.64 204.427 143.979 200.97 142.656C197.514 141.291 194.442 139.371 191.755 136.896L197.067 130.24C199.669 132.544 202.165 134.208 204.555 135.232C206.987 136.256 209.547 136.768 212.235 136.768C214.112 136.768 215.733 136.555 217.099 136.128C218.464 135.659 219.509 134.997 220.235 134.144C221.003 133.291 221.387 132.288 221.387 131.136C221.387 129.6 220.832 128.427 219.723 127.616C218.613 126.763 216.715 126.101 214.027 125.632L205.131 124.096C201.333 123.456 198.432 122.112 196.427 120.064C194.464 118.016 193.483 115.371 193.483 112.128C193.483 109.355 194.187 106.944 195.595 104.896C197.045 102.848 199.072 101.291 201.675 100.224C204.32 99.1147 207.456 98.56 211.083 98.56C214.368 98.56 217.632 99.1147 220.875 100.224C224.16 101.333 227.061 102.869 229.579 104.832L224.587 111.744C219.893 108.16 215.179 106.368 210.443 106.368C208.779 106.368 207.328 106.581 206.091 107.008C204.853 107.435 203.893 108.032 203.211 108.8C202.571 109.525 202.251 110.4 202.251 111.424C202.251 112.789 202.741 113.856 203.723 114.624C204.704 115.349 206.347 115.904 208.651 116.288L217.099 117.696C221.579 118.421 224.928 119.851 227.147 121.984C229.365 124.075 230.475 126.848 230.475 130.304C230.475 133.205 229.707 135.744 228.171 137.92C226.635 140.053 224.437 141.717 221.579 142.912C218.763 144.064 215.435 144.64 211.595 144.64ZM252.275 144.64C248.947 144.64 245.939 143.872 243.251 142.336C240.563 140.8 238.429 138.731 236.851 136.128C235.272 133.525 234.483 130.603 234.483 127.36C234.483 124.117 235.251 121.195 236.786 118.592C238.365 115.947 240.499 113.856 243.187 112.32C245.917 110.784 248.947 110.016 252.275 110.016C255.603 110.016 258.611 110.784 261.299 112.32C264.029 113.856 266.163 115.947 267.699 118.592C269.277 121.195 270.067 124.117 270.067 127.36C270.067 130.603 269.277 133.525 267.699 136.128C266.163 138.731 264.051 140.8 261.363 142.336C258.675 143.872 255.645 144.64 252.275 144.64ZM252.275 137.024C254.024 137.024 255.581 136.597 256.947 135.744C258.355 134.891 259.464 133.739 260.275 132.288C261.128 130.795 261.555 129.152 261.555 127.36C261.555 125.525 261.128 123.883 260.275 122.432C259.464 120.981 258.355 119.829 256.947 118.976C255.581 118.08 254.024 117.632 252.275 117.632C250.568 117.632 249.011 118.08 247.603 118.976C246.195 119.829 245.085 120.981 244.275 122.432C243.464 123.883 243.059 125.525 243.059 127.36C243.059 129.152 243.464 130.795 244.275 132.288C245.085 133.739 246.195 134.891 247.603 135.744C249.011 136.597 250.568 137.024 252.275 137.024ZM275.456 144V99.2L284.224 97.728V144H275.456ZM304.009 144.64C301.449 144.64 299.166 144.085 297.161 142.976C295.198 141.824 293.641 140.245 292.489 138.24C291.38 136.235 290.825 133.931 290.825 131.328V110.656H299.593V130.048C299.593 132.181 300.212 133.888 301.449 135.168C302.729 136.448 304.436 137.088 306.569 137.088C308.02 137.088 309.321 136.811 310.473 136.256C311.668 135.659 312.649 134.827 313.417 133.76V110.656H322.185V144H313.417V141.312C310.857 143.531 307.721 144.64 304.009 144.64ZM343.867 159.104C340.667 159.104 337.979 158.144 335.803 156.224L338.683 153.152C340.304 154.389 341.968 155.008 343.675 155.008C344.827 155.008 345.701 154.773 346.299 154.304C346.896 153.877 347.195 153.301 347.195 152.576C347.195 151.851 346.875 151.275 346.235 150.848C345.637 150.421 344.784 150.208 343.675 150.208H341.051L342.715 144.448C339.813 144.107 337.211 143.147 334.907 141.568C332.603 139.989 330.789 137.984 329.467 135.552C328.144 133.077 327.483 130.347 327.483 127.36C327.483 124.075 328.251 121.131 329.786 118.528C331.323 115.925 333.413 113.856 336.059 112.32C338.704 110.784 341.669 110.016 344.955 110.016C347.6 110.016 350.117 110.528 352.507 111.552C354.939 112.576 357.029 114.048 358.779 115.968L353.403 121.664C352.165 120.299 350.864 119.296 349.499 118.656C348.176 117.973 346.725 117.632 345.147 117.632C343.44 117.632 341.904 118.059 340.539 118.912C339.216 119.765 338.149 120.917 337.339 122.368C336.571 123.819 336.187 125.483 336.187 127.36C336.187 129.152 336.571 130.795 337.339 132.288C338.149 133.739 339.259 134.891 340.667 135.744C342.075 136.555 343.632 136.96 345.339 136.96C346.832 136.96 348.219 136.661 349.499 136.064C350.821 135.424 352.08 134.485 353.275 133.248L358.523 138.752C357.029 140.331 355.28 141.632 353.275 142.656C351.269 143.637 349.157 144.256 346.939 144.512L346.235 146.944C348.112 147.072 349.584 147.648 350.651 148.672C351.76 149.696 352.315 151.019 352.315 152.64C352.315 154.475 351.504 156.011 349.883 157.248C348.261 158.485 346.256 159.104 343.867 159.104ZM378.4 144.64C375.072 144.64 372.064 143.872 369.376 142.336C366.688 140.8 364.554 138.731 362.976 136.128C361.397 133.525 360.608 130.603 360.608 127.36C360.608 124.117 361.376 121.195 362.911 118.592C364.49 115.947 366.624 113.856 369.312 112.32C372.042 110.784 375.072 110.016 378.4 110.016C381.728 110.016 384.736 110.784 387.424 112.32C390.154 113.856 392.288 115.947 393.824 118.592C395.402 121.195 396.192 124.117 396.192 127.36C396.192 130.603 395.402 133.525 393.824 136.128C392.288 138.731 390.176 140.8 387.488 142.336C384.8 143.872 381.77 144.64 378.4 144.64ZM378.4 137.024C380.149 137.024 381.706 136.597 383.072 135.744C384.48 134.891 385.589 133.739 386.4 132.288C387.253 130.795 387.68 129.152 387.68 127.36C387.68 125.525 387.253 123.883 386.4 122.432C385.589 120.981 384.48 119.829 383.072 118.976C381.706 118.08 380.149 117.632 378.4 117.632C376.693 117.632 375.136 118.08 373.728 118.976C372.32 119.829 371.21 120.981 370.4 122.432C369.589 123.883 369.184 125.525 369.184 127.36C369.184 129.152 369.589 130.795 370.4 132.288C371.21 133.739 372.32 134.891 373.728 135.744C375.136 136.597 376.693 137.024 378.4 137.024ZM371.36 105.792L365.984 104.64C367.136 99.4773 369.568 96.896 373.28 96.896C374.474 96.896 375.626 97.1733 376.736 97.728C377.888 98.24 378.976 98.7733 380 99.328C381.024 99.84 381.92 100.096 382.688 100.096C383.413 100.096 383.989 99.84 384.416 99.328C384.842 98.816 385.205 97.92 385.504 96.64L390.752 97.792C390.24 100.437 389.365 102.4 388.128 103.68C386.933 104.96 385.397 105.6 383.52 105.6C382.368 105.6 381.216 105.344 380.064 104.832C378.954 104.277 377.888 103.744 376.864 103.232C375.84 102.677 374.901 102.4 374.048 102.4C373.365 102.4 372.81 102.656 372.384 103.168C371.957 103.68 371.616 104.555 371.36 105.792ZM417.901 144.64C414.573 144.64 411.544 143.872 408.813 142.336C406.125 140.8 403.992 138.731 402.413 136.128C400.834 133.525 400.045 130.603 400.045 127.36C400.045 124.117 400.792 121.195 402.285 118.592C403.821 115.989 405.89 113.92 408.493 112.384C411.096 110.848 413.997 110.08 417.197 110.08C420.397 110.08 423.234 110.869 425.709 112.448C428.184 114.027 430.125 116.16 431.533 118.848C432.984 121.536 433.709 124.587 433.709 128V130.304H409.005C409.389 131.627 410.008 132.821 410.861 133.888C411.757 134.955 412.845 135.787 414.125 136.384C415.448 136.981 416.856 137.28 418.349 137.28C419.842 137.28 421.208 137.045 422.445 136.576C423.725 136.107 424.813 135.445 425.709 134.592L431.469 139.84C429.421 141.504 427.309 142.72 425.133 143.488C423 144.256 420.589 144.64 417.901 144.64ZM408.877 124.032H425.069C424.77 122.709 424.216 121.557 423.405 120.576C422.637 119.552 421.698 118.763 420.589 118.208C419.522 117.611 418.328 117.312 417.005 117.312C415.64 117.312 414.402 117.589 413.293 118.144C412.184 118.699 411.245 119.488 410.477 120.512C409.752 121.493 409.218 122.667 408.877 124.032ZM451.874 144.64C448.802 144.64 445.964 144.256 443.362 143.488C440.759 142.677 438.498 141.525 436.578 140.032L440.93 134.208C442.85 135.488 444.684 136.448 446.434 137.088C448.226 137.728 449.996 138.048 451.746 138.048C453.708 138.048 455.266 137.728 456.418 137.088C457.612 136.405 458.21 135.531 458.21 134.464C458.21 133.611 457.868 132.928 457.186 132.416C456.546 131.904 455.5 131.541 454.05 131.328L447.65 130.368C444.322 129.856 441.804 128.789 440.098 127.168C438.391 125.504 437.538 123.328 437.538 120.64C437.538 118.464 438.092 116.608 439.202 115.072C440.354 113.493 441.954 112.277 444.002 111.424C446.092 110.528 448.567 110.08 451.426 110.08C453.858 110.08 456.226 110.421 458.53 111.104C460.876 111.787 463.074 112.832 465.122 114.24L460.898 119.936C459.063 118.784 457.314 117.952 455.65 117.44C453.986 116.928 452.3 116.672 450.594 116.672C449.015 116.672 447.735 116.971 446.754 117.568C445.815 118.165 445.345 118.955 445.345 119.936C445.345 120.832 445.687 121.536 446.37 122.048C447.052 122.56 448.226 122.923 449.89 123.136L456.226 124.096C459.554 124.565 462.092 125.632 463.842 127.296C465.591 128.917 466.466 131.029 466.466 133.632C466.466 135.765 465.826 137.664 464.546 139.328C463.266 140.949 461.538 142.251 459.362 143.232C457.186 144.171 454.69 144.64 451.874 144.64ZM506.362 144.64C503.034 144.64 499.919 144.064 497.018 142.912C494.117 141.717 491.578 140.075 489.402 137.984C487.269 135.893 485.583 133.461 484.346 130.688C483.151 127.872 482.554 124.843 482.554 121.6C482.554 118.315 483.151 115.285 484.346 112.512C485.583 109.696 487.29 107.243 489.466 105.152C491.642 103.061 494.159 101.44 497.018 100.288C499.919 99.0933 503.034 98.496 506.362 98.496C508.837 98.496 511.226 98.8373 513.53 99.52C515.834 100.203 517.967 101.163 519.93 102.4C521.935 103.637 523.642 105.131 525.05 106.88L518.778 113.088C517.157 111.083 515.279 109.568 513.146 108.544C511.055 107.52 508.794 107.008 506.362 107.008C504.357 107.008 502.479 107.392 500.73 108.16C498.981 108.885 497.466 109.909 496.186 111.232C494.906 112.512 493.903 114.048 493.178 115.84C492.453 117.589 492.09 119.509 492.09 121.6C492.09 123.648 492.453 125.568 493.178 127.36C493.903 129.109 494.927 130.645 496.25 131.968C497.573 133.248 499.109 134.251 500.858 134.976C502.65 135.701 504.591 136.064 506.682 136.064C509.029 136.064 511.226 135.573 513.274 134.592C515.322 133.611 517.135 132.203 518.714 130.368L524.794 136.384C523.386 138.091 521.701 139.563 519.738 140.8C517.775 142.037 515.642 142.997 513.338 143.68C511.077 144.32 508.751 144.64 506.362 144.64ZM544.962 144.64C541.634 144.64 538.626 143.872 535.938 142.336C533.25 140.8 531.117 138.731 529.538 136.128C527.959 133.525 527.17 130.603 527.17 127.36C527.17 124.117 527.938 121.195 529.474 118.592C531.053 115.947 533.186 113.856 535.874 112.32C538.605 110.784 541.634 110.016 544.962 110.016C548.29 110.016 551.298 110.784 553.986 112.32C556.717 113.856 558.85 115.947 560.386 118.592C561.965 121.195 562.754 124.117 562.754 127.36C562.754 130.603 561.965 133.525 560.386 136.128C558.85 138.731 556.738 140.8 554.05 142.336C551.362 143.872 548.333 144.64 544.962 144.64ZM544.962 137.024C546.711 137.024 548.269 136.597 549.634 135.744C551.042 134.891 552.151 133.739 552.962 132.288C553.815 130.795 554.242 129.152 554.242 127.36C554.242 125.525 553.815 123.883 552.962 122.432C552.151 120.981 551.042 119.829 549.634 118.976C548.269 118.08 546.711 117.632 544.962 117.632C543.255 117.632 541.698 118.08 540.29 118.976C538.882 119.829 537.773 120.981 536.962 122.432C536.151 123.883 535.746 125.525 535.746 127.36C535.746 129.152 536.151 130.795 536.962 132.288C537.773 133.739 538.882 134.891 540.29 135.744C541.698 136.597 543.255 137.024 544.962 137.024ZM568.144 144V110.656H576.912V113.216C579.301 111.083 582.202 110.016 585.616 110.016C587.792 110.016 589.733 110.464 591.44 111.36C593.146 112.213 594.554 113.429 595.664 115.008C597.029 113.387 598.629 112.149 600.464 111.296C602.341 110.443 604.41 110.016 606.672 110.016C609.189 110.016 611.386 110.592 613.264 111.744C615.184 112.853 616.677 114.411 617.744 116.416C618.853 118.379 619.408 120.683 619.408 123.328V144H610.704V124.608C610.704 122.432 610.128 120.725 608.976 119.488C607.824 118.208 606.288 117.568 604.368 117.568C603.045 117.568 601.829 117.845 600.72 118.4C599.653 118.955 598.736 119.787 597.968 120.896C598.01 121.28 598.053 121.664 598.096 122.048C598.138 122.432 598.16 122.859 598.16 123.328V144H589.392V124.608C589.392 122.432 588.816 120.725 587.664 119.488C586.554 118.208 585.04 117.568 583.12 117.568C581.797 117.568 580.602 117.824 579.536 118.336C578.512 118.848 577.637 119.616 576.912 120.64V144H568.144ZM626.081 157.056V110.656H634.721V113.408C637.452 111.275 640.609 110.208 644.193 110.208C647.35 110.208 650.209 110.976 652.769 112.512C655.329 114.048 657.356 116.117 658.849 118.72C660.385 121.28 661.153 124.16 661.153 127.36C661.153 130.56 660.385 133.461 658.849 136.064C657.313 138.624 655.244 140.672 652.641 142.208C650.038 143.701 647.137 144.448 643.937 144.448C642.273 144.448 640.673 144.235 639.137 143.808C637.601 143.339 636.172 142.677 634.849 141.824V157.056H626.081ZM642.785 137.024C644.62 137.024 646.262 136.597 647.713 135.744C649.206 134.891 650.38 133.739 651.233 132.288C652.086 130.837 652.513 129.195 652.513 127.36C652.513 125.525 652.086 123.883 651.233 122.432C650.38 120.939 649.206 119.787 647.713 118.976C646.262 118.123 644.62 117.696 642.785 117.696C641.164 117.696 639.67 117.973 638.305 118.528C636.982 119.04 635.83 119.829 634.849 120.896V133.888C635.788 134.869 636.94 135.637 638.305 136.192C639.713 136.747 641.206 137.024 642.785 137.024ZM666.456 144V99.2L675.224 97.728V144H666.456ZM698.401 144.64C695.073 144.64 692.044 143.872 689.313 142.336C686.625 140.8 684.492 138.731 682.913 136.128C681.334 133.525 680.545 130.603 680.545 127.36C680.545 124.117 681.292 121.195 682.785 118.592C684.321 115.989 686.39 113.92 688.993 112.384C691.596 110.848 694.497 110.08 697.697 110.08C700.897 110.08 703.734 110.869 706.209 112.448C708.684 114.027 710.625 116.16 712.033 118.848C713.484 121.536 714.209 124.587 714.209 128V130.304H689.505C689.889 131.627 690.508 132.821 691.361 133.888C692.257 134.955 693.345 135.787 694.625 136.384C695.948 136.981 697.356 137.28 698.849 137.28C700.342 137.28 701.708 137.045 702.945 136.576C704.225 136.107 705.313 135.445 706.209 134.592L711.969 139.84C709.921 141.504 707.809 142.72 705.633 143.488C703.5 144.256 701.089 144.64 698.401 144.64ZM689.377 124.032H705.569C705.27 122.709 704.716 121.557 703.905 120.576C703.137 119.552 702.198 118.763 701.089 118.208C700.022 117.611 698.828 117.312 697.505 117.312C696.14 117.312 694.902 117.589 693.793 118.144C692.684 118.699 691.745 119.488 690.977 120.512C690.252 121.493 689.718 122.667 689.377 124.032ZM734.452 144.512C730.74 144.512 727.924 143.68 726.004 142.016C724.126 140.309 723.188 137.835 723.188 134.592V117.952H716.34V110.656H723.188V102.144L731.956 100.16V110.656H741.492V117.952H731.956V132.8C731.956 134.336 732.297 135.445 732.98 136.128C733.662 136.768 734.857 137.088 736.564 137.088C737.417 137.088 738.185 137.045 738.868 136.96C739.593 136.832 740.382 136.619 741.236 136.32V143.552C740.34 143.851 739.209 144.085 737.844 144.256C736.521 144.427 735.39 144.512 734.452 144.512ZM756.393 144.576C754.003 144.576 751.891 144.149 750.057 143.296C748.222 142.4 746.793 141.184 745.769 139.648C744.745 138.112 744.233 136.341 744.233 134.336C744.233 131.136 745.427 128.661 747.817 126.912C750.249 125.12 753.577 124.224 757.801 124.224C760.702 124.224 763.433 124.672 765.993 125.568V123.136C765.993 121.216 765.395 119.765 764.201 118.784C763.006 117.803 761.257 117.312 758.953 117.312C757.545 117.312 756.03 117.547 754.409 118.016C752.787 118.443 750.91 119.125 748.777 120.064L745.577 113.6C748.222 112.405 750.739 111.509 753.129 110.912C755.561 110.315 757.993 110.016 760.425 110.016C764.905 110.016 768.382 111.104 770.857 113.28C773.374 115.413 774.632 118.443 774.632 122.368V144H765.993V141.632C764.627 142.656 763.155 143.403 761.577 143.872C759.998 144.341 758.27 144.576 756.393 144.576ZM752.553 134.144C752.553 135.424 753.107 136.448 754.217 137.216C755.326 137.941 756.798 138.304 758.633 138.304C760.083 138.304 761.427 138.133 762.665 137.792C763.902 137.408 765.011 136.853 765.993 136.128V131.264C764.926 130.837 763.817 130.517 762.665 130.304C761.513 130.091 760.275 129.984 758.953 129.984C756.947 129.984 755.369 130.368 754.217 131.136C753.107 131.861 752.553 132.864 752.553 134.144ZM793.749 144.64C790.677 144.64 787.839 144.256 785.237 143.488C782.634 142.677 780.373 141.525 778.453 140.032L782.805 134.208C784.725 135.488 786.559 136.448 788.309 137.088C790.101 137.728 791.871 138.048 793.621 138.048C795.583 138.048 797.141 137.728 798.293 137.088C799.487 136.405 800.085 135.531 800.085 134.464C800.085 133.611 799.743 132.928 799.061 132.416C798.421 131.904 797.375 131.541 795.925 131.328L789.525 130.368C786.197 129.856 783.679 128.789 781.973 127.168C780.266 125.504 779.413 123.328 779.413 120.64C779.413 118.464 779.967 116.608 781.077 115.072C782.229 113.493 783.829 112.277 785.877 111.424C787.967 110.528 790.442 110.08 793.301 110.08C795.733 110.08 798.101 110.421 800.405 111.104C802.751 111.787 804.949 112.832 806.997 114.24L802.773 119.936C800.938 118.784 799.189 117.952 797.525 117.44C795.861 116.928 794.175 116.672 792.469 116.672C790.89 116.672 789.61 116.971 788.629 117.568C787.69 118.165 787.22 118.955 787.22 119.936C787.22 120.832 787.562 121.536 788.245 122.048C788.927 122.56 790.101 122.923 791.765 123.136L798.101 124.096C801.429 124.565 803.967 125.632 805.717 127.296C807.466 128.917 808.341 131.029 808.341 133.632C808.341 135.765 807.701 137.664 806.421 139.328C805.141 140.949 803.413 142.251 801.237 143.232C799.061 144.171 796.565 144.64 793.749 144.64ZM825.581 157.056V110.656H834.221V113.408C836.952 111.275 840.109 110.208 843.693 110.208C846.85 110.208 849.709 110.976 852.269 112.512C854.829 114.048 856.856 116.117 858.349 118.72C859.885 121.28 860.653 124.16 860.653 127.36C860.653 130.56 859.885 133.461 858.349 136.064C856.813 138.624 854.744 140.672 852.141 142.208C849.538 143.701 846.637 144.448 843.437 144.448C841.773 144.448 840.173 144.235 838.637 143.808C837.101 143.339 835.672 142.677 834.349 141.824V157.056H825.581ZM842.285 137.024C844.12 137.024 845.762 136.597 847.213 135.744C848.706 134.891 849.88 133.739 850.733 132.288C851.586 130.837 852.013 129.195 852.013 127.36C852.013 125.525 851.586 123.883 850.733 122.432C849.88 120.939 848.706 119.787 847.213 118.976C845.762 118.123 844.12 117.696 842.285 117.696C840.664 117.696 839.17 117.973 837.805 118.528C836.482 119.04 835.33 119.829 834.349 120.896V133.888C835.288 134.869 836.44 135.637 837.805 136.192C839.213 136.747 840.706 137.024 842.285 137.024ZM876.893 144.576C874.503 144.576 872.391 144.149 870.557 143.296C868.722 142.4 867.293 141.184 866.269 139.648C865.245 138.112 864.733 136.341 864.733 134.336C864.733 131.136 865.927 128.661 868.317 126.912C870.749 125.12 874.077 124.224 878.301 124.224C881.202 124.224 883.933 124.672 886.493 125.568V123.136C886.493 121.216 885.895 119.765 884.701 118.784C883.506 117.803 881.757 117.312 879.453 117.312C878.045 117.312 876.53 117.547 874.909 118.016C873.287 118.443 871.41 119.125 869.277 120.064L866.077 113.6C868.722 112.405 871.239 111.509 873.629 110.912C876.061 110.315 878.493 110.016 880.925 110.016C885.405 110.016 888.882 111.104 891.357 113.28C893.874 115.413 895.132 118.443 895.132 122.368V144H886.493V141.632C885.127 142.656 883.655 143.403 882.077 143.872C880.498 144.341 878.77 144.576 876.893 144.576ZM873.053 134.144C873.053 135.424 873.607 136.448 874.717 137.216C875.826 137.941 877.298 138.304 879.133 138.304C880.583 138.304 881.927 138.133 883.165 137.792C884.402 137.408 885.511 136.853 886.493 136.128V131.264C885.426 130.837 884.317 130.517 883.165 130.304C882.013 130.091 880.775 129.984 879.453 129.984C877.447 129.984 875.869 130.368 874.717 131.136C873.607 131.861 873.053 132.864 873.053 134.144ZM901.769 144V110.656H910.537V114.368C911.603 112.917 912.883 111.808 914.377 111.04C915.87 110.272 917.555 109.888 919.433 109.888C921.054 109.931 922.27 110.187 923.081 110.656V118.336C922.441 118.037 921.737 117.824 920.969 117.696C920.201 117.525 919.411 117.44 918.601 117.44C916.894 117.44 915.337 117.867 913.929 118.72C912.521 119.573 911.39 120.789 910.537 122.368V144H901.769ZM937.58 144.576C935.191 144.576 933.079 144.149 931.244 143.296C929.409 142.4 927.98 141.184 926.956 139.648C925.932 138.112 925.42 136.341 925.42 134.336C925.42 131.136 926.615 128.661 929.004 126.912C931.436 125.12 934.764 124.224 938.988 124.224C941.889 124.224 944.62 124.672 947.18 125.568V123.136C947.18 121.216 946.583 119.765 945.388 118.784C944.193 117.803 942.444 117.312 940.14 117.312C938.732 117.312 937.217 117.547 935.596 118.016C933.975 118.443 932.097 119.125 929.964 120.064L926.764 113.6C929.409 112.405 931.927 111.509 934.316 110.912C936.748 110.315 939.18 110.016 941.612 110.016C946.092 110.016 949.569 111.104 952.044 113.28C954.561 115.413 955.82 118.443 955.82 122.368V144H947.18V141.632C945.815 142.656 944.343 143.403 942.764 143.872C941.185 144.341 939.457 144.576 937.58 144.576ZM933.74 134.144C933.74 135.424 934.295 136.448 935.404 137.216C936.513 137.941 937.985 138.304 939.82 138.304C941.271 138.304 942.615 138.133 943.852 137.792C945.089 137.408 946.199 136.853 947.18 136.128V131.264C946.113 130.837 945.004 130.517 943.852 130.304C942.7 130.091 941.463 129.984 940.14 129.984C938.135 129.984 936.556 130.368 935.404 131.136C934.295 131.861 933.74 132.864 933.74 134.144ZM542.712 229.64C539.384 229.64 536.376 228.872 533.688 227.336C531 225.8 528.867 223.731 527.288 221.128C525.709 218.525 524.92 215.603 524.92 212.36C524.92 209.117 525.688 206.195 527.224 203.592C528.803 200.947 530.936 198.856 533.624 197.32C536.355 195.784 539.384 195.016 542.712 195.016C546.04 195.016 549.048 195.784 551.736 197.32C554.467 198.856 556.6 200.947 558.136 203.592C559.715 206.195 560.504 209.117 560.504 212.36C560.504 215.603 559.715 218.525 558.136 221.128C556.6 223.731 554.488 225.8 551.8 227.336C549.112 228.872 546.083 229.64 542.712 229.64ZM542.712 222.024C544.461 222.024 546.019 221.597 547.384 220.744C548.792 219.891 549.901 218.739 550.712 217.288C551.565 215.795 551.992 214.152 551.992 212.36C551.992 210.525 551.565 208.883 550.712 207.432C549.901 205.981 548.792 204.829 547.384 203.976C546.019 203.08 544.461 202.632 542.712 202.632C541.005 202.632 539.448 203.08 538.04 203.976C536.632 204.829 535.523 205.981 534.712 207.432C533.901 208.883 533.496 210.525 533.496 212.36C533.496 214.152 533.901 215.795 534.712 217.288C535.523 218.739 536.632 219.891 538.04 220.744C539.448 221.597 541.005 222.024 542.712 222.024ZM595.345 229.64C591.718 229.64 588.177 228.979 584.72 227.656C581.264 226.291 578.192 224.371 575.505 221.896L580.817 215.24C583.419 217.544 585.915 219.208 588.305 220.232C590.737 221.256 593.297 221.768 595.985 221.768C597.862 221.768 599.483 221.555 600.849 221.128C602.214 220.659 603.259 219.997 603.985 219.144C604.753 218.291 605.137 217.288 605.137 216.136C605.137 214.6 604.582 213.427 603.473 212.616C602.363 211.763 600.465 211.101 597.777 210.632L588.881 209.096C585.083 208.456 582.182 207.112 580.177 205.064C578.214 203.016 577.233 200.371 577.233 197.128C577.233 194.355 577.937 191.944 579.345 189.896C580.795 187.848 582.822 186.291 585.425 185.224C588.07 184.115 591.206 183.56 594.833 183.56C598.118 183.56 601.382 184.115 604.625 185.224C607.91 186.333 610.811 187.869 613.329 189.832L608.337 196.744C603.643 193.16 598.929 191.368 594.193 191.368C592.529 191.368 591.078 191.581 589.841 192.008C588.603 192.435 587.643 193.032 586.961 193.8C586.321 194.525 586.001 195.4 586.001 196.424C586.001 197.789 586.491 198.856 587.473 199.624C588.454 200.349 590.097 200.904 592.401 201.288L600.849 202.696C605.329 203.421 608.678 204.851 610.897 206.984C613.115 209.075 614.225 211.848 614.225 215.304C614.225 218.205 613.457 220.744 611.921 222.92C610.385 225.053 608.187 226.717 605.329 227.912C602.513 229.064 599.185 229.64 595.345 229.64ZM636.089 229.64C632.761 229.64 629.731 228.872 627.001 227.336C624.313 225.8 622.179 223.731 620.601 221.128C619.022 218.525 618.233 215.603 618.233 212.36C618.233 209.117 618.979 206.195 620.473 203.592C622.009 200.989 624.078 198.92 626.681 197.384C629.283 195.848 632.185 195.08 635.385 195.08C638.585 195.08 641.422 195.869 643.897 197.448C646.371 199.027 648.313 201.16 649.721 203.848C651.171 206.536 651.897 209.587 651.897 213V215.304H627.193C627.577 216.627 628.195 217.821 629.049 218.888C629.945 219.955 631.033 220.787 632.312 221.384C633.635 221.981 635.043 222.28 636.537 222.28C638.03 222.28 639.395 222.045 640.633 221.576C641.913 221.107 643.001 220.445 643.897 219.592L649.657 224.84C647.609 226.504 645.497 227.72 643.321 228.488C641.187 229.256 638.777 229.64 636.089 229.64ZM627.065 209.032H643.257C642.958 207.709 642.403 206.557 641.593 205.576C640.825 204.552 639.886 203.763 638.777 203.208C637.71 202.611 636.515 202.312 635.193 202.312C633.827 202.312 632.59 202.589 631.481 203.144C630.371 203.699 629.433 204.488 628.665 205.512C627.939 206.493 627.406 207.667 627.065 209.032ZM670.197 229.64C667.637 229.64 665.354 229.085 663.349 227.976C661.386 226.824 659.829 225.245 658.677 223.24C657.567 221.235 657.013 218.931 657.013 216.328V195.656H665.781V215.048C665.781 217.181 666.399 218.888 667.637 220.168C668.917 221.448 670.623 222.088 672.757 222.088C674.207 222.088 675.509 221.811 676.661 221.256C677.855 220.659 678.837 219.827 679.605 218.76V195.656H688.373V229H679.605V226.312C677.045 228.531 673.909 229.64 670.197 229.64ZM708.657 229V184.2H717.489L739.761 213.128V184.2H748.465V229H740.273L717.425 199.048V229H708.657ZM772.339 229.64C769.011 229.64 765.981 228.872 763.251 227.336C760.563 225.8 758.429 223.731 756.851 221.128C755.272 218.525 754.483 215.603 754.483 212.36C754.483 209.117 755.229 206.195 756.723 203.592C758.259 200.989 760.328 198.92 762.931 197.384C765.533 195.848 768.435 195.08 771.635 195.08C774.835 195.08 777.672 195.869 780.147 197.448C782.621 199.027 784.563 201.16 785.971 203.848C787.421 206.536 788.147 209.587 788.147 213V215.304H763.443C763.827 216.627 764.445 217.821 765.299 218.888C766.195 219.955 767.283 220.787 768.562 221.384C769.885 221.981 771.293 222.28 772.787 222.28C774.28 222.28 775.645 222.045 776.883 221.576C778.163 221.107 779.251 220.445 780.147 219.592L785.907 224.84C783.859 226.504 781.747 227.72 779.571 228.488C777.437 229.256 775.027 229.64 772.339 229.64ZM763.315 209.032H779.507C779.208 207.709 778.653 206.557 777.843 205.576C777.075 204.552 776.136 203.763 775.027 203.208C773.96 202.611 772.765 202.312 771.443 202.312C770.077 202.312 768.84 202.589 767.731 203.144C766.621 203.699 765.683 204.488 764.915 205.512C764.189 206.493 763.656 207.667 763.315 209.032ZM810.537 242.696C807.977 242.696 805.502 242.419 803.113 241.864C800.723 241.352 798.569 240.605 796.649 239.624L799.72 232.84C801.555 233.736 803.347 234.397 805.097 234.824C806.846 235.251 808.595 235.464 810.345 235.464C812.947 235.464 814.91 234.909 816.233 233.8C817.598 232.691 818.281 231.027 818.281 228.808V226.184C815.55 228.189 812.499 229.192 809.128 229.192C805.971 229.192 803.113 228.445 800.553 226.952C798.035 225.416 796.009 223.347 794.473 220.744C792.979 218.141 792.233 215.261 792.233 212.104C792.233 208.947 792.979 206.088 794.473 203.528C796.009 200.968 798.078 198.941 800.681 197.448C803.283 195.912 806.185 195.144 809.385 195.144C811.006 195.144 812.585 195.379 814.121 195.848C815.657 196.317 817.086 196.979 818.409 197.832V195.656H827.049V228.936C827.049 233.331 825.619 236.723 822.761 239.112C819.945 241.501 815.87 242.696 810.537 242.696ZM810.473 221.768C812.094 221.768 813.566 221.512 814.889 221C816.211 220.445 817.342 219.677 818.281 218.696V205.64C817.342 204.701 816.19 203.976 814.825 203.464C813.502 202.909 812.073 202.632 810.537 202.632C808.702 202.632 807.059 203.059 805.609 203.912C804.158 204.723 803.006 205.853 802.153 207.304C801.299 208.712 800.873 210.312 800.873 212.104C800.873 213.939 801.278 215.581 802.089 217.032C802.942 218.483 804.094 219.635 805.545 220.488C807.038 221.341 808.681 221.768 810.473 221.768ZM850.15 229.64C846.822 229.64 843.814 228.872 841.126 227.336C838.438 225.8 836.304 223.731 834.726 221.128C833.147 218.525 832.358 215.603 832.358 212.36C832.358 209.117 833.126 206.195 834.661 203.592C836.24 200.947 838.374 198.856 841.062 197.32C843.792 195.784 846.822 195.016 850.15 195.016C853.478 195.016 856.486 195.784 859.174 197.32C861.904 198.856 864.038 200.947 865.574 203.592C867.152 206.195 867.942 209.117 867.942 212.36C867.942 215.603 867.152 218.525 865.574 221.128C864.038 223.731 861.926 225.8 859.238 227.336C856.55 228.872 853.52 229.64 850.15 229.64ZM850.15 222.024C851.899 222.024 853.456 221.597 854.822 220.744C856.23 219.891 857.339 218.739 858.15 217.288C859.003 215.795 859.43 214.152 859.43 212.36C859.43 210.525 859.003 208.883 858.15 207.432C857.339 205.981 856.23 204.829 854.822 203.976C853.456 203.08 851.899 202.632 850.15 202.632C848.443 202.632 846.886 203.08 845.478 203.976C844.07 204.829 842.96 205.981 842.15 207.432C841.339 208.883 840.934 210.525 840.934 212.36C840.934 214.152 841.339 215.795 842.15 217.288C842.96 218.739 844.07 219.891 845.478 220.744C846.886 221.597 848.443 222.024 850.15 222.024ZM844.966 190.088L850.726 181.768H860.71L852.07 190.088H844.966ZM889.267 229.64C885.982 229.64 883.016 228.893 880.371 227.4C877.726 225.864 875.635 223.795 874.099 221.192C872.563 218.547 871.795 215.603 871.795 212.36C871.795 209.075 872.563 206.131 874.099 203.528C875.635 200.925 877.726 198.856 880.371 197.32C883.016 195.784 885.982 195.016 889.267 195.016C891.912 195.016 894.43 195.528 896.819 196.552C899.251 197.576 901.342 199.048 903.091 200.968L897.715 206.664C896.478 205.299 895.176 204.296 893.811 203.656C892.488 202.973 891.038 202.632 889.459 202.632C887.752 202.632 886.216 203.059 884.851 203.912C883.528 204.765 882.462 205.917 881.651 207.368C880.883 208.819 880.499 210.483 880.499 212.36C880.499 214.152 880.883 215.795 881.651 217.288C882.462 218.739 883.571 219.891 884.979 220.744C886.387 221.555 887.944 221.96 889.651 221.96C891.144 221.96 892.531 221.661 893.811 221.064C895.134 220.424 896.392 219.485 897.587 218.248L902.835 223.752C901.128 225.587 899.08 227.037 896.691 228.104C894.302 229.128 891.827 229.64 889.267 229.64ZM907.394 229V195.656H916.162V229H907.394ZM911.746 191.688C910.38 191.688 909.207 191.197 908.226 190.216C907.244 189.235 906.754 188.061 906.754 186.696C906.754 185.288 907.244 184.115 908.226 183.176C909.207 182.195 910.38 181.704 911.746 181.704C913.154 181.704 914.327 182.195 915.266 183.176C916.247 184.115 916.738 185.288 916.738 186.696C916.738 188.061 916.247 189.235 915.266 190.216C914.327 191.197 913.154 191.688 911.746 191.688ZM939.275 229.64C935.947 229.64 932.939 228.872 930.251 227.336C927.563 225.8 925.429 223.731 923.851 221.128C922.272 218.525 921.483 215.603 921.483 212.36C921.483 209.117 922.251 206.195 923.786 203.592C925.365 200.947 927.499 198.856 930.187 197.32C932.917 195.784 935.947 195.016 939.275 195.016C942.603 195.016 945.611 195.784 948.299 197.32C951.029 198.856 953.163 200.947 954.699 203.592C956.277 206.195 957.067 209.117 957.067 212.36C957.067 215.603 956.277 218.525 954.699 221.128C953.163 223.731 951.051 225.8 948.363 227.336C945.675 228.872 942.645 229.64 939.275 229.64ZM939.275 222.024C941.024 222.024 942.581 221.597 943.947 220.744C945.355 219.891 946.464 218.739 947.275 217.288C948.128 215.795 948.555 214.152 948.555 212.36C948.555 210.525 948.128 208.883 947.275 207.432C946.464 205.981 945.355 204.829 943.947 203.976C942.581 203.08 941.024 202.632 939.275 202.632C937.568 202.632 936.011 203.08 934.603 203.976C933.195 204.829 932.085 205.981 931.275 207.432C930.464 208.883 930.059 210.525 930.059 212.36C930.059 214.152 930.464 215.795 931.275 217.288C932.085 218.739 933.195 219.891 934.603 220.744C936.011 221.597 937.568 222.024 939.275 222.024Z" fill="url(#paint0_linear_324_43)"/>
</g>
<defs>
<filter id="filter0_d_324_43" x="186.655" y="94.54" width="775.512" height="156.256" filterUnits="userSpaceOnUse" color-interpolation-filters="sRGB">
<feFlood flood-opacity="0" result="BackgroundImageFix"/>
<feColorMatrix in="SourceAlpha" type="matrix" values="0 0 0 0 0 0 0 0 0 0 0 0 0 0 0 0 0 0 127 0" result="hardAlpha"/>
<feOffset dy="3"/>
<feGaussianBlur stdDeviation="2.55"/>
<feComposite in2="hardAlpha" operator="out"/>
<feColorMatrix type="matrix" values="0 0 0 0 0 0 0 0 0 0 0 0 0 0 0 0 0 0 0.43 0"/>
<feBlend mode="normal" in2="BackgroundImageFix" result="effect1_dropShadow_324_43"/>
<feBlend mode="normal" in="SourceGraphic" in2="effect1_dropShadow_324_43" result="shape"/>
</filter>
<linearGradient id="paint0_linear_324_43" x1="854.5" y1="-49.5" x2="798.732" y2="487.264" gradientUnits="userSpaceOnUse">
<stop stop-color="#9F1111"/>
<stop offset="1" stop-color="#C21A6B"/>
</linearGradient>
</defs>
</svg>
