<svg width="1000" height="1000" viewBox="0 0 1000 1000" fill="none" xmlns="http://www.w3.org/2000/svg">
<g clip-path="url(#clip0_347_51)">
<g filter="url(#filter0_d_347_51)">
<path d="M372.085 1192.78C378.557 1189.37 385.738 1196.87 381.845 1203.33C378.041 1209.65 365.224 1213.06 358.599 1214.75C333.903 1221.07 308.506 1215.18 285.465 1205.45C216.199 1176.19 159.013 1114.62 110.861 1057.98C-20.8945 902.994 -126.296 710.076 -172.611 509.439C-187.19 446.285 -210.221 324.067 -141.357 283.843C-70.9602 242.725 26.9901 333.379 72.778 379.045C224.694 530.555 341.599 733.701 401.707 941.327C421.267 1008.89 458.618 1161.89 379.2 1205.94C373.093 1209.32 365.902 1202.77 368.909 1196.21C372.205 1189.02 384.258 1183.64 389.341 1176.76C402.101 1159.48 406.401 1137.04 407.488 1115.88C411.034 1046.81 387.388 975.961 363.486 912.444C297.724 737.687 179.892 523.798 54.9046 386.385C16.1811 343.812 -71.5485 255.472 -135.833 291.236C-209.961 332.476 -162.684 483.154 -141.919 542.456C-79.6413 720.313 52.2169 950.218 176.809 1089.95C216.501 1134.47 304.935 1228.16 372.085 1192.78Z" fill="url(#paint0_linear_347_51)"/>
<path d="M371.044 297.592C364.914 293.574 367.687 283.473 375.115 283.684C382.374 283.891 391.675 293.519 396.424 298.529C414.131 317.209 421.836 342.609 425.101 367.85C434.916 443.73 411.291 525.079 387.324 595.979C321.745 789.979 210.818 979.639 63.8017 1120.91C17.5253 1165.38 -74.6206 1246.86 -143.169 1206.07C-213.243 1164.38 -185.328 1032.44 -169.489 969.122C-116.94 759.035 -3.09074 554.088 142.958 397.125C190.484 346.046 301.574 236.521 378.646 284.721C384.573 288.427 382.606 298.065 375.54 298.685C367.796 299.364 357.204 291.398 348.826 290.344C327.793 287.699 306.613 295.115 288.118 304.736C227.763 336.135 179.493 392.469 137.57 445.363C22.2281 590.892 -100.271 802.03 -154.327 981.257C-171.075 1036.79 -202.138 1158.53 -139.661 1197.49C-67.618 1242.42 36.5439 1125.28 76.4595 1077.26C196.174 933.266 325.244 701.717 381.467 521.679C399.378 464.323 434.631 339.277 371.044 297.592Z" fill="url(#paint1_linear_347_51)"/>
<path d="M624.655 744.879C624.998 737.45 634.952 734.852 638.487 741.526C641.941 748.047 638.425 761.086 636.55 767.791C629.56 792.787 611.869 812.301 592.093 827.808C532.641 874.427 451.831 894.212 379.712 908.469C182.377 947.48 -33.9508 944.222 -227.283 884.859C-288.138 866.173 -403.315 825.43 -402.999 744.424C-402.677 661.616 -276.811 620.331 -215.185 602.675C-10.7201 544.098 220.035 542.297 426.191 592.959C493.278 609.446 641.718 652.915 639.373 745.166C639.192 752.26 630.035 755.34 625.976 749.402C621.527 742.893 622.989 729.544 619.694 721.609C611.421 701.688 594.54 686.667 577.132 675.124C520.324 637.454 448.407 622.938 382.583 612.315C201.478 583.087 -38.8522 580.336 -217.896 622.15C-273.367 635.105 -392.159 668.51 -393.968 743.236C-396.052 829.405 -244.613 862.938 -183.933 874.228C-1.94069 908.087 258.988 906.443 439.802 866.14C497.406 853.3 621.093 821.949 624.655 744.879Z" fill="url(#paint2_linear_347_51)"/>
<g filter="url(#filter1_d_347_51)">
<path d="M236.63 745.245C236.63 811.658 183.901 865.496 118.857 865.496C53.8133 865.496 1.08484 811.658 1.08484 745.245C1.08484 678.832 53.8133 624.993 118.857 624.993C183.901 624.993 236.63 678.832 236.63 745.245Z" fill="url(#paint3_linear_347_51)"/>
</g>
<ellipse cx="588.475" cy="677.603" rx="51.5254" ry="52.61" fill="url(#paint4_linear_347_51)"/>
</g>
<g opacity="0.37">
<path d="M908.5 1001.25C671.542 1024.78 284.693 137.159 244.903 -12.7956" stroke="url(#paint5_linear_347_51)" stroke-width="2"/>
<path d="M925 1000C566.321 284.128 468.5 580.411 427 0" stroke="url(#paint6_linear_347_51)" stroke-width="2"/>
<path d="M1083.46 994.061C577.476 781.519 534.716 187.639 119 -32.0967" stroke="url(#paint7_linear_347_51)" stroke-width="2"/>
<path d="M1003.5 346.25C1007.96 765.84 615.612 360.836 573.5 -15" stroke="url(#paint8_linear_347_51)" stroke-width="2"/>
<path d="M1012.5 527.5C818.966 527.5 646.366 76.2865 431.903 -90" stroke="url(#paint9_linear_347_51)" stroke-width="2"/>
<path d="M1095.07 305.16C1009.23 831.999 523.318 742.667 496 -17.5" stroke="url(#paint10_linear_347_51)" stroke-width="2"/>
</g>
<g filter="url(#filter2_d_347_51)">
<path d="M60.5168 276.96C55.0768 276.96 49.7648 275.968 44.5807 273.984C39.3967 271.936 34.7887 269.056 30.7568 265.344L38.7248 255.36C42.6288 258.816 46.3728 261.312 49.9568 262.848C53.6048 264.384 57.4448 265.152 61.4768 265.152C64.2928 265.152 66.7248 264.832 68.7728 264.192C70.8208 263.488 72.3888 262.496 73.4768 261.216C74.6288 259.936 75.2048 258.432 75.2048 256.704C75.2048 254.4 74.3728 252.64 72.7088 251.424C71.0448 250.144 68.1968 249.152 64.1648 248.448L50.8208 246.144C45.1248 245.184 40.7728 243.168 37.7648 240.096C34.8208 237.024 33.3488 233.056 33.3488 228.192C33.3488 224.032 34.4048 220.416 36.5168 217.344C38.6928 214.272 41.7328 211.936 45.6368 210.336C49.6048 208.672 54.3088 207.84 59.7488 207.84C64.6768 207.84 69.5728 208.672 74.4368 210.336C79.3648 212 83.7168 214.304 87.4928 217.248L80.0048 227.616C72.9648 222.24 65.8928 219.552 58.7888 219.552C56.2928 219.552 54.1168 219.872 52.2608 220.512C50.4048 221.152 48.9648 222.048 47.9408 223.2C46.9808 224.288 46.5008 225.6 46.5008 227.136C46.5008 229.184 47.2368 230.784 48.7088 231.936C50.1808 233.024 52.6448 233.856 56.1008 234.432L68.7728 236.544C75.4928 237.632 80.5168 239.776 83.8448 242.976C87.1728 246.112 88.8368 250.272 88.8368 255.456C88.8368 259.808 87.6848 263.616 85.3808 266.88C83.0768 270.08 79.7808 272.576 75.4928 274.368C71.2688 276.096 66.2768 276.96 60.5168 276.96ZM121.537 276.96C116.545 276.96 112.033 275.808 108.001 273.504C103.969 271.2 100.769 268.096 98.4008 264.192C96.0328 260.288 94.8488 255.904 94.8488 251.04C94.8488 246.176 96.0008 241.792 98.3047 237.888C100.673 233.92 103.873 230.784 107.905 228.48C112.001 226.176 116.545 225.024 121.537 225.024C126.529 225.024 131.041 226.176 135.073 228.48C139.169 230.784 142.369 233.92 144.673 237.888C147.041 241.792 148.225 246.176 148.225 251.04C148.225 255.904 147.041 260.288 144.673 264.192C142.369 268.096 139.201 271.2 135.169 273.504C131.137 275.808 126.593 276.96 121.537 276.96ZM121.537 265.536C124.161 265.536 126.497 264.896 128.545 263.616C130.657 262.336 132.321 260.608 133.537 258.432C134.817 256.192 135.457 253.728 135.457 251.04C135.457 248.288 134.817 245.824 133.537 243.648C132.321 241.472 130.657 239.744 128.545 238.464C126.497 237.12 124.161 236.448 121.537 236.448C118.977 236.448 116.641 237.12 114.529 238.464C112.417 239.744 110.753 241.472 109.537 243.648C108.321 245.824 107.713 248.288 107.713 251.04C107.713 253.728 108.321 256.192 109.537 258.432C110.753 260.608 112.417 262.336 114.529 263.616C116.641 264.896 118.977 265.536 121.537 265.536ZM156.309 276V208.8L169.461 206.592V276H156.309ZM199.139 276.96C195.299 276.96 191.875 276.128 188.867 274.464C185.923 272.736 183.587 270.368 181.859 267.36C180.195 264.352 179.363 260.896 179.363 256.992V225.984H192.515V255.072C192.515 258.272 193.443 260.832 195.299 262.752C197.219 264.672 199.779 265.632 202.979 265.632C205.155 265.632 207.107 265.216 208.835 264.384C210.627 263.488 212.099 262.24 213.251 260.64V225.984H226.403V276H213.251V271.968C209.411 275.296 204.707 276.96 199.139 276.96ZM258.925 298.656C254.125 298.656 250.093 297.216 246.829 294.336L251.149 289.728C253.581 291.584 256.077 292.512 258.637 292.512C260.365 292.512 261.677 292.16 262.573 291.456C263.469 290.816 263.917 289.952 263.917 288.864C263.917 287.776 263.437 286.912 262.477 286.272C261.581 285.632 260.301 285.312 258.637 285.312H254.701L257.197 276.672C252.845 276.16 248.941 274.72 245.485 272.352C242.029 269.984 239.309 266.976 237.325 263.328C235.341 259.616 234.349 255.52 234.349 251.04C234.349 246.112 235.501 241.696 237.805 237.792C240.109 233.888 243.245 230.784 247.213 228.48C251.181 226.176 255.629 225.024 260.557 225.024C264.525 225.024 268.301 225.792 271.885 227.328C275.533 228.864 278.669 231.072 281.293 233.952L273.229 242.496C271.373 240.448 269.421 238.944 267.373 237.984C265.389 236.96 263.213 236.448 260.845 236.448C258.285 236.448 255.981 237.088 253.933 238.368C251.949 239.648 250.349 241.376 249.133 243.552C247.981 245.728 247.405 248.224 247.405 251.04C247.405 253.728 247.981 256.192 249.133 258.432C250.349 260.608 252.013 262.336 254.125 263.616C256.237 264.832 258.573 265.44 261.133 265.44C263.373 265.44 265.453 264.992 267.373 264.096C269.357 263.136 271.245 261.728 273.037 259.872L280.909 268.128C278.669 270.496 276.045 272.448 273.037 273.984C270.029 275.456 266.861 276.384 263.533 276.768L262.477 280.416C265.293 280.608 267.501 281.472 269.101 283.008C270.765 284.544 271.597 286.528 271.597 288.96C271.597 291.712 270.381 294.016 267.949 295.872C265.517 297.728 262.509 298.656 258.925 298.656ZM310.724 276.96C305.732 276.96 301.22 275.808 297.188 273.504C293.156 271.2 289.956 268.096 287.588 264.192C285.22 260.288 284.036 255.904 284.036 251.04C284.036 246.176 285.188 241.792 287.492 237.888C289.86 233.92 293.06 230.784 297.092 228.48C301.188 226.176 305.732 225.024 310.724 225.024C315.716 225.024 320.228 226.176 324.26 228.48C328.356 230.784 331.556 233.92 333.86 237.888C336.228 241.792 337.412 246.176 337.412 251.04C337.412 255.904 336.228 260.288 333.86 264.192C331.556 268.096 328.388 271.2 324.356 273.504C320.324 275.808 315.78 276.96 310.724 276.96ZM310.724 265.536C313.348 265.536 315.684 264.896 317.732 263.616C319.844 262.336 321.508 260.608 322.724 258.432C324.004 256.192 324.644 253.728 324.644 251.04C324.644 248.288 324.004 245.824 322.724 243.648C321.508 241.472 319.844 239.744 317.732 238.464C315.684 237.12 313.348 236.448 310.724 236.448C308.164 236.448 305.828 237.12 303.716 238.464C301.604 239.744 299.94 241.472 298.724 243.648C297.508 245.824 296.9 248.288 296.9 251.04C296.9 253.728 297.508 256.192 298.724 258.432C299.94 260.608 301.604 262.336 303.716 263.616C305.828 264.896 308.164 265.536 310.724 265.536ZM300.164 218.688L292.1 216.96C293.828 209.216 297.476 205.344 303.044 205.344C304.836 205.344 306.564 205.76 308.228 206.592C309.956 207.36 311.588 208.16 313.124 208.992C314.66 209.76 316.004 210.144 317.156 210.144C318.244 210.144 319.108 209.76 319.748 208.992C320.388 208.224 320.932 206.88 321.38 204.96L329.252 206.688C328.484 210.656 327.172 213.6 325.316 215.52C323.524 217.44 321.22 218.4 318.404 218.4C316.676 218.4 314.948 218.016 313.22 217.248C311.556 216.416 309.956 215.616 308.42 214.848C306.884 214.016 305.476 213.6 304.196 213.6C303.172 213.6 302.34 213.984 301.7 214.752C301.06 215.52 300.548 216.832 300.164 218.688ZM369.977 276.96C364.985 276.96 360.441 275.808 356.345 273.504C352.313 271.2 349.113 268.096 346.745 264.192C344.377 260.288 343.193 255.904 343.193 251.04C343.193 246.176 344.313 241.792 346.553 237.888C348.857 233.984 351.961 230.88 355.865 228.576C359.769 226.272 364.121 225.12 368.921 225.12C373.721 225.12 377.977 226.304 381.689 228.672C385.401 231.04 388.313 234.24 390.425 238.272C392.601 242.304 393.689 246.88 393.689 252V255.456H356.633C357.209 257.44 358.137 259.232 359.417 260.832C360.761 262.432 362.393 263.68 364.312 264.576C366.297 265.472 368.409 265.92 370.649 265.92C372.889 265.92 374.937 265.568 376.793 264.864C378.713 264.16 380.345 263.168 381.689 261.888L390.329 269.76C387.257 272.256 384.089 274.08 380.825 275.232C377.625 276.384 374.009 276.96 369.977 276.96ZM356.441 246.048H380.729C380.281 244.064 379.449 242.336 378.233 240.864C377.081 239.328 375.673 238.144 374.009 237.312C372.409 236.416 370.617 235.968 368.633 235.968C366.585 235.968 364.729 236.384 363.065 237.216C361.401 238.048 359.993 239.232 358.841 240.768C357.753 242.24 356.953 244 356.441 246.048ZM420.935 276.96C416.327 276.96 412.071 276.384 408.167 275.232C404.263 274.016 400.871 272.288 397.991 270.048L404.519 261.312C407.399 263.232 410.151 264.672 412.775 265.632C415.463 266.592 418.119 267.072 420.743 267.072C423.687 267.072 426.023 266.592 427.751 265.632C429.543 264.608 430.439 263.296 430.439 261.696C430.439 260.416 429.927 259.392 428.903 258.624C427.943 257.856 426.375 257.312 424.199 256.992L414.599 255.552C409.607 254.784 405.831 253.184 403.271 250.752C400.711 248.256 399.431 244.992 399.431 240.96C399.431 237.696 400.263 234.912 401.927 232.608C403.655 230.24 406.055 228.416 409.127 227.136C412.263 225.792 415.975 225.12 420.263 225.12C423.911 225.12 427.463 225.632 430.919 226.656C434.439 227.68 437.735 229.248 440.807 231.36L434.471 239.904C431.719 238.176 429.095 236.928 426.599 236.16C424.103 235.392 421.575 235.008 419.015 235.008C416.647 235.008 414.727 235.456 413.255 236.352C411.847 237.248 411.143 238.432 411.143 239.904C411.143 241.248 411.655 242.304 412.679 243.072C413.703 243.84 415.463 244.384 417.959 244.704L427.463 246.144C432.455 246.848 436.263 248.448 438.887 250.944C441.511 253.376 442.823 256.544 442.823 260.448C442.823 263.648 441.863 266.496 439.943 268.992C438.023 271.424 435.431 273.376 432.167 274.848C428.903 276.256 425.159 276.96 420.935 276.96ZM502.668 276.96C497.676 276.96 493.004 276.096 488.652 274.368C484.3 272.576 480.492 270.112 477.228 266.976C474.028 263.84 471.5 260.192 469.644 256.032C467.852 251.808 466.956 247.264 466.956 242.4C466.956 237.472 467.852 232.928 469.644 228.768C471.5 224.544 474.06 220.864 477.324 217.728C480.588 214.592 484.364 212.16 488.652 210.432C493.004 208.64 497.676 207.744 502.668 207.744C506.38 207.744 509.964 208.256 513.42 209.28C516.876 210.304 520.076 211.744 523.02 213.6C526.028 215.456 528.588 217.696 530.7 220.32L521.292 229.632C518.86 226.624 516.044 224.352 512.844 222.816C509.708 221.28 506.316 220.512 502.668 220.512C499.66 220.512 496.844 221.088 494.22 222.24C491.596 223.328 489.324 224.864 487.404 226.848C485.484 228.768 483.98 231.072 482.892 233.76C481.804 236.384 481.26 239.264 481.26 242.4C481.26 245.472 481.804 248.352 482.892 251.04C483.98 253.664 485.516 255.968 487.5 257.952C489.484 259.872 491.788 261.376 494.412 262.464C497.1 263.552 500.012 264.096 503.148 264.096C506.668 264.096 509.964 263.36 513.036 261.888C516.108 260.416 518.828 258.304 521.196 255.552L530.316 264.576C528.204 267.136 525.676 269.344 522.732 271.2C519.788 273.056 516.588 274.496 513.132 275.52C509.74 276.48 506.252 276.96 502.668 276.96ZM560.568 276.96C555.576 276.96 551.064 275.808 547.032 273.504C543 271.2 539.8 268.096 537.432 264.192C535.064 260.288 533.88 255.904 533.88 251.04C533.88 246.176 535.032 241.792 537.336 237.888C539.704 233.92 542.904 230.784 546.936 228.48C551.032 226.176 555.576 225.024 560.568 225.024C565.56 225.024 570.072 226.176 574.104 228.48C578.2 230.784 581.4 233.92 583.704 237.888C586.072 241.792 587.256 246.176 587.256 251.04C587.256 255.904 586.072 260.288 583.704 264.192C581.4 268.096 578.232 271.2 574.2 273.504C570.168 275.808 565.624 276.96 560.568 276.96ZM560.568 265.536C563.192 265.536 565.528 264.896 567.576 263.616C569.688 262.336 571.352 260.608 572.568 258.432C573.848 256.192 574.488 253.728 574.488 251.04C574.488 248.288 573.848 245.824 572.568 243.648C571.352 241.472 569.688 239.744 567.576 238.464C565.528 237.12 563.192 236.448 560.568 236.448C558.008 236.448 555.672 237.12 553.56 238.464C551.448 239.744 549.784 241.472 548.568 243.648C547.352 245.824 546.744 248.288 546.744 251.04C546.744 253.728 547.352 256.192 548.568 258.432C549.784 260.608 551.448 262.336 553.56 263.616C555.672 264.896 558.008 265.536 560.568 265.536ZM595.34 276V225.984H608.492V229.824C612.076 226.624 616.428 225.024 621.548 225.024C624.812 225.024 627.724 225.696 630.284 227.04C632.844 228.32 634.956 230.144 636.62 232.512C638.668 230.08 641.068 228.224 643.82 226.944C646.636 225.664 649.74 225.024 653.132 225.024C656.908 225.024 660.204 225.888 663.02 227.616C665.9 229.28 668.14 231.616 669.74 234.624C671.404 237.568 672.236 241.024 672.236 244.992V276H659.18V246.912C659.18 243.648 658.316 241.088 656.588 239.232C654.86 237.312 652.556 236.352 649.676 236.352C647.692 236.352 645.868 236.768 644.204 237.6C642.604 238.432 641.228 239.68 640.076 241.344C640.14 241.92 640.204 242.496 640.268 243.072C640.332 243.648 640.364 244.288 640.364 244.992V276H627.212V246.912C627.212 243.648 626.348 241.088 624.62 239.232C622.956 237.312 620.684 236.352 617.804 236.352C615.82 236.352 614.028 236.736 612.428 237.504C610.892 238.272 609.58 239.424 608.492 240.96V276H595.34ZM682.247 295.584V225.984H695.207V230.112C699.303 226.912 704.039 225.312 709.415 225.312C714.151 225.312 718.439 226.464 722.279 228.768C726.119 231.072 729.159 234.176 731.399 238.08C733.703 241.92 734.855 246.24 734.855 251.04C734.855 255.84 733.703 260.192 731.399 264.096C729.095 267.936 725.991 271.008 722.087 273.312C718.183 275.552 713.831 276.672 709.031 276.672C706.535 276.672 704.135 276.352 701.831 275.712C699.527 275.008 697.383 274.016 695.399 272.736V295.584H682.247ZM707.303 265.536C710.055 265.536 712.519 264.896 714.695 263.616C716.935 262.336 718.695 260.608 719.975 258.432C721.255 256.256 721.895 253.792 721.895 251.04C721.895 248.288 721.255 245.824 719.975 243.648C718.695 241.408 716.935 239.68 714.695 238.464C712.519 237.184 710.055 236.544 707.303 236.544C704.871 236.544 702.631 236.96 700.583 237.792C698.599 238.56 696.871 239.744 695.399 241.344V260.832C696.807 262.304 698.535 263.456 700.583 264.288C702.695 265.12 704.935 265.536 707.303 265.536ZM742.809 276V208.8L755.961 206.592V276H742.809ZM790.727 276.96C785.735 276.96 781.191 275.808 777.095 273.504C773.063 271.2 769.863 268.096 767.495 264.192C765.127 260.288 763.943 255.904 763.943 251.04C763.943 246.176 765.063 241.792 767.303 237.888C769.607 233.984 772.711 230.88 776.615 228.576C780.519 226.272 784.871 225.12 789.671 225.12C794.471 225.12 798.727 226.304 802.439 228.672C806.151 231.04 809.063 234.24 811.175 238.272C813.351 242.304 814.439 246.88 814.439 252V255.456H777.383C777.959 257.44 778.887 259.232 780.167 260.832C781.511 262.432 783.143 263.68 785.062 264.576C787.047 265.472 789.159 265.92 791.399 265.92C793.639 265.92 795.687 265.568 797.543 264.864C799.463 264.16 801.095 263.168 802.439 261.888L811.079 269.76C808.007 272.256 804.839 274.08 801.575 275.232C798.375 276.384 794.759 276.96 790.727 276.96ZM777.191 246.048H801.479C801.031 244.064 800.199 242.336 798.983 240.864C797.831 239.328 796.423 238.144 794.759 237.312C793.159 236.416 791.367 235.968 789.383 235.968C787.335 235.968 785.479 236.384 783.815 237.216C782.151 238.048 780.743 239.232 779.591 240.768C778.503 242.24 777.703 244 777.191 246.048ZM844.802 276.768C839.234 276.768 835.01 275.52 832.13 273.024C829.314 270.464 827.906 266.752 827.906 261.888V236.928H817.634V225.984H827.906V213.216L841.058 210.24V225.984H855.362V236.928H841.058V259.2C841.058 261.504 841.57 263.168 842.594 264.192C843.618 265.152 845.41 265.632 847.97 265.632C849.25 265.632 850.402 265.568 851.426 265.44C852.514 265.248 853.698 264.928 854.978 264.48V275.328C853.634 275.776 851.938 276.128 849.89 276.384C847.906 276.64 846.21 276.768 844.802 276.768ZM877.714 276.864C874.13 276.864 870.962 276.224 868.21 274.944C865.458 273.6 863.314 271.776 861.778 269.472C860.242 267.168 859.474 264.512 859.474 261.504C859.474 256.704 861.266 252.992 864.85 250.368C868.498 247.68 873.49 246.336 879.826 246.336C884.178 246.336 888.274 247.008 892.114 248.352V244.704C892.114 241.824 891.218 239.648 889.426 238.176C887.634 236.704 885.01 235.968 881.554 235.968C879.442 235.968 877.17 236.32 874.738 237.024C872.306 237.664 869.49 238.688 866.29 240.096L861.49 230.4C865.458 228.608 869.234 227.264 872.818 226.368C876.466 225.472 880.114 225.024 883.762 225.024C890.482 225.024 895.698 226.656 899.41 229.92C903.186 233.12 905.074 237.664 905.074 243.552V276H892.114V272.448C890.066 273.984 887.858 275.104 885.49 275.808C883.122 276.512 880.53 276.864 877.714 276.864ZM871.954 261.216C871.954 263.136 872.786 264.672 874.45 265.824C876.114 266.912 878.322 267.456 881.074 267.456C883.25 267.456 885.266 267.2 887.122 266.688C888.978 266.112 890.642 265.28 892.114 264.192V256.896C890.514 256.256 888.85 255.776 887.122 255.456C885.394 255.136 883.538 254.976 881.554 254.976C878.546 254.976 876.178 255.552 874.45 256.704C872.786 257.792 871.954 259.296 871.954 261.216ZM933.748 276.96C929.14 276.96 924.884 276.384 920.98 275.232C917.076 274.016 913.684 272.288 910.804 270.048L917.332 261.312C920.212 263.232 922.964 264.672 925.588 265.632C928.276 266.592 930.932 267.072 933.556 267.072C936.5 267.072 938.836 266.592 940.564 265.632C942.356 264.608 943.252 263.296 943.252 261.696C943.252 260.416 942.74 259.392 941.716 258.624C940.756 257.856 939.188 257.312 937.012 256.992L927.412 255.552C922.42 254.784 918.644 253.184 916.084 250.752C913.524 248.256 912.244 244.992 912.244 240.96C912.244 237.696 913.076 234.912 914.74 232.608C916.468 230.24 918.868 228.416 921.94 227.136C925.076 225.792 928.788 225.12 933.076 225.12C936.724 225.12 940.276 225.632 943.732 226.656C947.252 227.68 950.548 229.248 953.62 231.36L947.284 239.904C944.532 238.176 941.908 236.928 939.412 236.16C936.916 235.392 934.388 235.008 931.828 235.008C929.46 235.008 927.54 235.456 926.068 236.352C924.66 237.248 923.956 238.432 923.956 239.904C923.956 241.248 924.468 242.304 925.492 243.072C926.516 243.84 928.276 244.384 930.772 244.704L940.276 246.144C945.268 246.848 949.076 248.448 951.7 250.944C954.324 253.376 955.636 256.544 955.636 260.448C955.636 263.648 954.676 266.496 952.756 268.992C950.836 271.424 948.244 273.376 944.98 274.848C941.716 276.256 937.972 276.96 933.748 276.96ZM83.559 422.584V352.984H96.519V357.112C100.615 353.912 105.351 352.312 110.727 352.312C115.463 352.312 119.751 353.464 123.591 355.768C127.431 358.072 130.471 361.176 132.711 365.08C135.015 368.92 136.167 373.24 136.167 378.04C136.167 382.84 135.015 387.192 132.711 391.096C130.407 394.936 127.303 398.008 123.399 400.312C119.495 402.552 115.143 403.672 110.343 403.672C107.847 403.672 105.447 403.352 103.143 402.712C100.839 402.008 98.695 401.016 96.711 399.736V422.584H83.559ZM108.615 392.536C111.367 392.536 113.831 391.896 116.007 390.616C118.247 389.336 120.007 387.608 121.287 385.432C122.567 383.256 123.207 380.792 123.207 378.04C123.207 375.288 122.567 372.824 121.287 370.648C120.007 368.408 118.247 366.68 116.007 365.464C113.831 364.184 111.367 363.544 108.615 363.544C106.183 363.544 103.943 363.96 101.895 364.792C99.911 365.56 98.183 366.744 96.711 368.344V387.832C98.119 389.304 99.847 390.456 101.895 391.288C104.007 392.12 106.247 392.536 108.615 392.536ZM160.526 403.864C156.942 403.864 153.774 403.224 151.022 401.944C148.27 400.6 146.126 398.776 144.59 396.472C143.054 394.168 142.286 391.512 142.286 388.504C142.286 383.704 144.078 379.992 147.662 377.368C151.31 374.68 156.302 373.336 162.638 373.336C166.99 373.336 171.086 374.008 174.926 375.352V371.704C174.926 368.824 174.03 366.648 172.238 365.176C170.446 363.704 167.822 362.968 164.366 362.968C162.254 362.968 159.982 363.32 157.55 364.024C155.118 364.664 152.302 365.688 149.102 367.096L144.302 357.4C148.27 355.608 152.046 354.264 155.63 353.368C159.278 352.472 162.926 352.024 166.574 352.024C173.294 352.024 178.51 353.656 182.222 356.92C185.998 360.12 187.886 364.664 187.886 370.552V403H174.926V399.448C172.878 400.984 170.67 402.104 168.302 402.808C165.934 403.512 163.342 403.864 160.526 403.864ZM154.766 388.216C154.766 390.136 155.598 391.672 157.262 392.824C158.926 393.912 161.134 394.456 163.886 394.456C166.062 394.456 168.078 394.2 169.934 393.688C171.79 393.112 173.454 392.28 174.926 391.192V383.896C173.326 383.256 171.662 382.776 169.934 382.456C168.206 382.136 166.35 381.976 164.366 381.976C161.358 381.976 158.99 382.552 157.262 383.704C155.598 384.792 154.766 386.296 154.766 388.216ZM197.84 403V352.984H210.992V358.552C212.592 356.376 214.512 354.712 216.752 353.56C218.992 352.408 221.52 351.832 224.336 351.832C226.768 351.896 228.592 352.28 229.808 352.984V364.504C228.848 364.056 227.792 363.736 226.64 363.544C225.488 363.288 224.304 363.16 223.088 363.16C220.528 363.16 218.192 363.8 216.08 365.08C213.968 366.36 212.272 368.184 210.992 370.552V403H197.84ZM251.558 403.864C247.974 403.864 244.806 403.224 242.054 401.944C239.302 400.6 237.158 398.776 235.622 396.472C234.086 394.168 233.318 391.512 233.318 388.504C233.318 383.704 235.11 379.992 238.694 377.368C242.342 374.68 247.334 373.336 253.67 373.336C258.022 373.336 262.118 374.008 265.958 375.352V371.704C265.958 368.824 265.062 366.648 263.27 365.176C261.478 363.704 258.854 362.968 255.398 362.968C253.286 362.968 251.014 363.32 248.582 364.024C246.15 364.664 243.334 365.688 240.134 367.096L235.334 357.4C239.302 355.608 243.078 354.264 246.662 353.368C250.31 352.472 253.958 352.024 257.606 352.024C264.326 352.024 269.542 353.656 273.254 356.92C277.03 360.12 278.917 364.664 278.917 370.552V403H265.958V399.448C263.91 400.984 261.702 402.104 259.334 402.808C256.966 403.512 254.374 403.864 251.558 403.864ZM245.798 388.216C245.798 390.136 246.63 391.672 248.294 392.824C249.958 393.912 252.166 394.456 254.918 394.456C257.094 394.456 259.11 394.2 260.966 393.688C262.822 393.112 264.486 392.28 265.958 391.192V383.896C264.358 383.256 262.694 382.776 260.966 382.456C259.238 382.136 257.382 381.976 255.398 381.976C252.39 381.976 250.022 382.552 248.294 383.704C246.63 384.792 245.798 386.296 245.798 388.216ZM332.568 403.96C327.576 403.96 323.064 402.808 319.032 400.504C315 398.2 311.8 395.096 309.432 391.192C307.064 387.288 305.88 382.904 305.88 378.04C305.88 373.176 307.032 368.792 309.336 364.888C311.704 360.92 314.904 357.784 318.936 355.48C323.032 353.176 327.576 352.024 332.568 352.024C337.56 352.024 342.072 353.176 346.104 355.48C350.2 357.784 353.4 360.92 355.704 364.888C358.072 368.792 359.256 373.176 359.256 378.04C359.256 382.904 358.072 387.288 355.704 391.192C353.4 395.096 350.232 398.2 346.2 400.504C342.168 402.808 337.624 403.96 332.568 403.96ZM332.568 392.536C335.192 392.536 337.528 391.896 339.576 390.616C341.688 389.336 343.352 387.608 344.568 385.432C345.848 383.192 346.488 380.728 346.488 378.04C346.488 375.288 345.848 372.824 344.568 370.648C343.352 368.472 341.688 366.744 339.576 365.464C337.528 364.12 335.192 363.448 332.568 363.448C330.008 363.448 327.672 364.12 325.56 365.464C323.448 366.744 321.784 368.472 320.568 370.648C319.352 372.824 318.744 375.288 318.744 378.04C318.744 380.728 319.352 383.192 320.568 385.432C321.784 387.608 323.448 389.336 325.56 390.616C327.672 391.896 330.008 392.536 332.568 392.536ZM411.517 403.96C406.077 403.96 400.765 402.968 395.581 400.984C390.397 398.936 385.789 396.056 381.757 392.344L389.725 382.36C393.629 385.816 397.373 388.312 400.957 389.848C404.605 391.384 408.445 392.152 412.477 392.152C415.293 392.152 417.725 391.832 419.773 391.192C421.821 390.488 423.389 389.496 424.477 388.216C425.629 386.936 426.205 385.432 426.205 383.704C426.205 381.4 425.373 379.64 423.709 378.424C422.045 377.144 419.197 376.152 415.165 375.448L401.821 373.144C396.125 372.184 391.773 370.168 388.765 367.096C385.821 364.024 384.349 360.056 384.349 355.192C384.349 351.032 385.405 347.416 387.517 344.344C389.693 341.272 392.733 338.936 396.637 337.336C400.605 335.672 405.309 334.84 410.749 334.84C415.677 334.84 420.573 335.672 425.437 337.336C430.365 339 434.717 341.304 438.493 344.248L431.005 354.616C423.965 349.24 416.893 346.552 409.789 346.552C407.293 346.552 405.117 346.872 403.261 347.512C401.405 348.152 399.965 349.048 398.941 350.2C397.981 351.288 397.501 352.6 397.501 354.136C397.501 356.184 398.237 357.784 399.709 358.936C401.181 360.024 403.645 360.856 407.101 361.432L419.773 363.544C426.493 364.632 431.517 366.776 434.845 369.976C438.173 373.112 439.837 377.272 439.837 382.456C439.837 386.808 438.685 390.616 436.381 393.88C434.077 397.08 430.781 399.576 426.493 401.368C422.269 403.096 417.277 403.96 411.517 403.96ZM472.633 403.96C467.641 403.96 463.097 402.808 459.001 400.504C454.969 398.2 451.769 395.096 449.401 391.192C447.033 387.288 445.849 382.904 445.849 378.04C445.849 373.176 446.969 368.792 449.209 364.888C451.513 360.984 454.617 357.88 458.521 355.576C462.425 353.272 466.777 352.12 471.577 352.12C476.377 352.12 480.633 353.304 484.345 355.672C488.057 358.04 490.969 361.24 493.081 365.272C495.257 369.304 496.345 373.88 496.345 379V382.456H459.289C459.865 384.44 460.793 386.232 462.073 387.832C463.417 389.432 465.049 390.68 466.969 391.576C468.953 392.472 471.065 392.92 473.305 392.92C475.545 392.92 477.593 392.568 479.449 391.864C481.369 391.16 483.001 390.168 484.345 388.888L492.985 396.76C489.913 399.256 486.745 401.08 483.481 402.232C480.281 403.384 476.665 403.96 472.633 403.96ZM459.097 373.048H483.385C482.937 371.064 482.105 369.336 480.889 367.864C479.737 366.328 478.329 365.144 476.665 364.312C475.065 363.416 473.273 362.968 471.289 362.968C469.241 362.968 467.385 363.384 465.721 364.216C464.057 365.048 462.649 366.232 461.497 367.768C460.409 369.24 459.609 371 459.097 373.048ZM523.795 403.96C519.955 403.96 516.531 403.128 513.523 401.464C510.579 399.736 508.243 397.368 506.515 394.36C504.851 391.352 504.019 387.896 504.019 383.992V352.984H517.171V382.072C517.171 385.272 518.099 387.832 519.955 389.752C521.875 391.672 524.435 392.632 527.635 392.632C529.811 392.632 531.763 392.216 533.491 391.384C535.283 390.488 536.755 389.24 537.907 387.64V352.984H551.059V403H537.907V398.968C534.067 402.296 529.363 403.96 523.795 403.96ZM581.486 403V335.8H594.734L628.142 379.192V335.8H641.198V403H628.91L594.638 358.072V403H581.486ZM677.008 403.96C672.016 403.96 667.472 402.808 663.376 400.504C659.344 398.2 656.144 395.096 653.776 391.192C651.408 387.288 650.224 382.904 650.224 378.04C650.224 373.176 651.344 368.792 653.584 364.888C655.888 360.984 658.992 357.88 662.896 355.576C666.8 353.272 671.152 352.12 675.952 352.12C680.752 352.12 685.008 353.304 688.72 355.672C692.432 358.04 695.344 361.24 697.456 365.272C699.632 369.304 700.72 373.88 700.72 379V382.456H663.664C664.24 384.44 665.168 386.232 666.448 387.832C667.792 389.432 669.424 390.68 671.344 391.576C673.328 392.472 675.44 392.92 677.68 392.92C679.92 392.92 681.968 392.568 683.824 391.864C685.744 391.16 687.376 390.168 688.72 388.888L697.36 396.76C694.288 399.256 691.12 401.08 687.856 402.232C684.656 403.384 681.04 403.96 677.008 403.96ZM663.472 373.048H687.76C687.312 371.064 686.48 369.336 685.264 367.864C684.112 366.328 682.704 365.144 681.04 364.312C679.44 363.416 677.648 362.968 675.664 362.968C673.616 362.968 671.76 363.384 670.096 364.216C668.432 365.048 667.024 366.232 665.872 367.768C664.784 369.24 663.984 371 663.472 373.048ZM734.305 423.544C730.465 423.544 726.753 423.128 723.169 422.296C719.585 421.528 716.353 420.408 713.473 418.936L718.081 408.76C720.833 410.104 723.521 411.096 726.145 411.736C728.769 412.376 731.393 412.696 734.017 412.696C737.921 412.696 740.865 411.864 742.849 410.2C744.897 408.536 745.921 406.04 745.921 402.712V398.776C741.825 401.784 737.249 403.288 732.193 403.288C727.457 403.288 723.169 402.168 719.329 399.928C715.553 397.624 712.513 394.52 710.209 390.616C707.969 386.712 706.849 382.392 706.849 377.656C706.849 372.92 707.969 368.632 710.209 364.792C712.513 360.952 715.617 357.912 719.521 355.672C723.425 353.368 727.777 352.216 732.577 352.216C735.009 352.216 737.377 352.568 739.681 353.272C741.985 353.976 744.129 354.968 746.113 356.248V352.984H759.073V402.904C759.073 409.496 756.929 414.584 752.641 418.168C748.417 421.752 742.305 423.544 734.305 423.544ZM734.209 392.152C736.641 392.152 738.849 391.768 740.833 391C742.817 390.168 744.513 389.016 745.921 387.544V367.96C744.513 366.552 742.785 365.464 740.737 364.696C738.753 363.864 736.609 363.448 734.305 363.448C731.553 363.448 729.089 364.088 726.913 365.368C724.737 366.584 723.009 368.28 721.729 370.456C720.449 372.568 719.809 374.968 719.809 377.656C719.809 380.408 720.417 382.872 721.633 385.048C722.913 387.224 724.641 388.952 726.817 390.232C729.057 391.512 731.521 392.152 734.209 392.152ZM793.724 403.96C788.732 403.96 784.22 402.808 780.188 400.504C776.156 398.2 772.956 395.096 770.588 391.192C768.22 387.288 767.036 382.904 767.036 378.04C767.036 373.176 768.188 368.792 770.492 364.888C772.86 360.92 776.06 357.784 780.092 355.48C784.188 353.176 788.732 352.024 793.724 352.024C798.716 352.024 803.228 353.176 807.26 355.48C811.356 357.784 814.556 360.92 816.86 364.888C819.228 368.792 820.412 373.176 820.412 378.04C820.412 382.904 819.228 387.288 816.86 391.192C814.556 395.096 811.388 398.2 807.356 400.504C803.324 402.808 798.78 403.96 793.724 403.96ZM793.724 392.536C796.348 392.536 798.684 391.896 800.732 390.616C802.844 389.336 804.508 387.608 805.724 385.432C807.004 383.192 807.644 380.728 807.644 378.04C807.644 375.288 807.004 372.824 805.724 370.648C804.508 368.472 802.844 366.744 800.732 365.464C798.684 364.12 796.348 363.448 793.724 363.448C791.164 363.448 788.828 364.12 786.716 365.464C784.604 366.744 782.94 368.472 781.724 370.648C780.508 372.824 779.9 375.288 779.9 378.04C779.9 380.728 780.508 383.192 781.724 385.432C782.94 387.608 784.604 389.336 786.716 390.616C788.828 391.896 791.164 392.536 793.724 392.536ZM785.948 344.632L794.588 332.152H809.564L796.604 344.632H785.948ZM852.401 403.96C847.473 403.96 843.025 402.84 839.057 400.6C835.089 398.296 831.953 395.192 829.648 391.288C827.345 387.32 826.193 382.904 826.193 378.04C826.193 373.112 827.345 368.696 829.648 364.792C831.953 360.888 835.089 357.784 839.057 355.48C843.025 353.176 847.473 352.024 852.401 352.024C856.369 352.024 860.145 352.792 863.729 354.328C867.377 355.864 870.513 358.072 873.137 360.952L865.073 369.496C863.217 367.448 861.265 365.944 859.217 364.984C857.233 363.96 855.057 363.448 852.689 363.448C850.129 363.448 847.825 364.088 845.777 365.368C843.793 366.648 842.193 368.376 840.977 370.552C839.825 372.728 839.249 375.224 839.249 378.04C839.249 380.728 839.825 383.192 840.977 385.432C842.193 387.608 843.857 389.336 845.969 390.616C848.081 391.832 850.417 392.44 852.977 392.44C855.217 392.44 857.297 391.992 859.217 391.096C861.201 390.136 863.089 388.728 864.881 386.872L872.753 395.128C870.193 397.88 867.121 400.056 863.537 401.656C859.953 403.192 856.241 403.96 852.401 403.96ZM879.59 403V352.984H892.742V403H879.59ZM886.118 347.032C884.07 347.032 882.31 346.296 880.838 344.824C879.366 343.352 878.63 341.592 878.63 339.544C878.63 337.432 879.366 335.672 880.838 334.264C882.31 332.792 884.07 332.056 886.118 332.056C888.23 332.056 889.99 332.792 891.398 334.264C892.87 335.672 893.606 337.432 893.606 339.544C893.606 341.592 892.87 343.352 891.398 344.824C889.99 346.296 888.23 347.032 886.118 347.032ZM927.412 403.96C922.42 403.96 917.908 402.808 913.876 400.504C909.844 398.2 906.644 395.096 904.276 391.192C901.908 387.288 900.724 382.904 900.724 378.04C900.724 373.176 901.876 368.792 904.18 364.888C906.548 360.92 909.748 357.784 913.78 355.48C917.876 353.176 922.42 352.024 927.412 352.024C932.404 352.024 936.916 353.176 940.948 355.48C945.044 357.784 948.244 360.92 950.548 364.888C952.916 368.792 954.1 373.176 954.1 378.04C954.1 382.904 952.916 387.288 950.548 391.192C948.244 395.096 945.076 398.2 941.044 400.504C937.012 402.808 932.468 403.96 927.412 403.96ZM927.412 392.536C930.036 392.536 932.372 391.896 934.42 390.616C936.532 389.336 938.196 387.608 939.412 385.432C940.692 383.192 941.332 380.728 941.332 378.04C941.332 375.288 940.692 372.824 939.412 370.648C938.196 368.472 936.532 366.744 934.42 365.464C932.372 364.12 930.036 363.448 927.412 363.448C924.852 363.448 922.516 364.12 920.404 365.464C918.292 366.744 916.628 368.472 915.412 370.648C914.196 372.824 913.588 375.288 913.588 378.04C913.588 380.728 914.196 383.192 915.412 385.432C916.628 387.608 918.292 389.336 920.404 390.616C922.516 391.896 924.852 392.536 927.412 392.536Z" fill="url(#paint11_linear_347_51)"/>
</g>
<path d="M505.041 786V758H517.201C519.041 758 520.628 758.333 521.961 759C523.321 759.667 524.374 760.613 525.121 761.84C525.868 763.04 526.241 764.453 526.241 766.08C526.241 767.707 525.868 769.133 525.121 770.36C524.374 771.56 523.321 772.507 521.961 773.2C520.601 773.867 519.014 774.2 517.201 774.2H508.121V786H505.041ZM508.121 771.52H516.961C518.854 771.52 520.361 771.04 521.481 770.08C522.601 769.093 523.161 767.773 523.161 766.12C523.161 764.467 522.601 763.16 521.481 762.2C520.361 761.24 518.854 760.76 516.961 760.76H508.121V771.52ZM537.317 786.4C535.423 786.4 533.69 785.947 532.117 785.04C530.57 784.107 529.343 782.853 528.437 781.28C527.53 779.707 527.077 777.947 527.077 776C527.077 774.053 527.53 772.293 528.437 770.72C529.343 769.147 530.57 767.907 532.117 767C533.69 766.067 535.423 765.6 537.317 765.6C539.237 765.6 540.97 766.067 542.517 767C544.063 767.907 545.29 769.147 546.197 770.72C547.103 772.293 547.557 774.053 547.557 776C547.557 777.947 547.103 779.707 546.197 781.28C545.29 782.853 544.063 784.107 542.517 785.04C540.97 785.947 539.237 786.4 537.317 786.4ZM537.317 783.76C538.677 783.76 539.903 783.413 540.997 782.72C542.117 782.027 542.997 781.093 543.637 779.92C544.303 778.747 544.637 777.44 544.637 776C544.637 774.533 544.303 773.227 543.637 772.08C542.997 770.907 542.117 769.973 540.997 769.28C539.903 768.587 538.677 768.24 537.317 768.24C535.957 768.24 534.717 768.587 533.597 769.28C532.503 769.973 531.623 770.907 530.957 772.08C530.317 773.227 529.997 774.533 529.997 776C529.997 777.44 530.317 778.747 530.957 779.92C531.623 781.093 532.503 782.027 533.597 782.72C534.717 783.413 535.957 783.76 537.317 783.76ZM558.142 786.4C556.409 786.4 555.076 785.987 554.142 785.16C553.209 784.333 552.742 783.133 552.742 781.56V768.48H548.422V765.96H552.742V760.88L555.662 760.12V765.96H561.702V768.48H555.662V780.8C555.662 781.867 555.902 782.64 556.382 783.12C556.862 783.573 557.649 783.8 558.742 783.8C559.302 783.8 559.796 783.76 560.222 783.68C560.676 783.6 561.156 783.467 561.662 783.28V785.88C561.156 786.067 560.582 786.2 559.942 786.28C559.329 786.36 558.729 786.4 558.142 786.4ZM573.881 786.36C571.961 786.36 570.214 785.907 568.641 785C567.094 784.067 565.854 782.813 564.921 781.24C564.014 779.667 563.561 777.907 563.561 775.96C563.561 774.04 564.001 772.307 564.881 770.76C565.761 769.187 566.948 767.947 568.441 767.04C569.934 766.107 571.601 765.64 573.441 765.64C575.228 765.64 576.828 766.107 578.241 767.04C579.681 767.947 580.814 769.187 581.641 770.76C582.494 772.307 582.921 774.04 582.921 775.96V776.88H566.481C566.641 778.187 567.054 779.36 567.721 780.4C568.414 781.44 569.308 782.267 570.401 782.88C571.494 783.467 572.694 783.76 574.001 783.76C575.041 783.76 576.054 783.6 577.041 783.28C578.028 782.96 578.854 782.507 579.521 781.92L581.361 783.88C580.241 784.707 579.068 785.333 577.841 785.76C576.641 786.16 575.321 786.36 573.881 786.36ZM566.561 774.52H579.961C579.801 773.32 579.401 772.253 578.761 771.32C578.148 770.36 577.374 769.613 576.441 769.08C575.508 768.52 574.481 768.24 573.361 768.24C572.214 768.24 571.161 768.507 570.201 769.04C569.241 769.573 568.441 770.32 567.801 771.28C567.161 772.213 566.748 773.293 566.561 774.52ZM587.059 786V765.96H590.019V768.32C591.592 766.48 593.699 765.56 596.339 765.56C597.859 765.56 599.192 765.893 600.339 766.56C601.512 767.2 602.419 768.107 603.059 769.28C603.726 770.427 604.059 771.773 604.059 773.32V786H601.139V773.92C601.139 772.133 600.632 770.733 599.619 769.72C598.632 768.68 597.272 768.16 595.539 768.16C594.339 768.16 593.272 768.427 592.339 768.96C591.406 769.493 590.632 770.253 590.019 771.24V786H587.059ZM618.292 786.36C616.399 786.36 614.679 785.907 613.132 785C611.586 784.067 610.359 782.813 609.452 781.24C608.546 779.667 608.092 777.907 608.092 775.96C608.092 774.013 608.546 772.267 609.452 770.72C610.359 769.147 611.586 767.893 613.132 766.96C614.679 766.027 616.399 765.56 618.292 765.56C619.759 765.56 621.172 765.84 622.532 766.4C623.892 766.933 625.092 767.707 626.132 768.72L624.252 770.88C623.452 770.027 622.532 769.387 621.492 768.96C620.479 768.507 619.426 768.28 618.332 768.28C616.972 768.28 615.732 768.627 614.612 769.32C613.519 769.987 612.639 770.907 611.972 772.08C611.332 773.227 611.012 774.52 611.012 775.96C611.012 777.4 611.332 778.707 611.972 779.88C612.639 781.053 613.532 781.987 614.652 782.68C615.772 783.347 617.012 783.68 618.372 783.68C619.466 783.68 620.492 783.467 621.452 783.04C622.439 782.613 623.359 781.987 624.212 781.16L626.052 783.16C624.986 784.173 623.786 784.96 622.452 785.52C621.119 786.08 619.732 786.36 618.292 786.36ZM629.52 786V765.96H632.48V786H629.52ZM631 762.12C630.467 762.12 630 761.92 629.6 761.52C629.2 761.12 629 760.653 629 760.12C629 759.56 629.2 759.093 629.6 758.72C630 758.32 630.467 758.12 631 758.12C631.56 758.12 632.027 758.32 632.4 758.72C632.8 759.093 633 759.56 633 760.12C633 760.653 632.8 761.12 632.4 761.52C632.027 761.92 631.56 762.12 631 762.12ZM643.848 786.36C642.381 786.36 641.088 786.107 639.968 785.6C638.874 785.093 638.008 784.387 637.368 783.48C636.754 782.573 636.448 781.52 636.448 780.32C636.448 778.427 637.168 776.933 638.608 775.84C640.048 774.747 641.994 774.2 644.448 774.2C646.608 774.2 648.568 774.653 650.328 775.56V772.92C650.328 771.32 649.874 770.12 648.968 769.32C648.061 768.493 646.741 768.08 645.008 768.08C644.021 768.08 643.021 768.227 642.008 768.52C641.021 768.787 639.928 769.227 638.728 769.84L637.608 767.56C639.048 766.867 640.381 766.36 641.608 766.04C642.834 765.72 644.061 765.56 645.288 765.56C647.821 765.56 649.768 766.16 651.128 767.36C652.514 768.56 653.208 770.28 653.208 772.52V786H650.328V784.04C649.421 784.813 648.421 785.4 647.328 785.8C646.261 786.173 645.101 786.36 643.848 786.36ZM639.288 780.24C639.288 781.36 639.754 782.28 640.688 783C641.648 783.693 642.874 784.04 644.368 784.04C645.568 784.04 646.661 783.853 647.648 783.48C648.634 783.107 649.528 782.52 650.328 781.72V777.96C649.501 777.4 648.621 777 647.688 776.76C646.754 776.493 645.701 776.36 644.528 776.36C642.928 776.36 641.648 776.72 640.688 777.44C639.754 778.133 639.288 779.067 639.288 780.24ZM658.153 786V758L661.113 757.32V786H658.153ZM666.161 786V765.96H669.121V786H666.161ZM667.641 762.12C667.107 762.12 666.641 761.92 666.241 761.52C665.841 761.12 665.641 760.653 665.641 760.12C665.641 759.56 665.841 759.093 666.241 758.72C666.641 758.32 667.107 758.12 667.641 758.12C668.201 758.12 668.667 758.32 669.041 758.72C669.441 759.093 669.641 759.56 669.641 760.12C669.641 760.653 669.441 761.12 669.041 761.52C668.667 761.92 668.201 762.12 667.641 762.12ZM672.888 786V783.68L684.968 768.6H673.008V765.96H688.568V768.24L676.448 783.36H688.688V786H672.888ZM701.459 786.36C699.539 786.36 697.792 785.907 696.219 785C694.672 784.067 693.432 782.813 692.499 781.24C691.592 779.667 691.139 777.907 691.139 775.96C691.139 774.04 691.579 772.307 692.459 770.76C693.339 769.187 694.526 767.947 696.019 767.04C697.512 766.107 699.179 765.64 701.019 765.64C702.806 765.64 704.406 766.107 705.819 767.04C707.259 767.947 708.392 769.187 709.219 770.76C710.072 772.307 710.499 774.04 710.499 775.96V776.88H694.059C694.219 778.187 694.632 779.36 695.299 780.4C695.992 781.44 696.886 782.267 697.979 782.88C699.072 783.467 700.272 783.76 701.579 783.76C702.619 783.76 703.632 783.6 704.619 783.28C705.606 782.96 706.432 782.507 707.099 781.92L708.939 783.88C707.819 784.707 706.646 785.333 705.419 785.76C704.219 786.16 702.899 786.36 701.459 786.36ZM694.139 774.52H707.539C707.379 773.32 706.979 772.253 706.339 771.32C705.726 770.36 704.952 769.613 704.019 769.08C703.086 768.52 702.059 768.24 700.939 768.24C699.792 768.24 698.739 768.507 697.779 769.04C696.819 769.573 696.019 770.32 695.379 771.28C694.739 772.213 694.326 773.293 694.139 774.52ZM732.871 786.4C730.658 786.4 728.538 785.96 726.511 785.08C724.484 784.173 722.698 782.88 721.151 781.2L723.191 779.08C724.631 780.627 726.164 781.787 727.791 782.56C729.444 783.333 731.178 783.72 732.991 783.72C734.458 783.72 735.751 783.493 736.871 783.04C738.018 782.56 738.911 781.907 739.551 781.08C740.191 780.227 740.511 779.267 740.511 778.2C740.511 776.76 740.004 775.653 738.991 774.88C738.004 774.107 736.364 773.533 734.071 773.16L730.031 772.52C727.338 772.067 725.351 771.267 724.071 770.12C722.791 768.973 722.151 767.413 722.151 765.44C722.151 763.893 722.564 762.533 723.391 761.36C724.218 760.187 725.364 759.28 726.831 758.64C728.324 757.973 730.044 757.64 731.991 757.64C733.964 757.64 735.898 757.96 737.791 758.6C739.711 759.24 741.458 760.16 743.031 761.36L741.271 763.76C738.204 761.44 735.071 760.28 731.871 760.28C730.538 760.28 729.364 760.493 728.351 760.92C727.338 761.32 726.551 761.893 725.991 762.64C725.431 763.36 725.151 764.213 725.151 765.2C725.151 766.507 725.591 767.507 726.471 768.2C727.351 768.893 728.804 769.4 730.831 769.72L734.831 770.36C737.898 770.867 740.124 771.733 741.511 772.96C742.898 774.16 743.591 775.853 743.591 778.04C743.591 779.667 743.138 781.12 742.231 782.4C741.324 783.653 740.058 784.64 738.431 785.36C736.831 786.053 734.978 786.4 732.871 786.4ZM757.006 786.36C755.086 786.36 753.339 785.907 751.766 785C750.219 784.067 748.979 782.813 748.046 781.24C747.139 779.667 746.686 777.907 746.686 775.96C746.686 774.04 747.126 772.307 748.006 770.76C748.886 769.187 750.073 767.947 751.566 767.04C753.059 766.107 754.726 765.64 756.566 765.64C758.353 765.64 759.953 766.107 761.366 767.04C762.806 767.947 763.939 769.187 764.766 770.76C765.619 772.307 766.046 774.04 766.046 775.96V776.88H749.606C749.766 778.187 750.179 779.36 750.846 780.4C751.539 781.44 752.433 782.267 753.526 782.88C754.619 783.467 755.819 783.76 757.126 783.76C758.166 783.76 759.179 783.6 760.166 783.28C761.153 782.96 761.979 782.507 762.646 781.92L764.486 783.88C763.366 784.707 762.193 785.333 760.966 785.76C759.766 786.16 758.446 786.36 757.006 786.36ZM749.686 774.52H763.086C762.926 773.32 762.526 772.253 761.886 771.32C761.273 770.36 760.499 769.613 759.566 769.08C758.633 768.52 757.606 768.24 756.486 768.24C755.339 768.24 754.286 768.507 753.326 769.04C752.366 769.573 751.566 770.32 750.926 771.28C750.286 772.213 749.873 773.293 749.686 774.52ZM777.864 786.4C776.344 786.4 774.997 786.08 773.824 785.44C772.651 784.773 771.731 783.867 771.064 782.72C770.424 781.547 770.104 780.187 770.104 778.64V765.96H773.024V778.04C773.024 779.827 773.531 781.24 774.544 782.28C775.557 783.293 776.917 783.8 778.624 783.8C779.824 783.8 780.891 783.533 781.824 783C782.784 782.44 783.557 781.667 784.144 780.68V765.96H787.104V786H784.144V783.68C782.571 785.493 780.477 786.4 777.864 786.4ZM801.291 786V758H804.371L821.211 780.72V758H824.131V786H821.411L804.211 762.68V786H801.291ZM839.115 786.36C837.195 786.36 835.449 785.907 833.875 785C832.329 784.067 831.089 782.813 830.155 781.24C829.249 779.667 828.795 777.907 828.795 775.96C828.795 774.04 829.235 772.307 830.115 770.76C830.995 769.187 832.182 767.947 833.675 767.04C835.169 766.107 836.835 765.64 838.675 765.64C840.462 765.64 842.062 766.107 843.475 767.04C844.915 767.947 846.049 769.187 846.875 770.76C847.729 772.307 848.155 774.04 848.155 775.96V776.88H831.715C831.875 778.187 832.289 779.36 832.955 780.4C833.649 781.44 834.542 782.267 835.635 782.88C836.729 783.467 837.929 783.76 839.235 783.76C840.275 783.76 841.289 783.6 842.275 783.28C843.262 782.96 844.089 782.507 844.755 781.92L846.595 783.88C845.475 784.707 844.302 785.333 843.075 785.76C841.875 786.16 840.555 786.36 839.115 786.36ZM831.795 774.52H845.195C845.035 773.32 844.635 772.253 843.995 771.32C843.382 770.36 842.609 769.613 841.675 769.08C840.742 768.52 839.715 768.24 838.595 768.24C837.449 768.24 836.395 768.507 835.435 769.04C834.475 769.573 833.675 770.32 833.035 771.28C832.395 772.213 831.982 773.293 831.795 774.52ZM862.053 794.56C860.667 794.56 859.293 794.373 857.933 794C856.573 793.653 855.333 793.147 854.213 792.48L855.493 790.16C856.693 790.8 857.8 791.267 858.813 791.56C859.853 791.853 860.893 792 861.933 792C863.827 792 865.267 791.547 866.253 790.64C867.24 789.733 867.733 788.4 867.733 786.64V783.84C865.893 785.387 863.773 786.16 861.373 786.16C859.533 786.16 857.853 785.707 856.333 784.8C854.813 783.893 853.6 782.667 852.693 781.12C851.813 779.547 851.373 777.8 851.373 775.88C851.373 773.96 851.813 772.227 852.693 770.68C853.6 769.107 854.813 767.867 856.333 766.96C857.853 766.053 859.56 765.6 861.453 765.6C862.6 765.6 863.707 765.8 864.773 766.2C865.867 766.6 866.867 767.187 867.773 767.96V765.96H870.693V786.6C870.693 789.16 869.947 791.12 868.453 792.48C866.96 793.867 864.827 794.56 862.053 794.56ZM861.613 783.56C862.893 783.56 864.067 783.32 865.133 782.84C866.2 782.36 867.067 781.68 867.733 780.8V770.96C867.067 770.107 866.187 769.44 865.093 768.96C864.027 768.48 862.867 768.24 861.613 768.24C860.227 768.24 858.973 768.573 857.853 769.24C856.76 769.907 855.893 770.827 855.253 772C854.613 773.147 854.293 774.44 854.293 775.88C854.293 777.32 854.613 778.627 855.253 779.8C855.92 780.947 856.8 781.867 857.893 782.56C859.013 783.227 860.253 783.56 861.613 783.56ZM885.051 786.4C883.158 786.4 881.424 785.947 879.851 785.04C878.304 784.107 877.078 782.853 876.171 781.28C875.264 779.707 874.811 777.947 874.811 776C874.811 774.053 875.264 772.293 876.171 770.72C877.078 769.147 878.304 767.907 879.851 767C881.424 766.067 883.158 765.6 885.051 765.6C886.971 765.6 888.704 766.067 890.251 767C891.798 767.907 893.024 769.147 893.931 770.72C894.838 772.293 895.291 774.053 895.291 776C895.291 777.947 894.838 779.707 893.931 781.28C893.024 782.853 891.798 784.107 890.251 785.04C888.704 785.947 886.971 786.4 885.051 786.4ZM885.051 783.76C886.411 783.76 887.638 783.413 888.731 782.72C889.851 782.027 890.731 781.093 891.371 779.92C892.038 778.747 892.371 777.44 892.371 776C892.371 774.533 892.038 773.227 891.371 772.08C890.731 770.907 889.851 769.973 888.731 769.28C887.638 768.587 886.411 768.24 885.051 768.24C883.691 768.24 882.451 768.587 881.331 769.28C880.238 769.973 879.358 770.907 878.691 772.08C878.051 773.227 877.731 774.533 877.731 776C877.731 777.44 878.051 778.747 878.691 779.92C879.358 781.093 880.238 782.027 881.331 782.72C882.451 783.413 883.691 783.76 885.051 783.76ZM882.491 762L886.251 757.36H890.051L885.091 762H882.491ZM908.683 786.36C906.789 786.36 905.069 785.907 903.523 785C901.976 784.067 900.749 782.813 899.843 781.24C898.936 779.667 898.483 777.907 898.483 775.96C898.483 774.013 898.936 772.267 899.843 770.72C900.749 769.147 901.976 767.893 903.523 766.96C905.069 766.027 906.789 765.56 908.683 765.56C910.149 765.56 911.563 765.84 912.923 766.4C914.283 766.933 915.483 767.707 916.523 768.72L914.643 770.88C913.843 770.027 912.923 769.387 911.883 768.96C910.869 768.507 909.816 768.28 908.723 768.28C907.363 768.28 906.123 768.627 905.003 769.32C903.909 769.987 903.029 770.907 902.363 772.08C901.723 773.227 901.403 774.52 901.403 775.96C901.403 777.4 901.723 778.707 902.363 779.88C903.029 781.053 903.923 781.987 905.043 782.68C906.163 783.347 907.403 783.68 908.763 783.68C909.856 783.68 910.883 783.467 911.843 783.04C912.829 782.613 913.749 781.987 914.603 781.16L916.443 783.16C915.376 784.173 914.176 784.96 912.843 785.52C911.509 786.08 910.123 786.36 908.683 786.36ZM919.911 786V765.96H922.871V786H919.911ZM921.391 762.12C920.857 762.12 920.391 761.92 919.991 761.52C919.591 761.12 919.391 760.653 919.391 760.12C919.391 759.56 919.591 759.093 919.991 758.72C920.391 758.32 920.857 758.12 921.391 758.12C921.951 758.12 922.417 758.32 922.791 758.72C923.191 759.093 923.391 759.56 923.391 760.12C923.391 760.653 923.191 761.12 922.791 761.52C922.417 761.92 921.951 762.12 921.391 762.12ZM937.238 786.4C935.345 786.4 933.612 785.947 932.038 785.04C930.492 784.107 929.265 782.853 928.358 781.28C927.452 779.707 926.998 777.947 926.998 776C926.998 774.053 927.452 772.293 928.358 770.72C929.265 769.147 930.492 767.907 932.038 767C933.612 766.067 935.345 765.6 937.238 765.6C939.158 765.6 940.892 766.067 942.438 767C943.985 767.907 945.212 769.147 946.118 770.72C947.025 772.293 947.478 774.053 947.478 776C947.478 777.947 947.025 779.707 946.118 781.28C945.212 782.853 943.985 784.107 942.438 785.04C940.892 785.947 939.158 786.4 937.238 786.4ZM937.238 783.76C938.598 783.76 939.825 783.413 940.918 782.72C942.038 782.027 942.918 781.093 943.558 779.92C944.225 778.747 944.558 777.44 944.558 776C944.558 774.533 944.225 773.227 943.558 772.08C942.918 770.907 942.038 769.973 940.918 769.28C939.825 768.587 938.598 768.24 937.238 768.24C935.878 768.24 934.638 768.587 933.518 769.28C932.425 769.973 931.545 770.907 930.878 772.08C930.238 773.227 929.918 774.533 929.918 776C929.918 777.44 930.238 778.747 930.878 779.92C931.545 781.093 932.425 782.027 933.518 782.72C934.638 783.413 935.878 783.76 937.238 783.76ZM951.83 778.24L951.47 757.8H954.55L954.19 778.24H951.83ZM953.03 786.24C952.47 786.24 951.99 786.04 951.59 785.64C951.19 785.24 950.99 784.76 950.99 784.2C950.99 783.64 951.19 783.16 951.59 782.76C951.99 782.36 952.47 782.16 953.03 782.16C953.59 782.16 954.07 782.36 954.47 782.76C954.87 783.16 955.07 783.64 955.07 784.2C955.07 784.76 954.87 785.24 954.47 785.64C954.07 786.04 953.59 786.24 953.03 786.24ZM235.644 839.4C233.431 839.4 231.311 838.96 229.284 838.08C227.258 837.173 225.471 835.88 223.924 834.2L225.964 832.08C227.404 833.627 228.938 834.787 230.564 835.56C232.218 836.333 233.951 836.72 235.764 836.72C237.231 836.72 238.524 836.493 239.644 836.04C240.791 835.56 241.684 834.907 242.324 834.08C242.964 833.227 243.284 832.267 243.284 831.2C243.284 829.76 242.778 828.653 241.764 827.88C240.778 827.107 239.138 826.533 236.844 826.16L232.804 825.52C230.111 825.067 228.124 824.267 226.844 823.12C225.564 821.973 224.924 820.413 224.924 818.44C224.924 816.893 225.338 815.533 226.164 814.36C226.991 813.187 228.138 812.28 229.604 811.64C231.098 810.973 232.818 810.64 234.764 810.64C236.738 810.64 238.671 810.96 240.564 811.6C242.484 812.24 244.231 813.16 245.804 814.36L244.044 816.76C240.978 814.44 237.844 813.28 234.644 813.28C233.311 813.28 232.138 813.493 231.124 813.92C230.111 814.32 229.324 814.893 228.764 815.64C228.204 816.36 227.924 817.213 227.924 818.2C227.924 819.507 228.364 820.507 229.244 821.2C230.124 821.893 231.578 822.4 233.604 822.72L237.604 823.36C240.671 823.867 242.898 824.733 244.284 825.96C245.671 827.16 246.364 828.853 246.364 831.04C246.364 832.667 245.911 834.12 245.004 835.4C244.098 836.653 242.831 837.64 241.204 838.36C239.604 839.053 237.751 839.4 235.644 839.4ZM259.699 839.4C257.806 839.4 256.073 838.947 254.499 838.04C252.953 837.107 251.726 835.853 250.819 834.28C249.913 832.707 249.459 830.947 249.459 829C249.459 827.053 249.913 825.293 250.819 823.72C251.726 822.147 252.953 820.907 254.499 820C256.073 819.067 257.806 818.6 259.699 818.6C261.619 818.6 263.353 819.067 264.899 820C266.446 820.907 267.673 822.147 268.579 823.72C269.486 825.293 269.939 827.053 269.939 829C269.939 830.947 269.486 832.707 268.579 834.28C267.673 835.853 266.446 837.107 264.899 838.04C263.353 838.947 261.619 839.4 259.699 839.4ZM259.699 836.76C261.059 836.76 262.286 836.413 263.379 835.72C264.499 835.027 265.379 834.093 266.019 832.92C266.686 831.747 267.019 830.44 267.019 829C267.019 827.533 266.686 826.227 266.019 825.08C265.379 823.907 264.499 822.973 263.379 822.28C262.286 821.587 261.059 821.24 259.699 821.24C258.339 821.24 257.099 821.587 255.979 822.28C254.886 822.973 254.006 823.907 253.339 825.08C252.699 826.227 252.379 827.533 252.379 829C252.379 830.44 252.699 831.747 253.339 832.92C254.006 834.093 254.886 835.027 255.979 835.72C257.099 836.413 258.339 836.76 259.699 836.76ZM274.051 839V811L277.011 810.32V839H274.051ZM289.739 839.4C288.219 839.4 286.872 839.08 285.699 838.44C284.526 837.773 283.606 836.867 282.939 835.72C282.299 834.547 281.979 833.187 281.979 831.64V818.96H284.899V831.04C284.899 832.827 285.406 834.24 286.419 835.28C287.432 836.293 288.792 836.8 290.499 836.8C291.699 836.8 292.766 836.533 293.699 836C294.659 835.44 295.432 834.667 296.019 833.68V818.96H298.979V839H296.019V836.68C294.446 838.493 292.352 839.4 289.739 839.4ZM312.772 848.12C310.932 848.12 309.426 847.573 308.252 846.48L309.452 845.2C310.466 846.053 311.572 846.48 312.772 846.48C313.572 846.48 314.199 846.293 314.652 845.92C315.106 845.573 315.332 845.107 315.332 844.52C315.332 843.933 315.079 843.467 314.572 843.12C314.092 842.8 313.426 842.64 312.572 842.64H311.412L312.372 839.32C310.612 839.16 309.026 838.613 307.612 837.68C306.226 836.72 305.119 835.493 304.292 834C303.492 832.48 303.092 830.8 303.092 828.96C303.092 827.013 303.546 825.267 304.452 823.72C305.359 822.147 306.586 820.893 308.132 819.96C309.679 819.027 311.399 818.56 313.292 818.56C314.759 818.56 316.172 818.84 317.532 819.4C318.892 819.933 320.092 820.707 321.132 821.72L319.252 823.88C318.452 823.027 317.532 822.387 316.492 821.96C315.479 821.507 314.426 821.28 313.332 821.28C311.972 821.28 310.732 821.627 309.612 822.32C308.519 822.987 307.639 823.907 306.972 825.08C306.332 826.227 306.012 827.52 306.012 828.96C306.012 830.4 306.332 831.707 306.972 832.88C307.639 834.053 308.532 834.987 309.652 835.68C310.772 836.347 312.012 836.68 313.372 836.68C314.466 836.68 315.492 836.467 316.452 836.04C317.439 835.613 318.359 834.987 319.212 834.16L321.052 836.16C320.092 837.067 319.012 837.8 317.812 838.36C316.639 838.893 315.399 839.213 314.092 839.32L313.572 841.2C314.746 841.253 315.666 841.573 316.332 842.16C317.026 842.747 317.372 843.52 317.372 844.48C317.372 845.547 316.932 846.413 316.052 847.08C315.199 847.773 314.106 848.12 312.772 848.12ZM333.254 839.4C331.361 839.4 329.627 838.947 328.054 838.04C326.507 837.107 325.281 835.853 324.374 834.28C323.467 832.707 323.014 830.947 323.014 829C323.014 827.053 323.467 825.293 324.374 823.72C325.281 822.147 326.507 820.907 328.054 820C329.627 819.067 331.361 818.6 333.254 818.6C335.174 818.6 336.907 819.067 338.454 820C340.001 820.907 341.227 822.147 342.134 823.72C343.041 825.293 343.494 827.053 343.494 829C343.494 830.947 343.041 832.707 342.134 834.28C341.227 835.853 340.001 837.107 338.454 838.04C336.907 838.947 335.174 839.4 333.254 839.4ZM333.254 836.76C334.614 836.76 335.841 836.413 336.934 835.72C338.054 835.027 338.934 834.093 339.574 832.92C340.241 831.747 340.574 830.44 340.574 829C340.574 827.533 340.241 826.227 339.574 825.08C338.934 823.907 338.054 822.973 336.934 822.28C335.841 821.587 334.614 821.24 333.254 821.24C331.894 821.24 330.654 821.587 329.534 822.28C328.441 822.973 327.561 823.907 326.894 825.08C326.254 826.227 325.934 827.533 325.934 829C325.934 830.44 326.254 831.747 326.894 832.92C327.561 834.093 328.441 835.027 329.534 835.72C330.654 836.413 331.894 836.76 333.254 836.76ZM328.614 815.2L326.534 814.8C327.121 812.133 328.374 810.8 330.294 810.8C331.014 810.8 331.707 810.987 332.374 811.36C333.067 811.707 333.721 812.067 334.334 812.44C334.947 812.813 335.534 813 336.094 813C336.547 813 336.907 812.827 337.174 812.48C337.467 812.133 337.707 811.547 337.894 810.72L339.934 811.12C339.667 812.453 339.214 813.453 338.574 814.12C337.934 814.787 337.134 815.12 336.174 815.12C335.481 815.12 334.787 814.933 334.094 814.56C333.427 814.187 332.774 813.827 332.134 813.48C331.521 813.107 330.934 812.92 330.374 812.92C329.894 812.92 329.521 813.093 329.254 813.44C328.987 813.787 328.774 814.373 328.614 815.2ZM357.006 839.36C355.086 839.36 353.339 838.907 351.766 838C350.219 837.067 348.979 835.813 348.046 834.24C347.139 832.667 346.686 830.907 346.686 828.96C346.686 827.04 347.126 825.307 348.006 823.76C348.886 822.187 350.073 820.947 351.566 820.04C353.059 819.107 354.726 818.64 356.566 818.64C358.353 818.64 359.953 819.107 361.366 820.04C362.806 820.947 363.939 822.187 364.766 823.76C365.619 825.307 366.046 827.04 366.046 828.96V829.88H349.606C349.766 831.187 350.179 832.36 350.846 833.4C351.539 834.44 352.433 835.267 353.526 835.88C354.619 836.467 355.819 836.76 357.126 836.76C358.166 836.76 359.179 836.6 360.166 836.28C361.153 835.96 361.979 835.507 362.646 834.92L364.486 836.88C363.366 837.707 362.193 838.333 360.966 838.76C359.766 839.16 358.446 839.36 357.006 839.36ZM349.686 827.52H363.086C362.926 826.32 362.526 825.253 361.886 824.32C361.273 823.36 360.499 822.613 359.566 822.08C358.633 821.52 357.606 821.24 356.486 821.24C355.339 821.24 354.286 821.507 353.326 822.04C352.366 822.573 351.566 823.32 350.926 824.28C350.286 825.213 349.873 826.293 349.686 827.52ZM376.779 839.4C375.126 839.4 373.566 839.133 372.099 838.6C370.659 838.04 369.406 837.267 368.339 836.28L370.139 834.36C371.073 835.213 372.099 835.88 373.219 836.36C374.339 836.813 375.486 837.04 376.659 837.04C378.259 837.04 379.566 836.707 380.579 836.04C381.593 835.373 382.099 834.507 382.099 833.44C382.099 832.56 381.793 831.88 381.179 831.4C380.593 830.893 379.659 830.547 378.379 830.36L374.899 829.88C372.899 829.587 371.406 828.987 370.419 828.08C369.459 827.173 368.979 825.947 368.979 824.4C368.979 823.28 369.299 822.28 369.939 821.4C370.579 820.52 371.459 819.827 372.579 819.32C373.726 818.813 375.033 818.56 376.499 818.56C377.966 818.56 379.339 818.773 380.619 819.2C381.899 819.627 383.153 820.293 384.379 821.2L382.819 823.2C381.699 822.427 380.606 821.867 379.539 821.52C378.499 821.147 377.433 820.96 376.339 820.96C374.953 820.96 373.833 821.267 372.979 821.88C372.126 822.493 371.699 823.293 371.699 824.28C371.699 825.187 371.993 825.88 372.579 826.36C373.166 826.813 374.113 827.133 375.419 827.32L378.899 827.8C380.899 828.067 382.393 828.653 383.379 829.56C384.393 830.467 384.899 831.707 384.899 833.28C384.899 834.427 384.539 835.467 383.819 836.4C383.099 837.333 382.126 838.067 380.899 838.6C379.699 839.133 378.326 839.4 376.779 839.4ZM405.105 839V813.76H394.985V811H418.305V813.76H408.185V839H405.105ZM426.342 839.36C424.422 839.36 422.675 838.907 421.102 838C419.555 837.067 418.315 835.813 417.382 834.24C416.475 832.667 416.022 830.907 416.022 828.96C416.022 827.04 416.462 825.307 417.342 823.76C418.222 822.187 419.409 820.947 420.902 820.04C422.395 819.107 424.062 818.64 425.902 818.64C427.689 818.64 429.289 819.107 430.702 820.04C432.142 820.947 433.275 822.187 434.102 823.76C434.955 825.307 435.382 827.04 435.382 828.96V829.88H418.942C419.102 831.187 419.515 832.36 420.182 833.4C420.875 834.44 421.769 835.267 422.862 835.88C423.955 836.467 425.155 836.76 426.462 836.76C427.502 836.76 428.515 836.6 429.502 836.28C430.489 835.96 431.315 835.507 431.982 834.92L433.822 836.88C432.702 837.707 431.529 838.333 430.302 838.76C429.102 839.16 427.782 839.36 426.342 839.36ZM419.022 827.52H432.422C432.262 826.32 431.862 825.253 431.222 824.32C430.609 823.36 429.835 822.613 428.902 822.08C427.969 821.52 426.942 821.24 425.822 821.24C424.675 821.24 423.622 821.507 422.662 822.04C421.702 822.573 420.902 823.32 420.262 824.28C419.622 825.213 419.209 826.293 419.022 827.52ZM448.8 839.36C446.907 839.36 445.187 838.907 443.64 838C442.093 837.067 440.867 835.813 439.96 834.24C439.053 832.667 438.6 830.907 438.6 828.96C438.6 827.013 439.053 825.267 439.96 823.72C440.867 822.147 442.093 820.893 443.64 819.96C445.187 819.027 446.907 818.56 448.8 818.56C450.267 818.56 451.68 818.84 453.04 819.4C454.4 819.933 455.6 820.707 456.64 821.72L454.76 823.88C453.96 823.027 453.04 822.387 452 821.96C450.987 821.507 449.933 821.28 448.84 821.28C447.48 821.28 446.24 821.627 445.12 822.32C444.027 822.987 443.147 823.907 442.48 825.08C441.84 826.227 441.52 827.52 441.52 828.96C441.52 830.4 441.84 831.707 442.48 832.88C443.147 834.053 444.04 834.987 445.16 835.68C446.28 836.347 447.52 836.68 448.88 836.68C449.973 836.68 451 836.467 451.96 836.04C452.947 835.613 453.867 834.987 454.72 834.16L456.56 836.16C455.493 837.173 454.293 837.96 452.96 838.52C451.627 839.08 450.24 839.36 448.8 839.36ZM460.028 839V818.96H462.988V821.32C464.561 819.48 466.668 818.56 469.308 818.56C470.828 818.56 472.161 818.893 473.308 819.56C474.481 820.2 475.388 821.107 476.028 822.28C476.694 823.427 477.028 824.773 477.028 826.32V839H474.108V826.92C474.108 825.133 473.601 823.733 472.588 822.72C471.601 821.68 470.241 821.16 468.508 821.16C467.308 821.16 466.241 821.427 465.308 821.96C464.374 822.493 463.601 823.253 462.988 824.24V839H460.028ZM491.301 839.4C489.408 839.4 487.674 838.947 486.101 838.04C484.554 837.107 483.328 835.853 482.421 834.28C481.514 832.707 481.061 830.947 481.061 829C481.061 827.053 481.514 825.293 482.421 823.72C483.328 822.147 484.554 820.907 486.101 820C487.674 819.067 489.408 818.6 491.301 818.6C493.221 818.6 494.954 819.067 496.501 820C498.048 820.907 499.274 822.147 500.181 823.72C501.088 825.293 501.541 827.053 501.541 829C501.541 830.947 501.088 832.707 500.181 834.28C499.274 835.853 498.048 837.107 496.501 838.04C494.954 838.947 493.221 839.4 491.301 839.4ZM491.301 836.76C492.661 836.76 493.888 836.413 494.981 835.72C496.101 835.027 496.981 834.093 497.621 832.92C498.288 831.747 498.621 830.44 498.621 829C498.621 827.533 498.288 826.227 497.621 825.08C496.981 823.907 496.101 822.973 494.981 822.28C493.888 821.587 492.661 821.24 491.301 821.24C489.941 821.24 488.701 821.587 487.581 822.28C486.488 822.973 485.608 823.907 484.941 825.08C484.301 826.227 483.981 827.533 483.981 829C483.981 830.44 484.301 831.747 484.941 832.92C485.608 834.093 486.488 835.027 487.581 835.72C488.701 836.413 489.941 836.76 491.301 836.76ZM505.653 839V811L508.613 810.32V839H505.653ZM522.981 839.4C521.087 839.4 519.354 838.947 517.781 838.04C516.234 837.107 515.007 835.853 514.101 834.28C513.194 832.707 512.741 830.947 512.741 829C512.741 827.053 513.194 825.293 514.101 823.72C515.007 822.147 516.234 820.907 517.781 820C519.354 819.067 521.087 818.6 522.981 818.6C524.901 818.6 526.634 819.067 528.181 820C529.727 820.907 530.954 822.147 531.861 823.72C532.767 825.293 533.221 827.053 533.221 829C533.221 830.947 532.767 832.707 531.861 834.28C530.954 835.853 529.727 837.107 528.181 838.04C526.634 838.947 524.901 839.4 522.981 839.4ZM522.981 836.76C524.341 836.76 525.567 836.413 526.661 835.72C527.781 835.027 528.661 834.093 529.301 832.92C529.967 831.747 530.301 830.44 530.301 829C530.301 827.533 529.967 826.227 529.301 825.08C528.661 823.907 527.781 822.973 526.661 822.28C525.567 821.587 524.341 821.24 522.981 821.24C521.621 821.24 520.381 821.587 519.261 822.28C518.167 822.973 517.287 823.907 516.621 825.08C515.981 826.227 515.661 827.533 515.661 829C515.661 830.44 515.981 831.747 516.621 832.92C517.287 834.093 518.167 835.027 519.261 835.72C520.381 836.413 521.621 836.76 522.981 836.76ZM520.421 815L524.181 810.36H527.981L523.021 815H520.421ZM547.093 847.56C545.706 847.56 544.333 847.373 542.973 847C541.613 846.653 540.373 846.147 539.253 845.48L540.533 843.16C541.733 843.8 542.839 844.267 543.853 844.56C544.893 844.853 545.933 845 546.973 845C548.866 845 550.306 844.547 551.293 843.64C552.279 842.733 552.773 841.4 552.773 839.64V836.84C550.933 838.387 548.813 839.16 546.413 839.16C544.573 839.16 542.893 838.707 541.373 837.8C539.853 836.893 538.639 835.667 537.733 834.12C536.853 832.547 536.413 830.8 536.413 828.88C536.413 826.96 536.853 825.227 537.733 823.68C538.639 822.107 539.853 820.867 541.373 819.96C542.893 819.053 544.599 818.6 546.493 818.6C547.639 818.6 548.746 818.8 549.813 819.2C550.906 819.6 551.906 820.187 552.813 820.96V818.96H555.733V839.6C555.733 842.16 554.986 844.12 553.493 845.48C551.999 846.867 549.866 847.56 547.093 847.56ZM546.653 836.56C547.933 836.56 549.106 836.32 550.173 835.84C551.239 835.36 552.106 834.68 552.773 833.8V823.96C552.106 823.107 551.226 822.44 550.133 821.96C549.066 821.48 547.906 821.24 546.653 821.24C545.266 821.24 544.013 821.573 542.893 822.24C541.799 822.907 540.933 823.827 540.293 825C539.653 826.147 539.333 827.44 539.333 828.88C539.333 830.32 539.653 831.627 540.293 832.8C540.959 833.947 541.839 834.867 542.933 835.56C544.053 836.227 545.293 836.56 546.653 836.56ZM560.77 839V818.96H563.73V839H560.77ZM562.25 815.12C561.717 815.12 561.25 814.92 560.85 814.52C560.45 814.12 560.25 813.653 560.25 813.12C560.25 812.56 560.45 812.093 560.85 811.72C561.25 811.32 561.717 811.12 562.25 811.12C562.81 811.12 563.277 811.32 563.65 811.72C564.05 812.093 564.25 812.56 564.25 813.12C564.25 813.653 564.05 814.12 563.65 814.52C563.277 814.92 562.81 815.12 562.25 815.12ZM578.058 839.36C576.164 839.36 574.444 838.907 572.898 838C571.351 837.067 570.124 835.813 569.218 834.24C568.311 832.667 567.858 830.907 567.858 828.96C567.858 827.013 568.311 825.267 569.218 823.72C570.124 822.147 571.351 820.893 572.898 819.96C574.444 819.027 576.164 818.56 578.058 818.56C579.524 818.56 580.938 818.84 582.298 819.4C583.658 819.933 584.858 820.707 585.898 821.72L584.018 823.88C583.218 823.027 582.298 822.387 581.258 821.96C580.244 821.507 579.191 821.28 578.098 821.28C576.738 821.28 575.498 821.627 574.378 822.32C573.284 822.987 572.404 823.907 571.738 825.08C571.098 826.227 570.778 827.52 570.778 828.96C570.778 830.4 571.098 831.707 571.738 832.88C572.404 834.053 573.298 834.987 574.418 835.68C575.538 836.347 576.778 836.68 578.138 836.68C579.231 836.68 580.258 836.467 581.218 836.04C582.204 835.613 583.124 834.987 583.978 834.16L585.818 836.16C584.751 837.173 583.551 837.96 582.218 838.52C580.884 839.08 579.498 839.36 578.058 839.36ZM595.606 839.36C594.139 839.36 592.846 839.107 591.726 838.6C590.632 838.093 589.766 837.387 589.126 836.48C588.512 835.573 588.206 834.52 588.206 833.32C588.206 831.427 588.926 829.933 590.366 828.84C591.806 827.747 593.752 827.2 596.206 827.2C598.366 827.2 600.326 827.653 602.086 828.56V825.92C602.086 824.32 601.632 823.12 600.726 822.32C599.819 821.493 598.499 821.08 596.766 821.08C595.779 821.08 594.779 821.227 593.766 821.52C592.779 821.787 591.686 822.227 590.486 822.84L589.366 820.56C590.806 819.867 592.139 819.36 593.366 819.04C594.592 818.72 595.819 818.56 597.046 818.56C599.579 818.56 601.526 819.16 602.886 820.36C604.272 821.56 604.966 823.28 604.966 825.52V839H602.086V837.04C601.179 837.813 600.179 838.4 599.086 838.8C598.019 839.173 596.859 839.36 595.606 839.36ZM591.046 833.24C591.046 834.36 591.512 835.28 592.446 836C593.406 836.693 594.632 837.04 596.126 837.04C597.326 837.04 598.419 836.853 599.406 836.48C600.392 836.107 601.286 835.52 602.086 834.72V830.96C601.259 830.4 600.379 830 599.446 829.76C598.512 829.493 597.459 829.36 596.286 829.36C594.686 829.36 593.406 829.72 592.446 830.44C591.512 831.133 591.046 832.067 591.046 833.24ZM616.311 839.4C614.657 839.4 613.097 839.133 611.631 838.6C610.191 838.04 608.937 837.267 607.871 836.28L609.671 834.36C610.604 835.213 611.631 835.88 612.751 836.36C613.871 836.813 615.017 837.04 616.191 837.04C617.791 837.04 619.097 836.707 620.111 836.04C621.124 835.373 621.631 834.507 621.631 833.44C621.631 832.56 621.324 831.88 620.711 831.4C620.124 830.893 619.191 830.547 617.911 830.36L614.431 829.88C612.431 829.587 610.937 828.987 609.951 828.08C608.991 827.173 608.511 825.947 608.511 824.4C608.511 823.28 608.831 822.28 609.471 821.4C610.111 820.52 610.991 819.827 612.111 819.32C613.257 818.813 614.564 818.56 616.031 818.56C617.497 818.56 618.871 818.773 620.151 819.2C621.431 819.627 622.684 820.293 623.911 821.2L622.351 823.2C621.231 822.427 620.137 821.867 619.071 821.52C618.031 821.147 616.964 820.96 615.871 820.96C614.484 820.96 613.364 821.267 612.511 821.88C611.657 822.493 611.231 823.293 611.231 824.28C611.231 825.187 611.524 825.88 612.111 826.36C612.697 826.813 613.644 827.133 614.951 827.32L618.431 827.8C620.431 828.067 621.924 828.653 622.911 829.56C623.924 830.467 624.431 831.707 624.431 833.28C624.431 834.427 624.071 835.467 623.351 836.4C622.631 837.333 621.657 838.067 620.431 838.6C619.231 839.133 617.857 839.4 616.311 839.4ZM636.356 847.16V818.96H639.276V821.12C641.009 819.467 643.169 818.64 645.756 818.64C647.649 818.64 649.356 819.107 650.876 820.04C652.396 820.947 653.596 822.173 654.476 823.72C655.383 825.267 655.836 827.013 655.836 828.96C655.836 830.907 655.383 832.667 654.476 834.24C653.596 835.787 652.396 837.027 650.876 837.96C649.356 838.867 647.636 839.32 645.716 839.32C644.543 839.32 643.409 839.12 642.316 838.72C641.223 838.32 640.223 837.747 639.316 837V847.16H636.356ZM645.476 836.72C646.889 836.72 648.156 836.387 649.276 835.72C650.396 835.027 651.276 834.107 651.916 832.96C652.583 831.787 652.916 830.467 652.916 829C652.916 827.533 652.583 826.213 651.916 825.04C651.276 823.867 650.396 822.947 649.276 822.28C648.156 821.587 646.889 821.24 645.476 821.24C644.223 821.24 643.049 821.493 641.956 822C640.889 822.48 640.009 823.16 639.316 824.04V833.96C640.009 834.813 640.903 835.493 641.996 836C643.089 836.48 644.249 836.72 645.476 836.72ZM666.465 839.36C664.998 839.36 663.705 839.107 662.585 838.6C661.492 838.093 660.625 837.387 659.985 836.48C659.372 835.573 659.065 834.52 659.065 833.32C659.065 831.427 659.785 829.933 661.225 828.84C662.665 827.747 664.612 827.2 667.065 827.2C669.225 827.2 671.185 827.653 672.945 828.56V825.92C672.945 824.32 672.492 823.12 671.585 822.32C670.678 821.493 669.358 821.08 667.625 821.08C666.638 821.08 665.638 821.227 664.625 821.52C663.638 821.787 662.545 822.227 661.345 822.84L660.225 820.56C661.665 819.867 662.998 819.36 664.225 819.04C665.452 818.72 666.678 818.56 667.905 818.56C670.438 818.56 672.385 819.16 673.745 820.36C675.132 821.56 675.825 823.28 675.825 825.52V839H672.945V837.04C672.038 837.813 671.038 838.4 669.945 838.8C668.878 839.173 667.718 839.36 666.465 839.36ZM661.905 833.24C661.905 834.36 662.372 835.28 663.305 836C664.265 836.693 665.492 837.04 666.985 837.04C668.185 837.04 669.278 836.853 670.265 836.48C671.252 836.107 672.145 835.52 672.945 834.72V830.96C672.118 830.4 671.238 830 670.305 829.76C669.372 829.493 668.318 829.36 667.145 829.36C665.545 829.36 664.265 829.72 663.305 830.44C662.372 831.133 661.905 832.067 661.905 833.24ZM680.77 839V818.96H683.73V821.8C684.343 820.76 685.117 819.96 686.05 819.4C687.01 818.813 688.103 818.52 689.33 818.52C690.023 818.52 690.65 818.613 691.21 818.8V821.52C690.863 821.387 690.517 821.293 690.17 821.24C689.823 821.187 689.477 821.16 689.13 821.16C687.903 821.16 686.823 821.52 685.89 822.24C684.983 822.933 684.263 823.947 683.73 825.28V839H680.77ZM699.903 839.36C698.436 839.36 697.143 839.107 696.023 838.6C694.929 838.093 694.063 837.387 693.423 836.48C692.809 835.573 692.503 834.52 692.503 833.32C692.503 831.427 693.223 829.933 694.663 828.84C696.103 827.747 698.049 827.2 700.503 827.2C702.663 827.2 704.623 827.653 706.383 828.56V825.92C706.383 824.32 705.929 823.12 705.023 822.32C704.116 821.493 702.796 821.08 701.062 821.08C700.076 821.08 699.076 821.227 698.063 821.52C697.076 821.787 695.983 822.227 694.783 822.84L693.663 820.56C695.103 819.867 696.436 819.36 697.663 819.04C698.889 818.72 700.116 818.56 701.342 818.56C703.876 818.56 705.823 819.16 707.183 820.36C708.569 821.56 709.263 823.28 709.263 825.52V839H706.383V837.04C705.476 837.813 704.476 838.4 703.383 838.8C702.316 839.173 701.156 839.36 699.903 839.36ZM695.343 833.24C695.343 834.36 695.809 835.28 696.743 836C697.703 836.693 698.929 837.04 700.423 837.04C701.623 837.04 702.716 836.853 703.703 836.48C704.689 836.107 705.583 835.52 706.383 834.72V830.96C705.556 830.4 704.676 830 703.743 829.76C702.809 829.493 701.756 829.36 700.583 829.36C698.983 829.36 697.703 829.72 696.743 830.44C695.809 831.133 695.343 832.067 695.343 833.24ZM726.441 836.2H732.761C734.388 836.2 735.895 835.92 737.281 835.36C738.668 834.8 739.881 834.013 740.921 833C741.961 831.987 742.761 830.8 743.321 829.44C743.908 828.08 744.201 826.6 744.201 825C744.201 823.4 743.908 821.92 743.321 820.56C742.761 819.2 741.961 818.013 740.921 817C739.881 815.987 738.668 815.2 737.281 814.64C735.895 814.08 734.388 813.8 732.761 813.8H726.441V836.2ZM723.361 839V811H732.601C734.735 811 736.695 811.347 738.481 812.04C740.268 812.733 741.815 813.707 743.121 814.96C744.455 816.213 745.481 817.693 746.201 819.4C746.948 821.107 747.321 822.973 747.321 825C747.321 827.027 746.961 828.893 746.241 830.6C745.521 832.307 744.495 833.787 743.161 835.04C741.855 836.293 740.295 837.267 738.481 837.96C736.695 838.653 734.735 839 732.601 839H723.361ZM760.99 839.36C759.07 839.36 757.324 838.907 755.75 838C754.204 837.067 752.964 835.813 752.03 834.24C751.124 832.667 750.67 830.907 750.67 828.96C750.67 827.04 751.11 825.307 751.99 823.76C752.87 822.187 754.057 820.947 755.55 820.04C757.044 819.107 758.71 818.64 760.55 818.64C762.337 818.64 763.937 819.107 765.35 820.04C766.79 820.947 767.924 822.187 768.75 823.76C769.604 825.307 770.03 827.04 770.03 828.96V829.88H753.59C753.75 831.187 754.164 832.36 754.83 833.4C755.524 834.44 756.417 835.267 757.51 835.88C758.604 836.467 759.804 836.76 761.11 836.76C762.15 836.76 763.164 836.6 764.15 836.28C765.137 835.96 765.964 835.507 766.63 834.92L768.47 836.88C767.35 837.707 766.177 838.333 764.95 838.76C763.75 839.16 762.43 839.36 760.99 839.36ZM753.67 827.52H767.07C766.91 826.32 766.51 825.253 765.87 824.32C765.257 823.36 764.484 822.613 763.55 822.08C762.617 821.52 761.59 821.24 760.47 821.24C759.324 821.24 758.27 821.507 757.31 822.04C756.35 822.573 755.55 823.32 754.91 824.28C754.27 825.213 753.857 826.293 753.67 827.52ZM780.764 839.4C779.11 839.4 777.55 839.133 776.084 838.6C774.644 838.04 773.39 837.267 772.324 836.28L774.124 834.36C775.057 835.213 776.084 835.88 777.204 836.36C778.324 836.813 779.47 837.04 780.644 837.04C782.244 837.04 783.55 836.707 784.564 836.04C785.577 835.373 786.084 834.507 786.084 833.44C786.084 832.56 785.777 831.88 785.164 831.4C784.577 830.893 783.644 830.547 782.364 830.36L778.884 829.88C776.884 829.587 775.39 828.987 774.404 828.08C773.444 827.173 772.964 825.947 772.964 824.4C772.964 823.28 773.284 822.28 773.924 821.4C774.564 820.52 775.444 819.827 776.564 819.32C777.71 818.813 779.017 818.56 780.484 818.56C781.95 818.56 783.324 818.773 784.604 819.2C785.884 819.627 787.137 820.293 788.364 821.2L786.804 823.2C785.684 822.427 784.59 821.867 783.524 821.52C782.484 821.147 781.417 820.96 780.324 820.96C778.937 820.96 777.817 821.267 776.964 821.88C776.11 822.493 775.684 823.293 775.684 824.28C775.684 825.187 775.977 825.88 776.564 826.36C777.15 826.813 778.097 827.133 779.404 827.32L782.884 827.8C784.884 828.067 786.377 828.653 787.364 829.56C788.377 830.467 788.884 831.707 788.884 833.28C788.884 834.427 788.524 835.467 787.804 836.4C787.084 837.333 786.11 838.067 784.884 838.6C783.684 839.133 782.31 839.4 780.764 839.4ZM799.705 839.4C797.971 839.4 796.638 838.987 795.705 838.16C794.771 837.333 794.305 836.133 794.305 834.56V821.48H789.985V818.96H794.305V813.88L797.225 813.12V818.96H803.265V821.48H797.225V833.8C797.225 834.867 797.465 835.64 797.945 836.12C798.425 836.573 799.211 836.8 800.305 836.8C800.865 836.8 801.358 836.76 801.785 836.68C802.238 836.6 802.718 836.467 803.225 836.28V838.88C802.718 839.067 802.145 839.2 801.505 839.28C800.891 839.36 800.291 839.4 799.705 839.4ZM812.754 839.36C811.287 839.36 809.994 839.107 808.874 838.6C807.781 838.093 806.914 837.387 806.274 836.48C805.661 835.573 805.354 834.52 805.354 833.32C805.354 831.427 806.074 829.933 807.514 828.84C808.954 827.747 810.901 827.2 813.354 827.2C815.514 827.2 817.474 827.653 819.234 828.56V825.92C819.234 824.32 818.781 823.12 817.874 822.32C816.967 821.493 815.647 821.08 813.914 821.08C812.927 821.08 811.927 821.227 810.914 821.52C809.927 821.787 808.834 822.227 807.634 822.84L806.514 820.56C807.954 819.867 809.287 819.36 810.514 819.04C811.741 818.72 812.967 818.56 814.194 818.56C816.727 818.56 818.674 819.16 820.034 820.36C821.421 821.56 822.114 823.28 822.114 825.52V839H819.234V837.04C818.327 837.813 817.327 838.4 816.234 838.8C815.167 839.173 814.007 839.36 812.754 839.36ZM808.194 833.24C808.194 834.36 808.661 835.28 809.594 836C810.554 836.693 811.781 837.04 813.274 837.04C814.474 837.04 815.567 836.853 816.554 836.48C817.541 836.107 818.434 835.52 819.234 834.72V830.96C818.407 830.4 817.527 830 816.594 829.76C815.661 829.493 814.607 829.36 813.434 829.36C811.834 829.36 810.554 829.72 809.594 830.44C808.661 831.133 808.194 832.067 808.194 833.24ZM836.339 839.36C834.446 839.36 832.726 838.907 831.179 838C829.632 837.067 828.406 835.813 827.499 834.24C826.592 832.667 826.139 830.907 826.139 828.96C826.139 827.013 826.592 825.267 827.499 823.72C828.406 822.147 829.632 820.893 831.179 819.96C832.726 819.027 834.446 818.56 836.339 818.56C837.806 818.56 839.219 818.84 840.579 819.4C841.939 819.933 843.139 820.707 844.179 821.72L842.299 823.88C841.499 823.027 840.579 822.387 839.539 821.96C838.526 821.507 837.472 821.28 836.379 821.28C835.019 821.28 833.779 821.627 832.659 822.32C831.566 822.987 830.686 823.907 830.019 825.08C829.379 826.227 829.059 827.52 829.059 828.96C829.059 830.4 829.379 831.707 830.019 832.88C830.686 834.053 831.579 834.987 832.699 835.68C833.819 836.347 835.059 836.68 836.419 836.68C837.512 836.68 838.539 836.467 839.499 836.04C840.486 835.613 841.406 834.987 842.259 834.16L844.099 836.16C843.032 837.173 841.832 837.96 840.499 838.52C839.166 839.08 837.779 839.36 836.339 839.36ZM853.887 839.36C852.42 839.36 851.127 839.107 850.007 838.6C848.914 838.093 848.047 837.387 847.407 836.48C846.794 835.573 846.487 834.52 846.487 833.32C846.487 831.427 847.207 829.933 848.647 828.84C850.087 827.747 852.034 827.2 854.487 827.2C856.647 827.2 858.607 827.653 860.367 828.56V825.92C860.367 824.32 859.914 823.12 859.007 822.32C858.1 821.493 856.78 821.08 855.047 821.08C854.06 821.08 853.06 821.227 852.047 821.52C851.06 821.787 849.967 822.227 848.767 822.84L847.647 820.56C849.087 819.867 850.42 819.36 851.647 819.04C852.874 818.72 854.1 818.56 855.327 818.56C857.86 818.56 859.807 819.16 861.167 820.36C862.554 821.56 863.247 823.28 863.247 825.52V839H860.367V837.04C859.46 837.813 858.46 838.4 857.367 838.8C856.3 839.173 855.14 839.36 853.887 839.36ZM849.327 833.24C849.327 834.36 849.794 835.28 850.727 836C851.687 836.693 852.914 837.04 854.407 837.04C855.607 837.04 856.7 836.853 857.687 836.48C858.674 836.107 859.567 835.52 860.367 834.72V830.96C859.54 830.4 858.66 830 857.727 829.76C856.794 829.493 855.74 829.36 854.567 829.36C852.967 829.36 851.687 829.72 850.727 830.44C849.794 831.133 849.327 832.067 849.327 833.24ZM868.192 839V818.96H871.152V821.8C871.765 820.76 872.539 819.96 873.472 819.4C874.432 818.813 875.525 818.52 876.752 818.52C877.445 818.52 878.072 818.613 878.632 818.8V821.52C878.285 821.387 877.939 821.293 877.592 821.24C877.245 821.187 876.899 821.16 876.552 821.16C875.325 821.16 874.245 821.52 873.312 822.24C872.405 822.933 871.685 823.947 871.152 825.28V839H868.192ZM900.254 839.4C898.04 839.4 895.92 838.96 893.894 838.08C891.867 837.173 890.08 835.88 888.534 834.2L890.574 832.08C892.014 833.627 893.547 834.787 895.174 835.56C896.827 836.333 898.56 836.72 900.374 836.72C901.84 836.72 903.134 836.493 904.254 836.04C905.4 835.56 906.294 834.907 906.934 834.08C907.574 833.227 907.894 832.267 907.894 831.2C907.894 829.76 907.387 828.653 906.374 827.88C905.387 827.107 903.747 826.533 901.454 826.16L897.414 825.52C894.72 825.067 892.734 824.267 891.454 823.12C890.174 821.973 889.534 820.413 889.534 818.44C889.534 816.893 889.947 815.533 890.774 814.36C891.6 813.187 892.747 812.28 894.214 811.64C895.707 810.973 897.427 810.64 899.374 810.64C901.347 810.64 903.28 810.96 905.174 811.6C907.094 812.24 908.84 813.16 910.414 814.36L908.654 816.76C905.587 814.44 902.454 813.28 899.254 813.28C897.92 813.28 896.747 813.493 895.734 813.92C894.72 814.32 893.934 814.893 893.374 815.64C892.814 816.36 892.534 817.213 892.534 818.2C892.534 819.507 892.974 820.507 893.854 821.2C894.734 821.893 896.187 822.4 898.214 822.72L902.214 823.36C905.28 823.867 907.507 824.733 908.894 825.96C910.28 827.16 910.974 828.853 910.974 831.04C910.974 832.667 910.52 834.12 909.614 835.4C908.707 836.653 907.44 837.64 905.814 838.36C904.214 839.053 902.36 839.4 900.254 839.4ZM924.389 839.36C922.469 839.36 920.722 838.907 919.149 838C917.602 837.067 916.362 835.813 915.429 834.24C914.522 832.667 914.069 830.907 914.069 828.96C914.069 827.04 914.509 825.307 915.389 823.76C916.269 822.187 917.455 820.947 918.949 820.04C920.442 819.107 922.109 818.64 923.949 818.64C925.735 818.64 927.335 819.107 928.749 820.04C930.189 820.947 931.322 822.187 932.149 823.76C933.002 825.307 933.429 827.04 933.429 828.96V829.88H916.989C917.149 831.187 917.562 832.36 918.229 833.4C918.922 834.44 919.815 835.267 920.909 835.88C922.002 836.467 923.202 836.76 924.509 836.76C925.549 836.76 926.562 836.6 927.549 836.28C928.535 835.96 929.362 835.507 930.029 834.92L931.869 836.88C930.749 837.707 929.575 838.333 928.349 838.76C927.149 839.16 925.829 839.36 924.389 839.36ZM917.069 827.52H930.469C930.309 826.32 929.909 825.253 929.269 824.32C928.655 823.36 927.882 822.613 926.949 822.08C926.015 821.52 924.989 821.24 923.869 821.24C922.722 821.24 921.669 821.507 920.709 822.04C919.749 822.573 918.949 823.32 918.309 824.28C917.669 825.213 917.255 826.293 917.069 827.52ZM945.247 839.4C943.727 839.4 942.38 839.08 941.207 838.44C940.034 837.773 939.114 836.867 938.447 835.72C937.807 834.547 937.487 833.187 937.487 831.64V818.96H940.407V831.04C940.407 832.827 940.914 834.24 941.927 835.28C942.94 836.293 944.3 836.8 946.007 836.8C947.207 836.8 948.274 836.533 949.207 836C950.167 835.44 950.94 834.667 951.527 833.68V818.96H954.487V839H951.527V836.68C949.954 838.493 947.86 839.4 945.247 839.4ZM691.408 892V864H703.568C705.408 864 706.995 864.333 708.328 865C709.688 865.667 710.741 866.613 711.488 867.84C712.235 869.04 712.608 870.453 712.608 872.08C712.608 873.707 712.235 875.133 711.488 876.36C710.741 877.56 709.688 878.507 708.328 879.2C706.968 879.867 705.381 880.2 703.568 880.2H694.488V892H691.408ZM694.488 877.52H703.328C705.221 877.52 706.728 877.04 707.848 876.08C708.968 875.093 709.528 873.773 709.528 872.12C709.528 870.467 708.968 869.16 707.848 868.2C706.728 867.24 705.221 866.76 703.328 866.76H694.488V877.52ZM716.551 892V871.96H719.511V874.8C720.125 873.76 720.898 872.96 721.831 872.4C722.791 871.813 723.885 871.52 725.111 871.52C725.805 871.52 726.431 871.613 726.991 871.8V874.52C726.645 874.387 726.298 874.293 725.951 874.24C725.605 874.187 725.258 874.16 724.911 874.16C723.685 874.16 722.605 874.52 721.671 875.24C720.765 875.933 720.045 876.947 719.511 878.28V892H716.551ZM738.293 892.4C736.4 892.4 734.666 891.947 733.093 891.04C731.546 890.107 730.32 888.853 729.413 887.28C728.506 885.707 728.053 883.947 728.053 882C728.053 880.053 728.506 878.293 729.413 876.72C730.32 875.147 731.546 873.907 733.093 873C734.666 872.067 736.4 871.6 738.293 871.6C740.213 871.6 741.946 872.067 743.493 873C745.04 873.907 746.266 875.147 747.173 876.72C748.08 878.293 748.533 880.053 748.533 882C748.533 883.947 748.08 885.707 747.173 887.28C746.266 888.853 745.04 890.107 743.493 891.04C741.946 891.947 740.213 892.4 738.293 892.4ZM738.293 889.76C739.653 889.76 740.88 889.413 741.973 888.72C743.093 888.027 743.973 887.093 744.613 885.92C745.28 884.747 745.613 883.44 745.613 882C745.613 880.533 745.28 879.227 744.613 878.08C743.973 876.907 743.093 875.973 741.973 875.28C740.88 874.587 739.653 874.24 738.293 874.24C736.933 874.24 735.693 874.587 734.573 875.28C733.48 875.973 732.6 876.907 731.933 878.08C731.293 879.227 730.973 880.533 730.973 882C730.973 883.44 731.293 884.747 731.933 885.92C732.6 887.093 733.48 888.027 734.573 888.72C735.693 889.413 736.933 889.76 738.293 889.76ZM761.805 892.32C759.938 892.32 758.232 891.867 756.685 890.96C755.165 890.027 753.952 888.787 753.045 887.24C752.165 885.667 751.725 883.907 751.725 881.96C751.725 880.013 752.165 878.267 753.045 876.72C753.952 875.173 755.165 873.947 756.685 873.04C758.232 872.107 759.952 871.64 761.845 871.64C763.018 871.64 764.152 871.84 765.245 872.24C766.338 872.613 767.338 873.173 768.245 873.92V864L771.205 863.32V892H768.285V889.88C766.525 891.507 764.365 892.32 761.805 892.32ZM762.085 889.72C763.338 889.72 764.498 889.48 765.565 889C766.658 888.493 767.552 887.8 768.245 886.92V877C767.552 876.147 766.658 875.48 765.565 875C764.498 874.493 763.338 874.24 762.085 874.24C760.698 874.24 759.432 874.573 758.285 875.24C757.165 875.907 756.272 876.827 755.605 878C754.965 879.147 754.645 880.453 754.645 881.92C754.645 883.387 754.965 884.707 755.605 885.88C756.272 887.053 757.165 887.987 758.285 888.68C759.432 889.373 760.698 889.72 762.085 889.72ZM783.919 892.4C782.399 892.4 781.052 892.08 779.879 891.44C778.705 890.773 777.785 889.867 777.119 888.72C776.479 887.547 776.159 886.187 776.159 884.64V871.96H779.079V884.04C779.079 885.827 779.585 887.24 780.599 888.28C781.612 889.293 782.972 889.8 784.679 889.8C785.879 889.8 786.945 889.533 787.879 889C788.839 888.44 789.612 887.667 790.199 886.68V871.96H793.159V892H790.199V889.68C788.625 891.493 786.532 892.4 783.919 892.4ZM806.072 892.4C804.339 892.4 803.005 891.987 802.072 891.16C801.139 890.333 800.672 889.133 800.672 887.56V874.48H796.352V871.96H800.672V866.88L803.592 866.12V871.96H809.632V874.48H803.592V886.8C803.592 887.867 803.832 888.64 804.312 889.12C804.792 889.573 805.579 889.8 806.672 889.8C807.232 889.8 807.725 889.76 808.152 889.68C808.605 889.6 809.085 889.467 809.592 889.28V891.88C809.085 892.067 808.512 892.2 807.872 892.28C807.259 892.36 806.659 892.4 806.072 892.4ZM821.731 892.4C819.837 892.4 818.104 891.947 816.531 891.04C814.984 890.107 813.757 888.853 812.851 887.28C811.944 885.707 811.491 883.947 811.491 882C811.491 880.053 811.944 878.293 812.851 876.72C813.757 875.147 814.984 873.907 816.531 873C818.104 872.067 819.837 871.6 821.731 871.6C823.651 871.6 825.384 872.067 826.931 873C828.477 873.907 829.704 875.147 830.611 876.72C831.517 878.293 831.971 880.053 831.971 882C831.971 883.947 831.517 885.707 830.611 887.28C829.704 888.853 828.477 890.107 826.931 891.04C825.384 891.947 823.651 892.4 821.731 892.4ZM821.731 889.76C823.091 889.76 824.317 889.413 825.411 888.72C826.531 888.027 827.411 887.093 828.051 885.92C828.717 884.747 829.051 883.44 829.051 882C829.051 880.533 828.717 879.227 828.051 878.08C827.411 876.907 826.531 875.973 825.411 875.28C824.317 874.587 823.091 874.24 821.731 874.24C820.371 874.24 819.131 874.587 818.011 875.28C816.917 875.973 816.037 876.907 815.371 878.08C814.731 879.227 814.411 880.533 814.411 882C814.411 883.44 814.731 884.747 815.371 885.92C816.037 887.093 816.917 888.027 818.011 888.72C819.131 889.413 820.371 889.76 821.731 889.76ZM858.356 892.44C856.33 892.44 854.436 892.08 852.676 891.36C850.943 890.613 849.41 889.587 848.076 888.28C846.77 886.947 845.743 885.413 844.996 883.68C844.276 881.92 843.916 880.027 843.916 878C843.916 875.973 844.276 874.093 844.996 872.36C845.743 870.6 846.77 869.067 848.076 867.76C849.41 866.427 850.943 865.4 852.676 864.68C854.436 863.933 856.33 863.56 858.356 863.56C860.356 863.56 862.223 863.933 863.956 864.68C865.716 865.4 867.25 866.427 868.556 867.76C869.89 869.067 870.916 870.6 871.636 872.36C872.383 874.093 872.756 875.973 872.756 878C872.756 880.027 872.383 881.92 871.636 883.68C870.916 885.413 869.89 886.947 868.556 888.28C867.25 889.587 865.716 890.613 863.956 891.36C862.223 892.08 860.356 892.44 858.356 892.44ZM858.356 889.6C859.956 889.6 861.436 889.307 862.796 888.72C864.156 888.133 865.343 887.32 866.356 886.28C867.396 885.213 868.196 883.973 868.756 882.56C869.343 881.147 869.636 879.627 869.636 878C869.636 876.347 869.343 874.827 868.756 873.44C868.196 872.027 867.396 870.8 866.356 869.76C865.343 868.693 864.156 867.867 862.796 867.28C861.436 866.693 859.956 866.4 858.356 866.4C856.756 866.4 855.263 866.693 853.876 867.28C852.516 867.867 851.316 868.693 850.276 869.76C849.263 870.8 848.463 872.027 847.876 873.44C847.316 874.827 847.036 876.333 847.036 877.96C847.036 879.613 847.316 881.147 847.876 882.56C848.463 883.973 849.263 885.213 850.276 886.28C851.316 887.32 852.516 888.133 853.876 888.72C855.263 889.307 856.756 889.6 858.356 889.6ZM877.02 892V871.96H879.98V874.32C881.553 872.48 883.66 871.56 886.3 871.56C887.82 871.56 889.153 871.893 890.3 872.56C891.473 873.2 892.38 874.107 893.02 875.28C893.687 876.427 894.02 877.773 894.02 879.32V892H891.1V879.92C891.1 878.133 890.593 876.733 889.58 875.72C888.593 874.68 887.233 874.16 885.5 874.16C884.3 874.16 883.233 874.427 882.3 874.96C881.367 875.493 880.593 876.253 879.98 877.24V892H877.02ZM898.973 892V864L901.933 863.32V892H898.973ZM906.981 892V871.96H909.941V892H906.981ZM908.461 868.12C907.928 868.12 907.461 867.92 907.061 867.52C906.661 867.12 906.461 866.653 906.461 866.12C906.461 865.56 906.661 865.093 907.061 864.72C907.461 864.32 907.928 864.12 908.461 864.12C909.021 864.12 909.488 864.32 909.861 864.72C910.261 865.093 910.461 865.56 910.461 866.12C910.461 866.653 910.261 867.12 909.861 867.52C909.488 867.92 909.021 868.12 908.461 868.12ZM914.989 892V871.96H917.949V874.32C919.522 872.48 921.629 871.56 924.269 871.56C925.789 871.56 927.122 871.893 928.269 872.56C929.442 873.2 930.349 874.107 930.989 875.28C931.655 876.427 931.989 877.773 931.989 879.32V892H929.069V879.92C929.069 878.133 928.562 876.733 927.549 875.72C926.562 874.68 925.202 874.16 923.469 874.16C922.269 874.16 921.202 874.427 920.269 874.96C919.335 875.493 918.562 876.253 917.949 877.24V892H914.989ZM946.342 892.36C944.422 892.36 942.675 891.907 941.102 891C939.555 890.067 938.315 888.813 937.382 887.24C936.475 885.667 936.022 883.907 936.022 881.96C936.022 880.04 936.462 878.307 937.342 876.76C938.222 875.187 939.409 873.947 940.902 873.04C942.395 872.107 944.062 871.64 945.902 871.64C947.689 871.64 949.289 872.107 950.702 873.04C952.142 873.947 953.275 875.187 954.102 876.76C954.955 878.307 955.382 880.04 955.382 881.96V882.88H938.942C939.102 884.187 939.515 885.36 940.182 886.4C940.875 887.44 941.769 888.267 942.862 888.88C943.955 889.467 945.155 889.76 946.462 889.76C947.502 889.76 948.515 889.6 949.502 889.28C950.489 888.96 951.315 888.507 951.982 887.92L953.822 889.88C952.702 890.707 951.529 891.333 950.302 891.76C949.102 892.16 947.782 892.36 946.342 892.36ZM939.022 880.52H952.422C952.262 879.32 951.862 878.253 951.222 877.32C950.609 876.36 949.835 875.613 948.902 875.08C947.969 874.52 946.942 874.24 945.822 874.24C944.675 874.24 943.622 874.507 942.662 875.04C941.702 875.573 940.902 876.32 940.262 877.28C939.622 878.213 939.209 879.293 939.022 880.52Z" fill="white"/>
</g>
<defs>
<filter id="filter0_d_347_51" x="-427.7" y="248.048" width="1092.4" height="994.027" filterUnits="userSpaceOnUse" color-interpolation-filters="sRGB">
<feFlood flood-opacity="0" result="BackgroundImageFix"/>
<feColorMatrix in="SourceAlpha" type="matrix" values="0 0 0 0 0 0 0 0 0 0 0 0 0 0 0 0 0 0 127 0" result="hardAlpha"/>
<feOffset/>
<feGaussianBlur stdDeviation="12.35"/>
<feComposite in2="hardAlpha" operator="out"/>
<feColorMatrix type="matrix" values="0 0 0 0 0.341667 0 0 0 0 0.0469792 0 0 0 0 0.0469792 0 0 0 1 0"/>
<feBlend mode="normal" in2="BackgroundImageFix" result="effect1_dropShadow_347_51"/>
<feBlend mode="normal" in="SourceGraphic" in2="effect1_dropShadow_347_51" result="shape"/>
</filter>
<filter id="filter1_d_347_51" x="-56.9152" y="566.993" width="351.545" height="356.503" filterUnits="userSpaceOnUse" color-interpolation-filters="sRGB">
<feFlood flood-opacity="0" result="BackgroundImageFix"/>
<feColorMatrix in="SourceAlpha" type="matrix" values="0 0 0 0 0 0 0 0 0 0 0 0 0 0 0 0 0 0 127 0" result="hardAlpha"/>
<feOffset/>
<feGaussianBlur stdDeviation="29"/>
<feComposite in2="hardAlpha" operator="out"/>
<feColorMatrix type="matrix" values="0 0 0 0 0 0 0 0 0 0 0 0 0 0 0 0 0 0 0.7 0"/>
<feBlend mode="normal" in2="BackgroundImageFix" result="effect1_dropShadow_347_51"/>
<feBlend mode="normal" in="SourceGraphic" in2="effect1_dropShadow_347_51" result="shape"/>
</filter>
<filter id="filter2_d_347_51" x="25.6568" y="202.86" width="935.079" height="228.784" filterUnits="userSpaceOnUse" color-interpolation-filters="sRGB">
<feFlood flood-opacity="0" result="BackgroundImageFix"/>
<feColorMatrix in="SourceAlpha" type="matrix" values="0 0 0 0 0 0 0 0 0 0 0 0 0 0 0 0 0 0 127 0" result="hardAlpha"/>
<feOffset dy="3"/>
<feGaussianBlur stdDeviation="2.55"/>
<feComposite in2="hardAlpha" operator="out"/>
<feColorMatrix type="matrix" values="0 0 0 0 0 0 0 0 0 0 0 0 0 0 0 0 0 0 0.43 0"/>
<feBlend mode="normal" in2="BackgroundImageFix" result="effect1_dropShadow_347_51"/>
<feBlend mode="normal" in="SourceGraphic" in2="effect1_dropShadow_347_51" result="shape"/>
</filter>
<linearGradient id="paint0_linear_347_51" x1="-142.263" y1="284.377" x2="-119.325" y2="1411.56" gradientUnits="userSpaceOnUse">
<stop stop-color="#9F1111"/>
<stop offset="1" stop-color="#570C0C"/>
</linearGradient>
<linearGradient id="paint1_linear_347_51" x1="-142.263" y1="1206.61" x2="813.225" y2="641.172" gradientUnits="userSpaceOnUse">
<stop stop-color="#9F1111"/>
<stop offset="1" stop-color="#570C0C"/>
</linearGradient>
<linearGradient id="paint2_linear_347_51" x1="-403" y1="745.493" x2="573.344" y2="1272.44" gradientUnits="userSpaceOnUse">
<stop stop-color="#9F1111"/>
<stop offset="1" stop-color="#570C0C"/>
</linearGradient>
<linearGradient id="paint3_linear_347_51" x1="118.857" y1="624.993" x2="63.0848" y2="904.596" gradientUnits="userSpaceOnUse">
<stop stop-color="#9F1111"/>
<stop offset="1" stop-color="#570C0C"/>
</linearGradient>
<linearGradient id="paint4_linear_347_51" x1="588.475" y1="624.993" x2="564.074" y2="747.319" gradientUnits="userSpaceOnUse">
<stop stop-color="#9F1111"/>
<stop offset="1" stop-color="#570C0C"/>
</linearGradient>
<linearGradient id="paint5_linear_347_51" x1="743.762" y1="945.18" x2="175.987" y2="932.544" gradientUnits="userSpaceOnUse">
<stop stop-color="#852828"/>
<stop offset="0.5" stop-color="#9F1111"/>
<stop offset="1" stop-color="#570C0C"/>
</linearGradient>
<linearGradient id="paint6_linear_347_51" x1="925" y1="980.365" x2="358.189" y2="968.059" gradientUnits="userSpaceOnUse">
<stop stop-color="#852828"/>
<stop offset="0.5" stop-color="#9F1111"/>
<stop offset="1" stop-color="#570C0C"/>
</linearGradient>
<linearGradient id="paint7_linear_347_51" x1="1083.46" y1="974.875" x2="515.687" y2="962.238" gradientUnits="userSpaceOnUse">
<stop stop-color="#852828"/>
<stop offset="0.5" stop-color="#9F1111"/>
<stop offset="1" stop-color="#570C0C"/>
</linearGradient>
<linearGradient id="paint8_linear_347_51" x1="921.926" y1="284.489" x2="354.151" y2="271.852" gradientUnits="userSpaceOnUse">
<stop stop-color="#852828"/>
<stop offset="0.5" stop-color="#9F1111"/>
<stop offset="1" stop-color="#570C0C"/>
</linearGradient>
<linearGradient id="paint9_linear_347_51" x1="748.442" y1="179.075" x2="180.666" y2="166.439" gradientUnits="userSpaceOnUse">
<stop stop-color="#852828"/>
<stop offset="0.5" stop-color="#9F1111"/>
<stop offset="1" stop-color="#570C0C"/>
</linearGradient>
<linearGradient id="paint10_linear_347_51" x1="1095.07" y1="285.973" x2="527.296" y2="273.336" gradientUnits="userSpaceOnUse">
<stop stop-color="#852828"/>
<stop offset="0.5" stop-color="#9F1111"/>
<stop offset="1" stop-color="#570C0C"/>
</linearGradient>
<linearGradient id="paint11_linear_347_51" x1="817.214" y1="-13.9941" x2="724.39" y2="785.88" gradientUnits="userSpaceOnUse">
<stop stop-color="#9F1111"/>
<stop offset="1" stop-color="#C21A6B"/>
</linearGradient>
<clipPath id="clip0_347_51">
<rect width="1000" height="1000" fill="white"/>
</clipPath>
</defs>
</svg>
