<svg width="1000" height="400" viewBox="0 0 1000 400" fill="none" xmlns="http://www.w3.org/2000/svg">
<path d="M581.24 300.6H584.4C585.213 300.6 585.967 300.46 586.66 300.18C587.353 299.9 587.96 299.507 588.48 299C589 298.493 589.4 297.9 589.68 297.22C589.973 296.54 590.12 295.8 590.12 295C590.12 294.2 589.973 293.46 589.68 292.78C589.4 292.1 589 291.507 588.48 291C587.96 290.493 587.353 290.1 586.66 289.82C585.967 289.54 585.213 289.4 584.4 289.4H581.24V300.6ZM579.7 302V288H584.32C585.387 288 586.367 288.173 587.26 288.52C588.153 288.867 588.927 289.353 589.58 289.98C590.247 290.607 590.76 291.347 591.12 292.2C591.493 293.053 591.68 293.987 591.68 295C591.68 296.013 591.5 296.947 591.14 297.8C590.78 298.653 590.267 299.393 589.6 300.02C588.947 300.647 588.167 301.133 587.26 301.48C586.367 301.827 585.387 302 584.32 302H579.7ZM598.515 302.18C597.555 302.18 596.681 301.953 595.895 301.5C595.121 301.033 594.501 300.407 594.035 299.62C593.581 298.833 593.355 297.953 593.355 296.98C593.355 296.02 593.575 295.153 594.015 294.38C594.455 293.593 595.048 292.973 595.795 292.52C596.541 292.053 597.375 291.82 598.295 291.82C599.188 291.82 599.988 292.053 600.695 292.52C601.415 292.973 601.981 293.593 602.395 294.38C602.821 295.153 603.035 296.02 603.035 296.98V297.44H594.815C594.895 298.093 595.101 298.68 595.435 299.2C595.781 299.72 596.228 300.133 596.775 300.44C597.321 300.733 597.921 300.88 598.575 300.88C599.095 300.88 599.601 300.8 600.095 300.64C600.588 300.48 601.001 300.253 601.335 299.96L602.255 300.94C601.695 301.353 601.108 301.667 600.495 301.88C599.895 302.08 599.235 302.18 598.515 302.18ZM594.855 296.26H601.555C601.475 295.66 601.275 295.127 600.955 294.66C600.648 294.18 600.261 293.807 599.795 293.54C599.328 293.26 598.815 293.12 598.255 293.12C597.681 293.12 597.155 293.253 596.675 293.52C596.195 293.787 595.795 294.16 595.475 294.64C595.155 295.107 594.948 295.647 594.855 296.26ZM608.401 302.2C607.575 302.2 606.795 302.067 606.061 301.8C605.341 301.52 604.715 301.133 604.181 300.64L605.081 299.68C605.548 300.107 606.061 300.44 606.621 300.68C607.181 300.907 607.755 301.02 608.341 301.02C609.141 301.02 609.795 300.853 610.301 300.52C610.808 300.187 611.061 299.753 611.061 299.22C611.061 298.78 610.908 298.44 610.601 298.2C610.308 297.947 609.841 297.773 609.201 297.68L607.461 297.44C606.461 297.293 605.715 296.993 605.221 296.54C604.741 296.087 604.501 295.473 604.501 294.7C604.501 294.14 604.661 293.64 604.981 293.2C605.301 292.76 605.741 292.413 606.301 292.16C606.875 291.907 607.528 291.78 608.261 291.78C608.995 291.78 609.681 291.887 610.321 292.1C610.961 292.313 611.588 292.647 612.201 293.1L611.421 294.1C610.861 293.713 610.315 293.433 609.781 293.26C609.261 293.073 608.728 292.98 608.181 292.98C607.488 292.98 606.928 293.133 606.501 293.44C606.075 293.747 605.861 294.147 605.861 294.64C605.861 295.093 606.008 295.44 606.301 295.68C606.595 295.907 607.068 296.067 607.721 296.16L609.461 296.4C610.461 296.533 611.208 296.827 611.701 297.28C612.208 297.733 612.461 298.353 612.461 299.14C612.461 299.713 612.281 300.233 611.921 300.7C611.561 301.167 611.075 301.533 610.461 301.8C609.861 302.067 609.175 302.2 608.401 302.2ZM618.925 302.18C617.965 302.18 617.092 301.953 616.305 301.5C615.532 301.033 614.912 300.407 614.445 299.62C613.992 298.833 613.765 297.953 613.765 296.98C613.765 296.02 613.985 295.153 614.425 294.38C614.865 293.593 615.458 292.973 616.205 292.52C616.952 292.053 617.785 291.82 618.705 291.82C619.598 291.82 620.398 292.053 621.105 292.52C621.825 292.973 622.392 293.593 622.805 294.38C623.232 295.153 623.445 296.02 623.445 296.98V297.44H615.225C615.305 298.093 615.512 298.68 615.845 299.2C616.192 299.72 616.638 300.133 617.185 300.44C617.732 300.733 618.332 300.88 618.985 300.88C619.505 300.88 620.012 300.8 620.505 300.64C620.998 300.48 621.412 300.253 621.745 299.96L622.665 300.94C622.105 301.353 621.518 301.667 620.905 301.88C620.305 302.08 619.645 302.18 618.925 302.18ZM615.265 296.26H621.965C621.885 295.66 621.685 295.127 621.365 294.66C621.058 294.18 620.672 293.807 620.205 293.54C619.738 293.26 619.225 293.12 618.665 293.12C618.092 293.12 617.565 293.253 617.085 293.52C616.605 293.787 616.205 294.16 615.885 294.64C615.565 295.107 615.358 295.647 615.265 296.26ZM625.514 302V291.98H626.994V293.16C627.781 292.24 628.834 291.78 630.154 291.78C630.914 291.78 631.581 291.947 632.154 292.28C632.741 292.6 633.194 293.053 633.514 293.64C633.847 294.213 634.014 294.887 634.014 295.66V302H632.554V295.96C632.554 295.067 632.301 294.367 631.794 293.86C631.301 293.34 630.621 293.08 629.754 293.08C629.154 293.08 628.621 293.213 628.154 293.48C627.687 293.747 627.301 294.127 626.994 294.62V302H625.514ZM639.182 302L634.842 291.98H636.482L639.902 300.08L643.322 291.98H644.902L640.582 302H639.182ZM650.623 302.2C649.676 302.2 648.81 301.973 648.023 301.52C647.25 301.053 646.636 300.427 646.183 299.64C645.73 298.853 645.503 297.973 645.503 297C645.503 296.027 645.73 295.147 646.183 294.36C646.636 293.573 647.25 292.953 648.023 292.5C648.81 292.033 649.676 291.8 650.623 291.8C651.583 291.8 652.45 292.033 653.223 292.5C653.996 292.953 654.61 293.573 655.063 294.36C655.516 295.147 655.743 296.027 655.743 297C655.743 297.973 655.516 298.853 655.063 299.64C654.61 300.427 653.996 301.053 653.223 301.52C652.45 301.973 651.583 302.2 650.623 302.2ZM650.623 300.88C651.303 300.88 651.916 300.707 652.463 300.36C653.023 300.013 653.463 299.547 653.783 298.96C654.116 298.373 654.283 297.72 654.283 297C654.283 296.267 654.116 295.613 653.783 295.04C653.463 294.453 653.023 293.987 652.463 293.64C651.916 293.293 651.303 293.12 650.623 293.12C649.943 293.12 649.323 293.293 648.763 293.64C648.216 293.987 647.776 294.453 647.443 295.04C647.123 295.613 646.963 296.267 646.963 297C646.963 297.72 647.123 298.373 647.443 298.96C647.776 299.547 648.216 300.013 648.763 300.36C649.323 300.707 649.943 300.88 650.623 300.88ZM657.799 302V288L659.279 287.66V302H657.799ZM664.983 302L660.643 291.98H662.283L665.703 300.08L669.123 291.98H670.703L666.383 302H664.983ZM672.057 302V291.98H673.537V302H672.057ZM672.797 290.06C672.53 290.06 672.297 289.96 672.097 289.76C671.897 289.56 671.797 289.327 671.797 289.06C671.797 288.78 671.897 288.547 672.097 288.36C672.297 288.16 672.53 288.06 672.797 288.06C673.077 288.06 673.31 288.16 673.497 288.36C673.697 288.547 673.797 288.78 673.797 289.06C673.797 289.327 673.697 289.56 673.497 289.76C673.31 289.96 673.077 290.06 672.797 290.06ZM676.061 302V291.98H677.541V293.08C678.301 292.213 679.281 291.78 680.481 291.78C681.187 291.78 681.814 291.947 682.361 292.28C682.907 292.6 683.334 293.04 683.641 293.6C684.054 292.987 684.547 292.533 685.121 292.24C685.694 291.933 686.347 291.78 687.081 291.78C687.814 291.78 688.454 291.947 689.001 292.28C689.547 292.6 689.974 293.053 690.281 293.64C690.601 294.213 690.761 294.887 690.761 295.66V302H689.301V295.96C689.301 295.067 689.067 294.367 688.601 293.86C688.134 293.34 687.501 293.08 686.701 293.08C686.154 293.08 685.654 293.22 685.201 293.5C684.747 293.767 684.361 294.173 684.041 294.72C684.067 294.867 684.087 295.02 684.101 295.18C684.127 295.327 684.141 295.487 684.141 295.66V302H682.681V295.96C682.681 295.067 682.447 294.367 681.981 293.86C681.514 293.34 680.887 293.08 680.101 293.08C679.567 293.08 679.081 293.207 678.641 293.46C678.214 293.7 677.847 294.06 677.541 294.54V302H676.061ZM697.948 302.18C696.988 302.18 696.115 301.953 695.328 301.5C694.555 301.033 693.935 300.407 693.468 299.62C693.015 298.833 692.788 297.953 692.788 296.98C692.788 296.02 693.008 295.153 693.448 294.38C693.888 293.593 694.482 292.973 695.228 292.52C695.975 292.053 696.808 291.82 697.728 291.82C698.622 291.82 699.422 292.053 700.128 292.52C700.848 292.973 701.415 293.593 701.828 294.38C702.255 295.153 702.468 296.02 702.468 296.98V297.44H694.248C694.328 298.093 694.535 298.68 694.868 299.2C695.215 299.72 695.662 300.133 696.208 300.44C696.755 300.733 697.355 300.88 698.008 300.88C698.528 300.88 699.035 300.8 699.528 300.64C700.022 300.48 700.435 300.253 700.768 299.96L701.688 300.94C701.128 301.353 700.542 301.667 699.928 301.88C699.328 302.08 698.668 302.18 697.948 302.18ZM694.288 296.26H700.988C700.908 295.66 700.708 295.127 700.388 294.66C700.082 294.18 699.695 293.807 699.228 293.54C698.762 293.26 698.248 293.12 697.688 293.12C697.115 293.12 696.588 293.253 696.108 293.52C695.628 293.787 695.228 294.16 694.908 294.64C694.588 295.107 694.382 295.647 694.288 296.26ZM704.537 302V291.98H706.017V293.16C706.804 292.24 707.857 291.78 709.177 291.78C709.937 291.78 710.604 291.947 711.177 292.28C711.764 292.6 712.217 293.053 712.537 293.64C712.871 294.213 713.037 294.887 713.037 295.66V302H711.577V295.96C711.577 295.067 711.324 294.367 710.817 293.86C710.324 293.34 709.644 293.08 708.777 293.08C708.177 293.08 707.644 293.213 707.177 293.48C706.711 293.747 706.324 294.127 706.017 294.62V302H704.537ZM719.161 302.2C718.294 302.2 717.628 301.993 717.161 301.58C716.694 301.167 716.461 300.567 716.461 299.78V293.24H714.301V291.98H716.461V289.44L717.921 289.06V291.98H720.941V293.24H717.921V299.4C717.921 299.933 718.041 300.32 718.281 300.56C718.521 300.787 718.914 300.9 719.461 300.9C719.741 300.9 719.988 300.88 720.201 300.84C720.428 300.8 720.668 300.733 720.921 300.64V301.94C720.668 302.033 720.381 302.1 720.061 302.14C719.754 302.18 719.454 302.2 719.161 302.2ZM726.99 302.2C726.044 302.2 725.177 301.973 724.39 301.52C723.617 301.053 723.004 300.427 722.55 299.64C722.097 298.853 721.87 297.973 721.87 297C721.87 296.027 722.097 295.147 722.55 294.36C723.004 293.573 723.617 292.953 724.39 292.5C725.177 292.033 726.044 291.8 726.99 291.8C727.95 291.8 728.817 292.033 729.59 292.5C730.364 292.953 730.977 293.573 731.43 294.36C731.884 295.147 732.11 296.027 732.11 297C732.11 297.973 731.884 298.853 731.43 299.64C730.977 300.427 730.364 301.053 729.59 301.52C728.817 301.973 727.95 302.2 726.99 302.2ZM726.99 300.88C727.67 300.88 728.284 300.707 728.83 300.36C729.39 300.013 729.83 299.547 730.15 298.96C730.484 298.373 730.65 297.72 730.65 297C730.65 296.267 730.484 295.613 730.15 295.04C729.83 294.453 729.39 293.987 728.83 293.64C728.284 293.293 727.67 293.12 726.99 293.12C726.31 293.12 725.69 293.293 725.13 293.64C724.584 293.987 724.144 294.453 723.81 295.04C723.49 295.613 723.33 296.267 723.33 297C723.33 297.72 723.49 298.373 723.81 298.96C724.144 299.547 724.584 300.013 725.13 300.36C725.69 300.707 726.31 300.88 726.99 300.88ZM743.043 302.16C742.11 302.16 741.256 301.933 740.483 301.48C739.723 301.013 739.116 300.393 738.663 299.62C738.223 298.833 738.003 297.953 738.003 296.98C738.003 296.007 738.223 295.133 738.663 294.36C739.116 293.587 739.723 292.973 740.483 292.52C741.256 292.053 742.116 291.82 743.063 291.82C743.65 291.82 744.216 291.92 744.763 292.12C745.31 292.307 745.81 292.587 746.263 292.96V288L747.743 287.66V302H746.283V300.94C745.403 301.753 744.323 302.16 743.043 302.16ZM743.183 300.86C743.81 300.86 744.39 300.74 744.923 300.5C745.47 300.247 745.916 299.9 746.263 299.46V294.5C745.916 294.073 745.47 293.74 744.923 293.5C744.39 293.247 743.81 293.12 743.183 293.12C742.49 293.12 741.856 293.287 741.283 293.62C740.723 293.953 740.276 294.413 739.943 295C739.623 295.573 739.463 296.227 739.463 296.96C739.463 297.693 739.623 298.353 739.943 298.94C740.276 299.527 740.723 299.993 741.283 300.34C741.856 300.687 742.49 300.86 743.183 300.86ZM754.96 302.18C754 302.18 753.127 301.953 752.34 301.5C751.567 301.033 750.947 300.407 750.48 299.62C750.027 298.833 749.8 297.953 749.8 296.98C749.8 296.02 750.02 295.153 750.46 294.38C750.9 293.593 751.493 292.973 752.24 292.52C752.987 292.053 753.82 291.82 754.74 291.82C755.633 291.82 756.433 292.053 757.14 292.52C757.86 292.973 758.427 293.593 758.84 294.38C759.267 295.153 759.48 296.02 759.48 296.98V297.44H751.26C751.34 298.093 751.547 298.68 751.88 299.2C752.227 299.72 752.673 300.133 753.22 300.44C753.767 300.733 754.367 300.88 755.02 300.88C755.54 300.88 756.047 300.8 756.54 300.64C757.033 300.48 757.447 300.253 757.78 299.96L758.7 300.94C758.14 301.353 757.553 301.667 756.94 301.88C756.34 302.08 755.68 302.18 754.96 302.18ZM751.3 296.26H758C757.92 295.66 757.72 295.127 757.4 294.66C757.093 294.18 756.707 293.807 756.24 293.54C755.773 293.26 755.26 293.12 754.7 293.12C754.127 293.12 753.6 293.253 753.12 293.52C752.64 293.787 752.24 294.16 751.92 294.64C751.6 295.107 751.393 295.647 751.3 296.26ZM767.686 302L764.866 291.98H766.326L768.486 299.98L770.986 291.98H772.306L774.786 299.98L776.966 291.98H778.366L775.526 302H774.106L771.626 293.98L769.126 302H767.686ZM784.413 302.18C783.453 302.18 782.58 301.953 781.793 301.5C781.02 301.033 780.4 300.407 779.933 299.62C779.48 298.833 779.253 297.953 779.253 296.98C779.253 296.02 779.473 295.153 779.913 294.38C780.353 293.593 780.946 292.973 781.693 292.52C782.44 292.053 783.273 291.82 784.193 291.82C785.086 291.82 785.886 292.053 786.593 292.52C787.313 292.973 787.88 293.593 788.293 294.38C788.72 295.153 788.933 296.02 788.933 296.98V297.44H780.713C780.793 298.093 781 298.68 781.333 299.2C781.68 299.72 782.126 300.133 782.673 300.44C783.22 300.733 783.82 300.88 784.473 300.88C784.993 300.88 785.5 300.8 785.993 300.64C786.486 300.48 786.9 300.253 787.233 299.96L788.153 300.94C787.593 301.353 787.006 301.667 786.393 301.88C785.793 302.08 785.133 302.18 784.413 302.18ZM780.753 296.26H787.453C787.373 295.66 787.173 295.127 786.853 294.66C786.546 294.18 786.16 293.807 785.693 293.54C785.226 293.26 784.713 293.12 784.153 293.12C783.58 293.12 783.053 293.253 782.573 293.52C782.093 293.787 781.693 294.16 781.373 294.64C781.053 295.107 780.846 295.647 780.753 296.26ZM791.002 302V288L792.482 287.66V293.04C793.336 292.227 794.409 291.82 795.702 291.82C796.649 291.82 797.502 292.053 798.262 292.52C799.022 292.973 799.622 293.587 800.062 294.36C800.516 295.133 800.742 296.007 800.742 296.98C800.742 297.953 800.516 298.833 800.062 299.62C799.622 300.393 799.022 301.013 798.262 301.48C797.502 301.933 796.642 302.16 795.682 302.16C795.096 302.16 794.522 302.06 793.962 301.86C793.416 301.66 792.916 301.373 792.462 301V302H791.002ZM795.562 300.86C796.269 300.86 796.902 300.693 797.462 300.36C798.022 300.013 798.462 299.553 798.782 298.98C799.116 298.393 799.282 297.733 799.282 297C799.282 296.267 799.116 295.607 798.782 295.02C798.462 294.433 798.022 293.973 797.462 293.64C796.902 293.293 796.269 293.12 795.562 293.12C794.936 293.12 794.349 293.247 793.802 293.5C793.269 293.74 792.829 294.08 792.482 294.52V299.48C792.829 299.907 793.276 300.247 793.822 300.5C794.369 300.74 794.949 300.86 795.562 300.86ZM805.999 302.2C805.172 302.2 804.392 302.067 803.659 301.8C802.939 301.52 802.312 301.133 801.779 300.64L802.679 299.68C803.146 300.107 803.659 300.44 804.219 300.68C804.779 300.907 805.352 301.02 805.939 301.02C806.739 301.02 807.392 300.853 807.899 300.52C808.406 300.187 808.659 299.753 808.659 299.22C808.659 298.78 808.506 298.44 808.199 298.2C807.906 297.947 807.439 297.773 806.799 297.68L805.059 297.44C804.059 297.293 803.312 296.993 802.819 296.54C802.339 296.087 802.099 295.473 802.099 294.7C802.099 294.14 802.259 293.64 802.579 293.2C802.899 292.76 803.339 292.413 803.899 292.16C804.472 291.907 805.126 291.78 805.859 291.78C806.592 291.78 807.279 291.887 807.919 292.1C808.559 292.313 809.186 292.647 809.799 293.1L809.019 294.1C808.459 293.713 807.912 293.433 807.379 293.26C806.859 293.073 806.326 292.98 805.779 292.98C805.086 292.98 804.526 293.133 804.099 293.44C803.672 293.747 803.459 294.147 803.459 294.64C803.459 295.093 803.606 295.44 803.899 295.68C804.192 295.907 804.666 296.067 805.319 296.16L807.059 296.4C808.059 296.533 808.806 296.827 809.299 297.28C809.806 297.733 810.059 298.353 810.059 299.14C810.059 299.713 809.879 300.233 809.519 300.7C809.159 301.167 808.672 301.533 808.059 301.8C807.459 302.067 806.772 302.2 805.999 302.2ZM811.725 302V291.98H813.205V302H811.725ZM812.465 290.06C812.198 290.06 811.965 289.96 811.765 289.76C811.565 289.56 811.465 289.327 811.465 289.06C811.465 288.78 811.565 288.547 811.765 288.36C811.965 288.16 812.198 288.06 812.465 288.06C812.745 288.06 812.978 288.16 813.165 288.36C813.365 288.547 813.465 288.78 813.465 289.06C813.465 289.327 813.365 289.56 813.165 289.76C812.978 289.96 812.745 290.06 812.465 290.06ZM819.669 302.2C818.802 302.2 818.135 301.993 817.669 301.58C817.202 301.167 816.969 300.567 816.969 299.78V293.24H814.809V291.98H816.969V289.44L818.429 289.06V291.98H821.449V293.24H818.429V299.4C818.429 299.933 818.549 300.32 818.789 300.56C819.029 300.787 819.422 300.9 819.969 300.9C820.249 300.9 820.495 300.88 820.709 300.84C820.935 300.8 821.175 300.733 821.429 300.64V301.94C821.175 302.033 820.889 302.1 820.569 302.14C820.262 302.18 819.962 302.2 819.669 302.2ZM827.538 302.18C826.578 302.18 825.705 301.953 824.918 301.5C824.145 301.033 823.525 300.407 823.058 299.62C822.605 298.833 822.378 297.953 822.378 296.98C822.378 296.02 822.598 295.153 823.038 294.38C823.478 293.593 824.071 292.973 824.818 292.52C825.565 292.053 826.398 291.82 827.318 291.82C828.211 291.82 829.011 292.053 829.718 292.52C830.438 292.973 831.005 293.593 831.418 294.38C831.845 295.153 832.058 296.02 832.058 296.98V297.44H823.838C823.918 298.093 824.125 298.68 824.458 299.2C824.805 299.72 825.251 300.133 825.798 300.44C826.345 300.733 826.945 300.88 827.598 300.88C828.118 300.88 828.625 300.8 829.118 300.64C829.611 300.48 830.025 300.253 830.358 299.96L831.278 300.94C830.718 301.353 830.131 301.667 829.518 301.88C828.918 302.08 828.258 302.18 827.538 302.18ZM823.878 296.26H830.578C830.498 295.66 830.298 295.127 829.978 294.66C829.671 294.18 829.285 293.807 828.818 293.54C828.351 293.26 827.838 293.12 827.278 293.12C826.705 293.12 826.178 293.253 825.698 293.52C825.218 293.787 824.818 294.16 824.498 294.64C824.178 295.107 823.971 295.647 823.878 296.26ZM837.425 302.2C836.598 302.2 835.818 302.067 835.085 301.8C834.365 301.52 833.738 301.133 833.205 300.64L834.105 299.68C834.572 300.107 835.085 300.44 835.645 300.68C836.205 300.907 836.778 301.02 837.365 301.02C838.165 301.02 838.818 300.853 839.325 300.52C839.832 300.187 840.085 299.753 840.085 299.22C840.085 298.78 839.932 298.44 839.625 298.2C839.332 297.947 838.865 297.773 838.225 297.68L836.485 297.44C835.485 297.293 834.738 296.993 834.245 296.54C833.765 296.087 833.525 295.473 833.525 294.7C833.525 294.14 833.685 293.64 834.005 293.2C834.325 292.76 834.765 292.413 835.325 292.16C835.898 291.907 836.552 291.78 837.285 291.78C838.018 291.78 838.705 291.887 839.345 292.1C839.985 292.313 840.612 292.647 841.225 293.1L840.445 294.1C839.885 293.713 839.338 293.433 838.805 293.26C838.285 293.073 837.752 292.98 837.205 292.98C836.512 292.98 835.952 293.133 835.525 293.44C835.098 293.747 834.885 294.147 834.885 294.64C834.885 295.093 835.032 295.44 835.325 295.68C835.618 295.907 836.092 296.067 836.745 296.16L838.485 296.4C839.485 296.533 840.232 296.827 840.725 297.28C841.232 297.733 841.485 298.353 841.485 299.14C841.485 299.713 841.305 300.233 840.945 300.7C840.585 301.167 840.098 301.533 839.485 301.8C838.885 302.067 838.198 302.2 837.425 302.2ZM852.148 302.18C851.188 302.18 850.314 301.953 849.528 301.5C848.754 301.033 848.134 300.407 847.668 299.62C847.214 298.833 846.988 297.953 846.988 296.98C846.988 296.02 847.208 295.153 847.648 294.38C848.088 293.593 848.681 292.973 849.428 292.52C850.174 292.053 851.008 291.82 851.928 291.82C852.821 291.82 853.621 292.053 854.328 292.52C855.048 292.973 855.614 293.593 856.028 294.38C856.454 295.153 856.668 296.02 856.668 296.98V297.44H848.448C848.528 298.093 848.734 298.68 849.068 299.2C849.414 299.72 849.861 300.133 850.408 300.44C850.954 300.733 851.554 300.88 852.208 300.88C852.728 300.88 853.234 300.8 853.728 300.64C854.221 300.48 854.634 300.253 854.968 299.96L855.888 300.94C855.328 301.353 854.741 301.667 854.128 301.88C853.528 302.08 852.868 302.18 852.148 302.18ZM848.488 296.26H855.188C855.108 295.66 854.908 295.127 854.588 294.66C854.281 294.18 853.894 293.807 853.428 293.54C852.961 293.26 852.448 293.12 851.888 293.12C851.314 293.12 850.788 293.253 850.308 293.52C849.828 293.787 849.428 294.16 849.108 294.64C848.788 295.107 848.581 295.647 848.488 296.26ZM866.193 302.18C865.46 302.18 864.813 302.053 864.253 301.8C863.707 301.547 863.273 301.193 862.953 300.74C862.647 300.287 862.493 299.76 862.493 299.16C862.493 298.213 862.853 297.467 863.573 296.92C864.293 296.373 865.267 296.1 866.493 296.1C867.573 296.1 868.553 296.327 869.433 296.78V295.46C869.433 294.66 869.207 294.06 868.753 293.66C868.3 293.247 867.64 293.04 866.773 293.04C866.28 293.04 865.78 293.113 865.273 293.26C864.78 293.393 864.233 293.613 863.633 293.92L863.073 292.78C863.793 292.433 864.46 292.18 865.073 292.02C865.687 291.86 866.3 291.78 866.913 291.78C868.18 291.78 869.153 292.08 869.833 292.68C870.527 293.28 870.873 294.14 870.873 295.26V302H869.433V301.02C868.98 301.407 868.48 301.7 867.933 301.9C867.4 302.087 866.82 302.18 866.193 302.18ZM863.913 299.12C863.913 299.68 864.147 300.14 864.613 300.5C865.093 300.847 865.707 301.02 866.453 301.02C867.053 301.02 867.6 300.927 868.093 300.74C868.587 300.553 869.033 300.26 869.433 299.86V297.98C869.02 297.7 868.58 297.5 868.113 297.38C867.647 297.247 867.12 297.18 866.533 297.18C865.733 297.18 865.093 297.36 864.613 297.72C864.147 298.067 863.913 298.533 863.913 299.12ZM873.346 306.08V291.98H874.806V293.06C875.673 292.233 876.753 291.82 878.046 291.82C878.993 291.82 879.846 292.053 880.606 292.52C881.366 292.973 881.966 293.587 882.406 294.36C882.859 295.133 883.086 296.007 883.086 296.98C883.086 297.953 882.859 298.833 882.406 299.62C881.966 300.393 881.366 301.013 880.606 301.48C879.846 301.933 878.986 302.16 878.026 302.16C877.439 302.16 876.873 302.06 876.326 301.86C875.779 301.66 875.279 301.373 874.826 301V306.08H873.346ZM877.906 300.86C878.613 300.86 879.246 300.693 879.806 300.36C880.366 300.013 880.806 299.553 881.126 298.98C881.459 298.393 881.626 297.733 881.626 297C881.626 296.267 881.459 295.607 881.126 295.02C880.806 294.433 880.366 293.973 879.806 293.64C879.246 293.293 878.613 293.12 877.906 293.12C877.279 293.12 876.693 293.247 876.146 293.5C875.613 293.74 875.173 294.08 874.826 294.52V299.48C875.173 299.907 875.619 300.247 876.166 300.5C876.713 300.74 877.293 300.86 877.906 300.86ZM885.143 302V288L886.623 287.66V302H885.143ZM889.147 302V291.98H890.627V302H889.147ZM889.887 290.06C889.62 290.06 889.387 289.96 889.187 289.76C888.987 289.56 888.887 289.327 888.887 289.06C888.887 288.78 888.987 288.547 889.187 288.36C889.387 288.16 889.62 288.06 889.887 288.06C890.167 288.06 890.4 288.16 890.587 288.36C890.787 288.547 890.887 288.78 890.887 289.06C890.887 289.327 890.787 289.56 890.587 289.76C890.4 289.96 890.167 290.06 889.887 290.06ZM897.791 302.18C896.844 302.18 895.984 301.953 895.211 301.5C894.437 301.033 893.824 300.407 893.371 299.62C892.917 298.833 892.691 297.953 892.691 296.98C892.691 296.007 892.917 295.133 893.371 294.36C893.824 293.573 894.437 292.947 895.211 292.48C895.984 292.013 896.844 291.78 897.791 291.78C898.524 291.78 899.231 291.92 899.911 292.2C900.591 292.467 901.191 292.853 901.711 293.36L900.771 294.44C900.371 294.013 899.911 293.693 899.391 293.48C898.884 293.253 898.357 293.14 897.811 293.14C897.131 293.14 896.511 293.313 895.951 293.66C895.404 293.993 894.964 294.453 894.631 295.04C894.311 295.613 894.151 296.26 894.151 296.98C894.151 297.7 894.311 298.353 894.631 298.94C894.964 299.527 895.411 299.993 895.971 300.34C896.531 300.673 897.151 300.84 897.831 300.84C898.377 300.84 898.891 300.733 899.371 300.52C899.864 300.307 900.324 299.993 900.751 299.58L901.671 300.58C901.137 301.087 900.537 301.48 899.871 301.76C899.204 302.04 898.511 302.18 897.791 302.18ZM906.565 302.18C905.831 302.18 905.185 302.053 904.625 301.8C904.078 301.547 903.645 301.193 903.325 300.74C903.018 300.287 902.865 299.76 902.865 299.16C902.865 298.213 903.225 297.467 903.945 296.92C904.665 296.373 905.638 296.1 906.865 296.1C907.945 296.1 908.925 296.327 909.805 296.78V295.46C909.805 294.66 909.578 294.06 909.125 293.66C908.671 293.247 908.011 293.04 907.145 293.04C906.651 293.04 906.151 293.113 905.645 293.26C905.151 293.393 904.605 293.613 904.005 293.92L903.445 292.78C904.165 292.433 904.831 292.18 905.445 292.02C906.058 291.86 906.671 291.78 907.285 291.78C908.551 291.78 909.525 292.08 910.205 292.68C910.898 293.28 911.245 294.14 911.245 295.26V302H909.805V301.02C909.351 301.407 908.851 301.7 908.305 301.9C907.771 302.087 907.191 302.18 906.565 302.18ZM904.285 299.12C904.285 299.68 904.518 300.14 904.985 300.5C905.465 300.847 906.078 301.02 906.825 301.02C907.425 301.02 907.971 300.927 908.465 300.74C908.958 300.553 909.405 300.26 909.805 299.86V297.98C909.391 297.7 908.951 297.5 908.485 297.38C908.018 297.247 907.491 297.18 906.905 297.18C906.105 297.18 905.465 297.36 904.985 297.72C904.518 298.067 904.285 298.533 904.285 299.12ZM917.364 302.2C916.497 302.2 915.831 301.993 915.364 301.58C914.897 301.167 914.664 300.567 914.664 299.78V293.24H912.504V291.98H914.664V289.44L916.124 289.06V291.98H919.144V293.24H916.124V299.4C916.124 299.933 916.244 300.32 916.484 300.56C916.724 300.787 917.117 300.9 917.664 300.9C917.944 300.9 918.191 300.88 918.404 300.84C918.631 300.8 918.871 300.733 919.124 300.64V301.94C918.871 302.033 918.584 302.1 918.264 302.14C917.957 302.18 917.657 302.2 917.364 302.2ZM920.729 302V291.98H922.209V302H920.729ZM921.469 290.06C921.202 290.06 920.969 289.96 920.769 289.76C920.569 289.56 920.469 289.327 920.469 289.06C920.469 288.78 920.569 288.547 920.769 288.36C920.969 288.16 921.202 288.06 921.469 288.06C921.749 288.06 921.982 288.16 922.169 288.36C922.369 288.547 922.469 288.78 922.469 289.06C922.469 289.327 922.369 289.56 922.169 289.76C921.982 289.96 921.749 290.06 921.469 290.06ZM927.913 302L923.573 291.98H925.213L928.633 300.08L932.053 291.98H933.633L929.313 302H927.913ZM939.354 302.2C938.407 302.2 937.54 301.973 936.754 301.52C935.98 301.053 935.367 300.427 934.914 299.64C934.46 298.853 934.234 297.973 934.234 297C934.234 296.027 934.46 295.147 934.914 294.36C935.367 293.573 935.98 292.953 936.754 292.5C937.54 292.033 938.407 291.8 939.354 291.8C940.314 291.8 941.18 292.033 941.954 292.5C942.727 292.953 943.34 293.573 943.794 294.36C944.247 295.147 944.474 296.027 944.474 297C944.474 297.973 944.247 298.853 943.794 299.64C943.34 300.427 942.727 301.053 941.954 301.52C941.18 301.973 940.314 302.2 939.354 302.2ZM939.354 300.88C940.034 300.88 940.647 300.707 941.194 300.36C941.754 300.013 942.194 299.547 942.514 298.96C942.847 298.373 943.014 297.72 943.014 297C943.014 296.267 942.847 295.613 942.514 295.04C942.194 294.453 941.754 293.987 941.194 293.64C940.647 293.293 940.034 293.12 939.354 293.12C938.674 293.12 938.054 293.293 937.494 293.64C936.947 293.987 936.507 294.453 936.174 295.04C935.854 295.613 935.694 296.267 935.694 297C935.694 297.72 935.854 298.373 936.174 298.96C936.507 299.547 936.947 300.013 937.494 300.36C938.054 300.707 938.674 300.88 939.354 300.88ZM949.73 302.2C948.903 302.2 948.123 302.067 947.39 301.8C946.67 301.52 946.043 301.133 945.51 300.64L946.41 299.68C946.876 300.107 947.39 300.44 947.95 300.68C948.51 300.907 949.083 301.02 949.67 301.02C950.47 301.02 951.123 300.853 951.63 300.52C952.136 300.187 952.39 299.753 952.39 299.22C952.39 298.78 952.236 298.44 951.93 298.2C951.636 297.947 951.17 297.773 950.53 297.68L948.79 297.44C947.79 297.293 947.043 296.993 946.55 296.54C946.07 296.087 945.83 295.473 945.83 294.7C945.83 294.14 945.99 293.64 946.31 293.2C946.63 292.76 947.07 292.413 947.63 292.16C948.203 291.907 948.856 291.78 949.59 291.78C950.323 291.78 951.01 291.887 951.65 292.1C952.29 292.313 952.916 292.647 953.53 293.1L952.75 294.1C952.19 293.713 951.643 293.433 951.11 293.26C950.59 293.073 950.056 292.98 949.51 292.98C948.816 292.98 948.256 293.133 947.83 293.44C947.403 293.747 947.19 294.147 947.19 294.64C947.19 295.093 947.336 295.44 947.63 295.68C947.923 295.907 948.396 296.067 949.05 296.16L950.79 296.4C951.79 296.533 952.536 296.827 953.03 297.28C953.536 297.733 953.79 298.353 953.79 299.14C953.79 299.713 953.61 300.233 953.25 300.7C952.89 301.167 952.403 301.533 951.79 301.8C951.19 302.067 950.503 302.2 949.73 302.2ZM954.88 304.74L956.04 300.52H957.64L956.04 304.74H954.88ZM524.244 328V317.98H525.724V328H524.244ZM524.984 316.06C524.718 316.06 524.484 315.96 524.284 315.76C524.084 315.56 523.984 315.327 523.984 315.06C523.984 314.78 524.084 314.547 524.284 314.36C524.484 314.16 524.718 314.06 524.984 314.06C525.264 314.06 525.498 314.16 525.684 314.36C525.884 314.547 525.984 314.78 525.984 315.06C525.984 315.327 525.884 315.56 525.684 315.76C525.498 315.96 525.264 316.06 524.984 316.06ZM528.248 328V317.98H529.728V319.16C530.515 318.24 531.568 317.78 532.888 317.78C533.648 317.78 534.315 317.947 534.888 318.28C535.475 318.6 535.928 319.053 536.248 319.64C536.582 320.213 536.748 320.887 536.748 321.66V328H535.288V321.96C535.288 321.067 535.035 320.367 534.528 319.86C534.035 319.34 533.355 319.08 532.488 319.08C531.888 319.08 531.355 319.213 530.888 319.48C530.422 319.747 530.035 320.127 529.728 320.62V328H528.248ZM542.872 328.2C542.005 328.2 541.339 327.993 540.872 327.58C540.405 327.167 540.172 326.567 540.172 325.78V319.24H538.012V317.98H540.172V315.44L541.632 315.06V317.98H544.652V319.24H541.632V325.4C541.632 325.933 541.752 326.32 541.992 326.56C542.232 326.787 542.625 326.9 543.172 326.9C543.452 326.9 543.699 326.88 543.912 326.84C544.139 326.8 544.379 326.733 544.632 326.64V327.94C544.379 328.033 544.092 328.1 543.772 328.14C543.465 328.18 543.165 328.2 542.872 328.2ZM550.741 328.18C549.781 328.18 548.908 327.953 548.121 327.5C547.348 327.033 546.728 326.407 546.261 325.62C545.808 324.833 545.581 323.953 545.581 322.98C545.581 322.02 545.801 321.153 546.241 320.38C546.681 319.593 547.275 318.973 548.021 318.52C548.768 318.053 549.601 317.82 550.521 317.82C551.415 317.82 552.215 318.053 552.921 318.52C553.641 318.973 554.208 319.593 554.621 320.38C555.048 321.153 555.261 322.02 555.261 322.98V323.44H547.041C547.121 324.093 547.328 324.68 547.661 325.2C548.008 325.72 548.455 326.133 549.001 326.44C549.548 326.733 550.148 326.88 550.801 326.88C551.321 326.88 551.828 326.8 552.321 326.64C552.815 326.48 553.228 326.253 553.561 325.96L554.481 326.94C553.921 327.353 553.335 327.667 552.721 327.88C552.121 328.08 551.461 328.18 550.741 328.18ZM547.081 322.26H553.781C553.701 321.66 553.501 321.127 553.181 320.66C552.875 320.18 552.488 319.807 552.021 319.54C551.555 319.26 551.041 319.12 550.481 319.12C549.908 319.12 549.381 319.253 548.901 319.52C548.421 319.787 548.021 320.16 547.701 320.64C547.381 321.107 547.175 321.647 547.081 322.26ZM562.21 332.28C561.517 332.28 560.83 332.187 560.15 332C559.47 331.827 558.85 331.573 558.29 331.24L558.93 330.08C559.53 330.4 560.084 330.633 560.59 330.78C561.11 330.927 561.63 331 562.15 331C563.097 331 563.817 330.773 564.31 330.32C564.804 329.867 565.05 329.2 565.05 328.32V326.92C564.13 327.693 563.07 328.08 561.87 328.08C560.95 328.08 560.11 327.853 559.35 327.4C558.59 326.947 557.984 326.333 557.53 325.56C557.09 324.773 556.87 323.9 556.87 322.94C556.87 321.98 557.09 321.113 557.53 320.34C557.984 319.553 558.59 318.933 559.35 318.48C560.11 318.027 560.964 317.8 561.91 317.8C562.484 317.8 563.037 317.9 563.57 318.1C564.117 318.3 564.617 318.593 565.07 318.98V317.98H566.53V328.3C566.53 329.58 566.157 330.56 565.41 331.24C564.664 331.933 563.597 332.28 562.21 332.28ZM561.99 326.78C562.63 326.78 563.217 326.66 563.75 326.42C564.284 326.18 564.717 325.84 565.05 325.4V320.48C564.717 320.053 564.277 319.72 563.73 319.48C563.197 319.24 562.617 319.12 561.99 319.12C561.297 319.12 560.67 319.287 560.11 319.62C559.564 319.953 559.13 320.413 558.81 321C558.49 321.573 558.33 322.22 558.33 322.94C558.33 323.66 558.49 324.313 558.81 324.9C559.144 325.473 559.584 325.933 560.13 326.28C560.69 326.613 561.31 326.78 561.99 326.78ZM569.049 328V317.98H570.529V319.4C570.836 318.88 571.222 318.48 571.689 318.2C572.169 317.907 572.716 317.76 573.329 317.76C573.676 317.76 573.989 317.807 574.269 317.9V319.26C574.096 319.193 573.922 319.147 573.749 319.12C573.576 319.093 573.402 319.08 573.229 319.08C572.616 319.08 572.076 319.26 571.609 319.62C571.156 319.967 570.796 320.473 570.529 321.14V328H569.049ZM578.615 328.18C577.882 328.18 577.235 328.053 576.675 327.8C576.129 327.547 575.695 327.193 575.375 326.74C575.069 326.287 574.915 325.76 574.915 325.16C574.915 324.213 575.275 323.467 575.995 322.92C576.715 322.373 577.689 322.1 578.915 322.1C579.995 322.1 580.975 322.327 581.855 322.78V321.46C581.855 320.66 581.629 320.06 581.175 319.66C580.722 319.247 580.062 319.04 579.195 319.04C578.702 319.04 578.202 319.113 577.695 319.26C577.202 319.393 576.655 319.613 576.055 319.92L575.495 318.78C576.215 318.433 576.882 318.18 577.495 318.02C578.109 317.86 578.722 317.78 579.335 317.78C580.602 317.78 581.575 318.08 582.255 318.68C582.949 319.28 583.295 320.14 583.295 321.26V328H581.855V327.02C581.402 327.407 580.902 327.7 580.355 327.9C579.822 328.087 579.242 328.18 578.615 328.18ZM576.335 325.12C576.335 325.68 576.569 326.14 577.035 326.5C577.515 326.847 578.129 327.02 578.875 327.02C579.475 327.02 580.022 326.927 580.515 326.74C581.009 326.553 581.455 326.26 581.855 325.86V323.98C581.442 323.7 581.002 323.5 580.535 323.38C580.069 323.247 579.542 323.18 578.955 323.18C578.155 323.18 577.515 323.36 577.035 323.72C576.569 324.067 576.335 324.533 576.335 325.12ZM590.148 332.56C589.228 332.56 588.474 332.287 587.888 331.74L588.488 331.1C588.994 331.527 589.548 331.74 590.148 331.74C590.548 331.74 590.861 331.647 591.088 331.46C591.314 331.287 591.428 331.053 591.428 330.76C591.428 330.467 591.301 330.233 591.048 330.06C590.808 329.9 590.474 329.82 590.048 329.82H589.468L589.948 328.16C589.068 328.08 588.274 327.807 587.568 327.34C586.874 326.86 586.321 326.247 585.908 325.5C585.508 324.74 585.308 323.9 585.308 322.98C585.308 322.007 585.534 321.133 585.988 320.36C586.441 319.573 587.054 318.947 587.828 318.48C588.601 318.013 589.461 317.78 590.408 317.78C591.141 317.78 591.848 317.92 592.528 318.2C593.208 318.467 593.808 318.853 594.328 319.36L593.388 320.44C592.988 320.013 592.528 319.693 592.008 319.48C591.501 319.253 590.974 319.14 590.428 319.14C589.748 319.14 589.128 319.313 588.568 319.66C588.021 319.993 587.581 320.453 587.248 321.04C586.928 321.613 586.768 322.26 586.768 322.98C586.768 323.7 586.928 324.353 587.248 324.94C587.581 325.527 588.028 325.993 588.588 326.34C589.148 326.673 589.768 326.84 590.448 326.84C590.994 326.84 591.508 326.733 591.988 326.52C592.481 326.307 592.941 325.993 593.368 325.58L594.288 326.58C593.808 327.033 593.268 327.4 592.668 327.68C592.081 327.947 591.461 328.107 590.808 328.16L590.548 329.1C591.134 329.127 591.594 329.287 591.928 329.58C592.274 329.873 592.448 330.26 592.448 330.74C592.448 331.273 592.228 331.707 591.788 332.04C591.361 332.387 590.814 332.56 590.148 332.56ZM600.389 328.2C599.442 328.2 598.575 327.973 597.789 327.52C597.015 327.053 596.402 326.427 595.949 325.64C595.495 324.853 595.269 323.973 595.269 323C595.269 322.027 595.495 321.147 595.949 320.36C596.402 319.573 597.015 318.953 597.789 318.5C598.575 318.033 599.442 317.8 600.389 317.8C601.349 317.8 602.215 318.033 602.989 318.5C603.762 318.953 604.375 319.573 604.829 320.36C605.282 321.147 605.509 322.027 605.509 323C605.509 323.973 605.282 324.853 604.829 325.64C604.375 326.427 603.762 327.053 602.989 327.52C602.215 327.973 601.349 328.2 600.389 328.2ZM600.389 326.88C601.069 326.88 601.682 326.707 602.229 326.36C602.789 326.013 603.229 325.547 603.549 324.96C603.882 324.373 604.049 323.72 604.049 323C604.049 322.267 603.882 321.613 603.549 321.04C603.229 320.453 602.789 319.987 602.229 319.64C601.682 319.293 601.069 319.12 600.389 319.12C599.709 319.12 599.089 319.293 598.529 319.64C597.982 319.987 597.542 320.453 597.209 321.04C596.889 321.613 596.729 322.267 596.729 323C596.729 323.72 596.889 324.373 597.209 324.96C597.542 325.547 597.982 326.013 598.529 326.36C599.089 326.707 599.709 326.88 600.389 326.88ZM598.069 316.1L597.029 315.9C597.322 314.567 597.949 313.9 598.909 313.9C599.269 313.9 599.615 313.993 599.949 314.18C600.295 314.353 600.622 314.533 600.929 314.72C601.235 314.907 601.529 315 601.809 315C602.035 315 602.215 314.913 602.349 314.74C602.495 314.567 602.615 314.273 602.709 313.86L603.729 314.06C603.595 314.727 603.369 315.227 603.049 315.56C602.729 315.893 602.329 316.06 601.849 316.06C601.502 316.06 601.155 315.967 600.809 315.78C600.475 315.593 600.149 315.413 599.829 315.24C599.522 315.053 599.229 314.96 598.949 314.96C598.709 314.96 598.522 315.047 598.389 315.22C598.255 315.393 598.149 315.687 598.069 316.1ZM612.265 328.18C611.305 328.18 610.431 327.953 609.645 327.5C608.871 327.033 608.251 326.407 607.785 325.62C607.331 324.833 607.105 323.953 607.105 322.98C607.105 322.02 607.325 321.153 607.765 320.38C608.205 319.593 608.798 318.973 609.545 318.52C610.291 318.053 611.125 317.82 612.045 317.82C612.938 317.82 613.738 318.053 614.445 318.52C615.165 318.973 615.731 319.593 616.145 320.38C616.571 321.153 616.785 322.02 616.785 322.98V323.44H608.565C608.645 324.093 608.851 324.68 609.185 325.2C609.531 325.72 609.978 326.133 610.525 326.44C611.071 326.733 611.671 326.88 612.325 326.88C612.845 326.88 613.351 326.8 613.845 326.64C614.338 326.48 614.751 326.253 615.085 325.96L616.005 326.94C615.445 327.353 614.858 327.667 614.245 327.88C613.645 328.08 612.985 328.18 612.265 328.18ZM608.605 322.26H615.305C615.225 321.66 615.025 321.127 614.705 320.66C614.398 320.18 614.011 319.807 613.545 319.54C613.078 319.26 612.565 319.12 612.005 319.12C611.431 319.12 610.905 319.253 610.425 319.52C609.945 319.787 609.545 320.16 609.225 320.64C608.905 321.107 608.698 321.647 608.605 322.26ZM622.151 328.2C621.325 328.2 620.545 328.067 619.811 327.8C619.091 327.52 618.465 327.133 617.931 326.64L618.831 325.68C619.298 326.107 619.811 326.44 620.371 326.68C620.931 326.907 621.505 327.02 622.091 327.02C622.891 327.02 623.545 326.853 624.051 326.52C624.558 326.187 624.811 325.753 624.811 325.22C624.811 324.78 624.658 324.44 624.351 324.2C624.058 323.947 623.591 323.773 622.951 323.68L621.211 323.44C620.211 323.293 619.465 322.993 618.971 322.54C618.491 322.087 618.251 321.473 618.251 320.7C618.251 320.14 618.411 319.64 618.731 319.2C619.051 318.76 619.491 318.413 620.051 318.16C620.625 317.907 621.278 317.78 622.011 317.78C622.745 317.78 623.431 317.887 624.071 318.1C624.711 318.313 625.338 318.647 625.951 319.1L625.171 320.1C624.611 319.713 624.065 319.433 623.531 319.26C623.011 319.073 622.478 318.98 621.931 318.98C621.238 318.98 620.678 319.133 620.251 319.44C619.825 319.747 619.611 320.147 619.611 320.64C619.611 321.093 619.758 321.44 620.051 321.68C620.345 321.907 620.818 322.067 621.471 322.16L623.211 322.4C624.211 322.533 624.958 322.827 625.451 323.28C625.958 323.733 626.211 324.353 626.211 325.14C626.211 325.713 626.031 326.233 625.671 326.7C625.311 327.167 624.825 327.533 624.211 327.8C623.611 328.067 622.925 328.2 622.151 328.2ZM636.814 328.18C635.867 328.18 635.007 327.953 634.234 327.5C633.461 327.033 632.847 326.407 632.394 325.62C631.941 324.833 631.714 323.953 631.714 322.98C631.714 322.007 631.941 321.133 632.394 320.36C632.847 319.573 633.461 318.947 634.234 318.48C635.007 318.013 635.867 317.78 636.814 317.78C637.547 317.78 638.254 317.92 638.934 318.2C639.614 318.467 640.214 318.853 640.734 319.36L639.794 320.44C639.394 320.013 638.934 319.693 638.414 319.48C637.907 319.253 637.381 319.14 636.834 319.14C636.154 319.14 635.534 319.313 634.974 319.66C634.427 319.993 633.987 320.453 633.654 321.04C633.334 321.613 633.174 322.26 633.174 322.98C633.174 323.7 633.334 324.353 633.654 324.94C633.987 325.527 634.434 325.993 634.994 326.34C635.554 326.673 636.174 326.84 636.854 326.84C637.401 326.84 637.914 326.733 638.394 326.52C638.887 326.307 639.347 325.993 639.774 325.58L640.694 326.58C640.161 327.087 639.561 327.48 638.894 327.76C638.227 328.04 637.534 328.18 636.814 328.18ZM646.795 328.2C645.848 328.2 644.982 327.973 644.195 327.52C643.422 327.053 642.808 326.427 642.355 325.64C641.902 324.853 641.675 323.973 641.675 323C641.675 322.027 641.902 321.147 642.355 320.36C642.808 319.573 643.422 318.953 644.195 318.5C644.982 318.033 645.848 317.8 646.795 317.8C647.755 317.8 648.622 318.033 649.395 318.5C650.168 318.953 650.782 319.573 651.235 320.36C651.688 321.147 651.915 322.027 651.915 323C651.915 323.973 651.688 324.853 651.235 325.64C650.782 326.427 650.168 327.053 649.395 327.52C648.622 327.973 647.755 328.2 646.795 328.2ZM646.795 326.88C647.475 326.88 648.088 326.707 648.635 326.36C649.195 326.013 649.635 325.547 649.955 324.96C650.288 324.373 650.455 323.72 650.455 323C650.455 322.267 650.288 321.613 649.955 321.04C649.635 320.453 649.195 319.987 648.635 319.64C648.088 319.293 647.475 319.12 646.795 319.12C646.115 319.12 645.495 319.293 644.935 319.64C644.388 319.987 643.948 320.453 643.615 321.04C643.295 321.613 643.135 322.267 643.135 323C643.135 323.72 643.295 324.373 643.615 324.96C643.948 325.547 644.388 326.013 644.935 326.36C645.495 326.707 646.115 326.88 646.795 326.88ZM653.971 328V317.98H655.451V319.08C656.211 318.213 657.191 317.78 658.391 317.78C659.098 317.78 659.724 317.947 660.271 318.28C660.818 318.6 661.244 319.04 661.551 319.6C661.964 318.987 662.458 318.533 663.031 318.24C663.604 317.933 664.258 317.78 664.991 317.78C665.724 317.78 666.364 317.947 666.911 318.28C667.458 318.6 667.884 319.053 668.191 319.64C668.511 320.213 668.671 320.887 668.671 321.66V328H667.211V321.96C667.211 321.067 666.978 320.367 666.511 319.86C666.044 319.34 665.411 319.08 664.611 319.08C664.064 319.08 663.564 319.22 663.111 319.5C662.658 319.767 662.271 320.173 661.951 320.72C661.978 320.867 661.998 321.02 662.011 321.18C662.038 321.327 662.051 321.487 662.051 321.66V328H660.591V321.96C660.591 321.067 660.358 320.367 659.891 319.86C659.424 319.34 658.798 319.08 658.011 319.08C657.478 319.08 656.991 319.207 656.551 319.46C656.124 319.7 655.758 320.06 655.451 320.54V328H653.971ZM674.275 328L680.075 314H681.935L687.695 328H686.015L684.255 323.6H677.655L675.875 328H674.275ZM678.195 322.28H683.715L680.955 315.42L678.195 322.28ZM689.31 328V314H695.39C696.31 314 697.103 314.167 697.77 314.5C698.45 314.833 698.976 315.307 699.35 315.92C699.723 316.52 699.91 317.227 699.91 318.04C699.91 318.853 699.723 319.567 699.35 320.18C698.976 320.78 698.45 321.253 697.77 321.6C697.09 321.933 696.296 322.1 695.39 322.1H690.85V328H689.31ZM690.85 320.76H695.27C696.216 320.76 696.97 320.52 697.53 320.04C698.09 319.547 698.37 318.887 698.37 318.06C698.37 317.233 698.09 316.58 697.53 316.1C696.97 315.62 696.216 315.38 695.27 315.38H690.85V320.76ZM702.259 328V314H703.799V328H702.259ZM709.808 328.2C708.981 328.2 708.201 328.067 707.468 327.8C706.748 327.52 706.121 327.133 705.588 326.64L706.488 325.68C706.954 326.107 707.468 326.44 708.028 326.68C708.588 326.907 709.161 327.02 709.748 327.02C710.548 327.02 711.201 326.853 711.708 326.52C712.214 326.187 712.468 325.753 712.468 325.22C712.468 324.78 712.314 324.44 712.008 324.2C711.714 323.947 711.248 323.773 710.608 323.68L708.868 323.44C707.868 323.293 707.121 322.993 706.628 322.54C706.148 322.087 705.908 321.473 705.908 320.7C705.908 320.14 706.068 319.64 706.388 319.2C706.708 318.76 707.148 318.413 707.708 318.16C708.281 317.907 708.934 317.78 709.668 317.78C710.401 317.78 711.088 317.887 711.728 318.1C712.368 318.313 712.994 318.647 713.608 319.1L712.828 320.1C712.268 319.713 711.721 319.433 711.188 319.26C710.668 319.073 710.134 318.98 709.588 318.98C708.894 318.98 708.334 319.133 707.908 319.44C707.481 319.747 707.268 320.147 707.268 320.64C707.268 321.093 707.414 321.44 707.708 321.68C708.001 321.907 708.474 322.067 709.128 322.16L710.868 322.4C711.868 322.533 712.614 322.827 713.108 323.28C713.614 323.733 713.868 324.353 713.868 325.14C713.868 325.713 713.688 326.233 713.328 326.7C712.968 327.167 712.481 327.533 711.868 327.8C711.268 328.067 710.581 328.2 709.808 328.2ZM714.958 330.74L716.118 326.52H717.718L716.118 330.74H714.958ZM727.835 328.2C727.008 328.2 726.228 328.067 725.495 327.8C724.775 327.52 724.148 327.133 723.615 326.64L724.515 325.68C724.982 326.107 725.495 326.44 726.055 326.68C726.615 326.907 727.188 327.02 727.775 327.02C728.575 327.02 729.228 326.853 729.735 326.52C730.242 326.187 730.495 325.753 730.495 325.22C730.495 324.78 730.342 324.44 730.035 324.2C729.742 323.947 729.275 323.773 728.635 323.68L726.895 323.44C725.895 323.293 725.148 322.993 724.655 322.54C724.175 322.087 723.935 321.473 723.935 320.7C723.935 320.14 724.095 319.64 724.415 319.2C724.735 318.76 725.175 318.413 725.735 318.16C726.308 317.907 726.962 317.78 727.695 317.78C728.428 317.78 729.115 317.887 729.755 318.1C730.395 318.313 731.022 318.647 731.635 319.1L730.855 320.1C730.295 319.713 729.748 319.433 729.215 319.26C728.695 319.073 728.162 318.98 727.615 318.98C726.922 318.98 726.362 319.133 725.935 319.44C725.508 319.747 725.295 320.147 725.295 320.64C725.295 321.093 725.442 321.44 725.735 321.68C726.028 321.907 726.502 322.067 727.155 322.16L728.895 322.4C729.895 322.533 730.642 322.827 731.135 323.28C731.642 323.733 731.895 324.353 731.895 325.14C731.895 325.713 731.715 326.233 731.355 326.7C730.995 327.167 730.508 327.533 729.895 327.8C729.295 328.067 728.608 328.2 727.835 328.2ZM738.318 328.2C737.372 328.2 736.505 327.973 735.718 327.52C734.945 327.053 734.332 326.427 733.878 325.64C733.425 324.853 733.198 323.973 733.198 323C733.198 322.027 733.425 321.147 733.878 320.36C734.332 319.573 734.945 318.953 735.718 318.5C736.505 318.033 737.372 317.8 738.318 317.8C739.278 317.8 740.145 318.033 740.918 318.5C741.692 318.953 742.305 319.573 742.758 320.36C743.212 321.147 743.438 322.027 743.438 323C743.438 323.973 743.212 324.853 742.758 325.64C742.305 326.427 741.692 327.053 740.918 327.52C740.145 327.973 739.278 328.2 738.318 328.2ZM738.318 326.88C738.998 326.88 739.612 326.707 740.158 326.36C740.718 326.013 741.158 325.547 741.478 324.96C741.812 324.373 741.978 323.72 741.978 323C741.978 322.267 741.812 321.613 741.478 321.04C741.158 320.453 740.718 319.987 740.158 319.64C739.612 319.293 738.998 319.12 738.318 319.12C737.638 319.12 737.018 319.293 736.458 319.64C735.912 319.987 735.472 320.453 735.138 321.04C734.818 321.613 734.658 322.267 734.658 323C734.658 323.72 734.818 324.373 735.138 324.96C735.472 325.547 735.912 326.013 736.458 326.36C737.018 326.707 737.638 326.88 738.318 326.88ZM745.494 328V314L746.974 313.66V328H745.494ZM753.338 328.2C752.578 328.2 751.905 328.04 751.318 327.72C750.732 327.387 750.272 326.933 749.938 326.36C749.618 325.773 749.458 325.093 749.458 324.32V317.98H750.918V324.02C750.918 324.913 751.172 325.62 751.678 326.14C752.185 326.647 752.865 326.9 753.718 326.9C754.318 326.9 754.852 326.767 755.318 326.5C755.798 326.22 756.185 325.833 756.478 325.34V317.98H757.958V328H756.478V326.84C755.692 327.747 754.645 328.2 753.338 328.2ZM764.855 332.56C763.935 332.56 763.182 332.287 762.595 331.74L763.195 331.1C763.702 331.527 764.255 331.74 764.855 331.74C765.255 331.74 765.568 331.647 765.795 331.46C766.022 331.287 766.135 331.053 766.135 330.76C766.135 330.467 766.008 330.233 765.755 330.06C765.515 329.9 765.182 329.82 764.755 329.82H764.175L764.655 328.16C763.775 328.08 762.982 327.807 762.275 327.34C761.582 326.86 761.028 326.247 760.615 325.5C760.215 324.74 760.015 323.9 760.015 322.98C760.015 322.007 760.242 321.133 760.695 320.36C761.148 319.573 761.762 318.947 762.535 318.48C763.308 318.013 764.168 317.78 765.115 317.78C765.848 317.78 766.555 317.92 767.235 318.2C767.915 318.467 768.515 318.853 769.035 319.36L768.095 320.44C767.695 320.013 767.235 319.693 766.715 319.48C766.208 319.253 765.682 319.14 765.135 319.14C764.455 319.14 763.835 319.313 763.275 319.66C762.728 319.993 762.288 320.453 761.955 321.04C761.635 321.613 761.475 322.26 761.475 322.98C761.475 323.7 761.635 324.353 761.955 324.94C762.288 325.527 762.735 325.993 763.295 326.34C763.855 326.673 764.475 326.84 765.155 326.84C765.702 326.84 766.215 326.733 766.695 326.52C767.188 326.307 767.648 325.993 768.075 325.58L768.995 326.58C768.515 327.033 767.975 327.4 767.375 327.68C766.788 327.947 766.168 328.107 765.515 328.16L765.255 329.1C765.842 329.127 766.302 329.287 766.635 329.58C766.982 329.873 767.155 330.26 767.155 330.74C767.155 331.273 766.935 331.707 766.495 332.04C766.068 332.387 765.522 332.56 764.855 332.56ZM775.096 328.2C774.149 328.2 773.282 327.973 772.496 327.52C771.722 327.053 771.109 326.427 770.656 325.64C770.202 324.853 769.976 323.973 769.976 323C769.976 322.027 770.202 321.147 770.656 320.36C771.109 319.573 771.722 318.953 772.496 318.5C773.282 318.033 774.149 317.8 775.096 317.8C776.056 317.8 776.922 318.033 777.696 318.5C778.469 318.953 779.082 319.573 779.536 320.36C779.989 321.147 780.216 322.027 780.216 323C780.216 323.973 779.989 324.853 779.536 325.64C779.082 326.427 778.469 327.053 777.696 327.52C776.922 327.973 776.056 328.2 775.096 328.2ZM775.096 326.88C775.776 326.88 776.389 326.707 776.936 326.36C777.496 326.013 777.936 325.547 778.256 324.96C778.589 324.373 778.756 323.72 778.756 323C778.756 322.267 778.589 321.613 778.256 321.04C777.936 320.453 777.496 319.987 776.936 319.64C776.389 319.293 775.776 319.12 775.096 319.12C774.416 319.12 773.796 319.293 773.236 319.64C772.689 319.987 772.249 320.453 771.916 321.04C771.596 321.613 771.436 322.267 771.436 323C771.436 323.72 771.596 324.373 771.916 324.96C772.249 325.547 772.689 326.013 773.236 326.36C773.796 326.707 774.416 326.88 775.096 326.88ZM772.776 316.1L771.736 315.9C772.029 314.567 772.656 313.9 773.616 313.9C773.976 313.9 774.322 313.993 774.656 314.18C775.002 314.353 775.329 314.533 775.636 314.72C775.942 314.907 776.236 315 776.516 315C776.742 315 776.922 314.913 777.056 314.74C777.202 314.567 777.322 314.273 777.416 313.86L778.436 314.06C778.302 314.727 778.076 315.227 777.756 315.56C777.436 315.893 777.036 316.06 776.556 316.06C776.209 316.06 775.862 315.967 775.516 315.78C775.182 315.593 774.856 315.413 774.536 315.24C774.229 315.053 773.936 314.96 773.656 314.96C773.416 314.96 773.229 315.047 773.096 315.22C772.962 315.393 772.856 315.687 772.776 316.1ZM786.972 328.18C786.012 328.18 785.138 327.953 784.352 327.5C783.578 327.033 782.958 326.407 782.492 325.62C782.038 324.833 781.812 323.953 781.812 322.98C781.812 322.02 782.032 321.153 782.472 320.38C782.912 319.593 783.505 318.973 784.252 318.52C784.998 318.053 785.832 317.82 786.752 317.82C787.645 317.82 788.445 318.053 789.152 318.52C789.872 318.973 790.438 319.593 790.852 320.38C791.278 321.153 791.492 322.02 791.492 322.98V323.44H783.272C783.352 324.093 783.558 324.68 783.892 325.2C784.238 325.72 784.685 326.133 785.232 326.44C785.778 326.733 786.378 326.88 787.032 326.88C787.552 326.88 788.058 326.8 788.552 326.64C789.045 326.48 789.458 326.253 789.792 325.96L790.712 326.94C790.152 327.353 789.565 327.667 788.952 327.88C788.352 328.08 787.692 328.18 786.972 328.18ZM783.312 322.26H790.012C789.932 321.66 789.732 321.127 789.412 320.66C789.105 320.18 788.718 319.807 788.252 319.54C787.785 319.26 787.272 319.12 786.712 319.12C786.138 319.12 785.612 319.253 785.132 319.52C784.652 319.787 784.252 320.16 783.932 320.64C783.612 321.107 783.405 321.647 783.312 322.26ZM796.858 328.2C796.032 328.2 795.252 328.067 794.518 327.8C793.798 327.52 793.172 327.133 792.638 326.64L793.538 325.68C794.005 326.107 794.518 326.44 795.078 326.68C795.638 326.907 796.212 327.02 796.798 327.02C797.598 327.02 798.252 326.853 798.758 326.52C799.265 326.187 799.518 325.753 799.518 325.22C799.518 324.78 799.365 324.44 799.058 324.2C798.765 323.947 798.298 323.773 797.658 323.68L795.918 323.44C794.918 323.293 794.172 322.993 793.678 322.54C793.198 322.087 792.958 321.473 792.958 320.7C792.958 320.14 793.118 319.64 793.438 319.2C793.758 318.76 794.198 318.413 794.758 318.16C795.332 317.907 795.985 317.78 796.718 317.78C797.452 317.78 798.138 317.887 798.778 318.1C799.418 318.313 800.045 318.647 800.658 319.1L799.878 320.1C799.318 319.713 798.772 319.433 798.238 319.26C797.718 319.073 797.185 318.98 796.638 318.98C795.945 318.98 795.385 319.133 794.958 319.44C794.532 319.747 794.318 320.147 794.318 320.64C794.318 321.093 794.465 321.44 794.758 321.68C795.052 321.907 795.525 322.067 796.178 322.16L797.918 322.4C798.918 322.533 799.665 322.827 800.158 323.28C800.665 323.733 800.918 324.353 800.918 325.14C800.918 325.713 800.738 326.233 800.378 326.7C800.018 327.167 799.532 327.533 798.918 327.8C798.318 328.067 797.632 328.2 796.858 328.2ZM811.581 328.18C810.621 328.18 809.748 327.953 808.961 327.5C808.188 327.033 807.568 326.407 807.101 325.62C806.648 324.833 806.421 323.953 806.421 322.98C806.421 322.02 806.641 321.153 807.081 320.38C807.521 319.593 808.114 318.973 808.861 318.52C809.608 318.053 810.441 317.82 811.361 317.82C812.254 317.82 813.054 318.053 813.761 318.52C814.481 318.973 815.048 319.593 815.461 320.38C815.888 321.153 816.101 322.02 816.101 322.98V323.44H807.881C807.961 324.093 808.168 324.68 808.501 325.2C808.848 325.72 809.294 326.133 809.841 326.44C810.388 326.733 810.988 326.88 811.641 326.88C812.161 326.88 812.668 326.8 813.161 326.64C813.654 326.48 814.068 326.253 814.401 325.96L815.321 326.94C814.761 327.353 814.174 327.667 813.561 327.88C812.961 328.08 812.301 328.18 811.581 328.18ZM807.921 322.26H814.621C814.541 321.66 814.341 321.127 814.021 320.66C813.714 320.18 813.328 319.807 812.861 319.54C812.394 319.26 811.881 319.12 811.321 319.12C810.748 319.12 810.221 319.253 809.741 319.52C809.261 319.787 808.861 320.16 808.541 320.64C808.221 321.107 808.014 321.647 807.921 322.26ZM818.17 328V317.98H819.65V319.08C820.41 318.213 821.39 317.78 822.59 317.78C823.297 317.78 823.923 317.947 824.47 318.28C825.017 318.6 825.443 319.04 825.75 319.6C826.163 318.987 826.657 318.533 827.23 318.24C827.803 317.933 828.457 317.78 829.19 317.78C829.923 317.78 830.563 317.947 831.11 318.28C831.657 318.6 832.083 319.053 832.39 319.64C832.71 320.213 832.87 320.887 832.87 321.66V328H831.41V321.96C831.41 321.067 831.177 320.367 830.71 319.86C830.243 319.34 829.61 319.08 828.81 319.08C828.263 319.08 827.763 319.22 827.31 319.5C826.857 319.767 826.47 320.173 826.15 320.72C826.177 320.867 826.197 321.02 826.21 321.18C826.237 321.327 826.25 321.487 826.25 321.66V328H824.79V321.96C824.79 321.067 824.557 320.367 824.09 319.86C823.623 319.34 822.997 319.08 822.21 319.08C821.677 319.08 821.19 319.207 820.75 319.46C820.323 319.7 819.957 320.06 819.65 320.54V328H818.17ZM839.655 328V317.98H841.135V319.16C841.921 318.24 842.975 317.78 844.295 317.78C845.055 317.78 845.721 317.947 846.295 318.28C846.881 318.6 847.335 319.053 847.655 319.64C847.988 320.213 848.155 320.887 848.155 321.66V328H846.695V321.96C846.695 321.067 846.441 320.367 845.935 319.86C845.441 319.34 844.761 319.08 843.895 319.08C843.295 319.08 842.761 319.213 842.295 319.48C841.828 319.747 841.441 320.127 841.135 320.62V328H839.655ZM854.373 328.2C853.613 328.2 852.94 328.04 852.353 327.72C851.767 327.387 851.307 326.933 850.973 326.36C850.653 325.773 850.493 325.093 850.493 324.32V317.98H851.953V324.02C851.953 324.913 852.207 325.62 852.713 326.14C853.22 326.647 853.9 326.9 854.753 326.9C855.353 326.9 855.887 326.767 856.353 326.5C856.833 326.22 857.22 325.833 857.513 325.34V317.98H858.993V328H857.513V326.84C856.727 327.747 855.68 328.2 854.373 328.2ZM864.69 328L860.35 317.98H861.99L865.41 326.08L868.83 317.98H870.41L866.09 328H864.69ZM876.171 328.18C875.211 328.18 874.338 327.953 873.551 327.5C872.778 327.033 872.158 326.407 871.691 325.62C871.238 324.833 871.011 323.953 871.011 322.98C871.011 322.02 871.231 321.153 871.671 320.38C872.111 319.593 872.704 318.973 873.451 318.52C874.198 318.053 875.031 317.82 875.951 317.82C876.844 317.82 877.644 318.053 878.351 318.52C879.071 318.973 879.638 319.593 880.051 320.38C880.478 321.153 880.691 322.02 880.691 322.98V323.44H872.471C872.551 324.093 872.758 324.68 873.091 325.2C873.438 325.72 873.884 326.133 874.431 326.44C874.978 326.733 875.578 326.88 876.231 326.88C876.751 326.88 877.258 326.8 877.751 326.64C878.244 326.48 878.658 326.253 878.991 325.96L879.911 326.94C879.351 327.353 878.764 327.667 878.151 327.88C877.551 328.08 876.891 328.18 876.171 328.18ZM872.511 322.26H879.211C879.131 321.66 878.931 321.127 878.611 320.66C878.304 320.18 877.918 319.807 877.451 319.54C876.984 319.26 876.471 319.12 875.911 319.12C875.338 319.12 874.811 319.253 874.331 319.52C873.851 319.787 873.451 320.16 873.131 320.64C872.811 321.107 872.604 321.647 872.511 322.26ZM882.76 328V317.98H884.24V319.08C885 318.213 885.98 317.78 887.18 317.78C887.887 317.78 888.513 317.947 889.06 318.28C889.607 318.6 890.033 319.04 890.34 319.6C890.753 318.987 891.247 318.533 891.82 318.24C892.393 317.933 893.047 317.78 893.78 317.78C894.513 317.78 895.153 317.947 895.7 318.28C896.247 318.6 896.673 319.053 896.98 319.64C897.3 320.213 897.46 320.887 897.46 321.66V328H896V321.96C896 321.067 895.767 320.367 895.3 319.86C894.833 319.34 894.2 319.08 893.4 319.08C892.853 319.08 892.353 319.22 891.9 319.5C891.447 319.767 891.06 320.173 890.74 320.72C890.767 320.867 890.787 321.02 890.8 321.18C890.827 321.327 890.84 321.487 890.84 321.66V328H889.38V321.96C889.38 321.067 889.147 320.367 888.68 319.86C888.213 319.34 887.587 319.08 886.8 319.08C886.267 319.08 885.78 319.207 885.34 319.46C884.913 319.7 884.547 320.06 884.24 320.54V328H882.76ZM908.944 328.18C907.984 328.18 907.111 327.953 906.324 327.5C905.551 327.033 904.931 326.407 904.464 325.62C904.011 324.833 903.784 323.953 903.784 322.98C903.784 322.02 904.004 321.153 904.444 320.38C904.884 319.593 905.478 318.973 906.224 318.52C906.971 318.053 907.804 317.82 908.724 317.82C909.618 317.82 910.418 318.053 911.124 318.52C911.844 318.973 912.411 319.593 912.824 320.38C913.251 321.153 913.464 322.02 913.464 322.98V323.44H905.244C905.324 324.093 905.531 324.68 905.864 325.2C906.211 325.72 906.658 326.133 907.204 326.44C907.751 326.733 908.351 326.88 909.004 326.88C909.524 326.88 910.031 326.8 910.524 326.64C911.018 326.48 911.431 326.253 911.764 325.96L912.684 326.94C912.124 327.353 911.538 327.667 910.924 327.88C910.324 328.08 909.664 328.18 908.944 328.18ZM905.284 322.26H911.984C911.904 321.66 911.704 321.127 911.384 320.66C911.078 320.18 910.691 319.807 910.224 319.54C909.758 319.26 909.244 319.12 908.684 319.12C908.111 319.12 907.584 319.253 907.104 319.52C906.624 319.787 906.224 320.16 905.904 320.64C905.584 321.107 905.378 321.647 905.284 322.26ZM919.83 328V317.98H921.31V319.08C922.07 318.213 923.05 317.78 924.25 317.78C924.957 317.78 925.584 317.947 926.13 318.28C926.677 318.6 927.104 319.04 927.41 319.6C927.824 318.987 928.317 318.533 928.89 318.24C929.464 317.933 930.117 317.78 930.85 317.78C931.584 317.78 932.224 317.947 932.77 318.28C933.317 318.6 933.744 319.053 934.05 319.64C934.37 320.213 934.53 320.887 934.53 321.66V328H933.07V321.96C933.07 321.067 932.837 320.367 932.37 319.86C931.904 319.34 931.27 319.08 930.47 319.08C929.924 319.08 929.424 319.22 928.97 319.5C928.517 319.767 928.13 320.173 927.81 320.72C927.837 320.867 927.857 321.02 927.87 321.18C927.897 321.327 927.91 321.487 927.91 321.66V328H926.45V321.96C926.45 321.067 926.217 320.367 925.75 319.86C925.284 319.34 924.657 319.08 923.87 319.08C923.337 319.08 922.85 319.207 922.41 319.46C921.984 319.7 921.617 320.06 921.31 320.54V328H919.83ZM940.178 328.18C939.444 328.18 938.798 328.053 938.238 327.8C937.691 327.547 937.258 327.193 936.938 326.74C936.631 326.287 936.478 325.76 936.478 325.16C936.478 324.213 936.838 323.467 937.558 322.92C938.278 322.373 939.251 322.1 940.478 322.1C941.558 322.1 942.538 322.327 943.418 322.78V321.46C943.418 320.66 943.191 320.06 942.738 319.66C942.284 319.247 941.624 319.04 940.758 319.04C940.264 319.04 939.764 319.113 939.258 319.26C938.764 319.393 938.218 319.613 937.618 319.92L937.058 318.78C937.778 318.433 938.444 318.18 939.058 318.02C939.671 317.86 940.284 317.78 940.898 317.78C942.164 317.78 943.138 318.08 943.818 318.68C944.511 319.28 944.858 320.14 944.858 321.26V328H943.418V327.02C942.964 327.407 942.464 327.7 941.918 327.9C941.384 328.087 940.804 328.18 940.178 328.18ZM937.898 325.12C937.898 325.68 938.131 326.14 938.598 326.5C939.078 326.847 939.691 327.02 940.438 327.02C941.038 327.02 941.584 326.927 942.078 326.74C942.571 326.553 943.018 326.26 943.418 325.86V323.98C943.004 323.7 942.564 323.5 942.098 323.38C941.631 323.247 941.104 323.18 940.518 323.18C939.718 323.18 939.078 323.36 938.598 323.72C938.131 324.067 937.898 324.533 937.898 325.12ZM947.33 328V317.98H948.81V328H947.33ZM948.07 316.06C947.804 316.06 947.57 315.96 947.37 315.76C947.17 315.56 947.07 315.327 947.07 315.06C947.07 314.78 947.17 314.547 947.37 314.36C947.57 314.16 947.804 314.06 948.07 314.06C948.35 314.06 948.584 314.16 948.77 314.36C948.97 314.547 949.07 314.78 949.07 315.06C949.07 315.327 948.97 315.56 948.77 315.76C948.584 315.96 948.35 316.06 948.07 316.06ZM954.534 328.2C953.708 328.2 952.928 328.067 952.194 327.8C951.474 327.52 950.848 327.133 950.314 326.64L951.214 325.68C951.681 326.107 952.194 326.44 952.754 326.68C953.314 326.907 953.888 327.02 954.474 327.02C955.274 327.02 955.928 326.853 956.434 326.52C956.941 326.187 957.194 325.753 957.194 325.22C957.194 324.78 957.041 324.44 956.734 324.2C956.441 323.947 955.974 323.773 955.334 323.68L953.594 323.44C952.594 323.293 951.848 322.993 951.354 322.54C950.874 322.087 950.634 321.473 950.634 320.7C950.634 320.14 950.794 319.64 951.114 319.2C951.434 318.76 951.874 318.413 952.434 318.16C953.008 317.907 953.661 317.78 954.394 317.78C955.128 317.78 955.814 317.887 956.454 318.1C957.094 318.313 957.721 318.647 958.334 319.1L957.554 320.1C956.994 319.713 956.448 319.433 955.914 319.26C955.394 319.073 954.861 318.98 954.314 318.98C953.621 318.98 953.061 319.133 952.634 319.44C952.208 319.747 951.994 320.147 951.994 320.64C951.994 321.093 952.141 321.44 952.434 321.68C952.728 321.907 953.201 322.067 953.854 322.16L955.594 322.4C956.594 322.533 957.341 322.827 957.834 323.28C958.341 323.733 958.594 324.353 958.594 325.14C958.594 325.713 958.414 326.233 958.054 326.7C957.694 327.167 957.208 327.533 956.594 327.8C955.994 328.067 955.308 328.2 954.534 328.2Z" fill="white"/>
</svg>
