<svg width="709" height="740" viewBox="0 0 709 740" fill="none" xmlns="http://www.w3.org/2000/svg">
<path d="M527.011 667.733C531.408 665.463 536.286 670.455 533.641 674.754C531.057 678.956 522.351 681.224 517.851 682.352C501.075 686.554 483.824 682.638 468.173 676.163C421.122 656.696 382.277 615.739 349.568 578.056C260.07 474.946 188.473 346.603 157.012 213.125C147.109 171.11 131.465 89.802 178.243 63.0423C226.061 35.6874 292.597 95.9973 323.699 126.377C426.892 227.173 506.303 362.32 547.133 500.448C560.42 545.397 585.791 647.18 531.845 676.486C527.697 678.74 522.812 674.377 524.854 670.014C527.093 665.232 535.281 661.652 538.733 657.074C547.401 645.581 550.322 630.654 551.06 616.574C553.469 570.624 537.407 523.489 521.171 481.233C476.5 364.972 396.459 222.678 311.558 131.261C285.254 102.938 225.662 44.1673 181.995 67.9604C131.641 95.3965 163.756 195.638 177.861 235.09C220.165 353.414 309.733 506.363 394.365 599.325C421.327 628.94 481.398 691.273 527.011 667.733Z" fill="url(#paint0_linear_76_2)"/>
<path d="M526.304 72.189C522.141 69.516 524.024 62.7958 529.07 62.9364C534.001 63.0738 540.319 69.4792 543.545 72.8126C555.572 85.2395 560.806 102.137 563.024 118.93C569.691 169.41 553.644 223.53 537.363 270.698C492.817 399.76 417.467 525.936 317.602 619.921C286.168 649.505 223.575 703.708 177.011 676.577C129.412 648.842 148.374 561.066 159.133 518.94C194.828 379.175 272.164 242.829 371.371 138.405C403.655 104.424 479.115 31.5604 531.468 63.6262C535.494 66.092 534.158 72.5037 529.359 72.9161C524.098 73.3681 516.903 68.068 511.212 67.367C496.925 65.6073 482.538 70.541 469.975 76.9419C428.977 97.8304 396.188 135.308 367.711 170.497C289.362 267.313 206.152 407.778 169.432 527.013C158.056 563.954 136.956 644.948 179.395 670.868C228.332 700.758 299.086 622.825 326.2 590.883C407.519 495.086 495.194 341.042 533.385 221.268C545.552 183.111 569.498 99.9209 526.304 72.189Z" fill="url(#paint1_linear_76_2)"/>
<path d="M698.576 369.757C698.81 364.814 705.571 363.086 707.972 367.526C710.319 371.864 707.93 380.539 706.657 384.999C701.908 401.629 689.891 414.611 676.458 424.927C636.074 455.942 581.181 469.104 532.192 478.589C398.148 504.542 251.201 502.374 119.875 462.881C78.5378 450.45 0.300447 423.345 0.514967 369.454C0.734258 314.364 86.2318 286.898 128.093 275.152C266.981 236.183 423.728 234.984 563.765 268.689C609.335 279.657 710.167 308.575 708.574 369.948C708.452 374.667 702.231 376.716 699.474 372.766C696.452 368.436 697.445 359.555 695.206 354.276C689.587 341.023 678.12 331.03 666.296 323.35C627.707 298.29 578.856 288.632 534.143 281.565C411.123 262.121 247.872 260.291 126.252 288.108C88.5714 296.727 7.87828 318.95 6.65007 368.664C5.23381 425.989 108.103 448.298 149.322 455.809C272.945 478.334 450.187 477.241 573.01 450.428C612.139 441.886 696.157 421.029 698.576 369.757Z" fill="url(#paint2_linear_76_2)"/>
<path d="M435 370C435 414.183 399.183 450 355 450C310.817 450 275 414.183 275 370C275 325.817 310.817 290 355 290C399.183 290 435 325.817 435 370Z" fill="url(#paint3_radial_76_2)"/>
<defs>
<linearGradient id="paint0_linear_76_2" x1="310.052" y1="104.694" x2="69.7935" y2="398.707" gradientUnits="userSpaceOnUse">
<stop stop-color="#9F1111"/>
<stop offset="1" stop-color="#6C1010"/>
</linearGradient>
<linearGradient id="paint1_linear_76_2" x1="147.178" y1="541.601" x2="521.93" y2="602.664" gradientUnits="userSpaceOnUse">
<stop stop-color="#9F1111"/>
<stop offset="1" stop-color="#6C1010"/>
</linearGradient>
<linearGradient id="paint2_linear_76_2" x1="102.491" y1="276.13" x2="236.984" y2="631.206" gradientUnits="userSpaceOnUse">
<stop stop-color="#9F1111"/>
<stop offset="1" stop-color="#6C1010"/>
</linearGradient>
<radialGradient id="paint3_radial_76_2" cx="0" cy="0" r="1" gradientUnits="userSpaceOnUse" gradientTransform="translate(377.5 336) rotate(110.666) scale(121.84 91.1324)">
<stop stop-color="#9F1111"/>
<stop offset="1" stop-color="#5E1313"/>
</radialGradient>
</defs>
</svg>
