<svg width="723" height="81" viewBox="0 0 723 81" fill="none" xmlns="http://www.w3.org/2000/svg">
<path d="M308.277 9.08128L308.277 9.08153C308.794 9.72315 309.071 10.5994 309.685 12.6241L309.685 12.6244L322.541 54.8528C317.933 52.5843 313.031 50.9669 307.976 50.0483L299.473 21.3116C299.473 21.3114 299.472 21.3111 299.472 21.3109C299.374 20.9752 299.17 20.6804 298.89 20.4708C298.609 20.261 298.269 20.1478 297.919 20.1482C297.569 20.1486 297.228 20.2626 296.948 20.473C296.669 20.6834 296.465 20.9788 296.368 21.3149C296.367 21.315 296.367 21.3151 296.367 21.3152L287.967 50.0334C282.888 50.9487 277.963 52.5688 273.335 54.8456L286.251 12.6162C286.871 10.5941 287.147 9.71915 287.663 9.07701C288.133 8.49605 288.744 8.04466 289.437 7.76561C290.199 7.45994 291.118 7.45119 293.233 7.45119H302.704C304.821 7.45119 305.74 7.45997 306.505 7.76783L306.505 7.76791C307.198 8.04674 307.808 8.4989 308.277 9.08128Z" fill="url(#paint0_linear_344_24)" stroke="#9F1111"/>
<path d="M285.981 60.8043L285.981 60.8046L285.981 60.8055L285.98 60.814L285.979 60.8528C285.977 60.8883 285.976 60.9425 285.975 61.0138C285.973 61.1565 285.975 61.3673 285.988 61.633C286.015 62.1648 286.087 62.9133 286.27 63.7729C286.585 65.2507 287.223 67.0352 288.501 68.6161C288.54 68.4834 288.586 68.3525 288.639 68.2242C288.838 67.7442 289.13 67.3081 289.497 66.9407C289.864 66.5734 290.3 66.282 290.78 66.0833C291.26 65.8845 291.775 65.7823 292.294 65.7824L285.981 60.8043ZM285.981 60.8043L285.981 60.8041L285.981 60.8043ZM286.286 57.689C287.212 58.7229 288.678 59.5782 290.444 60.2126C292.73 61.0343 295.609 61.5192 298.726 61.5192C303.366 61.5192 307.526 60.4427 309.96 58.7393C310.115 59.4056 310.193 60.0882 310.192 60.7738L310.192 60.7748C310.194 62.2683 309.822 63.7384 309.11 65.0514L309.11 65.0517C307.786 67.4985 305.868 68.7225 304.045 69.8776L304.045 69.8777L304.007 69.9014C302.89 70.6101 301.771 71.3193 300.944 72.2895C300.085 73.2967 299.554 74.5638 299.554 76.3554C299.554 76.3556 299.554 76.3558 299.554 76.356H300.054L286.286 57.689ZM286.286 57.689C286.046 58.813 285.982 59.9616 285.982 60.7742V60.7894L286.286 57.689ZM299.84 78.4267C297.573 77.0268 296.063 74.5198 296.063 71.6595L296.063 71.4553L296.063 71.4547L296.063 71.4036C296.064 70.2817 296.065 68.906 295.62 67.8106C295.386 67.2374 295.023 66.7183 294.461 66.3473C293.901 65.9772 293.186 65.7824 292.295 65.7824L299.84 78.4267Z" fill="url(#paint1_linear_344_24)" stroke="#9C1919"/>
<path d="M695 24.2727C679.661 24.2727 667.223 19.9406 667.223 14.221V67.779C667.223 73.2829 679.444 77.7459 694.609 77.8337H695C710.339 77.8337 722.777 73.4992 722.777 67.779V14.221C722.777 19.8102 710.339 24.2727 695 24.2727Z" fill="url(#paint2_linear_344_24)"/>
<path d="M722.777 14.221C722.777 19.8102 710.339 24.2733 695 24.2733C679.661 24.2733 667.223 19.9406 667.223 14.221C667.223 8.50081 679.661 4.16633 695 4.16633C710.339 4.16633 722.777 8.50081 722.777 14.221Z" fill="#9C1919"/>
<path d="M716.321 13.3971C716.321 16.951 706.743 19.8102 695 19.8102C683.257 19.8102 673.679 16.951 673.679 13.3971C673.679 9.84327 683.257 7.02734 695 7.02734C706.743 7.02734 716.321 9.88592 716.321 13.3971Z" fill="#570C0C"/>
<path d="M695 14.9992C689.281 14.854 683.579 15.6898 678.142 17.4702C683.584 19.2178 689.288 20.0095 695 19.8102C700.724 19.9773 706.432 19.1262 711.858 17.2965C706.405 15.5994 700.708 14.823 695 14.9992Z" fill="#2F0707"/>
<path d="M711.9 51.3996V36.668H707.999V54.5635H718.661V51.3996H711.9ZM680.961 44.1633C680.155 43.8394 679.408 43.3859 678.749 42.8208C678.574 42.6359 678.439 42.4178 678.349 42.1795C678.26 41.9412 678.22 41.6875 678.23 41.4333C678.217 41.1789 678.27 40.9254 678.384 40.6976C678.498 40.4698 678.669 40.2754 678.88 40.1335C679.413 39.7646 680.053 39.5816 680.701 39.6125C682.244 39.5438 683.767 39.9854 685.034 40.869V37.1439C683.65 36.6273 682.177 36.3917 680.701 36.451C679.001 36.3598 677.324 36.8818 675.976 37.9221C675.389 38.3751 674.918 38.9613 674.602 39.6321C674.285 40.303 674.133 41.0394 674.158 41.7806C674.158 43.9896 675.543 45.7227 678.49 47.0225C679.447 47.4295 680.349 47.953 681.178 48.5837C681.38 48.7535 681.543 48.9655 681.655 49.2048C681.768 49.4441 681.826 49.7051 681.827 49.9694C681.827 50.505 681.568 51.0047 681.134 51.3143C680.544 51.6589 679.865 51.8242 679.182 51.7902C677.44 51.7756 675.761 51.1286 674.46 49.9694V53.9992C675.891 54.7378 677.488 55.096 679.097 55.0394C680.913 55.1466 682.713 54.6445 684.21 53.6086C684.738 53.1081 685.143 52.4913 685.391 51.807C685.64 51.1228 685.725 50.3901 685.641 49.6671C685.662 48.5578 685.276 47.4791 684.557 46.6343C683.545 45.5678 682.319 44.7259 680.961 44.1633ZM703.667 51.0523C704.651 49.4049 705.147 47.5122 705.097 45.5941C704.999 43.9696 704.508 42.3931 703.667 41C702.991 39.6471 701.937 38.5188 700.634 37.7508C699.313 37.0015 697.819 36.6123 696.3 36.6223C694.663 36.587 693.047 36.9914 691.62 37.7935C690.282 38.5397 689.185 39.6521 688.457 41C687.689 42.5318 687.303 44.2261 687.33 45.939C687.339 47.4448 687.695 48.9283 688.371 50.2741C689.032 51.612 690.072 52.7267 691.36 53.48C692.669 54.2773 694.161 54.7249 695.693 54.7798L699.42 59.1125H704.664L699.332 54.3471C701.128 53.8084 702.667 52.6381 703.667 51.0523ZM699.332 49.9694C698.938 50.4594 698.436 50.8514 697.864 51.1145C697.293 51.3775 696.669 51.5046 696.04 51.4855C695.407 51.5064 694.777 51.3758 694.204 51.1046C693.631 50.8334 693.131 50.4294 692.746 49.9261C691.832 48.6743 691.387 47.1409 691.489 45.5941C691.389 44.0468 691.834 42.5135 692.746 41.2596C693.154 40.7567 693.669 40.3517 694.254 40.0743C694.839 39.7969 695.479 39.6543 696.126 39.6569C696.759 39.629 697.389 39.7612 697.957 40.0414C698.526 40.3215 699.014 40.7405 699.378 41.2596C700.231 42.5378 700.641 44.0603 700.547 45.5941C700.699 47.1527 700.266 48.7122 699.332 49.9694Z" fill="url(#paint3_linear_344_24)"/>
<path d="M593.322 20.7078L563.889 3.76718C563.402 3.4625 562.731 3.34062 562 3.34062C561.269 3.34062 560.598 3.52343 560.111 3.76718L530.861 20.7687C529.825 21.3781 529.094 22.9016 529.094 24.0594V58.0016C529.094 58.6719 529.216 59.4641 529.703 60.1344L594.784 22.3531C594.419 21.6219 593.87 21.0734 593.322 20.7078Z" fill="#570C0C"/>
<path d="M529.52 60.0734C529.825 60.5609 530.252 60.9875 530.678 61.2313L560.05 78.2328C560.537 78.5375 561.208 78.6594 561.939 78.6594C562.67 78.6594 563.341 78.4766 563.828 78.2328L593.078 61.2313C594.114 60.6219 594.845 59.0984 594.845 57.9406V23.9984C594.845 23.45 594.784 22.8406 594.48 22.2922L529.52 60.0734Z" fill="#9F1111"/>
<path d="M574.98 48.3734C572.42 52.8828 567.545 55.9297 562 55.9297C553.773 55.9297 547.07 49.2266 547.07 41C547.07 32.7734 553.773 26.0703 562 26.0703C567.545 26.0703 572.42 29.1172 574.98 33.6875L582.902 29.1172C578.758 21.8656 570.958 16.9297 562 16.9297C548.716 16.9297 537.93 27.7156 537.93 41C537.93 54.2844 548.716 65.0703 562 65.0703C570.897 65.0703 578.697 60.1953 582.841 53.0047L574.98 48.3734ZM582.109 42.3406L582.658 39.7203H580.098V36.8563H583.206L583.938 33.0781H586.923L586.192 36.7953H588.508L589.239 33.0781H592.164L591.433 36.7953H592.895V39.6594H590.884L590.336 42.2797H592.895V45.1438H589.787L589.056 48.8H586.07L586.802 45.1438H584.486L583.755 48.8H580.83L581.561 45.1438H580.098V42.2797H582.109V42.3406ZM585.034 42.3406H587.35L587.898 39.7203H585.583L585.034 42.3406Z" fill="#2F0707"/>
<path d="M166 45.9469C169.837 45.9469 172.947 42.8367 172.947 39C172.947 35.1633 169.837 32.0531 166 32.0531C162.163 32.0531 159.053 35.1633 159.053 39C159.053 42.8367 162.163 45.9469 166 45.9469Z" fill="url(#paint4_linear_344_24)"/>
<path d="M192.386 27.5437C191.045 27.0562 189.644 26.5688 188.181 26.1422C188.547 24.6797 188.852 23.2172 189.095 21.8156C190.375 13.7719 188.973 8.10469 185.073 5.91094C183.916 5.24062 182.636 4.93594 181.173 4.93594C176.908 4.93594 171.484 8.10469 166 13.4062C160.516 8.10469 155.092 4.93594 150.827 4.93594C149.364 4.93594 148.084 5.24062 146.927 5.91094C143.027 8.16562 141.625 13.8328 142.905 21.8156C143.148 23.2172 143.453 24.6797 143.819 26.1422C142.356 26.5688 140.955 26.9953 139.614 27.5437C131.997 30.4688 127.853 34.4906 127.853 39C127.853 43.5094 132.058 47.5313 139.614 50.4563C140.955 50.9438 142.356 51.4313 143.819 51.8578C143.453 53.3203 143.148 54.7828 142.905 56.1844C141.625 64.2281 143.027 69.8953 146.927 72.0891C148.084 72.7594 149.364 73.0641 150.827 73.0641C155.153 73.0641 160.577 69.8953 166 64.5938C171.484 69.8953 176.908 73.0641 181.173 73.0641C182.636 73.0641 183.916 72.7594 185.073 72.0891C188.973 69.8344 190.375 64.1672 189.095 56.1844C188.852 54.7828 188.547 53.3203 188.181 51.8578C189.644 51.4313 191.045 51.0047 192.386 50.4563C200.003 47.5313 204.147 43.5094 204.147 39C204.147 34.4906 200.003 30.4688 192.386 27.5437ZM183.367 8.95781C185.866 10.4203 186.719 14.9297 185.683 21.3281C185.5 22.6078 185.195 23.9484 184.83 25.35C181.661 24.6188 178.309 24.1312 174.775 23.8266C172.703 20.9016 170.57 18.2812 168.437 15.9047C172.947 11.4562 177.517 8.40937 181.234 8.40937C182.027 8.40937 182.758 8.59219 183.367 8.95781ZM176.542 45.0938C175.445 47.0438 174.166 48.9938 172.825 50.9438C170.57 51.1266 168.316 51.1875 166 51.1875C163.623 51.1875 161.369 51.1266 159.175 50.9438C157.834 48.9938 156.616 47.0438 155.519 45.0938C154.361 43.0828 153.264 41.0109 152.289 39C153.264 36.9891 154.361 34.9172 155.519 32.9063C156.616 30.9563 157.895 29.0063 159.236 27.0563C161.491 26.8734 163.745 26.8125 166.061 26.8125C168.437 26.8125 170.692 26.8734 172.886 27.0563C174.227 29.0063 175.445 30.9563 176.542 32.9063C177.7 34.9172 178.797 36.9891 179.772 39C178.736 41.0109 177.7 43.0219 176.542 45.0938ZM181.6 43.0828C182.514 45.2156 183.245 47.2875 183.916 49.3594C181.844 49.8469 179.65 50.2125 177.334 50.5172C178.066 49.3594 178.858 48.1406 179.528 46.8609C180.259 45.5813 180.93 44.3016 181.6 43.0828ZM166 59.5969C164.537 58.0125 163.136 56.3063 161.795 54.5391C163.197 54.6 164.598 54.6609 166 54.6609C167.402 54.6609 168.803 54.6 170.205 54.5391C168.864 56.3063 167.462 58.0125 166 59.5969ZM154.666 50.4563C152.35 50.1516 150.156 49.7859 148.084 49.2984C148.755 47.2875 149.486 45.1547 150.4 43.0219C151.07 44.2406 151.741 45.5203 152.472 46.7391C153.203 48.0797 153.934 49.2375 154.666 50.4563ZM150.4 34.9172C149.486 32.7844 148.755 30.7125 148.084 28.6406C150.156 28.1531 152.35 27.7875 154.666 27.4828C153.934 28.6406 153.142 29.8594 152.472 31.1391C151.741 32.4188 151.07 33.6984 150.4 34.9172ZM166 18.4031C167.462 19.9875 168.864 21.6937 170.205 23.4609C168.803 23.4 167.402 23.3391 166 23.3391C164.598 23.3391 163.197 23.4 161.795 23.4609C163.136 21.6937 164.537 19.9875 166 18.4031ZM179.528 31.2L177.334 27.5437C179.65 27.8484 181.844 28.2141 183.916 28.7016C183.245 30.7125 182.514 32.8453 181.6 34.9781C180.93 33.6984 180.259 32.4188 179.528 31.2ZM146.317 21.3281C145.281 14.9297 146.134 10.4203 148.633 8.95781C149.242 8.59219 149.973 8.40937 150.766 8.40937C154.422 8.40937 158.992 11.3953 163.562 15.9047C161.43 18.2203 159.297 20.9016 157.225 23.8266C153.691 24.1312 150.339 24.6797 147.17 25.35C146.805 23.9484 146.561 22.6078 146.317 21.3281ZM131.266 39C131.266 36.1359 134.739 33.0891 140.833 30.8344C142.052 30.3469 143.392 29.9203 144.733 29.5547C145.708 32.6016 146.927 35.8313 148.389 39.0609C146.927 42.2906 145.647 45.4594 144.733 48.5063C136.323 46.0688 131.266 42.4125 131.266 39ZM148.633 69.0422C146.134 67.5797 145.281 63.0703 146.317 56.6719C146.5 55.3922 146.805 54.0516 147.17 52.65C150.339 53.3813 153.691 53.8688 157.225 54.1734C159.297 57.0984 161.43 59.7188 163.562 62.0953C159.053 66.5438 154.483 69.5906 150.766 69.5906C149.973 69.5906 149.242 69.4078 148.633 69.0422ZM185.683 56.6719C186.719 63.0703 185.866 67.5797 183.367 69.0422C182.758 69.4078 182.027 69.5906 181.234 69.5906C177.578 69.5906 173.008 66.6047 168.437 62.0953C170.57 59.7797 172.703 57.0984 174.775 54.1734C178.309 53.8688 181.661 53.3203 184.83 52.65C185.195 54.0516 185.439 55.3922 185.683 56.6719ZM191.167 47.1656C189.948 47.6531 188.608 48.0797 187.267 48.4453C186.292 45.3984 185.073 42.1688 183.611 38.9391C185.073 35.7094 186.353 32.5406 187.267 29.4938C195.677 31.9313 200.734 35.5875 200.734 39C200.734 41.8641 197.2 44.9109 191.167 47.1656Z" fill="url(#paint5_linear_344_24)"/>
<path d="M428.629 8.46363C426.056 8.47581 423.6 8.69458 421.438 9.07727C415.07 10.2022 413.915 12.5568 413.915 16.8998V22.6346H428.962V24.5463H408.267C403.894 24.5463 400.065 27.1745 398.867 32.1762C397.485 37.9074 397.424 41.4844 398.867 47.4691C399.936 51.9243 402.491 55.0979 406.864 55.0979H412.039V48.2229C412.039 43.2559 416.335 38.8751 421.439 38.8751H436.469C440.653 38.8751 443.992 35.4297 443.992 31.2287V16.9004C443.992 12.8219 440.552 9.75855 436.469 9.07788C433.883 8.64766 431.201 8.45205 428.629 8.46363ZM420.491 13.076C422.045 13.076 423.315 14.366 423.315 15.9528C423.315 17.533 422.046 18.8108 420.491 18.8108C418.931 18.8108 417.668 17.533 417.668 15.9528C417.667 14.366 418.931 13.076 420.491 13.076Z" fill="url(#paint6_linear_344_24)"/>
<path d="M445.869 24.5462V31.2287C445.869 36.4083 441.476 40.7684 436.468 40.7684H421.438C417.321 40.7684 413.915 44.2924 413.915 48.4155V62.7449C413.915 66.8222 417.46 69.2214 421.438 70.3907C426.201 71.7905 430.769 72.044 436.468 70.3907C440.256 69.2933 443.992 67.0861 443.992 62.7449V57.0095H428.962V55.0973H451.516C455.889 55.0973 457.52 52.0473 459.041 47.4685C460.612 42.755 460.544 38.2218 459.041 32.1756C457.96 27.8216 455.896 24.5456 451.516 24.5456L445.869 24.5462ZM437.415 60.8327C438.975 60.8327 440.239 62.1106 440.239 63.6919C440.239 65.2775 438.975 66.5675 437.415 66.5675C435.861 66.5675 434.592 65.2775 434.592 63.6919C434.592 62.1106 435.861 60.8327 437.415 60.8327Z" fill="url(#paint7_linear_344_24)"/>
<rect y="2" width="72.4771" height="72.4771" rx="7" fill="url(#paint8_linear_344_24)"/>
<path d="M57.6682 37.9541C59.2106 38.3129 60.6122 39.1206 61.6961 40.2751C62.2932 40.9 62.8116 41.5955 63.2399 42.3462C63.2598 42.4277 60.4604 44.3085 58.7626 45.3576C58.701 45.3993 58.4564 45.1329 58.1791 44.7234C57.869 44.1903 57.4288 43.7445 56.8996 43.4276C56.3705 43.1108 55.7696 42.9332 55.1532 42.9115C53.2018 42.7774 51.9443 43.7993 51.9534 45.508C51.9365 45.9278 52.0322 46.3444 52.2306 46.7147C52.66 47.6026 53.4573 48.1353 55.9614 49.2206C60.5709 51.2047 62.5495 52.5129 63.7708 54.3719C64.4611 55.5465 64.8862 56.8579 65.0164 58.2141C65.1466 59.5703 64.9787 60.9385 64.5245 62.223C63.9003 63.6317 62.9104 64.8475 61.6576 65.7445C60.4047 66.6414 58.9347 67.1866 57.4 67.3236C55.7687 67.5107 54.1204 67.4937 52.4933 67.2728C50.001 66.8633 47.7051 65.6671 45.9414 63.8592C45.275 63.1088 44.7108 62.2735 44.2636 61.375C44.4516 61.2351 44.6496 61.1092 44.8561 60.9981C45.1423 60.8351 46.2259 60.2118 47.2478 59.6193L49.1032 58.5321L49.491 59.0974C50.144 60.0314 50.9754 60.827 51.9371 61.4384C52.9083 61.9712 54.0085 62.2236 55.1148 62.1676C56.2212 62.1116 57.2902 61.7494 58.2027 61.1213C58.6734 60.6626 58.9677 60.0528 59.0339 59.3988C59.1002 58.7449 58.9342 58.0885 58.5651 57.5446C58.065 56.8289 57.0431 56.2273 54.1386 54.968C51.8611 54.2001 49.7866 52.9272 48.0704 51.2445C47.2531 50.3131 46.6495 49.2142 46.302 48.0247C46.045 46.6698 46.0071 45.2823 46.1896 43.9153C46.5306 42.3423 47.3469 40.9121 48.528 39.8185C49.709 38.725 51.1977 38.021 52.7923 37.8019C54.416 37.6078 56.0597 37.6591 57.6682 37.9541ZM42.5513 40.6411L42.5712 43.2757H34.182V67.0989H28.2661V43.2811H19.8768V40.6937C19.8545 39.8076 19.8787 38.921 19.9493 38.0374C19.9801 37.9957 25.0807 37.9758 31.2648 37.9867L42.5187 38.0175L42.5513 40.6411Z" fill="#150426"/>
<defs>
<linearGradient id="paint0_linear_344_24" x1="297.937" y1="6.95119" x2="297.937" y2="55.8273" gradientUnits="userSpaceOnUse">
<stop stop-color="#9C1919"/>
<stop offset="1" stop-color="#570C0C"/>
</linearGradient>
<linearGradient id="paint1_linear_344_24" x1="298.083" y1="56.5366" x2="298.083" y2="79.4625" gradientUnits="userSpaceOnUse">
<stop stop-color="#9C1919"/>
<stop offset="1" stop-color="#570C0C"/>
</linearGradient>
<linearGradient id="paint2_linear_344_24" x1="667.223" y1="46.0267" x2="722.777" y2="46.0267" gradientUnits="userSpaceOnUse">
<stop stop-color="#570C0C"/>
<stop offset="0.52" stop-color="#9F1111"/>
<stop offset="1" stop-color="#570C0C"/>
</linearGradient>
<linearGradient id="paint3_linear_344_24" x1="9443.26" y1="10228.8" x2="55402.7" y2="10228.8" gradientUnits="userSpaceOnUse">
<stop stop-color="#150426"/>
<stop offset="0.58" stop-color="#2F0707"/>
<stop offset="1" stop-color="#9C1919"/>
</linearGradient>
<linearGradient id="paint4_linear_344_24" x1="166" y1="32.0531" x2="166" y2="45.9469" gradientUnits="userSpaceOnUse">
<stop stop-color="#9F1111"/>
<stop offset="1" stop-color="#570C0C"/>
</linearGradient>
<linearGradient id="paint5_linear_344_24" x1="166" y1="4.93594" x2="166" y2="73.0641" gradientUnits="userSpaceOnUse">
<stop stop-color="#9F1111"/>
<stop offset="1" stop-color="#570C0C"/>
</linearGradient>
<linearGradient id="paint6_linear_344_24" x1="396.299" y1="10.2568" x2="431.005" y2="39.8541" gradientUnits="userSpaceOnUse">
<stop stop-color="#9F1111"/>
<stop offset="1" stop-color="#570C0C"/>
</linearGradient>
<linearGradient id="paint7_linear_344_24" x1="444.063" y1="58.2522" x2="431.617" y2="40.7984" gradientUnits="userSpaceOnUse">
<stop stop-color="#570C0C"/>
<stop offset="1" stop-color="#9F1111"/>
</linearGradient>
<linearGradient id="paint8_linear_344_24" x1="36.2385" y1="2" x2="36.2385" y2="74.4771" gradientUnits="userSpaceOnUse">
<stop stop-color="#9F1111"/>
<stop offset="1" stop-color="#570C0C"/>
</linearGradient>
</defs>
</svg>
