<svg width="825" height="237" viewBox="0 0 825 237" fill="none" xmlns="http://www.w3.org/2000/svg">
<g clip-path="url(#clip0_319_3)">
<rect width="825" height="237" fill="url(#paint0_linear_319_3)" fill-opacity="0.4"/>
<rect width="825" height="237" fill="url(#paint1_linear_319_3)"/>
<g clip-path="url(#clip1_319_3)">
<path d="M215.052 -5.12042C211.84 -7.55658 213.799 -12.8934 217.889 -12.4579C221.884 -12.0342 226.607 -6.43099 229.014 -3.51875C237.99 7.33615 241.161 21.388 241.891 35.1642C244.083 76.5772 227.594 119.501 211.36 156.766C166.941 258.732 97.687 356.396 10.5769 426.366C-16.8403 448.388 -71.1378 488.423 -107.224 463.435C-144.114 437.891 -123.109 367.824 -111.681 334.302C-73.7688 223.085 -2.25196 117.288 84.9889 38.8011C113.379 13.2599 179.319 -41.1091 219.792 -11.746C222.905 -9.48669 221.411 -4.3657 217.486 -4.33662C213.184 -4.30372 207.679 -9.06488 203.102 -9.9956C191.61 -12.3323 179.61 -9.23952 168.998 -4.83988C134.366 9.51497 105.343 37.8626 79.9681 64.6268C10.1528 138.261 -66.3974 247.029 -103.833 341.512C-115.43 370.784 -137.739 435.209 -104.925 458.952C-67.0879 486.331 -4.64468 427.546 19.4163 403.333C91.5763 330.715 172.62 211.205 211.285 116.378C223.602 86.1677 248.362 20.1413 215.052 -5.12042Z" stroke="url(#paint2_linear_319_3)" stroke-opacity="0.5" stroke-width="2" stroke-linecap="round" stroke-linejoin="round"/>
<path d="M-222.6 204.415C-223.107 208.414 -228.709 209.387 -230.375 205.628C-232.005 201.956 -229.51 195.066 -228.192 191.524C-223.273 178.323 -212.683 168.547 -201.113 161.022C-166.334 138.405 -120.912 131.204 -80.5186 126.615C30.0083 114.06 149.218 125.156 253.358 165.566C286.138 178.287 347.951 205.266 344.336 249.011C340.641 293.728 269.448 310.598 234.698 317.476C119.408 340.294 -7.97574 331.308 -119.561 295.044C-155.873 283.244 -235.921 253.355 -230.71 203.624C-230.308 199.801 -225.124 198.532 -223.139 201.915C-220.96 205.623 -222.335 212.769 -220.854 217.198C-217.135 228.318 -208.461 237.159 -199.346 244.145C-169.605 266.947 -130.545 277.892 -94.6808 286.471C3.99449 310.075 136.467 321.933 237.021 307.073C268.175 302.469 335.132 289.551 339.303 249.262C344.113 202.806 261.988 178.156 228.99 169.438C130.023 143.294 -13.9999 132.92 -115.467 146.89C-147.794 151.338 -217.364 162.936 -222.6 204.415Z" stroke="url(#paint3_linear_319_3)" stroke-opacity="0.5" stroke-width="2" stroke-linecap="round" stroke-linejoin="round"/>
<path d="M-64.235 -26.6348C-67.9502 -25.0704 -71.5938 -29.4339 -69.1712 -32.7569C-66.8046 -36.0053 -59.5891 -37.2947 -55.8613 -37.9221C-41.969 -40.2707 -28.2077 -35.9945 -15.9083 -29.7403C21.0625 -10.9466 49.997 24.7777 74.1569 57.4541C140.264 146.863 190.22 255.624 207.251 366.003C212.611 400.748 220.127 467.762 180.426 486.518C139.841 505.692 89.6537 452.494 66.3314 425.85C-11.0452 337.45 -66.9154 222.669 -91.2581 107.918C-99.1787 70.5764 -113.287 -13.6814 -67.6016 -34.0492C-64.0886 -35.6156 -60.3998 -31.763 -62.3368 -28.3495C-64.4616 -24.6108 -71.3397 -22.223 -74.4363 -18.7246C-82.2088 -9.94454 -85.5339 1.99179 -87.0327 13.3758C-91.9246 50.5336 -81.8867 89.8283 -71.3984 125.169C-42.5397 222.409 13.3849 343.034 76.5045 422.656C96.0597 447.325 140.708 498.832 177.693 482.286C220.341 463.208 200.657 379.774 191.72 346.844C164.915 248.08 101.934 118.198 39.1314 37.338C19.1242 11.5783 -25.6852 -42.8507 -64.235 -26.6348Z" stroke="url(#paint4_linear_319_3)" stroke-opacity="0.5" stroke-width="2" stroke-linecap="round" stroke-linejoin="round"/>
</g>
<path d="M185.463 437.239C188.448 435.954 191.366 439.525 189.418 442.251C187.514 444.915 181.721 445.979 178.729 446.499C167.576 448.437 156.536 444.948 146.674 439.838C117.024 424.476 93.8454 395.231 74.4956 368.48C21.55 295.281 -18.4094 206.206 -31.9412 115.767C-36.2006 87.2995 -42.1494 32.3887 -10.2625 16.9739C22.3338 1.21615 62.5489 44.7567 81.2336 66.5661C143.226 138.925 187.923 232.929 207.318 326.941C213.63 357.535 224.849 426.569 188.157 443.312C185.335 444.599 182.379 441.446 183.938 438.647C185.648 435.579 191.171 433.615 193.66 430.745C199.91 423.54 202.594 413.756 203.811 404.423C207.781 373.967 199.775 341.777 191.401 312.825C168.359 233.169 123.625 134.377 73.0653 69.1946C57.4008 48.9999 21.6303 6.83907 -8.07408 20.4388C-42.3265 36.1209 -26.6324 104.475 -19.5003 131.451C1.89028 212.36 52.2775 318.73 102.582 384.926C118.608 406.015 154.504 450.571 185.463 437.239Z" fill="url(#paint5_linear_319_3)"/>
<path d="M216.118 40.871C213.544 38.879 215.122 34.5032 218.404 34.855C221.61 35.1987 225.393 39.7847 227.322 42.1682C234.512 51.0537 237.04 62.567 237.609 73.8556C239.317 107.792 226.03 142.987 212.954 173.544C177.177 257.155 121.473 337.269 51.4735 394.705C29.4396 412.785 -14.1886 445.653 -43.1201 425.215C-72.6952 404.322 -55.7501 346.878 -46.5369 319.394C-15.9694 228.207 41.5596 141.427 111.676 77.0098C134.493 56.0474 187.483 11.4182 219.931 35.4367C222.426 37.2837 221.22 41.4823 218.071 41.5112C214.618 41.5428 210.206 37.6474 206.533 36.8898C197.313 34.9876 187.678 37.5348 179.155 41.1517C151.343 52.9551 128.013 76.2184 107.614 98.1794C51.4899 158.601 -10.0835 247.822 -40.2458 325.293C-49.5906 349.295 -67.575 402.117 -41.2685 421.538C-10.9342 443.933 39.2538 395.69 58.5947 375.821C116.602 316.229 181.794 218.2 212.944 140.445C222.867 115.674 242.821 61.5366 216.118 40.871Z" fill="url(#paint6_linear_319_3)"/>
<path d="M312.854 247.716C313.264 244.439 317.761 243.634 319.094 246.712C320.397 249.72 318.387 255.37 317.324 258.273C313.36 269.097 304.849 277.122 295.555 283.3C267.613 301.874 231.148 307.824 198.722 311.629C109.999 322.042 14.3364 313.081 -69.1952 280.078C-95.4884 269.69 -145.066 247.648 -142.11 211.795C-139.089 175.145 -81.9287 161.241 -54.0308 155.566C38.529 136.739 140.755 143.962 230.267 173.558C259.396 183.188 323.605 207.593 319.36 248.355C319.033 251.489 314.872 252.534 313.281 249.764C311.538 246.728 312.649 240.869 311.466 237.241C308.496 228.134 301.544 220.897 294.238 215.181C270.396 196.529 239.061 187.602 210.287 180.611C131.122 161.376 24.8144 151.805 -55.908 164.094C-80.9173 167.902 -134.672 178.562 -138.07 211.583C-141.988 249.661 -76.1061 269.771 -49.6331 276.878C29.7644 298.195 145.344 306.536 226.798 294.977C252.747 291.295 308.598 281.714 312.854 247.716Z" fill="url(#paint7_linear_319_3)"/>
<g filter="url(#filter0_d_319_3)">
<path d="M141.048 234.391C138.74 263.794 113.524 285.798 84.7263 283.537C55.9291 281.276 34.4556 255.607 36.764 226.204C39.0724 196.8 64.2885 174.797 93.0858 177.058C121.883 179.319 143.357 204.988 141.048 234.391Z" fill="url(#paint8_linear_319_3)"/>
</g>
<ellipse cx="299.174" cy="216.673" rx="22.8823" ry="23.364" transform="rotate(4.48895 299.174 216.673)" fill="url(#paint9_linear_319_3)"/>
<path d="M382.891 77.1211V74.1328C385.527 75.0703 388.375 75.5391 391.434 75.5391C395.758 75.5391 397.92 73.957 397.92 70.793C397.92 68.0977 396.326 66.75 393.139 66.75H389.904C384.643 66.75 382.012 64.4648 382.012 59.8945C382.012 55.0898 385.381 52.6875 392.119 52.6875C395.049 52.6875 397.773 53.0391 400.293 53.7422V56.7305C397.773 55.793 395.049 55.3242 392.119 55.3242C387.549 55.3242 385.264 56.8477 385.264 59.8945C385.264 62.5898 386.811 63.9375 389.904 63.9375H393.139C398.494 63.9375 401.172 66.2227 401.172 70.793C401.172 75.7148 397.926 78.1758 391.434 78.1758C388.375 78.1758 385.527 77.8242 382.891 77.1211ZM407.939 68.7012C407.939 73.1426 409.785 75.3633 413.477 75.3633C417.168 75.3633 419.014 73.1426 419.014 68.7012C419.014 64.3535 417.168 62.1797 413.477 62.1797C409.785 62.1797 407.939 64.3535 407.939 68.7012ZM404.688 68.7715C404.688 62.6191 407.617 59.543 413.477 59.543C419.336 59.543 422.266 62.6191 422.266 68.7715C422.266 74.9121 419.336 77.9824 413.477 77.9824C407.641 77.9824 404.711 74.9121 404.688 68.7715ZM430.088 52.8633V78H426.836V52.8633H430.088ZM451.463 59.543V78H449.23L448.668 75.6445C446.43 77.2148 444.18 78 441.918 78C437.676 78 435.555 75.709 435.555 71.127V59.543H438.807V71.1797C438.807 73.9219 440.166 75.293 442.885 75.293C444.748 75.293 446.523 74.5137 448.211 72.9551V59.543H451.463ZM463.434 77.8418C458.395 77.1035 455.875 73.9629 455.875 68.4199C455.875 62.502 459.215 59.543 465.895 59.543C467.652 59.543 469.293 59.7188 470.816 60.0703V62.707C469.293 62.3555 467.77 62.1797 466.246 62.1797C461.5 62.1797 459.127 64.2598 459.127 68.4199C459.127 73.0488 461.5 75.3633 466.246 75.3633C467.77 75.3633 469.293 75.1875 470.816 74.8359V77.4727C469.293 77.8242 467.652 78 465.895 78H465.684L464.963 79.3535C467.471 79.3535 468.725 80.3613 468.725 82.377C468.725 84.4043 467.312 85.418 464.488 85.418C463.223 85.418 461.957 85.125 460.691 84.5391V82.6406C461.957 83.2266 463.223 83.5195 464.488 83.5195C465.754 83.5195 466.387 83.1387 466.387 82.377C466.387 81.627 465.9 81.252 464.928 81.252H461.711L463.434 77.8418ZM477.162 68.7012C477.162 73.1426 479.008 75.3633 482.699 75.3633C486.391 75.3633 488.236 73.1426 488.236 68.7012C488.236 64.3535 486.391 62.1797 482.699 62.1797C479.008 62.1797 477.162 64.3535 477.162 68.7012ZM473.91 68.7715C473.91 62.6191 476.84 59.543 482.699 59.543C488.559 59.543 491.488 62.6191 491.488 68.7715C491.488 74.9121 488.559 77.9824 482.699 77.9824C476.863 77.9824 473.934 74.9121 473.91 68.7715ZM478.305 53.6719C479.008 53.1328 479.77 52.8633 480.59 52.8633C481.199 52.8633 481.844 53.0156 482.523 53.3203C483.203 53.625 483.871 53.7773 484.527 53.7773C485.406 53.7773 486.262 53.5078 487.094 52.9688V55.6055C486.391 56.1445 485.629 56.4141 484.809 56.4141C484.199 56.4141 483.555 56.2617 482.875 55.957C482.195 55.6523 481.527 55.5 480.871 55.5C479.992 55.5 479.137 55.7695 478.305 56.3086V53.6719ZM503.494 59.543C508.744 59.543 511.369 62.1387 511.369 67.3301C511.369 68.0684 511.316 68.8594 511.211 69.7031H498.256C498.256 73.4766 500.459 75.3633 504.865 75.3633C506.963 75.3633 508.826 75.1289 510.455 74.6602V77.2969C508.826 77.7656 506.846 78 504.514 78C498.174 78 495.004 74.8535 495.004 68.5605C495.004 62.5488 497.834 59.543 503.494 59.543ZM498.256 66.9961H508.24C508.17 63.7617 506.588 62.1445 503.494 62.1445C500.213 62.1445 498.467 63.7617 498.256 66.9961ZM515.57 77.1211V74.3086C517.738 75.0117 519.93 75.3633 522.145 75.3633C525.086 75.3633 526.557 74.4844 526.557 72.7266C526.557 71.0859 525.531 70.2656 523.48 70.2656H520.844C516.859 70.2656 514.867 68.4492 514.867 64.8164C514.867 61.3008 517.428 59.543 522.549 59.543C524.752 59.543 526.938 59.8359 529.105 60.4219V63.2344C526.938 62.5312 524.752 62.1797 522.549 62.1797C519.479 62.1797 517.943 63.0586 517.943 64.8164C517.943 66.457 518.91 67.2773 520.844 67.2773H523.48C527.699 67.2773 529.809 69.0938 529.809 72.7266C529.809 76.2422 527.254 78 522.145 78C519.93 78 517.738 77.707 515.57 77.1211ZM562.328 77.1211C560.16 77.8242 557.816 78.1758 555.297 78.1758C546.508 78.1758 542.113 73.8105 542.113 65.0801C542.113 56.8184 546.508 52.6875 555.297 52.6875C557.816 52.6875 560.16 53.0391 562.328 53.7422V56.5547C560.16 55.7344 557.934 55.3242 555.648 55.3242C548.793 55.3242 545.365 58.5762 545.365 65.0801C545.365 72.0527 548.793 75.5391 555.648 75.5391C557.934 75.5391 560.16 75.1289 562.328 74.3086V77.1211ZM569.729 68.7012C569.729 73.1426 571.574 75.3633 575.266 75.3633C578.957 75.3633 580.803 73.1426 580.803 68.7012C580.803 64.3535 578.957 62.1797 575.266 62.1797C571.574 62.1797 569.729 64.3535 569.729 68.7012ZM566.477 68.7715C566.477 62.6191 569.406 59.543 575.266 59.543C581.125 59.543 584.055 62.6191 584.055 68.7715C584.055 74.9121 581.125 77.9824 575.266 77.9824C569.43 77.9824 566.5 74.9121 566.477 68.7715ZM588.449 78V59.543H590.646L591.191 61.8633C592.961 60.3164 594.889 59.543 596.975 59.543C599.646 59.543 601.469 60.3867 602.441 62.0742C604.445 60.3867 606.479 59.543 608.541 59.543C612.783 59.543 614.904 61.8809 614.904 66.5566V78H611.652V66.3809C611.652 63.627 610.492 62.25 608.172 62.25C606.438 62.25 604.814 63.0469 603.303 64.6406V78H600.051V66.4336C600.051 63.6445 598.902 62.25 596.605 62.25C594.777 62.25 593.143 63.0469 591.701 64.6406V78H588.449ZM623.447 74.2383C624.725 74.8711 626.148 75.1875 627.719 75.1875C631.551 75.1875 633.467 72.8848 633.467 68.2793C633.467 64.2598 631.562 62.25 627.754 62.25C626.113 62.25 624.678 62.3906 623.447 62.6719V74.2383ZM620.195 60.2988C622.645 59.7949 625.176 59.543 627.789 59.543C633.707 59.543 636.666 62.4668 636.666 68.3145C636.666 74.7715 633.689 78 627.736 78C626.26 78 624.83 77.707 623.447 77.1211V84.6797H620.195V60.2988ZM644.506 52.8633V78H641.254V52.8633H644.506ZM657.584 59.543C662.834 59.543 665.459 62.1387 665.459 67.3301C665.459 68.0684 665.406 68.8594 665.301 69.7031H652.346C652.346 73.4766 654.549 75.3633 658.955 75.3633C661.053 75.3633 662.916 75.1289 664.545 74.6602V77.2969C662.916 77.7656 660.936 78 658.604 78C652.264 78 649.094 74.8535 649.094 68.5605C649.094 62.5488 651.924 59.543 657.584 59.543ZM652.346 66.9961H662.33C662.26 63.7617 660.678 62.1445 657.584 62.1445C654.303 62.1445 652.557 63.7617 652.346 66.9961ZM669.836 56.5547H671.875L672.578 59.543H677.57V62.1797H673.088V72.7793C673.088 74.502 673.832 75.3633 675.32 75.3633H677.57V78H674.477C671.383 78 669.836 76.3418 669.836 73.0254V56.5547ZM680.84 72.4277C680.84 68.6426 683.336 66.75 688.328 66.75C689.934 66.75 691.539 66.8672 693.145 67.1016V65.3613C693.145 63.2402 691.486 62.1797 688.17 62.1797C686.271 62.1797 684.326 62.4727 682.334 63.0586V60.4219C684.326 59.8359 686.271 59.543 688.17 59.543C693.654 59.543 696.396 61.4531 696.396 65.2734V78H694.568L693.443 76.1719C691.604 77.3906 689.6 78 687.432 78C683.037 78 680.84 76.1426 680.84 72.4277ZM688.328 69.3867C685.504 69.3867 684.092 70.3828 684.092 72.375C684.092 74.3672 685.205 75.3633 687.432 75.3633C689.682 75.3633 691.586 74.7656 693.145 73.5703V69.7383C691.539 69.5039 689.934 69.3867 688.328 69.3867ZM701.512 77.1211V74.3086C703.68 75.0117 705.871 75.3633 708.086 75.3633C711.027 75.3633 712.498 74.4844 712.498 72.7266C712.498 71.0859 711.473 70.2656 709.422 70.2656H706.785C702.801 70.2656 700.809 68.4492 700.809 64.8164C700.809 61.3008 703.369 59.543 708.49 59.543C710.693 59.543 712.879 59.8359 715.047 60.4219V63.2344C712.879 62.5312 710.693 62.1797 708.49 62.1797C705.42 62.1797 703.885 63.0586 703.885 64.8164C703.885 66.457 704.852 67.2773 706.785 67.2773H709.422C713.641 67.2773 715.75 69.0938 715.75 72.7266C715.75 76.2422 713.195 78 708.086 78C705.871 78 703.68 77.707 701.512 77.1211ZM732.186 74.2383C733.463 74.8711 734.887 75.1875 736.457 75.1875C740.289 75.1875 742.205 72.8848 742.205 68.2793C742.205 64.2598 740.301 62.25 736.492 62.25C734.852 62.25 733.416 62.3906 732.186 62.6719V74.2383ZM728.934 60.2988C731.383 59.7949 733.914 59.543 736.527 59.543C742.445 59.543 745.404 62.4668 745.404 68.3145C745.404 74.7715 742.428 78 736.475 78C734.998 78 733.568 77.707 732.186 77.1211V84.6797H728.934V60.2988ZM748.938 72.4277C748.938 68.6426 751.434 66.75 756.426 66.75C758.031 66.75 759.637 66.8672 761.242 67.1016V65.3613C761.242 63.2402 759.584 62.1797 756.268 62.1797C754.369 62.1797 752.424 62.4727 750.432 63.0586V60.4219C752.424 59.8359 754.369 59.543 756.268 59.543C761.752 59.543 764.494 61.4531 764.494 65.2734V78H762.666L761.541 76.1719C759.701 77.3906 757.697 78 755.529 78C751.135 78 748.938 76.1426 748.938 72.4277ZM756.426 69.3867C753.602 69.3867 752.189 70.3828 752.189 72.375C752.189 74.3672 753.303 75.3633 755.529 75.3633C757.779 75.3633 759.684 74.7656 761.242 73.5703V69.7383C759.637 69.5039 758.031 69.3867 756.426 69.3867ZM769.785 78V59.543H771.982L772.562 61.8984C774.18 60.3281 776.125 59.543 778.398 59.543V62.25C776.195 62.25 774.408 63.0293 773.037 64.5879V78H769.785ZM780.789 72.4277C780.789 68.6426 783.285 66.75 788.277 66.75C789.883 66.75 791.488 66.8672 793.094 67.1016V65.3613C793.094 63.2402 791.436 62.1797 788.119 62.1797C786.221 62.1797 784.275 62.4727 782.283 63.0586V60.4219C784.275 59.8359 786.221 59.543 788.119 59.543C793.604 59.543 796.346 61.4531 796.346 65.2734V78H794.518L793.393 76.1719C791.553 77.3906 789.549 78 787.381 78C782.986 78 780.789 76.1426 780.789 72.4277ZM788.277 69.3867C785.453 69.3867 784.041 70.3828 784.041 72.375C784.041 74.3672 785.154 75.3633 787.381 75.3633C789.631 75.3633 791.535 74.7656 793.094 73.5703V69.7383C791.488 69.5039 789.883 69.3867 788.277 69.3867ZM563.682 108.701C563.682 113.143 565.527 115.363 569.219 115.363C572.91 115.363 574.756 113.143 574.756 108.701C574.756 104.354 572.91 102.18 569.219 102.18C565.527 102.18 563.682 104.354 563.682 108.701ZM560.43 108.771C560.43 102.619 563.359 99.543 569.219 99.543C575.078 99.543 578.008 102.619 578.008 108.771C578.008 114.912 575.078 117.982 569.219 117.982C563.383 117.982 560.453 114.912 560.43 108.771ZM591.191 117.121V114.133C593.828 115.07 596.676 115.539 599.734 115.539C604.059 115.539 606.221 113.957 606.221 110.793C606.221 108.098 604.627 106.75 601.439 106.75H598.205C592.943 106.75 590.312 104.465 590.312 99.8945C590.312 95.0898 593.682 92.6875 600.42 92.6875C603.35 92.6875 606.074 93.0391 608.594 93.7422V96.7305C606.074 95.793 603.35 95.3242 600.42 95.3242C595.85 95.3242 593.564 96.8477 593.564 99.8945C593.564 102.59 595.111 103.938 598.205 103.938H601.439C606.795 103.938 609.473 106.223 609.473 110.793C609.473 115.715 606.227 118.176 599.734 118.176C596.676 118.176 593.828 117.824 591.191 117.121ZM621.479 99.543C626.729 99.543 629.354 102.139 629.354 107.33C629.354 108.068 629.301 108.859 629.195 109.703H616.24C616.24 113.477 618.443 115.363 622.85 115.363C624.947 115.363 626.811 115.129 628.439 114.66V117.297C626.811 117.766 624.83 118 622.498 118C616.158 118 612.988 114.854 612.988 108.561C612.988 102.549 615.818 99.543 621.479 99.543ZM616.24 106.996H626.225C626.154 103.762 624.572 102.145 621.479 102.145C618.197 102.145 616.451 103.762 616.24 106.996ZM649.639 99.543V118H647.406L646.844 115.645C644.605 117.215 642.355 118 640.094 118C635.852 118 633.73 115.709 633.73 111.127V99.543H636.982V111.18C636.982 113.922 638.342 115.293 641.061 115.293C642.924 115.293 644.699 114.514 646.387 112.955V99.543H649.639ZM664.07 118V92.8633H667.322L682.703 113.113V92.8633H685.779V118H682.527L667.146 97.5742V118H664.07ZM699.033 99.543C704.283 99.543 706.908 102.139 706.908 107.33C706.908 108.068 706.855 108.859 706.75 109.703H693.795C693.795 113.477 695.998 115.363 700.404 115.363C702.502 115.363 704.365 115.129 705.994 114.66V117.297C704.365 117.766 702.385 118 700.053 118C693.713 118 690.543 114.854 690.543 108.561C690.543 102.549 693.373 99.543 699.033 99.543ZM693.795 106.996H703.779C703.709 103.762 702.127 102.145 699.033 102.145C695.752 102.145 694.006 103.762 693.795 106.996ZM723.625 102.672C722.512 102.391 721.135 102.25 719.494 102.25C715.568 102.25 713.605 104.377 713.605 108.631C713.605 113.002 715.463 115.188 719.178 115.188C720.865 115.188 722.348 114.871 723.625 114.238V102.672ZM726.877 118C726.877 122.453 724.047 124.68 718.387 124.68C716.113 124.68 714.098 124.387 712.34 123.801V121.164C714.133 121.75 716.16 122.043 718.422 122.043C721.891 122.043 723.625 120.695 723.625 118V117.121C722.242 117.707 720.754 118 719.16 118C713.324 118 710.406 114.889 710.406 108.666C710.406 102.584 713.482 99.543 719.635 99.543C722.131 99.543 724.545 99.7949 726.877 100.299V118ZM734.541 108.701C734.541 113.143 736.387 115.363 740.078 115.363C743.77 115.363 745.615 113.143 745.615 108.701C745.615 104.354 743.77 102.18 740.078 102.18C736.387 102.18 734.541 104.354 734.541 108.701ZM731.289 108.771C731.289 102.619 734.219 99.543 740.078 99.543C745.938 99.543 748.867 102.619 748.867 108.771C748.867 114.912 745.938 117.982 740.078 117.982C734.242 117.982 731.312 114.912 731.289 108.771ZM740.605 92.8633H744.807L740.605 97.0645H737.723L740.605 92.8633ZM767.148 117.473C765.625 117.824 763.984 118 762.227 118C755.664 118 752.383 114.807 752.383 108.42C752.383 102.502 755.664 99.543 762.227 99.543C763.984 99.543 765.625 99.7188 767.148 100.07V102.707C765.625 102.355 763.926 102.18 762.051 102.18C757.773 102.18 755.635 104.26 755.635 108.42C755.635 113.049 757.773 115.363 762.051 115.363C763.926 115.363 765.625 115.188 767.148 114.836V117.473ZM774.9 99.543V118H771.648V99.543H774.9ZM774.9 92.8633V95.9395H771.648V92.8633H774.9ZM782.916 108.701C782.916 113.143 784.762 115.363 788.453 115.363C792.145 115.363 793.99 113.143 793.99 108.701C793.99 104.354 792.145 102.18 788.453 102.18C784.762 102.18 782.916 104.354 782.916 108.701ZM779.664 108.771C779.664 102.619 782.594 99.543 788.453 99.543C794.312 99.543 797.242 102.619 797.242 108.771C797.242 114.912 794.312 117.982 788.453 117.982C782.617 117.982 779.688 114.912 779.664 108.771Z" fill="url(#paint10_linear_319_3)"/>
<path d="M421.24 175.6H424.4C425.213 175.6 425.967 175.46 426.66 175.18C427.353 174.9 427.96 174.507 428.48 174C429 173.493 429.4 172.9 429.68 172.22C429.973 171.54 430.12 170.8 430.12 170C430.12 169.2 429.973 168.46 429.68 167.78C429.4 167.1 429 166.507 428.48 166C427.96 165.493 427.353 165.1 426.66 164.82C425.967 164.54 425.213 164.4 424.4 164.4H421.24V175.6ZM419.7 177V163H424.32C425.387 163 426.367 163.173 427.26 163.52C428.153 163.867 428.927 164.353 429.58 164.98C430.247 165.607 430.76 166.347 431.12 167.2C431.493 168.053 431.68 168.987 431.68 170C431.68 171.013 431.5 171.947 431.14 172.8C430.78 173.653 430.267 174.393 429.6 175.02C428.947 175.647 428.167 176.133 427.26 176.48C426.367 176.827 425.387 177 424.32 177H419.7ZM438.515 177.18C437.555 177.18 436.681 176.953 435.895 176.5C435.121 176.033 434.501 175.407 434.035 174.62C433.581 173.833 433.355 172.953 433.355 171.98C433.355 171.02 433.575 170.153 434.015 169.38C434.455 168.593 435.048 167.973 435.795 167.52C436.541 167.053 437.375 166.82 438.295 166.82C439.188 166.82 439.988 167.053 440.695 167.52C441.415 167.973 441.981 168.593 442.395 169.38C442.821 170.153 443.035 171.02 443.035 171.98V172.44H434.815C434.895 173.093 435.101 173.68 435.435 174.2C435.781 174.72 436.228 175.133 436.775 175.44C437.321 175.733 437.921 175.88 438.575 175.88C439.095 175.88 439.601 175.8 440.095 175.64C440.588 175.48 441.001 175.253 441.335 174.96L442.255 175.94C441.695 176.353 441.108 176.667 440.495 176.88C439.895 177.08 439.235 177.18 438.515 177.18ZM434.855 171.26H441.555C441.475 170.66 441.275 170.127 440.955 169.66C440.648 169.18 440.261 168.807 439.795 168.54C439.328 168.26 438.815 168.12 438.255 168.12C437.681 168.12 437.155 168.253 436.675 168.52C436.195 168.787 435.795 169.16 435.475 169.64C435.155 170.107 434.948 170.647 434.855 171.26ZM448.401 177.2C447.575 177.2 446.795 177.067 446.061 176.8C445.341 176.52 444.715 176.133 444.181 175.64L445.081 174.68C445.548 175.107 446.061 175.44 446.621 175.68C447.181 175.907 447.755 176.02 448.341 176.02C449.141 176.02 449.795 175.853 450.301 175.52C450.808 175.187 451.061 174.753 451.061 174.22C451.061 173.78 450.908 173.44 450.601 173.2C450.308 172.947 449.841 172.773 449.201 172.68L447.461 172.44C446.461 172.293 445.715 171.993 445.221 171.54C444.741 171.087 444.501 170.473 444.501 169.7C444.501 169.14 444.661 168.64 444.981 168.2C445.301 167.76 445.741 167.413 446.301 167.16C446.875 166.907 447.528 166.78 448.261 166.78C448.995 166.78 449.681 166.887 450.321 167.1C450.961 167.313 451.588 167.647 452.201 168.1L451.421 169.1C450.861 168.713 450.315 168.433 449.781 168.26C449.261 168.073 448.728 167.98 448.181 167.98C447.488 167.98 446.928 168.133 446.501 168.44C446.075 168.747 445.861 169.147 445.861 169.64C445.861 170.093 446.008 170.44 446.301 170.68C446.595 170.907 447.068 171.067 447.721 171.16L449.461 171.4C450.461 171.533 451.208 171.827 451.701 172.28C452.208 172.733 452.461 173.353 452.461 174.14C452.461 174.713 452.281 175.233 451.921 175.7C451.561 176.167 451.075 176.533 450.461 176.8C449.861 177.067 449.175 177.2 448.401 177.2ZM458.925 177.18C457.965 177.18 457.092 176.953 456.305 176.5C455.532 176.033 454.912 175.407 454.445 174.62C453.992 173.833 453.765 172.953 453.765 171.98C453.765 171.02 453.985 170.153 454.425 169.38C454.865 168.593 455.458 167.973 456.205 167.52C456.952 167.053 457.785 166.82 458.705 166.82C459.598 166.82 460.398 167.053 461.105 167.52C461.825 167.973 462.392 168.593 462.805 169.38C463.232 170.153 463.445 171.02 463.445 171.98V172.44H455.225C455.305 173.093 455.512 173.68 455.845 174.2C456.192 174.72 456.638 175.133 457.185 175.44C457.732 175.733 458.332 175.88 458.985 175.88C459.505 175.88 460.012 175.8 460.505 175.64C460.998 175.48 461.412 175.253 461.745 174.96L462.665 175.94C462.105 176.353 461.518 176.667 460.905 176.88C460.305 177.08 459.645 177.18 458.925 177.18ZM455.265 171.26H461.965C461.885 170.66 461.685 170.127 461.365 169.66C461.058 169.18 460.672 168.807 460.205 168.54C459.738 168.26 459.225 168.12 458.665 168.12C458.092 168.12 457.565 168.253 457.085 168.52C456.605 168.787 456.205 169.16 455.885 169.64C455.565 170.107 455.358 170.647 455.265 171.26ZM465.514 177V166.98H466.994V168.16C467.781 167.24 468.834 166.78 470.154 166.78C470.914 166.78 471.581 166.947 472.154 167.28C472.741 167.6 473.194 168.053 473.514 168.64C473.847 169.213 474.014 169.887 474.014 170.66V177H472.554V170.96C472.554 170.067 472.301 169.367 471.794 168.86C471.301 168.34 470.621 168.08 469.754 168.08C469.154 168.08 468.621 168.213 468.154 168.48C467.687 168.747 467.301 169.127 466.994 169.62V177H465.514ZM479.182 177L474.842 166.98H476.482L479.902 175.08L483.322 166.98H484.902L480.582 177H479.182ZM490.623 177.2C489.676 177.2 488.81 176.973 488.023 176.52C487.25 176.053 486.636 175.427 486.183 174.64C485.73 173.853 485.503 172.973 485.503 172C485.503 171.027 485.73 170.147 486.183 169.36C486.636 168.573 487.25 167.953 488.023 167.5C488.81 167.033 489.676 166.8 490.623 166.8C491.583 166.8 492.45 167.033 493.223 167.5C493.996 167.953 494.61 168.573 495.063 169.36C495.516 170.147 495.743 171.027 495.743 172C495.743 172.973 495.516 173.853 495.063 174.64C494.61 175.427 493.996 176.053 493.223 176.52C492.45 176.973 491.583 177.2 490.623 177.2ZM490.623 175.88C491.303 175.88 491.916 175.707 492.463 175.36C493.023 175.013 493.463 174.547 493.783 173.96C494.116 173.373 494.283 172.72 494.283 172C494.283 171.267 494.116 170.613 493.783 170.04C493.463 169.453 493.023 168.987 492.463 168.64C491.916 168.293 491.303 168.12 490.623 168.12C489.943 168.12 489.323 168.293 488.763 168.64C488.216 168.987 487.776 169.453 487.443 170.04C487.123 170.613 486.963 171.267 486.963 172C486.963 172.72 487.123 173.373 487.443 173.96C487.776 174.547 488.216 175.013 488.763 175.36C489.323 175.707 489.943 175.88 490.623 175.88ZM497.799 177V163L499.279 162.66V177H497.799ZM504.983 177L500.643 166.98H502.283L505.703 175.08L509.123 166.98H510.703L506.383 177H504.983ZM512.057 177V166.98H513.537V177H512.057ZM512.797 165.06C512.53 165.06 512.297 164.96 512.097 164.76C511.897 164.56 511.797 164.327 511.797 164.06C511.797 163.78 511.897 163.547 512.097 163.36C512.297 163.16 512.53 163.06 512.797 163.06C513.077 163.06 513.31 163.16 513.497 163.36C513.697 163.547 513.797 163.78 513.797 164.06C513.797 164.327 513.697 164.56 513.497 164.76C513.31 164.96 513.077 165.06 512.797 165.06ZM516.061 177V166.98H517.541V168.08C518.301 167.213 519.281 166.78 520.481 166.78C521.187 166.78 521.814 166.947 522.361 167.28C522.907 167.6 523.334 168.04 523.641 168.6C524.054 167.987 524.547 167.533 525.121 167.24C525.694 166.933 526.347 166.78 527.081 166.78C527.814 166.78 528.454 166.947 529.001 167.28C529.547 167.6 529.974 168.053 530.281 168.64C530.601 169.213 530.761 169.887 530.761 170.66V177H529.301V170.96C529.301 170.067 529.067 169.367 528.601 168.86C528.134 168.34 527.501 168.08 526.701 168.08C526.154 168.08 525.654 168.22 525.201 168.5C524.747 168.767 524.361 169.173 524.041 169.72C524.067 169.867 524.087 170.02 524.101 170.18C524.127 170.327 524.141 170.487 524.141 170.66V177H522.681V170.96C522.681 170.067 522.447 169.367 521.981 168.86C521.514 168.34 520.887 168.08 520.101 168.08C519.567 168.08 519.081 168.207 518.641 168.46C518.214 168.7 517.847 169.06 517.541 169.54V177H516.061ZM537.948 177.18C536.988 177.18 536.115 176.953 535.328 176.5C534.555 176.033 533.935 175.407 533.468 174.62C533.015 173.833 532.788 172.953 532.788 171.98C532.788 171.02 533.008 170.153 533.448 169.38C533.888 168.593 534.482 167.973 535.228 167.52C535.975 167.053 536.808 166.82 537.728 166.82C538.622 166.82 539.422 167.053 540.128 167.52C540.848 167.973 541.415 168.593 541.828 169.38C542.255 170.153 542.468 171.02 542.468 171.98V172.44H534.248C534.328 173.093 534.535 173.68 534.868 174.2C535.215 174.72 535.662 175.133 536.208 175.44C536.755 175.733 537.355 175.88 538.008 175.88C538.528 175.88 539.035 175.8 539.528 175.64C540.022 175.48 540.435 175.253 540.768 174.96L541.688 175.94C541.128 176.353 540.542 176.667 539.928 176.88C539.328 177.08 538.668 177.18 537.948 177.18ZM534.288 171.26H540.988C540.908 170.66 540.708 170.127 540.388 169.66C540.082 169.18 539.695 168.807 539.228 168.54C538.762 168.26 538.248 168.12 537.688 168.12C537.115 168.12 536.588 168.253 536.108 168.52C535.628 168.787 535.228 169.16 534.908 169.64C534.588 170.107 534.382 170.647 534.288 171.26ZM544.537 177V166.98H546.017V168.16C546.804 167.24 547.857 166.78 549.177 166.78C549.937 166.78 550.604 166.947 551.177 167.28C551.764 167.6 552.217 168.053 552.537 168.64C552.871 169.213 553.037 169.887 553.037 170.66V177H551.577V170.96C551.577 170.067 551.324 169.367 550.817 168.86C550.324 168.34 549.644 168.08 548.777 168.08C548.177 168.08 547.644 168.213 547.177 168.48C546.711 168.747 546.324 169.127 546.017 169.62V177H544.537ZM559.161 177.2C558.294 177.2 557.628 176.993 557.161 176.58C556.694 176.167 556.461 175.567 556.461 174.78V168.24H554.301V166.98H556.461V164.44L557.921 164.06V166.98H560.941V168.24H557.921V174.4C557.921 174.933 558.041 175.32 558.281 175.56C558.521 175.787 558.914 175.9 559.461 175.9C559.741 175.9 559.988 175.88 560.201 175.84C560.428 175.8 560.668 175.733 560.921 175.64V176.94C560.668 177.033 560.381 177.1 560.061 177.14C559.754 177.18 559.454 177.2 559.161 177.2ZM566.99 177.2C566.044 177.2 565.177 176.973 564.39 176.52C563.617 176.053 563.004 175.427 562.55 174.64C562.097 173.853 561.87 172.973 561.87 172C561.87 171.027 562.097 170.147 562.55 169.36C563.004 168.573 563.617 167.953 564.39 167.5C565.177 167.033 566.044 166.8 566.99 166.8C567.95 166.8 568.817 167.033 569.59 167.5C570.364 167.953 570.977 168.573 571.43 169.36C571.884 170.147 572.11 171.027 572.11 172C572.11 172.973 571.884 173.853 571.43 174.64C570.977 175.427 570.364 176.053 569.59 176.52C568.817 176.973 567.95 177.2 566.99 177.2ZM566.99 175.88C567.67 175.88 568.284 175.707 568.83 175.36C569.39 175.013 569.83 174.547 570.15 173.96C570.484 173.373 570.65 172.72 570.65 172C570.65 171.267 570.484 170.613 570.15 170.04C569.83 169.453 569.39 168.987 568.83 168.64C568.284 168.293 567.67 168.12 566.99 168.12C566.31 168.12 565.69 168.293 565.13 168.64C564.584 168.987 564.144 169.453 563.81 170.04C563.49 170.613 563.33 171.267 563.33 172C563.33 172.72 563.49 173.373 563.81 173.96C564.144 174.547 564.584 175.013 565.13 175.36C565.69 175.707 566.31 175.88 566.99 175.88ZM583.043 177.16C582.11 177.16 581.256 176.933 580.483 176.48C579.723 176.013 579.116 175.393 578.663 174.62C578.223 173.833 578.003 172.953 578.003 171.98C578.003 171.007 578.223 170.133 578.663 169.36C579.116 168.587 579.723 167.973 580.483 167.52C581.256 167.053 582.116 166.82 583.063 166.82C583.65 166.82 584.216 166.92 584.763 167.12C585.31 167.307 585.81 167.587 586.263 167.96V163L587.743 162.66V177H586.283V175.94C585.403 176.753 584.323 177.16 583.043 177.16ZM583.183 175.86C583.81 175.86 584.39 175.74 584.923 175.5C585.47 175.247 585.916 174.9 586.263 174.46V169.5C585.916 169.073 585.47 168.74 584.923 168.5C584.39 168.247 583.81 168.12 583.183 168.12C582.49 168.12 581.856 168.287 581.283 168.62C580.723 168.953 580.276 169.413 579.943 170C579.623 170.573 579.463 171.227 579.463 171.96C579.463 172.693 579.623 173.353 579.943 173.94C580.276 174.527 580.723 174.993 581.283 175.34C581.856 175.687 582.49 175.86 583.183 175.86ZM594.96 177.18C594 177.18 593.127 176.953 592.34 176.5C591.567 176.033 590.947 175.407 590.48 174.62C590.027 173.833 589.8 172.953 589.8 171.98C589.8 171.02 590.02 170.153 590.46 169.38C590.9 168.593 591.493 167.973 592.24 167.52C592.987 167.053 593.82 166.82 594.74 166.82C595.633 166.82 596.433 167.053 597.14 167.52C597.86 167.973 598.427 168.593 598.84 169.38C599.267 170.153 599.48 171.02 599.48 171.98V172.44H591.26C591.34 173.093 591.547 173.68 591.88 174.2C592.227 174.72 592.673 175.133 593.22 175.44C593.767 175.733 594.367 175.88 595.02 175.88C595.54 175.88 596.047 175.8 596.54 175.64C597.033 175.48 597.447 175.253 597.78 174.96L598.7 175.94C598.14 176.353 597.553 176.667 596.94 176.88C596.34 177.08 595.68 177.18 594.96 177.18ZM591.3 171.26H598C597.92 170.66 597.72 170.127 597.4 169.66C597.093 169.18 596.707 168.807 596.24 168.54C595.773 168.26 595.26 168.12 594.7 168.12C594.127 168.12 593.6 168.253 593.12 168.52C592.64 168.787 592.24 169.16 591.92 169.64C591.6 170.107 591.393 170.647 591.3 171.26ZM607.686 177L604.866 166.98H606.326L608.486 174.98L610.986 166.98H612.306L614.786 174.98L616.966 166.98H618.366L615.526 177H614.106L611.626 168.98L609.126 177H607.686ZM624.413 177.18C623.453 177.18 622.58 176.953 621.793 176.5C621.02 176.033 620.4 175.407 619.933 174.62C619.48 173.833 619.253 172.953 619.253 171.98C619.253 171.02 619.473 170.153 619.913 169.38C620.353 168.593 620.946 167.973 621.693 167.52C622.44 167.053 623.273 166.82 624.193 166.82C625.086 166.82 625.886 167.053 626.593 167.52C627.313 167.973 627.88 168.593 628.293 169.38C628.72 170.153 628.933 171.02 628.933 171.98V172.44H620.713C620.793 173.093 621 173.68 621.333 174.2C621.68 174.72 622.126 175.133 622.673 175.44C623.22 175.733 623.82 175.88 624.473 175.88C624.993 175.88 625.5 175.8 625.993 175.64C626.486 175.48 626.9 175.253 627.233 174.96L628.153 175.94C627.593 176.353 627.006 176.667 626.393 176.88C625.793 177.08 625.133 177.18 624.413 177.18ZM620.753 171.26H627.453C627.373 170.66 627.173 170.127 626.853 169.66C626.546 169.18 626.16 168.807 625.693 168.54C625.226 168.26 624.713 168.12 624.153 168.12C623.58 168.12 623.053 168.253 622.573 168.52C622.093 168.787 621.693 169.16 621.373 169.64C621.053 170.107 620.846 170.647 620.753 171.26ZM631.002 177V163L632.482 162.66V168.04C633.336 167.227 634.409 166.82 635.702 166.82C636.649 166.82 637.502 167.053 638.262 167.52C639.022 167.973 639.622 168.587 640.062 169.36C640.516 170.133 640.742 171.007 640.742 171.98C640.742 172.953 640.516 173.833 640.062 174.62C639.622 175.393 639.022 176.013 638.262 176.48C637.502 176.933 636.642 177.16 635.682 177.16C635.096 177.16 634.522 177.06 633.962 176.86C633.416 176.66 632.916 176.373 632.462 176V177H631.002ZM635.562 175.86C636.269 175.86 636.902 175.693 637.462 175.36C638.022 175.013 638.462 174.553 638.782 173.98C639.116 173.393 639.282 172.733 639.282 172C639.282 171.267 639.116 170.607 638.782 170.02C638.462 169.433 638.022 168.973 637.462 168.64C636.902 168.293 636.269 168.12 635.562 168.12C634.936 168.12 634.349 168.247 633.802 168.5C633.269 168.74 632.829 169.08 632.482 169.52V174.48C632.829 174.907 633.276 175.247 633.822 175.5C634.369 175.74 634.949 175.86 635.562 175.86ZM645.999 177.2C645.172 177.2 644.392 177.067 643.659 176.8C642.939 176.52 642.312 176.133 641.779 175.64L642.679 174.68C643.146 175.107 643.659 175.44 644.219 175.68C644.779 175.907 645.352 176.02 645.939 176.02C646.739 176.02 647.392 175.853 647.899 175.52C648.406 175.187 648.659 174.753 648.659 174.22C648.659 173.78 648.506 173.44 648.199 173.2C647.906 172.947 647.439 172.773 646.799 172.68L645.059 172.44C644.059 172.293 643.312 171.993 642.819 171.54C642.339 171.087 642.099 170.473 642.099 169.7C642.099 169.14 642.259 168.64 642.579 168.2C642.899 167.76 643.339 167.413 643.899 167.16C644.472 166.907 645.126 166.78 645.859 166.78C646.592 166.78 647.279 166.887 647.919 167.1C648.559 167.313 649.186 167.647 649.799 168.1L649.019 169.1C648.459 168.713 647.912 168.433 647.379 168.26C646.859 168.073 646.326 167.98 645.779 167.98C645.086 167.98 644.526 168.133 644.099 168.44C643.672 168.747 643.459 169.147 643.459 169.64C643.459 170.093 643.606 170.44 643.899 170.68C644.192 170.907 644.666 171.067 645.319 171.16L647.059 171.4C648.059 171.533 648.806 171.827 649.299 172.28C649.806 172.733 650.059 173.353 650.059 174.14C650.059 174.713 649.879 175.233 649.519 175.7C649.159 176.167 648.672 176.533 648.059 176.8C647.459 177.067 646.772 177.2 645.999 177.2ZM651.725 177V166.98H653.205V177H651.725ZM652.465 165.06C652.198 165.06 651.965 164.96 651.765 164.76C651.565 164.56 651.465 164.327 651.465 164.06C651.465 163.78 651.565 163.547 651.765 163.36C651.965 163.16 652.198 163.06 652.465 163.06C652.745 163.06 652.978 163.16 653.165 163.36C653.365 163.547 653.465 163.78 653.465 164.06C653.465 164.327 653.365 164.56 653.165 164.76C652.978 164.96 652.745 165.06 652.465 165.06ZM659.669 177.2C658.802 177.2 658.135 176.993 657.669 176.58C657.202 176.167 656.969 175.567 656.969 174.78V168.24H654.809V166.98H656.969V164.44L658.429 164.06V166.98H661.449V168.24H658.429V174.4C658.429 174.933 658.549 175.32 658.789 175.56C659.029 175.787 659.422 175.9 659.969 175.9C660.249 175.9 660.495 175.88 660.709 175.84C660.935 175.8 661.175 175.733 661.429 175.64V176.94C661.175 177.033 660.889 177.1 660.569 177.14C660.262 177.18 659.962 177.2 659.669 177.2ZM667.538 177.18C666.578 177.18 665.705 176.953 664.918 176.5C664.145 176.033 663.525 175.407 663.058 174.62C662.605 173.833 662.378 172.953 662.378 171.98C662.378 171.02 662.598 170.153 663.038 169.38C663.478 168.593 664.071 167.973 664.818 167.52C665.565 167.053 666.398 166.82 667.318 166.82C668.211 166.82 669.011 167.053 669.718 167.52C670.438 167.973 671.005 168.593 671.418 169.38C671.845 170.153 672.058 171.02 672.058 171.98V172.44H663.838C663.918 173.093 664.125 173.68 664.458 174.2C664.805 174.72 665.251 175.133 665.798 175.44C666.345 175.733 666.945 175.88 667.598 175.88C668.118 175.88 668.625 175.8 669.118 175.64C669.611 175.48 670.025 175.253 670.358 174.96L671.278 175.94C670.718 176.353 670.131 176.667 669.518 176.88C668.918 177.08 668.258 177.18 667.538 177.18ZM663.878 171.26H670.578C670.498 170.66 670.298 170.127 669.978 169.66C669.671 169.18 669.285 168.807 668.818 168.54C668.351 168.26 667.838 168.12 667.278 168.12C666.705 168.12 666.178 168.253 665.698 168.52C665.218 168.787 664.818 169.16 664.498 169.64C664.178 170.107 663.971 170.647 663.878 171.26ZM677.425 177.2C676.598 177.2 675.818 177.067 675.085 176.8C674.365 176.52 673.738 176.133 673.205 175.64L674.105 174.68C674.572 175.107 675.085 175.44 675.645 175.68C676.205 175.907 676.778 176.02 677.365 176.02C678.165 176.02 678.818 175.853 679.325 175.52C679.832 175.187 680.085 174.753 680.085 174.22C680.085 173.78 679.932 173.44 679.625 173.2C679.332 172.947 678.865 172.773 678.225 172.68L676.485 172.44C675.485 172.293 674.738 171.993 674.245 171.54C673.765 171.087 673.525 170.473 673.525 169.7C673.525 169.14 673.685 168.64 674.005 168.2C674.325 167.76 674.765 167.413 675.325 167.16C675.898 166.907 676.552 166.78 677.285 166.78C678.018 166.78 678.705 166.887 679.345 167.1C679.985 167.313 680.612 167.647 681.225 168.1L680.445 169.1C679.885 168.713 679.338 168.433 678.805 168.26C678.285 168.073 677.752 167.98 677.205 167.98C676.512 167.98 675.952 168.133 675.525 168.44C675.098 168.747 674.885 169.147 674.885 169.64C674.885 170.093 675.032 170.44 675.325 170.68C675.618 170.907 676.092 171.067 676.745 171.16L678.485 171.4C679.485 171.533 680.232 171.827 680.725 172.28C681.232 172.733 681.485 173.353 681.485 174.14C681.485 174.713 681.305 175.233 680.945 175.7C680.585 176.167 680.098 176.533 679.485 176.8C678.885 177.067 678.198 177.2 677.425 177.2ZM692.148 177.18C691.188 177.18 690.314 176.953 689.528 176.5C688.754 176.033 688.134 175.407 687.668 174.62C687.214 173.833 686.988 172.953 686.988 171.98C686.988 171.02 687.208 170.153 687.648 169.38C688.088 168.593 688.681 167.973 689.428 167.52C690.174 167.053 691.008 166.82 691.928 166.82C692.821 166.82 693.621 167.053 694.328 167.52C695.048 167.973 695.614 168.593 696.028 169.38C696.454 170.153 696.668 171.02 696.668 171.98V172.44H688.448C688.528 173.093 688.734 173.68 689.068 174.2C689.414 174.72 689.861 175.133 690.408 175.44C690.954 175.733 691.554 175.88 692.208 175.88C692.728 175.88 693.234 175.8 693.728 175.64C694.221 175.48 694.634 175.253 694.968 174.96L695.888 175.94C695.328 176.353 694.741 176.667 694.128 176.88C693.528 177.08 692.868 177.18 692.148 177.18ZM688.488 171.26H695.188C695.108 170.66 694.908 170.127 694.588 169.66C694.281 169.18 693.894 168.807 693.428 168.54C692.961 168.26 692.448 168.12 691.888 168.12C691.314 168.12 690.788 168.253 690.308 168.52C689.828 168.787 689.428 169.16 689.108 169.64C688.788 170.107 688.581 170.647 688.488 171.26ZM706.193 177.18C705.46 177.18 704.813 177.053 704.253 176.8C703.707 176.547 703.273 176.193 702.953 175.74C702.647 175.287 702.493 174.76 702.493 174.16C702.493 173.213 702.853 172.467 703.573 171.92C704.293 171.373 705.267 171.1 706.493 171.1C707.573 171.1 708.553 171.327 709.433 171.78V170.46C709.433 169.66 709.207 169.06 708.753 168.66C708.3 168.247 707.64 168.04 706.773 168.04C706.28 168.04 705.78 168.113 705.273 168.26C704.78 168.393 704.233 168.613 703.633 168.92L703.073 167.78C703.793 167.433 704.46 167.18 705.073 167.02C705.687 166.86 706.3 166.78 706.913 166.78C708.18 166.78 709.153 167.08 709.833 167.68C710.527 168.28 710.873 169.14 710.873 170.26V177H709.433V176.02C708.98 176.407 708.48 176.7 707.933 176.9C707.4 177.087 706.82 177.18 706.193 177.18ZM703.913 174.12C703.913 174.68 704.147 175.14 704.613 175.5C705.093 175.847 705.707 176.02 706.453 176.02C707.053 176.02 707.6 175.927 708.093 175.74C708.587 175.553 709.033 175.26 709.433 174.86V172.98C709.02 172.7 708.58 172.5 708.113 172.38C707.647 172.247 707.12 172.18 706.533 172.18C705.733 172.18 705.093 172.36 704.613 172.72C704.147 173.067 703.913 173.533 703.913 174.12ZM713.346 181.08V166.98H714.806V168.06C715.673 167.233 716.753 166.82 718.046 166.82C718.993 166.82 719.846 167.053 720.606 167.52C721.366 167.973 721.966 168.587 722.406 169.36C722.859 170.133 723.086 171.007 723.086 171.98C723.086 172.953 722.859 173.833 722.406 174.62C721.966 175.393 721.366 176.013 720.606 176.48C719.846 176.933 718.986 177.16 718.026 177.16C717.439 177.16 716.873 177.06 716.326 176.86C715.779 176.66 715.279 176.373 714.826 176V181.08H713.346ZM717.906 175.86C718.613 175.86 719.246 175.693 719.806 175.36C720.366 175.013 720.806 174.553 721.126 173.98C721.459 173.393 721.626 172.733 721.626 172C721.626 171.267 721.459 170.607 721.126 170.02C720.806 169.433 720.366 168.973 719.806 168.64C719.246 168.293 718.613 168.12 717.906 168.12C717.279 168.12 716.693 168.247 716.146 168.5C715.613 168.74 715.173 169.08 714.826 169.52V174.48C715.173 174.907 715.619 175.247 716.166 175.5C716.713 175.74 717.293 175.86 717.906 175.86ZM725.143 177V163L726.623 162.66V177H725.143ZM729.147 177V166.98H730.627V177H729.147ZM729.887 165.06C729.62 165.06 729.387 164.96 729.187 164.76C728.987 164.56 728.887 164.327 728.887 164.06C728.887 163.78 728.987 163.547 729.187 163.36C729.387 163.16 729.62 163.06 729.887 163.06C730.167 163.06 730.4 163.16 730.587 163.36C730.787 163.547 730.887 163.78 730.887 164.06C730.887 164.327 730.787 164.56 730.587 164.76C730.4 164.96 730.167 165.06 729.887 165.06ZM737.791 177.18C736.844 177.18 735.984 176.953 735.211 176.5C734.437 176.033 733.824 175.407 733.371 174.62C732.917 173.833 732.691 172.953 732.691 171.98C732.691 171.007 732.917 170.133 733.371 169.36C733.824 168.573 734.437 167.947 735.211 167.48C735.984 167.013 736.844 166.78 737.791 166.78C738.524 166.78 739.231 166.92 739.911 167.2C740.591 167.467 741.191 167.853 741.711 168.36L740.771 169.44C740.371 169.013 739.911 168.693 739.391 168.48C738.884 168.253 738.357 168.14 737.811 168.14C737.131 168.14 736.511 168.313 735.951 168.66C735.404 168.993 734.964 169.453 734.631 170.04C734.311 170.613 734.151 171.26 734.151 171.98C734.151 172.7 734.311 173.353 734.631 173.94C734.964 174.527 735.411 174.993 735.971 175.34C736.531 175.673 737.151 175.84 737.831 175.84C738.377 175.84 738.891 175.733 739.371 175.52C739.864 175.307 740.324 174.993 740.751 174.58L741.671 175.58C741.137 176.087 740.537 176.48 739.871 176.76C739.204 177.04 738.511 177.18 737.791 177.18ZM746.565 177.18C745.831 177.18 745.185 177.053 744.625 176.8C744.078 176.547 743.645 176.193 743.325 175.74C743.018 175.287 742.865 174.76 742.865 174.16C742.865 173.213 743.225 172.467 743.945 171.92C744.665 171.373 745.638 171.1 746.865 171.1C747.945 171.1 748.925 171.327 749.805 171.78V170.46C749.805 169.66 749.578 169.06 749.125 168.66C748.671 168.247 748.011 168.04 747.145 168.04C746.651 168.04 746.151 168.113 745.645 168.26C745.151 168.393 744.605 168.613 744.005 168.92L743.445 167.78C744.165 167.433 744.831 167.18 745.445 167.02C746.058 166.86 746.671 166.78 747.285 166.78C748.551 166.78 749.525 167.08 750.205 167.68C750.898 168.28 751.245 169.14 751.245 170.26V177H749.805V176.02C749.351 176.407 748.851 176.7 748.305 176.9C747.771 177.087 747.191 177.18 746.565 177.18ZM744.285 174.12C744.285 174.68 744.518 175.14 744.985 175.5C745.465 175.847 746.078 176.02 746.825 176.02C747.425 176.02 747.971 175.927 748.465 175.74C748.958 175.553 749.405 175.26 749.805 174.86V172.98C749.391 172.7 748.951 172.5 748.485 172.38C748.018 172.247 747.491 172.18 746.905 172.18C746.105 172.18 745.465 172.36 744.985 172.72C744.518 173.067 744.285 173.533 744.285 174.12ZM757.364 177.2C756.497 177.2 755.831 176.993 755.364 176.58C754.897 176.167 754.664 175.567 754.664 174.78V168.24H752.504V166.98H754.664V164.44L756.124 164.06V166.98H759.144V168.24H756.124V174.4C756.124 174.933 756.244 175.32 756.484 175.56C756.724 175.787 757.117 175.9 757.664 175.9C757.944 175.9 758.191 175.88 758.404 175.84C758.631 175.8 758.871 175.733 759.124 175.64V176.94C758.871 177.033 758.584 177.1 758.264 177.14C757.957 177.18 757.657 177.2 757.364 177.2ZM760.729 177V166.98H762.209V177H760.729ZM761.469 165.06C761.202 165.06 760.969 164.96 760.769 164.76C760.569 164.56 760.469 164.327 760.469 164.06C760.469 163.78 760.569 163.547 760.769 163.36C760.969 163.16 761.202 163.06 761.469 163.06C761.749 163.06 761.982 163.16 762.169 163.36C762.369 163.547 762.469 163.78 762.469 164.06C762.469 164.327 762.369 164.56 762.169 164.76C761.982 164.96 761.749 165.06 761.469 165.06ZM767.913 177L763.573 166.98H765.213L768.633 175.08L772.053 166.98H773.633L769.313 177H767.913ZM779.354 177.2C778.407 177.2 777.54 176.973 776.754 176.52C775.98 176.053 775.367 175.427 774.914 174.64C774.46 173.853 774.234 172.973 774.234 172C774.234 171.027 774.46 170.147 774.914 169.36C775.367 168.573 775.98 167.953 776.754 167.5C777.54 167.033 778.407 166.8 779.354 166.8C780.314 166.8 781.18 167.033 781.954 167.5C782.727 167.953 783.34 168.573 783.794 169.36C784.247 170.147 784.474 171.027 784.474 172C784.474 172.973 784.247 173.853 783.794 174.64C783.34 175.427 782.727 176.053 781.954 176.52C781.18 176.973 780.314 177.2 779.354 177.2ZM779.354 175.88C780.034 175.88 780.647 175.707 781.194 175.36C781.754 175.013 782.194 174.547 782.514 173.96C782.847 173.373 783.014 172.72 783.014 172C783.014 171.267 782.847 170.613 782.514 170.04C782.194 169.453 781.754 168.987 781.194 168.64C780.647 168.293 780.034 168.12 779.354 168.12C778.674 168.12 778.054 168.293 777.494 168.64C776.947 168.987 776.507 169.453 776.174 170.04C775.854 170.613 775.694 171.267 775.694 172C775.694 172.72 775.854 173.373 776.174 173.96C776.507 174.547 776.947 175.013 777.494 175.36C778.054 175.707 778.674 175.88 779.354 175.88ZM789.73 177.2C788.903 177.2 788.123 177.067 787.39 176.8C786.67 176.52 786.043 176.133 785.51 175.64L786.41 174.68C786.876 175.107 787.39 175.44 787.95 175.68C788.51 175.907 789.083 176.02 789.67 176.02C790.47 176.02 791.123 175.853 791.63 175.52C792.136 175.187 792.39 174.753 792.39 174.22C792.39 173.78 792.236 173.44 791.93 173.2C791.636 172.947 791.17 172.773 790.53 172.68L788.79 172.44C787.79 172.293 787.043 171.993 786.55 171.54C786.07 171.087 785.83 170.473 785.83 169.7C785.83 169.14 785.99 168.64 786.31 168.2C786.63 167.76 787.07 167.413 787.63 167.16C788.203 166.907 788.856 166.78 789.59 166.78C790.323 166.78 791.01 166.887 791.65 167.1C792.29 167.313 792.916 167.647 793.53 168.1L792.75 169.1C792.19 168.713 791.643 168.433 791.11 168.26C790.59 168.073 790.056 167.98 789.51 167.98C788.816 167.98 788.256 168.133 787.83 168.44C787.403 168.747 787.19 169.147 787.19 169.64C787.19 170.093 787.336 170.44 787.63 170.68C787.923 170.907 788.396 171.067 789.05 171.16L790.79 171.4C791.79 171.533 792.536 171.827 793.03 172.28C793.536 172.733 793.79 173.353 793.79 174.14C793.79 174.713 793.61 175.233 793.25 175.7C792.89 176.167 792.403 176.533 791.79 176.8C791.19 177.067 790.503 177.2 789.73 177.2ZM794.88 179.74L796.04 175.52H797.64L796.04 179.74H794.88ZM364.244 203V192.98H365.724V203H364.244ZM364.984 191.06C364.718 191.06 364.484 190.96 364.284 190.76C364.084 190.56 363.984 190.327 363.984 190.06C363.984 189.78 364.084 189.547 364.284 189.36C364.484 189.16 364.718 189.06 364.984 189.06C365.264 189.06 365.498 189.16 365.684 189.36C365.884 189.547 365.984 189.78 365.984 190.06C365.984 190.327 365.884 190.56 365.684 190.76C365.498 190.96 365.264 191.06 364.984 191.06ZM368.248 203V192.98H369.728V194.16C370.515 193.24 371.568 192.78 372.888 192.78C373.648 192.78 374.315 192.947 374.888 193.28C375.475 193.6 375.928 194.053 376.248 194.64C376.582 195.213 376.748 195.887 376.748 196.66V203H375.288V196.96C375.288 196.067 375.035 195.367 374.528 194.86C374.035 194.34 373.355 194.08 372.488 194.08C371.888 194.08 371.355 194.213 370.888 194.48C370.422 194.747 370.035 195.127 369.728 195.62V203H368.248ZM382.872 203.2C382.005 203.2 381.339 202.993 380.872 202.58C380.405 202.167 380.172 201.567 380.172 200.78V194.24H378.012V192.98H380.172V190.44L381.632 190.06V192.98H384.652V194.24H381.632V200.4C381.632 200.933 381.752 201.32 381.992 201.56C382.232 201.787 382.625 201.9 383.172 201.9C383.452 201.9 383.699 201.88 383.912 201.84C384.139 201.8 384.379 201.733 384.632 201.64V202.94C384.379 203.033 384.092 203.1 383.772 203.14C383.465 203.18 383.165 203.2 382.872 203.2ZM390.741 203.18C389.781 203.18 388.908 202.953 388.121 202.5C387.348 202.033 386.728 201.407 386.261 200.62C385.808 199.833 385.581 198.953 385.581 197.98C385.581 197.02 385.801 196.153 386.241 195.38C386.681 194.593 387.275 193.973 388.021 193.52C388.768 193.053 389.601 192.82 390.521 192.82C391.415 192.82 392.215 193.053 392.921 193.52C393.641 193.973 394.208 194.593 394.621 195.38C395.048 196.153 395.261 197.02 395.261 197.98V198.44H387.041C387.121 199.093 387.328 199.68 387.661 200.2C388.008 200.72 388.455 201.133 389.001 201.44C389.548 201.733 390.148 201.88 390.801 201.88C391.321 201.88 391.828 201.8 392.321 201.64C392.815 201.48 393.228 201.253 393.561 200.96L394.481 201.94C393.921 202.353 393.335 202.667 392.721 202.88C392.121 203.08 391.461 203.18 390.741 203.18ZM387.081 197.26H393.781C393.701 196.66 393.501 196.127 393.181 195.66C392.875 195.18 392.488 194.807 392.021 194.54C391.555 194.26 391.041 194.12 390.481 194.12C389.908 194.12 389.381 194.253 388.901 194.52C388.421 194.787 388.021 195.16 387.701 195.64C387.381 196.107 387.175 196.647 387.081 197.26ZM402.21 207.28C401.517 207.28 400.83 207.187 400.15 207C399.47 206.827 398.85 206.573 398.29 206.24L398.93 205.08C399.53 205.4 400.084 205.633 400.59 205.78C401.11 205.927 401.63 206 402.15 206C403.097 206 403.817 205.773 404.31 205.32C404.804 204.867 405.05 204.2 405.05 203.32V201.92C404.13 202.693 403.07 203.08 401.87 203.08C400.95 203.08 400.11 202.853 399.35 202.4C398.59 201.947 397.984 201.333 397.53 200.56C397.09 199.773 396.87 198.9 396.87 197.94C396.87 196.98 397.09 196.113 397.53 195.34C397.984 194.553 398.59 193.933 399.35 193.48C400.11 193.027 400.964 192.8 401.91 192.8C402.484 192.8 403.037 192.9 403.57 193.1C404.117 193.3 404.617 193.593 405.07 193.98V192.98H406.53V203.3C406.53 204.58 406.157 205.56 405.41 206.24C404.664 206.933 403.597 207.28 402.21 207.28ZM401.99 201.78C402.63 201.78 403.217 201.66 403.75 201.42C404.284 201.18 404.717 200.84 405.05 200.4V195.48C404.717 195.053 404.277 194.72 403.73 194.48C403.197 194.24 402.617 194.12 401.99 194.12C401.297 194.12 400.67 194.287 400.11 194.62C399.564 194.953 399.13 195.413 398.81 196C398.49 196.573 398.33 197.22 398.33 197.94C398.33 198.66 398.49 199.313 398.81 199.9C399.144 200.473 399.584 200.933 400.13 201.28C400.69 201.613 401.31 201.78 401.99 201.78ZM409.049 203V192.98H410.529V194.4C410.836 193.88 411.222 193.48 411.689 193.2C412.169 192.907 412.716 192.76 413.329 192.76C413.676 192.76 413.989 192.807 414.269 192.9V194.26C414.096 194.193 413.922 194.147 413.749 194.12C413.576 194.093 413.402 194.08 413.229 194.08C412.616 194.08 412.076 194.26 411.609 194.62C411.156 194.967 410.796 195.473 410.529 196.14V203H409.049ZM418.615 203.18C417.882 203.18 417.235 203.053 416.675 202.8C416.129 202.547 415.695 202.193 415.375 201.74C415.069 201.287 414.915 200.76 414.915 200.16C414.915 199.213 415.275 198.467 415.995 197.92C416.715 197.373 417.689 197.1 418.915 197.1C419.995 197.1 420.975 197.327 421.855 197.78V196.46C421.855 195.66 421.629 195.06 421.175 194.66C420.722 194.247 420.062 194.04 419.195 194.04C418.702 194.04 418.202 194.113 417.695 194.26C417.202 194.393 416.655 194.613 416.055 194.92L415.495 193.78C416.215 193.433 416.882 193.18 417.495 193.02C418.109 192.86 418.722 192.78 419.335 192.78C420.602 192.78 421.575 193.08 422.255 193.68C422.949 194.28 423.295 195.14 423.295 196.26V203H421.855V202.02C421.402 202.407 420.902 202.7 420.355 202.9C419.822 203.087 419.242 203.18 418.615 203.18ZM416.335 200.12C416.335 200.68 416.569 201.14 417.035 201.5C417.515 201.847 418.129 202.02 418.875 202.02C419.475 202.02 420.022 201.927 420.515 201.74C421.009 201.553 421.455 201.26 421.855 200.86V198.98C421.442 198.7 421.002 198.5 420.535 198.38C420.069 198.247 419.542 198.18 418.955 198.18C418.155 198.18 417.515 198.36 417.035 198.72C416.569 199.067 416.335 199.533 416.335 200.12ZM430.148 207.56C429.228 207.56 428.474 207.287 427.888 206.74L428.488 206.1C428.994 206.527 429.548 206.74 430.148 206.74C430.548 206.74 430.861 206.647 431.088 206.46C431.314 206.287 431.428 206.053 431.428 205.76C431.428 205.467 431.301 205.233 431.048 205.06C430.808 204.9 430.474 204.82 430.048 204.82H429.468L429.948 203.16C429.068 203.08 428.274 202.807 427.568 202.34C426.874 201.86 426.321 201.247 425.908 200.5C425.508 199.74 425.308 198.9 425.308 197.98C425.308 197.007 425.534 196.133 425.988 195.36C426.441 194.573 427.054 193.947 427.828 193.48C428.601 193.013 429.461 192.78 430.408 192.78C431.141 192.78 431.848 192.92 432.528 193.2C433.208 193.467 433.808 193.853 434.328 194.36L433.388 195.44C432.988 195.013 432.528 194.693 432.008 194.48C431.501 194.253 430.974 194.14 430.428 194.14C429.748 194.14 429.128 194.313 428.568 194.66C428.021 194.993 427.581 195.453 427.248 196.04C426.928 196.613 426.768 197.26 426.768 197.98C426.768 198.7 426.928 199.353 427.248 199.94C427.581 200.527 428.028 200.993 428.588 201.34C429.148 201.673 429.768 201.84 430.448 201.84C430.994 201.84 431.508 201.733 431.988 201.52C432.481 201.307 432.941 200.993 433.368 200.58L434.288 201.58C433.808 202.033 433.268 202.4 432.668 202.68C432.081 202.947 431.461 203.107 430.808 203.16L430.548 204.1C431.134 204.127 431.594 204.287 431.928 204.58C432.274 204.873 432.448 205.26 432.448 205.74C432.448 206.273 432.228 206.707 431.788 207.04C431.361 207.387 430.814 207.56 430.148 207.56ZM440.389 203.2C439.442 203.2 438.575 202.973 437.789 202.52C437.015 202.053 436.402 201.427 435.949 200.64C435.495 199.853 435.269 198.973 435.269 198C435.269 197.027 435.495 196.147 435.949 195.36C436.402 194.573 437.015 193.953 437.789 193.5C438.575 193.033 439.442 192.8 440.389 192.8C441.349 192.8 442.215 193.033 442.989 193.5C443.762 193.953 444.375 194.573 444.829 195.36C445.282 196.147 445.509 197.027 445.509 198C445.509 198.973 445.282 199.853 444.829 200.64C444.375 201.427 443.762 202.053 442.989 202.52C442.215 202.973 441.349 203.2 440.389 203.2ZM440.389 201.88C441.069 201.88 441.682 201.707 442.229 201.36C442.789 201.013 443.229 200.547 443.549 199.96C443.882 199.373 444.049 198.72 444.049 198C444.049 197.267 443.882 196.613 443.549 196.04C443.229 195.453 442.789 194.987 442.229 194.64C441.682 194.293 441.069 194.12 440.389 194.12C439.709 194.12 439.089 194.293 438.529 194.64C437.982 194.987 437.542 195.453 437.209 196.04C436.889 196.613 436.729 197.267 436.729 198C436.729 198.72 436.889 199.373 437.209 199.96C437.542 200.547 437.982 201.013 438.529 201.36C439.089 201.707 439.709 201.88 440.389 201.88ZM438.069 191.1L437.029 190.9C437.322 189.567 437.949 188.9 438.909 188.9C439.269 188.9 439.615 188.993 439.949 189.18C440.295 189.353 440.622 189.533 440.929 189.72C441.235 189.907 441.529 190 441.809 190C442.035 190 442.215 189.913 442.349 189.74C442.495 189.567 442.615 189.273 442.709 188.86L443.729 189.06C443.595 189.727 443.369 190.227 443.049 190.56C442.729 190.893 442.329 191.06 441.849 191.06C441.502 191.06 441.155 190.967 440.809 190.78C440.475 190.593 440.149 190.413 439.829 190.24C439.522 190.053 439.229 189.96 438.949 189.96C438.709 189.96 438.522 190.047 438.389 190.22C438.255 190.393 438.149 190.687 438.069 191.1ZM452.265 203.18C451.305 203.18 450.431 202.953 449.645 202.5C448.871 202.033 448.251 201.407 447.785 200.62C447.331 199.833 447.105 198.953 447.105 197.98C447.105 197.02 447.325 196.153 447.765 195.38C448.205 194.593 448.798 193.973 449.545 193.52C450.291 193.053 451.125 192.82 452.045 192.82C452.938 192.82 453.738 193.053 454.445 193.52C455.165 193.973 455.731 194.593 456.145 195.38C456.571 196.153 456.785 197.02 456.785 197.98V198.44H448.565C448.645 199.093 448.851 199.68 449.185 200.2C449.531 200.72 449.978 201.133 450.525 201.44C451.071 201.733 451.671 201.88 452.325 201.88C452.845 201.88 453.351 201.8 453.845 201.64C454.338 201.48 454.751 201.253 455.085 200.96L456.005 201.94C455.445 202.353 454.858 202.667 454.245 202.88C453.645 203.08 452.985 203.18 452.265 203.18ZM448.605 197.26H455.305C455.225 196.66 455.025 196.127 454.705 195.66C454.398 195.18 454.011 194.807 453.545 194.54C453.078 194.26 452.565 194.12 452.005 194.12C451.431 194.12 450.905 194.253 450.425 194.52C449.945 194.787 449.545 195.16 449.225 195.64C448.905 196.107 448.698 196.647 448.605 197.26ZM462.151 203.2C461.325 203.2 460.545 203.067 459.811 202.8C459.091 202.52 458.465 202.133 457.931 201.64L458.831 200.68C459.298 201.107 459.811 201.44 460.371 201.68C460.931 201.907 461.505 202.02 462.091 202.02C462.891 202.02 463.545 201.853 464.051 201.52C464.558 201.187 464.811 200.753 464.811 200.22C464.811 199.78 464.658 199.44 464.351 199.2C464.058 198.947 463.591 198.773 462.951 198.68L461.211 198.44C460.211 198.293 459.465 197.993 458.971 197.54C458.491 197.087 458.251 196.473 458.251 195.7C458.251 195.14 458.411 194.64 458.731 194.2C459.051 193.76 459.491 193.413 460.051 193.16C460.625 192.907 461.278 192.78 462.011 192.78C462.745 192.78 463.431 192.887 464.071 193.1C464.711 193.313 465.338 193.647 465.951 194.1L465.171 195.1C464.611 194.713 464.065 194.433 463.531 194.26C463.011 194.073 462.478 193.98 461.931 193.98C461.238 193.98 460.678 194.133 460.251 194.44C459.825 194.747 459.611 195.147 459.611 195.64C459.611 196.093 459.758 196.44 460.051 196.68C460.345 196.907 460.818 197.067 461.471 197.16L463.211 197.4C464.211 197.533 464.958 197.827 465.451 198.28C465.958 198.733 466.211 199.353 466.211 200.14C466.211 200.713 466.031 201.233 465.671 201.7C465.311 202.167 464.825 202.533 464.211 202.8C463.611 203.067 462.925 203.2 462.151 203.2ZM476.814 203.18C475.867 203.18 475.007 202.953 474.234 202.5C473.461 202.033 472.847 201.407 472.394 200.62C471.941 199.833 471.714 198.953 471.714 197.98C471.714 197.007 471.941 196.133 472.394 195.36C472.847 194.573 473.461 193.947 474.234 193.48C475.007 193.013 475.867 192.78 476.814 192.78C477.547 192.78 478.254 192.92 478.934 193.2C479.614 193.467 480.214 193.853 480.734 194.36L479.794 195.44C479.394 195.013 478.934 194.693 478.414 194.48C477.907 194.253 477.381 194.14 476.834 194.14C476.154 194.14 475.534 194.313 474.974 194.66C474.427 194.993 473.987 195.453 473.654 196.04C473.334 196.613 473.174 197.26 473.174 197.98C473.174 198.7 473.334 199.353 473.654 199.94C473.987 200.527 474.434 200.993 474.994 201.34C475.554 201.673 476.174 201.84 476.854 201.84C477.401 201.84 477.914 201.733 478.394 201.52C478.887 201.307 479.347 200.993 479.774 200.58L480.694 201.58C480.161 202.087 479.561 202.48 478.894 202.76C478.227 203.04 477.534 203.18 476.814 203.18ZM486.795 203.2C485.848 203.2 484.982 202.973 484.195 202.52C483.422 202.053 482.808 201.427 482.355 200.64C481.902 199.853 481.675 198.973 481.675 198C481.675 197.027 481.902 196.147 482.355 195.36C482.808 194.573 483.422 193.953 484.195 193.5C484.982 193.033 485.848 192.8 486.795 192.8C487.755 192.8 488.622 193.033 489.395 193.5C490.168 193.953 490.782 194.573 491.235 195.36C491.688 196.147 491.915 197.027 491.915 198C491.915 198.973 491.688 199.853 491.235 200.64C490.782 201.427 490.168 202.053 489.395 202.52C488.622 202.973 487.755 203.2 486.795 203.2ZM486.795 201.88C487.475 201.88 488.088 201.707 488.635 201.36C489.195 201.013 489.635 200.547 489.955 199.96C490.288 199.373 490.455 198.72 490.455 198C490.455 197.267 490.288 196.613 489.955 196.04C489.635 195.453 489.195 194.987 488.635 194.64C488.088 194.293 487.475 194.12 486.795 194.12C486.115 194.12 485.495 194.293 484.935 194.64C484.388 194.987 483.948 195.453 483.615 196.04C483.295 196.613 483.135 197.267 483.135 198C483.135 198.72 483.295 199.373 483.615 199.96C483.948 200.547 484.388 201.013 484.935 201.36C485.495 201.707 486.115 201.88 486.795 201.88ZM493.971 203V192.98H495.451V194.08C496.211 193.213 497.191 192.78 498.391 192.78C499.098 192.78 499.724 192.947 500.271 193.28C500.818 193.6 501.244 194.04 501.551 194.6C501.964 193.987 502.458 193.533 503.031 193.24C503.604 192.933 504.258 192.78 504.991 192.78C505.724 192.78 506.364 192.947 506.911 193.28C507.458 193.6 507.884 194.053 508.191 194.64C508.511 195.213 508.671 195.887 508.671 196.66V203H507.211V196.96C507.211 196.067 506.978 195.367 506.511 194.86C506.044 194.34 505.411 194.08 504.611 194.08C504.064 194.08 503.564 194.22 503.111 194.5C502.658 194.767 502.271 195.173 501.951 195.72C501.978 195.867 501.998 196.02 502.011 196.18C502.038 196.327 502.051 196.487 502.051 196.66V203H500.591V196.96C500.591 196.067 500.358 195.367 499.891 194.86C499.424 194.34 498.798 194.08 498.011 194.08C497.478 194.08 496.991 194.207 496.551 194.46C496.124 194.7 495.758 195.06 495.451 195.54V203H493.971ZM514.275 203L520.075 189H521.935L527.695 203H526.015L524.255 198.6H517.655L515.875 203H514.275ZM518.195 197.28H523.715L520.955 190.42L518.195 197.28ZM529.31 203V189H535.39C536.31 189 537.103 189.167 537.77 189.5C538.45 189.833 538.976 190.307 539.35 190.92C539.723 191.52 539.91 192.227 539.91 193.04C539.91 193.853 539.723 194.567 539.35 195.18C538.976 195.78 538.45 196.253 537.77 196.6C537.09 196.933 536.296 197.1 535.39 197.1H530.85V203H529.31ZM530.85 195.76H535.27C536.216 195.76 536.97 195.52 537.53 195.04C538.09 194.547 538.37 193.887 538.37 193.06C538.37 192.233 538.09 191.58 537.53 191.1C536.97 190.62 536.216 190.38 535.27 190.38H530.85V195.76ZM542.259 203V189H543.799V203H542.259ZM549.808 203.2C548.981 203.2 548.201 203.067 547.468 202.8C546.748 202.52 546.121 202.133 545.588 201.64L546.488 200.68C546.954 201.107 547.468 201.44 548.028 201.68C548.588 201.907 549.161 202.02 549.748 202.02C550.548 202.02 551.201 201.853 551.708 201.52C552.214 201.187 552.468 200.753 552.468 200.22C552.468 199.78 552.314 199.44 552.008 199.2C551.714 198.947 551.248 198.773 550.608 198.68L548.868 198.44C547.868 198.293 547.121 197.993 546.628 197.54C546.148 197.087 545.908 196.473 545.908 195.7C545.908 195.14 546.068 194.64 546.388 194.2C546.708 193.76 547.148 193.413 547.708 193.16C548.281 192.907 548.934 192.78 549.668 192.78C550.401 192.78 551.088 192.887 551.728 193.1C552.368 193.313 552.994 193.647 553.608 194.1L552.828 195.1C552.268 194.713 551.721 194.433 551.188 194.26C550.668 194.073 550.134 193.98 549.588 193.98C548.894 193.98 548.334 194.133 547.908 194.44C547.481 194.747 547.268 195.147 547.268 195.64C547.268 196.093 547.414 196.44 547.708 196.68C548.001 196.907 548.474 197.067 549.128 197.16L550.868 197.4C551.868 197.533 552.614 197.827 553.108 198.28C553.614 198.733 553.868 199.353 553.868 200.14C553.868 200.713 553.688 201.233 553.328 201.7C552.968 202.167 552.481 202.533 551.868 202.8C551.268 203.067 550.581 203.2 549.808 203.2ZM554.958 205.74L556.118 201.52H557.718L556.118 205.74H554.958ZM567.835 203.2C567.008 203.2 566.228 203.067 565.495 202.8C564.775 202.52 564.148 202.133 563.615 201.64L564.515 200.68C564.982 201.107 565.495 201.44 566.055 201.68C566.615 201.907 567.188 202.02 567.775 202.02C568.575 202.02 569.228 201.853 569.735 201.52C570.242 201.187 570.495 200.753 570.495 200.22C570.495 199.78 570.342 199.44 570.035 199.2C569.742 198.947 569.275 198.773 568.635 198.68L566.895 198.44C565.895 198.293 565.148 197.993 564.655 197.54C564.175 197.087 563.935 196.473 563.935 195.7C563.935 195.14 564.095 194.64 564.415 194.2C564.735 193.76 565.175 193.413 565.735 193.16C566.308 192.907 566.962 192.78 567.695 192.78C568.428 192.78 569.115 192.887 569.755 193.1C570.395 193.313 571.022 193.647 571.635 194.1L570.855 195.1C570.295 194.713 569.748 194.433 569.215 194.26C568.695 194.073 568.162 193.98 567.615 193.98C566.922 193.98 566.362 194.133 565.935 194.44C565.508 194.747 565.295 195.147 565.295 195.64C565.295 196.093 565.442 196.44 565.735 196.68C566.028 196.907 566.502 197.067 567.155 197.16L568.895 197.4C569.895 197.533 570.642 197.827 571.135 198.28C571.642 198.733 571.895 199.353 571.895 200.14C571.895 200.713 571.715 201.233 571.355 201.7C570.995 202.167 570.508 202.533 569.895 202.8C569.295 203.067 568.608 203.2 567.835 203.2ZM578.318 203.2C577.372 203.2 576.505 202.973 575.718 202.52C574.945 202.053 574.332 201.427 573.878 200.64C573.425 199.853 573.198 198.973 573.198 198C573.198 197.027 573.425 196.147 573.878 195.36C574.332 194.573 574.945 193.953 575.718 193.5C576.505 193.033 577.372 192.8 578.318 192.8C579.278 192.8 580.145 193.033 580.918 193.5C581.692 193.953 582.305 194.573 582.758 195.36C583.212 196.147 583.438 197.027 583.438 198C583.438 198.973 583.212 199.853 582.758 200.64C582.305 201.427 581.692 202.053 580.918 202.52C580.145 202.973 579.278 203.2 578.318 203.2ZM578.318 201.88C578.998 201.88 579.612 201.707 580.158 201.36C580.718 201.013 581.158 200.547 581.478 199.96C581.812 199.373 581.978 198.72 581.978 198C581.978 197.267 581.812 196.613 581.478 196.04C581.158 195.453 580.718 194.987 580.158 194.64C579.612 194.293 578.998 194.12 578.318 194.12C577.638 194.12 577.018 194.293 576.458 194.64C575.912 194.987 575.472 195.453 575.138 196.04C574.818 196.613 574.658 197.267 574.658 198C574.658 198.72 574.818 199.373 575.138 199.96C575.472 200.547 575.912 201.013 576.458 201.36C577.018 201.707 577.638 201.88 578.318 201.88ZM585.494 203V189L586.974 188.66V203H585.494ZM593.338 203.2C592.578 203.2 591.905 203.04 591.318 202.72C590.732 202.387 590.272 201.933 589.938 201.36C589.618 200.773 589.458 200.093 589.458 199.32V192.98H590.918V199.02C590.918 199.913 591.172 200.62 591.678 201.14C592.185 201.647 592.865 201.9 593.718 201.9C594.318 201.9 594.852 201.767 595.318 201.5C595.798 201.22 596.185 200.833 596.478 200.34V192.98H597.958V203H596.478V201.84C595.692 202.747 594.645 203.2 593.338 203.2ZM604.855 207.56C603.935 207.56 603.182 207.287 602.595 206.74L603.195 206.1C603.702 206.527 604.255 206.74 604.855 206.74C605.255 206.74 605.568 206.647 605.795 206.46C606.022 206.287 606.135 206.053 606.135 205.76C606.135 205.467 606.008 205.233 605.755 205.06C605.515 204.9 605.182 204.82 604.755 204.82H604.175L604.655 203.16C603.775 203.08 602.982 202.807 602.275 202.34C601.582 201.86 601.028 201.247 600.615 200.5C600.215 199.74 600.015 198.9 600.015 197.98C600.015 197.007 600.242 196.133 600.695 195.36C601.148 194.573 601.762 193.947 602.535 193.48C603.308 193.013 604.168 192.78 605.115 192.78C605.848 192.78 606.555 192.92 607.235 193.2C607.915 193.467 608.515 193.853 609.035 194.36L608.095 195.44C607.695 195.013 607.235 194.693 606.715 194.48C606.208 194.253 605.682 194.14 605.135 194.14C604.455 194.14 603.835 194.313 603.275 194.66C602.728 194.993 602.288 195.453 601.955 196.04C601.635 196.613 601.475 197.26 601.475 197.98C601.475 198.7 601.635 199.353 601.955 199.94C602.288 200.527 602.735 200.993 603.295 201.34C603.855 201.673 604.475 201.84 605.155 201.84C605.702 201.84 606.215 201.733 606.695 201.52C607.188 201.307 607.648 200.993 608.075 200.58L608.995 201.58C608.515 202.033 607.975 202.4 607.375 202.68C606.788 202.947 606.168 203.107 605.515 203.16L605.255 204.1C605.842 204.127 606.302 204.287 606.635 204.58C606.982 204.873 607.155 205.26 607.155 205.74C607.155 206.273 606.935 206.707 606.495 207.04C606.068 207.387 605.522 207.56 604.855 207.56ZM615.096 203.2C614.149 203.2 613.282 202.973 612.496 202.52C611.722 202.053 611.109 201.427 610.656 200.64C610.202 199.853 609.976 198.973 609.976 198C609.976 197.027 610.202 196.147 610.656 195.36C611.109 194.573 611.722 193.953 612.496 193.5C613.282 193.033 614.149 192.8 615.096 192.8C616.056 192.8 616.922 193.033 617.696 193.5C618.469 193.953 619.082 194.573 619.536 195.36C619.989 196.147 620.216 197.027 620.216 198C620.216 198.973 619.989 199.853 619.536 200.64C619.082 201.427 618.469 202.053 617.696 202.52C616.922 202.973 616.056 203.2 615.096 203.2ZM615.096 201.88C615.776 201.88 616.389 201.707 616.936 201.36C617.496 201.013 617.936 200.547 618.256 199.96C618.589 199.373 618.756 198.72 618.756 198C618.756 197.267 618.589 196.613 618.256 196.04C617.936 195.453 617.496 194.987 616.936 194.64C616.389 194.293 615.776 194.12 615.096 194.12C614.416 194.12 613.796 194.293 613.236 194.64C612.689 194.987 612.249 195.453 611.916 196.04C611.596 196.613 611.436 197.267 611.436 198C611.436 198.72 611.596 199.373 611.916 199.96C612.249 200.547 612.689 201.013 613.236 201.36C613.796 201.707 614.416 201.88 615.096 201.88ZM612.776 191.1L611.736 190.9C612.029 189.567 612.656 188.9 613.616 188.9C613.976 188.9 614.322 188.993 614.656 189.18C615.002 189.353 615.329 189.533 615.636 189.72C615.942 189.907 616.236 190 616.516 190C616.742 190 616.922 189.913 617.056 189.74C617.202 189.567 617.322 189.273 617.416 188.86L618.436 189.06C618.302 189.727 618.076 190.227 617.756 190.56C617.436 190.893 617.036 191.06 616.556 191.06C616.209 191.06 615.862 190.967 615.516 190.78C615.182 190.593 614.856 190.413 614.536 190.24C614.229 190.053 613.936 189.96 613.656 189.96C613.416 189.96 613.229 190.047 613.096 190.22C612.962 190.393 612.856 190.687 612.776 191.1ZM626.972 203.18C626.012 203.18 625.138 202.953 624.352 202.5C623.578 202.033 622.958 201.407 622.492 200.62C622.038 199.833 621.812 198.953 621.812 197.98C621.812 197.02 622.032 196.153 622.472 195.38C622.912 194.593 623.505 193.973 624.252 193.52C624.998 193.053 625.832 192.82 626.752 192.82C627.645 192.82 628.445 193.053 629.152 193.52C629.872 193.973 630.438 194.593 630.852 195.38C631.278 196.153 631.492 197.02 631.492 197.98V198.44H623.272C623.352 199.093 623.558 199.68 623.892 200.2C624.238 200.72 624.685 201.133 625.232 201.44C625.778 201.733 626.378 201.88 627.032 201.88C627.552 201.88 628.058 201.8 628.552 201.64C629.045 201.48 629.458 201.253 629.792 200.96L630.712 201.94C630.152 202.353 629.565 202.667 628.952 202.88C628.352 203.08 627.692 203.18 626.972 203.18ZM623.312 197.26H630.012C629.932 196.66 629.732 196.127 629.412 195.66C629.105 195.18 628.718 194.807 628.252 194.54C627.785 194.26 627.272 194.12 626.712 194.12C626.138 194.12 625.612 194.253 625.132 194.52C624.652 194.787 624.252 195.16 623.932 195.64C623.612 196.107 623.405 196.647 623.312 197.26ZM636.858 203.2C636.032 203.2 635.252 203.067 634.518 202.8C633.798 202.52 633.172 202.133 632.638 201.64L633.538 200.68C634.005 201.107 634.518 201.44 635.078 201.68C635.638 201.907 636.212 202.02 636.798 202.02C637.598 202.02 638.252 201.853 638.758 201.52C639.265 201.187 639.518 200.753 639.518 200.22C639.518 199.78 639.365 199.44 639.058 199.2C638.765 198.947 638.298 198.773 637.658 198.68L635.918 198.44C634.918 198.293 634.172 197.993 633.678 197.54C633.198 197.087 632.958 196.473 632.958 195.7C632.958 195.14 633.118 194.64 633.438 194.2C633.758 193.76 634.198 193.413 634.758 193.16C635.332 192.907 635.985 192.78 636.718 192.78C637.452 192.78 638.138 192.887 638.778 193.1C639.418 193.313 640.045 193.647 640.658 194.1L639.878 195.1C639.318 194.713 638.772 194.433 638.238 194.26C637.718 194.073 637.185 193.98 636.638 193.98C635.945 193.98 635.385 194.133 634.958 194.44C634.532 194.747 634.318 195.147 634.318 195.64C634.318 196.093 634.465 196.44 634.758 196.68C635.052 196.907 635.525 197.067 636.178 197.16L637.918 197.4C638.918 197.533 639.665 197.827 640.158 198.28C640.665 198.733 640.918 199.353 640.918 200.14C640.918 200.713 640.738 201.233 640.378 201.7C640.018 202.167 639.532 202.533 638.918 202.8C638.318 203.067 637.632 203.2 636.858 203.2ZM651.581 203.18C650.621 203.18 649.748 202.953 648.961 202.5C648.188 202.033 647.568 201.407 647.101 200.62C646.648 199.833 646.421 198.953 646.421 197.98C646.421 197.02 646.641 196.153 647.081 195.38C647.521 194.593 648.114 193.973 648.861 193.52C649.608 193.053 650.441 192.82 651.361 192.82C652.254 192.82 653.054 193.053 653.761 193.52C654.481 193.973 655.048 194.593 655.461 195.38C655.888 196.153 656.101 197.02 656.101 197.98V198.44H647.881C647.961 199.093 648.168 199.68 648.501 200.2C648.848 200.72 649.294 201.133 649.841 201.44C650.388 201.733 650.988 201.88 651.641 201.88C652.161 201.88 652.668 201.8 653.161 201.64C653.654 201.48 654.068 201.253 654.401 200.96L655.321 201.94C654.761 202.353 654.174 202.667 653.561 202.88C652.961 203.08 652.301 203.18 651.581 203.18ZM647.921 197.26H654.621C654.541 196.66 654.341 196.127 654.021 195.66C653.714 195.18 653.328 194.807 652.861 194.54C652.394 194.26 651.881 194.12 651.321 194.12C650.748 194.12 650.221 194.253 649.741 194.52C649.261 194.787 648.861 195.16 648.541 195.64C648.221 196.107 648.014 196.647 647.921 197.26ZM658.17 203V192.98H659.65V194.08C660.41 193.213 661.39 192.78 662.59 192.78C663.297 192.78 663.923 192.947 664.47 193.28C665.017 193.6 665.443 194.04 665.75 194.6C666.163 193.987 666.657 193.533 667.23 193.24C667.803 192.933 668.457 192.78 669.19 192.78C669.923 192.78 670.563 192.947 671.11 193.28C671.657 193.6 672.083 194.053 672.39 194.64C672.71 195.213 672.87 195.887 672.87 196.66V203H671.41V196.96C671.41 196.067 671.177 195.367 670.71 194.86C670.243 194.34 669.61 194.08 668.81 194.08C668.263 194.08 667.763 194.22 667.31 194.5C666.857 194.767 666.47 195.173 666.15 195.72C666.177 195.867 666.197 196.02 666.21 196.18C666.237 196.327 666.25 196.487 666.25 196.66V203H664.79V196.96C664.79 196.067 664.557 195.367 664.09 194.86C663.623 194.34 662.997 194.08 662.21 194.08C661.677 194.08 661.19 194.207 660.75 194.46C660.323 194.7 659.957 195.06 659.65 195.54V203H658.17ZM679.655 203V192.98H681.135V194.16C681.921 193.24 682.975 192.78 684.295 192.78C685.055 192.78 685.721 192.947 686.295 193.28C686.881 193.6 687.335 194.053 687.655 194.64C687.988 195.213 688.155 195.887 688.155 196.66V203H686.695V196.96C686.695 196.067 686.441 195.367 685.935 194.86C685.441 194.34 684.761 194.08 683.895 194.08C683.295 194.08 682.761 194.213 682.295 194.48C681.828 194.747 681.441 195.127 681.135 195.62V203H679.655ZM694.373 203.2C693.613 203.2 692.94 203.04 692.353 202.72C691.767 202.387 691.307 201.933 690.973 201.36C690.653 200.773 690.493 200.093 690.493 199.32V192.98H691.953V199.02C691.953 199.913 692.207 200.62 692.713 201.14C693.22 201.647 693.9 201.9 694.753 201.9C695.353 201.9 695.887 201.767 696.353 201.5C696.833 201.22 697.22 200.833 697.513 200.34V192.98H698.993V203H697.513V201.84C696.727 202.747 695.68 203.2 694.373 203.2ZM704.69 203L700.35 192.98H701.99L705.41 201.08L708.83 192.98H710.41L706.09 203H704.69ZM716.171 203.18C715.211 203.18 714.338 202.953 713.551 202.5C712.778 202.033 712.158 201.407 711.691 200.62C711.238 199.833 711.011 198.953 711.011 197.98C711.011 197.02 711.231 196.153 711.671 195.38C712.111 194.593 712.704 193.973 713.451 193.52C714.198 193.053 715.031 192.82 715.951 192.82C716.844 192.82 717.644 193.053 718.351 193.52C719.071 193.973 719.638 194.593 720.051 195.38C720.478 196.153 720.691 197.02 720.691 197.98V198.44H712.471C712.551 199.093 712.758 199.68 713.091 200.2C713.438 200.72 713.884 201.133 714.431 201.44C714.978 201.733 715.578 201.88 716.231 201.88C716.751 201.88 717.258 201.8 717.751 201.64C718.244 201.48 718.658 201.253 718.991 200.96L719.911 201.94C719.351 202.353 718.764 202.667 718.151 202.88C717.551 203.08 716.891 203.18 716.171 203.18ZM712.511 197.26H719.211C719.131 196.66 718.931 196.127 718.611 195.66C718.304 195.18 717.918 194.807 717.451 194.54C716.984 194.26 716.471 194.12 715.911 194.12C715.338 194.12 714.811 194.253 714.331 194.52C713.851 194.787 713.451 195.16 713.131 195.64C712.811 196.107 712.604 196.647 712.511 197.26ZM722.76 203V192.98H724.24V194.08C725 193.213 725.98 192.78 727.18 192.78C727.887 192.78 728.513 192.947 729.06 193.28C729.607 193.6 730.033 194.04 730.34 194.6C730.753 193.987 731.247 193.533 731.82 193.24C732.393 192.933 733.047 192.78 733.78 192.78C734.513 192.78 735.153 192.947 735.7 193.28C736.247 193.6 736.673 194.053 736.98 194.64C737.3 195.213 737.46 195.887 737.46 196.66V203H736V196.96C736 196.067 735.767 195.367 735.3 194.86C734.833 194.34 734.2 194.08 733.4 194.08C732.853 194.08 732.353 194.22 731.9 194.5C731.447 194.767 731.06 195.173 730.74 195.72C730.767 195.867 730.787 196.02 730.8 196.18C730.827 196.327 730.84 196.487 730.84 196.66V203H729.38V196.96C729.38 196.067 729.147 195.367 728.68 194.86C728.213 194.34 727.587 194.08 726.8 194.08C726.267 194.08 725.78 194.207 725.34 194.46C724.913 194.7 724.547 195.06 724.24 195.54V203H722.76ZM748.944 203.18C747.984 203.18 747.111 202.953 746.324 202.5C745.551 202.033 744.931 201.407 744.464 200.62C744.011 199.833 743.784 198.953 743.784 197.98C743.784 197.02 744.004 196.153 744.444 195.38C744.884 194.593 745.478 193.973 746.224 193.52C746.971 193.053 747.804 192.82 748.724 192.82C749.618 192.82 750.418 193.053 751.124 193.52C751.844 193.973 752.411 194.593 752.824 195.38C753.251 196.153 753.464 197.02 753.464 197.98V198.44H745.244C745.324 199.093 745.531 199.68 745.864 200.2C746.211 200.72 746.658 201.133 747.204 201.44C747.751 201.733 748.351 201.88 749.004 201.88C749.524 201.88 750.031 201.8 750.524 201.64C751.018 201.48 751.431 201.253 751.764 200.96L752.684 201.94C752.124 202.353 751.538 202.667 750.924 202.88C750.324 203.08 749.664 203.18 748.944 203.18ZM745.284 197.26H751.984C751.904 196.66 751.704 196.127 751.384 195.66C751.078 195.18 750.691 194.807 750.224 194.54C749.758 194.26 749.244 194.12 748.684 194.12C748.111 194.12 747.584 194.253 747.104 194.52C746.624 194.787 746.224 195.16 745.904 195.64C745.584 196.107 745.378 196.647 745.284 197.26ZM759.83 203V192.98H761.31V194.08C762.07 193.213 763.05 192.78 764.25 192.78C764.957 192.78 765.584 192.947 766.13 193.28C766.677 193.6 767.104 194.04 767.41 194.6C767.824 193.987 768.317 193.533 768.89 193.24C769.464 192.933 770.117 192.78 770.85 192.78C771.584 192.78 772.224 192.947 772.77 193.28C773.317 193.6 773.744 194.053 774.05 194.64C774.37 195.213 774.53 195.887 774.53 196.66V203H773.07V196.96C773.07 196.067 772.837 195.367 772.37 194.86C771.904 194.34 771.27 194.08 770.47 194.08C769.924 194.08 769.424 194.22 768.97 194.5C768.517 194.767 768.13 195.173 767.81 195.72C767.837 195.867 767.857 196.02 767.87 196.18C767.897 196.327 767.91 196.487 767.91 196.66V203H766.45V196.96C766.45 196.067 766.217 195.367 765.75 194.86C765.284 194.34 764.657 194.08 763.87 194.08C763.337 194.08 762.85 194.207 762.41 194.46C761.984 194.7 761.617 195.06 761.31 195.54V203H759.83ZM780.178 203.18C779.444 203.18 778.798 203.053 778.238 202.8C777.691 202.547 777.258 202.193 776.938 201.74C776.631 201.287 776.478 200.76 776.478 200.16C776.478 199.213 776.838 198.467 777.558 197.92C778.278 197.373 779.251 197.1 780.478 197.1C781.558 197.1 782.538 197.327 783.418 197.78V196.46C783.418 195.66 783.191 195.06 782.738 194.66C782.284 194.247 781.624 194.04 780.758 194.04C780.264 194.04 779.764 194.113 779.258 194.26C778.764 194.393 778.218 194.613 777.618 194.92L777.058 193.78C777.778 193.433 778.444 193.18 779.058 193.02C779.671 192.86 780.284 192.78 780.898 192.78C782.164 192.78 783.138 193.08 783.818 193.68C784.511 194.28 784.858 195.14 784.858 196.26V203H783.418V202.02C782.964 202.407 782.464 202.7 781.918 202.9C781.384 203.087 780.804 203.18 780.178 203.18ZM777.898 200.12C777.898 200.68 778.131 201.14 778.598 201.5C779.078 201.847 779.691 202.02 780.438 202.02C781.038 202.02 781.584 201.927 782.078 201.74C782.571 201.553 783.018 201.26 783.418 200.86V198.98C783.004 198.7 782.564 198.5 782.098 198.38C781.631 198.247 781.104 198.18 780.518 198.18C779.718 198.18 779.078 198.36 778.598 198.72C778.131 199.067 777.898 199.533 777.898 200.12ZM787.33 203V192.98H788.81V203H787.33ZM788.07 191.06C787.804 191.06 787.57 190.96 787.37 190.76C787.17 190.56 787.07 190.327 787.07 190.06C787.07 189.78 787.17 189.547 787.37 189.36C787.57 189.16 787.804 189.06 788.07 189.06C788.35 189.06 788.584 189.16 788.77 189.36C788.97 189.547 789.07 189.78 789.07 190.06C789.07 190.327 788.97 190.56 788.77 190.76C788.584 190.96 788.35 191.06 788.07 191.06ZM794.534 203.2C793.708 203.2 792.928 203.067 792.194 202.8C791.474 202.52 790.848 202.133 790.314 201.64L791.214 200.68C791.681 201.107 792.194 201.44 792.754 201.68C793.314 201.907 793.888 202.02 794.474 202.02C795.274 202.02 795.928 201.853 796.434 201.52C796.941 201.187 797.194 200.753 797.194 200.22C797.194 199.78 797.041 199.44 796.734 199.2C796.441 198.947 795.974 198.773 795.334 198.68L793.594 198.44C792.594 198.293 791.848 197.993 791.354 197.54C790.874 197.087 790.634 196.473 790.634 195.7C790.634 195.14 790.794 194.64 791.114 194.2C791.434 193.76 791.874 193.413 792.434 193.16C793.008 192.907 793.661 192.78 794.394 192.78C795.128 192.78 795.814 192.887 796.454 193.1C797.094 193.313 797.721 193.647 798.334 194.1L797.554 195.1C796.994 194.713 796.448 194.433 795.914 194.26C795.394 194.073 794.861 193.98 794.314 193.98C793.621 193.98 793.061 194.133 792.634 194.44C792.208 194.747 791.994 195.147 791.994 195.64C791.994 196.093 792.141 196.44 792.434 196.68C792.728 196.907 793.201 197.067 793.854 197.16L795.594 197.4C796.594 197.533 797.341 197.827 797.834 198.28C798.341 198.733 798.594 199.353 798.594 200.14C798.594 200.713 798.414 201.233 798.054 201.7C797.694 202.167 797.208 202.533 796.594 202.8C795.994 203.067 795.308 203.2 794.534 203.2Z" fill="white"/>
</g>
<defs>
<filter id="filter0_d_319_3" x="-21.406" y="118.898" width="220.624" height="222.799" filterUnits="userSpaceOnUse" color-interpolation-filters="sRGB">
<feFlood flood-opacity="0" result="BackgroundImageFix"/>
<feColorMatrix in="SourceAlpha" type="matrix" values="0 0 0 0 0 0 0 0 0 0 0 0 0 0 0 0 0 0 127 0" result="hardAlpha"/>
<feOffset/>
<feGaussianBlur stdDeviation="29"/>
<feComposite in2="hardAlpha" operator="out"/>
<feColorMatrix type="matrix" values="0 0 0 0 0 0 0 0 0 0 0 0 0 0 0 0 0 0 0.7 0"/>
<feBlend mode="normal" in2="BackgroundImageFix" result="effect1_dropShadow_319_3"/>
<feBlend mode="normal" in="SourceGraphic" in2="effect1_dropShadow_319_3" result="shape"/>
</filter>
<linearGradient id="paint0_linear_319_3" x1="825" y1="118.098" x2="-1.04059e-06" y2="118.098" gradientUnits="userSpaceOnUse">
<stop stop-opacity="0.6"/>
<stop offset="1" stop-color="#9F1111" stop-opacity="0.15"/>
</linearGradient>
<linearGradient id="paint1_linear_319_3" x1="484" y1="-46.1949" x2="422.023" y2="226.49" gradientUnits="userSpaceOnUse">
<stop stop-color="#460909"/>
<stop offset="1" stop-opacity="0.05"/>
</linearGradient>
<linearGradient id="paint2_linear_319_3" x1="-26.1098" y1="354.271" x2="219.971" y2="-12.0064" gradientUnits="userSpaceOnUse">
<stop stop-color="#AFAFAF" stop-opacity="0.5"/>
<stop offset="0.776042" stop-color="#570C0C"/>
</linearGradient>
<linearGradient id="paint3_linear_319_3" x1="188.657" y1="248.776" x2="-230.994" y2="203.25" gradientUnits="userSpaceOnUse">
<stop stop-color="#AFAFAF" stop-opacity="0.5"/>
<stop offset="0.776042" stop-color="#570C0C"/>
</linearGradient>
<linearGradient id="paint4_linear_319_3" x1="107.804" y1="333.027" x2="-67.5788" y2="-34.4123" gradientUnits="userSpaceOnUse">
<stop stop-color="#AFAFAF" stop-opacity="0.5"/>
<stop offset="0.776042" stop-color="#570C0C"/>
</linearGradient>
<linearGradient id="paint5_linear_319_3" x1="-10.6824" y1="17.1786" x2="-39.7056" y2="517.021" gradientUnits="userSpaceOnUse">
<stop stop-color="#9C1919"/>
<stop offset="1" stop-color="#2F0707"/>
</linearGradient>
<linearGradient id="paint6_linear_319_3" x1="-42.7376" y1="425.483" x2="399.945" y2="208.356" gradientUnits="userSpaceOnUse">
<stop stop-color="#9C1919"/>
<stop offset="1" stop-color="#2F0707"/>
</linearGradient>
<linearGradient id="paint7_linear_319_3" x1="-142.148" y1="212.268" x2="271.799" y2="479.504" gradientUnits="userSpaceOnUse">
<stop stop-color="#9C1919"/>
<stop offset="1" stop-color="#2F0707"/>
</linearGradient>
<linearGradient id="paint8_linear_319_3" x1="93.0858" y1="177.058" x2="58.6749" y2="298.909" gradientUnits="userSpaceOnUse">
<stop stop-color="#9C1919"/>
<stop offset="1" stop-color="#2F0707"/>
</linearGradient>
<linearGradient id="paint9_linear_319_3" x1="299.174" y1="193.309" x2="288.338" y2="247.634" gradientUnits="userSpaceOnUse">
<stop stop-color="#9C1919"/>
<stop offset="1" stop-color="#2F0707"/>
</linearGradient>
<linearGradient id="paint10_linear_319_3" x1="423.5" y1="-0.250008" x2="597.965" y2="231.473" gradientUnits="userSpaceOnUse">
<stop stop-color="#9F1111"/>
<stop offset="1" stop-color="#C21A6B"/>
</linearGradient>
<clipPath id="clip0_319_3">
<rect width="825" height="237" fill="white"/>
</clipPath>
<clipPath id="clip1_319_3">
<rect width="517.324" height="492.579" fill="white" transform="translate(378.437 298.6) rotate(154.484)"/>
</clipPath>
</defs>
</svg>
